<?xml version="1.0" encoding="UTF-8"?>
<svg width="34px" height="30px" viewBox="0 0 34 30" version="1.1" xmlns="http://www.w3.org/2000/svg" xmlns:xlink="http://www.w3.org/1999/xlink">
    <!-- Generator: Sketch 50 (54983) - http://www.bohemiancoding.com/sketch -->
    <title>我的-建议留言</title>
    <desc>Created with Sketch.</desc>
    <defs></defs>
    <g id="Page-1" stroke="none" stroke-width="1" fill="none" fill-rule="evenodd">
        <g id="新版" transform="translate(-461.000000, -14098.000000)" fill="#02F2E8" fill-rule="nonzero">
            <g id="我的-建议留言" transform="translate(461.000000, 14098.000000)">
                <g id="留言">
                    <path d="M11.7874996,13.072285 L25.5295735,13.072285 C26.0847702,13.072285 26.5365854,12.5700544 26.5365854,11.9528091 C26.5365854,11.3355639 26.0847702,10.8333333 25.5295735,10.8333333 L11.7874996,10.8333333 C11.232303,10.8333333 10.7804878,11.3355639 10.7804878,11.9528091 C10.7804878,12.5700544 11.232303,13.072285 11.7874996,13.072285 M11.7874996,20 L25.5295735,20 C26.0847702,20 26.5365854,19.4977694 26.5365854,18.8805242 C26.5365854,18.263279 26.0847702,17.7572146 25.5295735,17.7572146 L11.7874996,17.7572146 C11.232303,17.7572146 10.7804878,18.2594451 10.7804878,18.8805242 C10.7804878,19.4977694 11.232303,20 11.7874996,20" id="Shape"></path>
                    <path d="M32.1449727,4.57128489 L25.4744461,4.57128489 L25.4744461,1.73120443 C25.4744461,0.776967563 24.702149,0 23.7519207,0 L1.72252533,0 C0.772297072,0 0,0.776967563 0,1.73120443 L0,17.4591401 C0,18.4133769 0.772297072,19.1941162 1.72252533,19.1941162 L4.32713506,19.1941162 L4.32713506,24.5197385 C4.32713506,25.5343224 5.15621868,26.3640935 6.17837657,26.3640935 L13.9467765,26.3640935 L18.5881305,29.8038723 C18.7622759,29.9321096 18.9704933,30 19.1862822,30 C19.4285714,30 19.6632892,29.9132512 19.8487919,29.7510686 L23.748135,26.3640935 L32.1487585,26.3640935 C33.1709164,26.3640935 34,25.538094 34,24.5197385 L34,6.41563993 C33.9962142,5.39728439 33.1671306,4.57128489 32.1449727,4.57128489 Z M31.9859704,6.57405079 L31.9859704,24.3613276 L23.369558,24.3613276 C23.1272687,24.3613276 22.8925509,24.4480764 22.7070482,24.6064873 L19.1370671,27.7105859 L14.8780759,24.5574554 C14.7039305,24.429218 14.4957132,24.3613276 14.2799243,24.3613276 L6.33737891,24.3613276 L6.33737891,6.57405079 L31.9859704,6.57405079 Z M6.17837657,4.57128489 C5.15621868,4.57128489 4.32713506,5.39728439 4.32713506,6.41563993 L4.32713506,17.195122 L2.01024385,17.2026653 L1.98374346,2.00653759 L23.4642022,1.99522253 L23.4642022,4.57505658 L6.17837657,4.57505658 L6.17837657,4.57128489 Z" id="Shape"></path>
                </g>
            </g>
        </g>
    </g>
</svg>