<?xml version="1.0" encoding="UTF-8"?>
<svg width="18px" height="18px" viewBox="0 0 18 18" version="1.1" xmlns="http://www.w3.org/2000/svg" xmlns:xlink="http://www.w3.org/1999/xlink">
    <!-- Generator: Sketch 50 (54983) - http://www.bohemiancoding.com/sketch -->
    <title>点 赞 copy</title>
    <desc>Created with Sketch.</desc>
    <defs></defs>
    <g id="Page-1" stroke="none" stroke-width="1" fill="none" fill-rule="evenodd">
        <g id="Artboard-2" transform="translate(-1443.000000, -13991.000000)" fill="#CDCDCD" fill-rule="nonzero">
            <g id="点-赞-copy" transform="translate(1443.000000, 13991.000000)">
                <path d="M2.15655386,8.16923077 C2.45981925,8.16923077 2.69569233,7.92692308 2.69569233,7.61538462 C2.69569233,7.30384615 2.45981925,7.06153846 2.15655386,7.06153846 L0.74131539,7.06153846 C0.336961541,7.06153846 0,7.40769231 0,7.85769231 L0,17.2384615 C0,17.6538462 0.336961541,18 0.74131539,18 L2.15655386,18 C2.4261231,18 2.66199617,17.7576923 2.66199617,17.4461538 C2.66199617,17.1692308 2.4261231,16.9269231 2.15655386,16.8923077 L1.07827693,16.8923077 L1.11197309,8.20384615 L2.15655386,8.16923077 Z M17.6567847,7.33846154 C17.2524309,6.64615385 16.6459001,6.36923077 15.9382809,6.36923077 L11.5240847,6.36923077 C11.7936539,5.53846154 11.9958309,4.53461538 11.9958309,3.56538462 C11.9958309,2.94230769 11.9284386,2.35384615 11.7936539,1.76538462 C11.5577809,0.761538462 10.715377,0 9.67079623,0 C8.45773468,0 7.64902698,1.03846154 7.64902698,2.28461538 L7.64902698,2.49230769 C7.58163467,4.84615385 5.7283462,6.71538462 3.50440003,6.99230769 L3.50440003,17.9653846 L14.4556501,17.9653846 C14.860004,17.9653846 15.095877,17.8615385 15.4665347,17.6192308 C15.8034963,17.3769231 16.0730655,17.0653846 16.2415463,16.7192308 C16.2752424,16.65 16.3426347,16.5807692 16.3426347,16.4769231 L17.9600501,9.03461538 C17.9937463,8.93076923 17.9937463,8.86153846 17.9937463,8.75769231 C18.0274424,8.27307692 17.926354,7.78846154 17.6567847,7.33846154 Z" id="Shape"></path>
            </g>
        </g>
    </g>
</svg>