<?xml version="1.0" encoding="utf-8"?>
<!-- Generator: Adobe Illustrator 21.0.0, SVG Export Plug-In . SVG Version: 6.00 Build 0)  -->
<svg version="1.1" id="图层_1" xmlns="http://www.w3.org/2000/svg" xmlns:xlink="http://www.w3.org/1999/xlink" x="0px" y="0px"
	 viewBox="0 0 440 340" style="enable-background:new 0 0 440 340;" xml:space="preserve">
<style type="text/css">
	.st0{fill:#9398F1;}
	.st1{fill:#7276D3;}
	.st2{opacity:0.32;fill:#EABE96;}
	.st3{fill:#E65EA6;}
	.st4{fill:#FFFFFF;}
</style>
<path class="st0" d="M334.1,154.8c0-22.5,14-49,3.5-67.2c-10.9-18.8-41.2-19.7-60-30.6c-18.2-10.5-33.9-36.6-56.5-36.6
	S182.9,46.5,164.7,57c-18.8,10.9-49.1,11.8-60,30.6c-10.5,18.2,3.5,44.7,3.5,67.2s-14,49-3.5,67.2c10.9,18.8,41.2,19.7,60,30.6
	c18.2,10.5,33.9,36.6,56.5,36.6s38.3-26.1,56.5-36.6c18.8-10.9,49.1-11.8,60-30.6C348.1,203.8,334.1,177.3,334.1,154.8z"/>
<circle class="st1" cx="221.3" cy="154.8" r="91.4"/>
<path class="st2" d="M277.8,252.6c18.8-10.9,49.1-11.8,60-30.6c10.5-18.2-3.5-44.7-3.5-67.2s14-49,3.5-67.2
	c-1.3-2.2-2.9-4.2-4.6-5.9c-30.3,81.5-115.3,140.2-215.5,140.2c-4.3,0-8.6-0.1-12.9-0.3c0.1,0.2,0.2,0.4,0.3,0.5
	c10.9,18.8,41.2,19.7,60,30.6c18.2,10.5,33.9,36.6,56.5,36.6C243.9,289.2,259.6,263.1,277.8,252.6z"/>
<g>
	<polygon class="st3" points="222.4,211.5 222.6,205.1 220.2,205.9 220.2,210.4 	"/>
	<polygon class="st3" points="222.6,219.1 220.4,218.3 220.4,221.2 222.4,220 	"/>
	<path class="st3" d="M217.8,199c-10.2-1.2-11.8-4.1-12.1-4.3s-0.9-1.1-0.5-2.3c0.5-1.2,2.4-0.9,2.4-0.9s4.5,2.2,7.2,1.6
		c4.5-1.9,0.7-5.1,0-5.3c-0.7-0.2-10.3,0.4-10.3,0.4c-3.2,0.8-5,4.6-2.2,8.1c2.8,3.6,9.6,5.7,10.8,5.7
		C213.5,201.2,217.8,199,217.8,199z"/>
	<path class="st3" d="M224.7,204.8c6.1,3.9-1.2,7.3-1.2,7.3l3.6,2.1c7.8-4.6,2.4-10.1,2.4-10.1L224.7,204.8z"/>
	<path class="st3" d="M219.2,217.8l-2.8-1.4c-3,5.6,3,7.4,3,7.4c-0.3-0.5,0.4-2.2,0.5-2.2C216.5,219.9,219.2,217.8,219.2,217.8z"/>
	<path class="st3" d="M240.3,189.4c-1.3-1.3-3.9-1.2-3.9-1.2s-7.2-0.6-7.7-0.5c0,0-2.9,0.9-2.8,2.9c0,2,2.2,2.4,2.8,2.5
		c0.7,0.1,2.4-0.1,6-1.6c2.2-0.8,4.8,1.2,2.2,3.3c-2.9,2.8-9.2,3.7-9.2,3.7S220,200,218,201c-1.9,1-5.2,2.7-6,5.5
		c-0.8,2.8,0.5,4.8,1.2,5.6c0.7,0.7,4.9,3.6,7.5,4.5c2.6,0.9,3.3,1.8,3.5,2.1c0.2,0.3,0.7,1.5-0.6,2.5c-1.2,1-2.2,1.5-2.2,1.5
		s-1.2,1.9,1.1,1.5c2.3-0.4,4-2,4.8-4c0.8-2-1.1-4.6-2.9-5.7c-1.8-1-6.5-3.6-6.5-3.6s-5.1-3,0.3-6.1c2.4-1.6,10.5-2.5,11.5-2.8
		c1-0.3,7.1-1.5,9.9-4.7S242.4,192.3,240.3,189.4z"/>
	<path class="st3" d="M219.6,187l0.3,11.6l3.1-1.1l0.1-10.4c1-0.6,1.6-1.7,1.6-2.9c0-1.9-1.5-3.4-3.4-3.4s-3.4,1.5-3.4,3.4
		C218,185.3,218.7,186.4,219.6,187z"/>
</g>
<g>
	<path class="st4" d="M191.1,103.4c0.1,0.1,0.2,0.2,0.2,0.3c0,0-0.1,0.1-0.2,0.1h-10.9l-0.4,0.5c0,0.1-0.1,0.1-0.1,0.1
		s-0.1,0-0.1-0.1l-0.8-0.9l0.6-0.4v-9.3c0-0.3,0-1.1-0.1-2.4l1,0.9h9.4l0.6-0.8l0.9,0.8c0.1,0.1,0.2,0.2,0.2,0.2
		c0,0.1-0.1,0.1-0.2,0.1h-11v10.9h9.6l0.6-0.9L191.1,103.4z M190.7,98c0.1,0.1,0.1,0.2,0.1,0.2s-0.1,0.1-0.2,0.1h-4.8
		c-0.2,1.1-0.7,2-1.4,2.7c-0.7,0.7-1.9,1.3-3.5,1.9l-0.1-0.2c1.5-0.7,2.5-1.4,3.1-2c0.6-0.6,1-1.4,1.2-2.4h-3.3
		c-0.4,0-0.7,0.1-1,0.2l-0.4-0.6c0.5,0,0.8,0.1,1.1,0.1h3.6c0.1-0.6,0.2-1.5,0.1-2.6h-2.1c-0.6,0.9-1.2,1.6-1.7,2.1l-0.2-0.1
		c0.9-1.3,1.7-2.9,2.3-4.6l0.9,0.6c0.1,0.1,0.2,0.1,0.2,0.2s-0.1,0.1-0.2,0.1c-0.1,0-0.2,0.1-0.3,0.1c-0.1,0.1-0.2,0.2-0.3,0.4
		l-0.5,0.8h4.5l0.6-0.8l0.9,0.8c0.1,0.1,0.1,0.1,0.1,0.2s-0.1,0.1-0.2,0.1h-3.2c0,1.2-0.1,2-0.2,2.6h3.3l0.6-0.8L190.7,98z
		 M185.8,99.3c1.7,0.7,2.8,1.2,3.2,1.5c0.4,0.3,0.6,0.6,0.6,1c0,0.2,0,0.3-0.1,0.4s-0.1,0.2-0.2,0.2s-0.1,0-0.2-0.1
		c0,0-0.1-0.1-0.1-0.2c-0.4-0.7-1.4-1.6-3.2-2.7L185.8,99.3z"/>
	<path class="st4" d="M197.2,93.3c0,0.1,0.1,0.1,0.1,0.1s0,0.1-0.1,0.1l-0.4,0.2v4.5c0,0.8,0,1.3,0,1.6l0,0.9c0,0.2-0.1,0.3-0.3,0.4
		c-0.2,0.1-0.3,0.1-0.4,0.1c-0.1,0-0.1-0.1-0.1-0.2v-1.2h-1.5v1.8c0,0.2-0.1,0.3-0.3,0.4c-0.2,0.1-0.3,0.1-0.4,0.1s-0.1-0.1-0.1-0.3
		l0-1.1c0-0.4,0-1.1,0-1.9v-4.8c0-0.5,0-1.1,0-1.5l0.8,0.8h1.3l0.4-0.6L197.2,93.3z M196.1,99.5v-6.1h-1.5v6.1H196.1z M201.9,94.4
		l-0.6,0.3c0,1.3,0,2.6,0,3.9s-0.1,2.3-0.1,2.9c0,0.6-0.1,1-0.2,1.2c-0.1,0.2-0.2,0.4-0.4,0.6s-0.4,0.3-0.6,0.4
		c-0.2,0.1-0.3,0.2-0.4,0.2s-0.1-0.1-0.1-0.1c-0.1-0.2-0.2-0.4-0.5-0.6c-0.2-0.1-0.5-0.3-0.9-0.4l0-0.2c0.6,0.1,1,0.2,1.3,0.2
		c0.3,0,0.5-0.1,0.7-0.2c0.1-0.1,0.2-0.3,0.3-0.5c0-0.2,0.1-1.2,0.2-2.9c0.1-1.7,0.1-3.3,0.1-4.8h-1.4c0,2-0.2,3.5-0.3,4.7
		c-0.2,1.1-0.5,2.1-1,2.9c-0.5,0.8-1.4,1.8-2.8,2.9l-0.2-0.1c1.6-1.6,2.6-2.9,3-4.1c0.4-1.2,0.6-3.3,0.7-6.3h-0.4
		c-0.4,0-0.7,0.1-1,0.2l-0.4-0.6c0.3,0,0.7,0.1,1.1,0.1h0.7c0-1.7,0.1-2.8,0.1-3.4l1.1,0.5c0.1,0,0.1,0.1,0.1,0.1c0,0,0,0.1-0.1,0.1
		l-0.4,0.3l0,2.4h1.2l0.5-0.6l0.9,0.8C201.9,94.3,201.9,94.3,201.9,94.4C201.9,94.4,201.9,94.4,201.9,94.4z M206.1,93.8l-0.4,0.3
		v6.6c0,0.7,0,1.2,0,1.6l0,1c0,0.2-0.1,0.3-0.3,0.4s-0.3,0.1-0.4,0.1c-0.1,0-0.1-0.1-0.1-0.2V102h-1.8v1.5c0,0.1,0,0.2,0,0.2
		c0,0-0.1,0.1-0.3,0.2c-0.2,0.1-0.3,0.1-0.4,0.1c-0.1,0-0.1-0.1-0.1-0.3c0.1-0.8,0.1-1.8,0.1-3v-6.4c0-0.5,0-1.1,0-1.5l0.8,0.7h1.4
		l0.5-0.7l0.9,0.7c0.1,0.1,0.1,0.1,0.1,0.2S206.2,93.7,206.1,93.8z M205,101.7v-7.9h-1.8v7.9H205z"/>
	<path class="st4" d="M222,96.2c-0.4,0-0.7,0-1,0.1c-0.3,0.1-0.5,0.2-0.6,0.4c0,0.1-0.1,0.1-0.1,0.1c-0.1,0-0.5-0.2-1.3-0.7
		c-0.8-0.5-1.6-1.1-2.3-1.8c-0.7-0.7-1.4-1.6-1.8-2.5c0,0-0.1,0.1-0.2,0.2c-1.1,1.3-2.2,2.3-3.3,3.2s-2.3,1.6-3.6,2.3l-0.1-0.2
		c2.9-1.9,5.2-4.1,6.6-6.6l1.1,0.6c0.1,0,0.1,0.1,0.1,0.1c0,0-0.1,0.1-0.2,0.1c-0.1,0-0.2,0.1-0.3,0.1c1.7,2.5,4,4,7,4.4V96.2z
		 M220.5,99.1c0.1,0.1,0.2,0.2,0.2,0.2s-0.1,0.1-0.2,0.1H214l0.8,0.6c0.1,0,0.1,0.1,0.1,0.1s-0.1,0.1-0.2,0.1
		c-0.3,0-0.5,0.2-0.7,0.4c-1,1.1-1.9,2-2.9,2.9l7-0.3c-0.6-0.8-1.3-1.5-2.1-2.2l0.1-0.1c0.6,0.3,1.1,0.7,1.6,1
		c0.5,0.3,0.9,0.6,1.2,0.9c0.3,0.3,0.5,0.5,0.6,0.7c0.1,0.2,0.2,0.4,0.2,0.6c0,0.2,0,0.4-0.1,0.5s-0.2,0.2-0.3,0.2
		c-0.2,0-0.4-0.1-0.4-0.4c-0.1-0.3-0.2-0.6-0.5-0.9l-5.4,0.5c-1.2,0.1-2,0.2-2.3,0.4c-0.1,0-0.1,0.1-0.1,0.1s-0.1,0-0.1-0.1
		l-0.5-0.9c0.4,0,0.7-0.1,0.9-0.2c0.2-0.1,0.6-0.6,1.3-1.4c0.7-0.8,1.2-1.6,1.7-2.5h-3.9c-0.4,0-0.7,0.1-1,0.2l-0.4-0.6
		c0.5,0,0.9,0.1,1.1,0.1h9.4l0.6-0.9L220.5,99.1z M217.8,96.3c0.1,0.1,0.2,0.2,0.2,0.2c0,0.1-0.1,0.1-0.2,0.1h-5.3
		c-0.4,0-0.8,0.1-1,0.2l-0.4-0.6c0.5,0,0.9,0.1,1.1,0.1h4.3l0.6-0.8L217.8,96.3z"/>
	<path class="st4" d="M236.6,92c0.1,0.1,0.1,0.2,0.1,0.2c0,0.1-0.1,0.1-0.2,0.1h-4.4c0,0.7-0.1,1.5-0.2,2.7h2.3l0.5-0.8l1,0.8
		c0.1,0.1,0.1,0.1,0.1,0.2c0,0.1,0,0.1-0.1,0.2l-0.5,0.3v7.2c0,0.4,0,0.7-0.1,0.8c-0.1,0.2-0.3,0.4-0.6,0.5
		c-0.3,0.2-0.4,0.2-0.5,0.2c-0.1,0-0.1-0.1-0.1-0.1c0-0.3-0.2-0.5-0.4-0.7c-0.3-0.2-0.8-0.4-1.5-0.6l0-0.2c1,0.2,1.6,0.3,1.9,0.3
		c0.3,0,0.5,0,0.6-0.1c0.1-0.1,0.2-0.2,0.2-0.4v-7.4H232c-0.2,1.2-0.2,1.9-0.3,2.1c0.6,0.4,1.1,0.8,1.4,1.2c0.4,0.4,0.6,0.8,0.6,1.2
		c0,0.2-0.1,0.4-0.2,0.6c-0.1,0.1-0.2,0.2-0.3,0.2c-0.1,0-0.2,0-0.2-0.1c-0.1-0.1-0.1-0.3-0.2-0.7c-0.1-0.6-0.5-1.3-1.2-2.1
		c-0.4,1.7-1.6,3.3-3.4,4.6l-0.1-0.2c1.1-1,1.9-2,2.3-2.9c0.4-0.9,0.7-2.2,0.8-3.9h-2.8c-0.1,0.8-0.2,1.4-0.3,1.8
		c1,0.8,1.5,1.4,1.5,1.8c0,0.2-0.1,0.4-0.2,0.5c-0.1,0.2-0.2,0.2-0.3,0.2c-0.1,0-0.2,0-0.2-0.1s-0.1-0.2-0.1-0.5
		c-0.1-0.6-0.4-1.2-0.8-1.7c-0.4,1.7-1.4,3.1-3,4.2c0,0.4,0,0.8,0,1.2l0,0.9c0,0.1-0.1,0.3-0.3,0.4s-0.3,0.1-0.4,0.1
		c-0.1,0-0.1-0.1-0.1-0.2c0-0.1,0-0.4,0-0.9c0-0.5,0-1.1,0-1.8v-5c0-0.7,0-1.4-0.1-2.2l1,0.8h2.4c0.1-1.1,0.1-2,0.1-2.7h-3.6
		c-0.4,0-0.7,0.1-1,0.2l-0.4-0.6c0.5,0,0.8,0.1,1.1,0.1h11l0.6-0.9L236.6,92z M227.9,95.3h-2.6v6c0.9-0.8,1.5-1.7,1.9-2.6
		C227.5,97.9,227.8,96.7,227.9,95.3z M231.5,92.3h-2.7c0,1.1-0.1,2-0.2,2.7h2.7C231.4,93.9,231.4,93,231.5,92.3z"/>
	<path class="st4" d="M250.8,92.2l-0.5,0.3V103c0,0.4,0,0.7-0.1,0.9c-0.1,0.2-0.2,0.4-0.5,0.6c-0.2,0.2-0.4,0.2-0.6,0.2
		c0,0-0.1,0-0.1-0.1c0-0.3-0.2-0.6-0.4-0.7s-0.8-0.4-1.6-0.6l0-0.2c1,0.2,1.6,0.3,1.9,0.3s0.4,0,0.5-0.1c0.1-0.1,0.1-0.2,0.1-0.3
		V92.3h-9v4.2c0,1.7-0.1,3-0.2,4c-0.1,1-0.4,1.8-0.7,2.5c-0.4,0.7-0.9,1.3-1.7,1.9l-0.1-0.1c0.6-0.6,1-1.3,1.3-1.9
		c0.3-0.7,0.5-1.5,0.5-2.4s0.1-2.2,0.1-3.9v-3.3c0-0.9,0-1.5,0-2l0.9,0.8h8.5l0.5-0.7l1,0.7c0.1,0.1,0.1,0.1,0.1,0.1
		C250.9,92.1,250.9,92.1,250.8,92.2z M249,96.7c0.1,0.1,0.1,0.2,0.1,0.2c0,0-0.1,0.1-0.2,0.1h-6.7c-0.3,0-0.6,0.1-0.9,0.1l-0.4-0.5
		c0.4,0,0.8,0.1,1,0.1h2.8v-1.9h-1.8c-0.3,0-0.6,0.1-0.9,0.1l-0.4-0.5c0.4,0,0.8,0.1,1,0.1h2.1v-0.6c0-0.5,0-1,0-1.5l0.9,0.4
		c0.1,0.1,0.2,0.1,0.2,0.1c0,0,0,0.1-0.1,0.1l-0.3,0.3v1.2h1.5l0.5-0.7l0.8,0.8c0.1,0.1,0.2,0.2,0.2,0.2c0,0-0.1,0.1-0.2,0.1h-2.7
		v1.9h2.2l0.5-0.8L249,96.7z M247.7,98.8l-0.4,0.3v1.3c0,0.4,0,0.8,0,1.1c0,0.3,0,0.5,0,0.6s0,0.2-0.1,0.2c0,0-0.1,0.1-0.3,0.2
		s-0.2,0.1-0.3,0.1c-0.1,0-0.1-0.1-0.1-0.2v-0.8h-3.4v0.6c0,0.1,0,0.2,0,0.2s-0.1,0.1-0.2,0.1c-0.1,0.1-0.2,0.1-0.3,0.1
		c-0.1,0-0.1-0.1-0.1-0.3l0-2v-0.9c0-0.5,0-1.1,0-1.5l0.8,0.6h3l0.4-0.6l0.9,0.6c0.1,0.1,0.1,0.1,0.1,0.1
		C247.8,98.7,247.7,98.8,247.7,98.8z M246.6,101.3v-2.4h-3.4v2.4H246.6z"/>
	<path class="st4" d="M266.7,100.4c0.1,0.1,0.1,0.1,0.1,0.1s0,0-0.2,0h-5.7c0,1.3,0,2.2,0,2.7l0,1.1c0,0.2-0.1,0.3-0.3,0.4
		s-0.3,0.1-0.4,0.1c-0.1,0-0.1-0.1-0.1-0.2c0-0.1,0-0.6,0-1.3c0-0.7,0-1.6,0-2.9h-5.7c-0.4,0-0.7,0.1-1,0.2l-0.4-0.6
		c0.5,0,0.8,0.1,1.1,0.1h1.8v-2.7c0-0.7,0-1.3,0-1.8l0.9,0.7h3.4v-3.2h-3.7c-1,1.5-2,2.7-2.9,3.6l-0.2-0.1c1.6-2,2.8-4,3.6-5.9
		l1.1,0.6c0.1,0,0.1,0.1,0.1,0.1c0,0,0,0.1-0.1,0.1c-0.1,0-0.2,0.1-0.3,0.1c-0.1,0.1-0.2,0.1-0.2,0.2c-0.1,0.1-0.2,0.2-0.3,0.4
		c-0.2,0.2-0.3,0.5-0.5,0.7h7.9l0.7-0.9l0.9,1c0.1,0.1,0.1,0.1,0.1,0.2c0,0-0.1,0-0.2,0h-5.3v3.2h2.6l0.6-0.8l0.9,0.9
		c0.1,0.1,0.1,0.1,0.1,0.1c0,0-0.1,0-0.2,0h-4.1v3.5h4.2l0.7-0.8L266.7,100.4z M260.1,100.3v-3.5h-3.5v3.5H260.1z"/>
</g>
<g>
	<path class="st4" d="M147.5,157.1V133h22.9v2.6h-20.1v18.9h20.4v2.5H147.5z M153.9,144.1c-0.1-0.1-0.3-0.3-0.6-0.5
		c-0.2-0.2-0.7-0.6-1.4-1.2c1.5-1.8,2.7-3.8,3.6-6.2l2.6,0.7c-0.3,0.7-0.6,1.3-0.9,2h11.5v2.4h-6.2c0,0.5,0,1.2-0.1,2
		c0,0.6,0,1,0,1.3h7.5v2.5h-8l-0.2,0.2l-0.1,0.2c1.6,0.8,3.8,2,6.8,3.7c0.4,0.2,0.7,0.4,0.9,0.5l-1.6,2.5c-2.4-1.6-4.7-3.1-7.1-4.6
		c-1,1.8-3.4,3.3-7.2,4.7c-0.1-0.3-0.4-0.7-0.7-1.2c-0.3-0.5-0.6-0.9-0.8-1.2c4.4-1.4,6.8-3,7.3-4.9h-7.5v-2.5h7.9
		c0.1-0.4,0.1-0.9,0.1-1.6c0.1-0.7,0.1-1.2,0.1-1.6h-3.8C155.4,142.1,154.7,143.1,153.9,144.1z"/>
	<path class="st4" d="M173.5,155.9v-21.1h6.2v19.4h-4.1v1.8H173.5z M175.7,137.2v14.5h2.1v-14.5H175.7z M180.8,158
		c-0.2-0.2-0.6-0.6-1.2-1.1c-0.3-0.2-0.5-0.4-0.6-0.5c2-2.3,3-6.7,3-13.5l0.1-3.6h-1.6v-2.6h1.6l0.1-4.6h2.2l-0.1,4.6h4.1
		c0,5.6-0.1,11.5-0.2,17.7c-0.1,1.9-0.9,2.9-2.6,3c-0.6,0.1-1.3,0.1-2.1,0.1l-0.4-2.5c0.4,0,0.9,0,1.5,0c1,0,1.6-0.5,1.6-1.5
		c0.1-4.3,0.2-9,0.2-14.1h-2l-0.1,3.6C184,150.1,182.9,155.1,180.8,158z M189.8,157.2v-22.4h6.8v22.3h-2.2v-2.2H192v2.3H189.8z
		 M192,137.3v15.1h2.4v-15.1H192z"/>
	<path class="st4" d="M222.5,143.8c-0.8-0.4-1.8-1.1-3.2-1.9c-0.4-0.3-0.7-0.5-0.9-0.7v2.5h-13.6v-2.3c-1.3,0.9-2.7,1.8-4.3,2.6
		c-0.2-0.5-0.7-1.3-1.4-2.3c-0.1-0.1-0.1-0.3-0.2-0.3c5.3-2.7,9.2-5.9,11.7-9.7l3.3,0.3l-0.6,0.9c2.5,3.4,6.1,6.1,10.8,8.1
		C223.6,141.9,223.1,142.8,222.5,143.8z M199.8,149.6v-2.7h23.6v2.7h-12.7c-1.6,1.8-3.1,3.4-4.6,5c0.5,0,1.2,0,2.2-0.1
		c3.5-0.1,6.2-0.2,8.1-0.3l-2.3-2.5l2-1.6c0.7,0.7,1.8,1.9,3.2,3.4c1.3,1.2,2.3,2.2,2.9,2.8l-2.2,2c-0.5-0.7-1-1.2-1.6-1.8
		c-3.2,0-7.3,0.2-12.3,0.5c-1.2,0.1-2.3,0.2-3.2,0.4l-1.4-2.6c0.9-0.4,1.7-1,2.3-1.6c0.8-0.8,1.9-2,3.2-3.6H199.8z M211.8,135.1
		c-2,2.3-4.2,4.3-6.5,5.9h12.8C215.5,139.4,213.4,137.4,211.8,135.1z"/>
	<path class="st4" d="M242.1,157.2c-2.5,0.1-3.7-1.2-3.6-3.8v-4.9c-1.3,4-5,7.2-10.9,9.6c-0.1-0.2-0.4-0.6-0.8-1.2
		c-0.4-0.7-0.7-1.1-0.9-1.4c4.2-1.6,7.1-3.4,8.5-5.2c1.5-1.8,2.3-4.6,2.4-8.2l0.1-4.3h2.9l-0.2,4.6c0,1.4-0.1,2.7-0.4,3.8h2.2v6.6
		c-0.1,1.4,0.5,2,1.7,2h2.5c1.3,0.1,2.1-0.6,2.3-2c0.1-0.4,0.1-1.2,0.2-2.5c0.1-0.4,0.1-0.7,0.1-0.9c0.3,0.1,0.9,0.2,1.7,0.4
		c0.5,0.1,0.8,0.3,1,0.3c-0.1,1.5-0.3,2.7-0.5,3.8c-0.3,2.3-1.8,3.4-4.3,3.3H242.1z M228.8,149.3v-16.2h18.8v15.5h-2.8v-12.8h-13.2
		v13.5H228.8z"/>
	<path class="st4" d="M255.7,156.5l-1.8-2.2c0.6-0.7,0.8-1.6,0.8-2.8v-8h-2.6v-2.7h5.3v10.5c0.1-0.1,0.4-0.5,0.9-1
		c0.7-0.8,1.2-1.4,1.6-1.8c0.1,1.3,0.2,2.4,0.4,3.3C259.1,153,257.5,154.6,255.7,156.5z M257,138.7c-0.9-1.4-2.1-3-3.5-4.9l2.3-1.5
		c0.1,0.1,0.3,0.4,0.6,0.8c1.5,1.8,2.5,3.1,3.1,3.9L257,138.7z M260.3,136.3v-2.7h16.5v2.7h-5.9v7h5.2v2.6h-5.2v8.3h6.4v2.5H259
		v-2.5h2.9v-13.9h2.7v13.9h3.5v-17.9H260.3z"/>
	<path class="st4" d="M281.3,137.2v-2.4h6.6V132h2.8v2.8h5.8v2.4h-5.8v2.8h3c2.5-1.9,4.7-4.1,6.8-6.6l2.3,1.6
		c-2.1,2.3-3.8,4-5.1,4.9h6.1v2.5h-9.2c-1.2,0.9-2.5,1.8-3.9,2.6h9.9v12.9h-2.7v-1.3H286v1.3h-2.8V149c-1.2,0.5-2.4,1.1-3.6,1.6
		c-0.1-0.3-0.2-0.8-0.4-1.5c-0.2-0.7-0.4-1.1-0.5-1.4c4.4-1.4,8.2-3.1,11.5-5.1H279V140h8.9v-2.8H281.3z M297.8,147.5h-11.4
		l-0.4,0.2v2.3h11.8V147.5z M286,152.1v2.5h11.8v-2.5H286z"/>
</g>
</svg>
