<?xml version="1.0" encoding="utf-8"?>
<!-- Generator: Adobe Illustrator 21.0.0, SVG Export Plug-In . SVG Version: 6.00 Build 0)  -->
<svg version="1.1" id="图层_1" xmlns="http://www.w3.org/2000/svg" xmlns:xlink="http://www.w3.org/1999/xlink" x="0px" y="0px"
	 viewBox="0 0 440 340" style="enable-background:new 0 0 440 340;" xml:space="preserve">
<style type="text/css">
	.st0{fill:#FC7B8E;}
	.st1{fill:#F9587E;}
	.st2{opacity:0.32;fill:#EABE96;}
	.st3{fill:#9198F1;}
	.st4{fill:#FFFFFF;}
</style>
<path class="st0" d="M333.1,153.8c0-22.5,14-49,3.5-67.2c-10.9-18.8-41.2-19.7-60-30.6c-18.2-10.5-33.9-36.6-56.5-36.6
	S181.9,45.5,163.7,56c-18.8,10.9-49.1,11.8-60,30.6c-10.5,18.2,3.5,44.7,3.5,67.2s-14,49-3.5,67.2c10.9,18.8,41.2,19.7,60,30.6
	c18.2,10.5,33.9,36.6,56.5,36.6s38.3-26.1,56.5-36.6c18.8-10.9,49.1-11.8,60-30.6C347.1,202.8,333.1,176.3,333.1,153.8z"/>
<circle class="st1" cx="220.3" cy="153.8" r="91.4"/>
<path class="st2" d="M276.8,251.6c18.8-10.9,49.1-11.8,60-30.6c10.5-18.2-3.5-44.7-3.5-67.2s14-49,3.5-67.2
	c-1.3-2.2-2.9-4.2-4.6-5.9c-30.3,81.5-115.3,140.2-215.5,140.2c-4.3,0-8.6-0.1-12.9-0.3c0.1,0.2,0.2,0.4,0.3,0.5
	c10.9,18.8,41.2,19.7,60,30.6c18.2,10.5,33.9,36.6,56.5,36.6C242.9,288.2,258.6,262.1,276.8,251.6z"/>
<g>
	<polygon class="st3" points="221.4,210.5 221.6,204.1 219.2,204.9 219.2,209.4 	"/>
	<polygon class="st3" points="221.6,218.1 219.4,217.3 219.4,220.2 221.4,219 	"/>
	<path class="st3" d="M216.8,198c-10.2-1.2-11.8-4.1-12.1-4.3s-0.9-1.1-0.5-2.3c0.5-1.2,2.4-0.9,2.4-0.9s4.5,2.2,7.2,1.6
		c4.5-1.9,0.7-5.1,0-5.3c-0.7-0.2-10.3,0.4-10.3,0.4c-3.2,0.8-5,4.6-2.2,8.1c2.8,3.6,9.6,5.7,10.8,5.7
		C212.5,200.2,216.8,198,216.8,198z"/>
	<path class="st3" d="M223.7,203.8c6.1,3.9-1.2,7.3-1.2,7.3l3.6,2.1c7.8-4.6,2.4-10.1,2.4-10.1L223.7,203.8z"/>
	<path class="st3" d="M218.2,216.8l-2.8-1.4c-3,5.6,3,7.4,3,7.4c-0.3-0.5,0.4-2.2,0.5-2.2C215.5,218.9,218.2,216.8,218.2,216.8z"/>
	<path class="st3" d="M239.3,188.4c-1.3-1.3-3.9-1.2-3.9-1.2s-7.2-0.6-7.7-0.5c0,0-2.9,0.9-2.8,2.9c0,2,2.2,2.4,2.8,2.5
		c0.7,0.1,2.4-0.1,6-1.6c2.2-0.8,4.8,1.2,2.2,3.3c-2.9,2.8-9.2,3.7-9.2,3.7S219,199,217,200c-1.9,1-5.2,2.7-6,5.5
		c-0.8,2.8,0.5,4.8,1.2,5.6c0.7,0.7,4.9,3.6,7.5,4.5c2.6,0.9,3.3,1.8,3.5,2.1c0.2,0.3,0.7,1.5-0.6,2.5c-1.2,1-2.2,1.5-2.2,1.5
		s-1.2,1.9,1.1,1.5c2.3-0.4,4-2,4.8-4c0.8-2-1.1-4.6-2.9-5.7c-1.8-1-6.5-3.6-6.5-3.6s-5.1-3,0.3-6.1c2.4-1.6,10.5-2.5,11.5-2.8
		c1-0.3,7.1-1.5,9.9-4.7S241.4,191.3,239.3,188.4z"/>
	<path class="st3" d="M218.6,186l0.3,11.6l3.1-1.1l0.1-10.4c1-0.6,1.6-1.7,1.6-2.9c0-1.9-1.5-3.4-3.4-3.4s-3.4,1.5-3.4,3.4
		C217,184.3,217.7,185.4,218.6,186z"/>
</g>
<g>
	<path class="st4" d="M190.1,102.4c0.1,0.1,0.2,0.2,0.2,0.3c0,0-0.1,0.1-0.2,0.1h-10.9l-0.4,0.5c0,0.1-0.1,0.1-0.1,0.1
		s-0.1,0-0.1-0.1l-0.8-0.9l0.6-0.4v-9.3c0-0.3,0-1.1-0.1-2.4l1,0.9h9.4l0.6-0.8l0.9,0.8c0.1,0.1,0.2,0.2,0.2,0.2
		c0,0.1-0.1,0.1-0.2,0.1h-11v10.9h9.6l0.6-0.9L190.1,102.4z M189.7,97c0.1,0.1,0.1,0.2,0.1,0.2s-0.1,0.1-0.2,0.1h-4.8
		c-0.2,1.1-0.7,2-1.4,2.7c-0.7,0.7-1.9,1.3-3.5,1.9l-0.1-0.2c1.5-0.7,2.5-1.4,3.1-2c0.6-0.6,1-1.4,1.2-2.4h-3.3
		c-0.4,0-0.7,0.1-1,0.2l-0.4-0.6c0.5,0,0.8,0.1,1.1,0.1h3.6c0.1-0.6,0.2-1.5,0.1-2.6h-2.1c-0.6,0.9-1.2,1.6-1.7,2.1l-0.2-0.1
		c0.9-1.3,1.7-2.9,2.3-4.6l0.9,0.6c0.1,0.1,0.2,0.1,0.2,0.2s-0.1,0.1-0.2,0.1c-0.1,0-0.2,0.1-0.3,0.1c-0.1,0.1-0.2,0.2-0.3,0.4
		l-0.5,0.8h4.5l0.6-0.8l0.9,0.8c0.1,0.1,0.1,0.1,0.1,0.2s-0.1,0.1-0.2,0.1h-3.2c0,1.2-0.1,2-0.2,2.6h3.3l0.6-0.8L189.7,97z
		 M184.8,98.3c1.7,0.7,2.8,1.2,3.2,1.5c0.4,0.3,0.6,0.6,0.6,1c0,0.2,0,0.3-0.1,0.4s-0.1,0.2-0.2,0.2s-0.1,0-0.2-0.1
		c0,0-0.1-0.1-0.1-0.2c-0.4-0.7-1.4-1.6-3.2-2.7L184.8,98.3z"/>
	<path class="st4" d="M196.2,92.3c0,0.1,0.1,0.1,0.1,0.1s0,0.1-0.1,0.1l-0.4,0.2v4.5c0,0.8,0,1.3,0,1.6l0,0.9c0,0.2-0.1,0.3-0.3,0.4
		c-0.2,0.1-0.3,0.1-0.4,0.1c-0.1,0-0.1-0.1-0.1-0.2v-1.2h-1.5v1.8c0,0.2-0.1,0.3-0.3,0.4c-0.2,0.1-0.3,0.1-0.4,0.1s-0.1-0.1-0.1-0.3
		l0-1.1c0-0.4,0-1.1,0-1.9v-4.8c0-0.5,0-1.1,0-1.5l0.8,0.8h1.3l0.4-0.6L196.2,92.3z M195.1,98.5v-6.1h-1.5v6.1H195.1z M200.9,93.4
		l-0.6,0.3c0,1.3,0,2.6,0,3.9s-0.1,2.3-0.1,2.9c0,0.6-0.1,1-0.2,1.2c-0.1,0.2-0.2,0.4-0.4,0.6s-0.4,0.3-0.6,0.4
		c-0.2,0.1-0.3,0.2-0.4,0.2s-0.1-0.1-0.1-0.1c-0.1-0.2-0.2-0.4-0.5-0.6c-0.2-0.1-0.5-0.3-0.9-0.4l0-0.2c0.6,0.1,1,0.2,1.3,0.2
		c0.3,0,0.5-0.1,0.7-0.2c0.1-0.1,0.2-0.3,0.3-0.5c0-0.2,0.1-1.2,0.2-2.9c0.1-1.7,0.1-3.3,0.1-4.8h-1.4c0,2-0.2,3.5-0.3,4.7
		c-0.2,1.1-0.5,2.1-1,2.9c-0.5,0.8-1.4,1.8-2.8,2.9l-0.2-0.1c1.6-1.6,2.6-2.9,3-4.1c0.4-1.2,0.6-3.3,0.7-6.3h-0.4
		c-0.4,0-0.7,0.1-1,0.2l-0.4-0.6c0.3,0,0.7,0.1,1.1,0.1h0.7c0-1.7,0.1-2.8,0.1-3.4l1.1,0.5c0.1,0,0.1,0.1,0.1,0.1c0,0,0,0.1-0.1,0.1
		l-0.4,0.3l0,2.4h1.2l0.5-0.6l0.9,0.8C200.9,93.3,200.9,93.3,200.9,93.4C200.9,93.4,200.9,93.4,200.9,93.4z M205.1,92.8l-0.4,0.3
		v6.6c0,0.7,0,1.2,0,1.6l0,1c0,0.2-0.1,0.3-0.3,0.4s-0.3,0.1-0.4,0.1c-0.1,0-0.1-0.1-0.1-0.2V101h-1.8v1.5c0,0.1,0,0.2,0,0.2
		c0,0-0.1,0.1-0.3,0.2c-0.2,0.1-0.3,0.1-0.4,0.1c-0.1,0-0.1-0.1-0.1-0.3c0.1-0.8,0.1-1.8,0.1-3v-6.4c0-0.5,0-1.1,0-1.5l0.8,0.7h1.4
		l0.5-0.7l0.9,0.7c0.1,0.1,0.1,0.1,0.1,0.2S205.2,92.7,205.1,92.8z M204,100.7v-7.9h-1.8v7.9H204z"/>
	<path class="st4" d="M221,95.2c-0.4,0-0.7,0-1,0.1c-0.3,0.1-0.5,0.2-0.6,0.4c0,0.1-0.1,0.1-0.1,0.1c-0.1,0-0.5-0.2-1.3-0.7
		c-0.8-0.5-1.6-1.1-2.3-1.8c-0.7-0.7-1.4-1.6-1.8-2.5c0,0-0.1,0.1-0.2,0.2c-1.1,1.3-2.2,2.3-3.3,3.2s-2.3,1.6-3.6,2.3l-0.1-0.2
		c2.9-1.9,5.2-4.1,6.6-6.6l1.1,0.6c0.1,0,0.1,0.1,0.1,0.1c0,0-0.1,0.1-0.2,0.1c-0.1,0-0.2,0.1-0.3,0.1c1.7,2.5,4,4,7,4.4V95.2z
		 M219.5,98.1c0.1,0.1,0.2,0.2,0.2,0.2s-0.1,0.1-0.2,0.1H213l0.8,0.6c0.1,0,0.1,0.1,0.1,0.1s-0.1,0.1-0.2,0.1
		c-0.3,0-0.5,0.2-0.7,0.4c-1,1.1-1.9,2-2.9,2.9l7-0.3c-0.6-0.8-1.3-1.5-2.1-2.2l0.1-0.1c0.6,0.3,1.1,0.7,1.6,1
		c0.5,0.3,0.9,0.6,1.2,0.9c0.3,0.3,0.5,0.5,0.6,0.7c0.1,0.2,0.2,0.4,0.2,0.6c0,0.2,0,0.4-0.1,0.5s-0.2,0.2-0.3,0.2
		c-0.2,0-0.4-0.1-0.4-0.4c-0.1-0.3-0.2-0.6-0.5-0.9l-5.4,0.5c-1.2,0.1-2,0.2-2.3,0.4c-0.1,0-0.1,0.1-0.1,0.1s-0.1,0-0.1-0.1
		l-0.5-0.9c0.4,0,0.7-0.1,0.9-0.2c0.2-0.1,0.6-0.6,1.3-1.4c0.7-0.8,1.2-1.6,1.7-2.5h-3.9c-0.4,0-0.7,0.1-1,0.2l-0.4-0.6
		c0.5,0,0.9,0.1,1.1,0.1h9.4l0.6-0.9L219.5,98.1z M216.8,95.3c0.1,0.1,0.2,0.2,0.2,0.2c0,0.1-0.1,0.1-0.2,0.1h-5.3
		c-0.4,0-0.8,0.1-1,0.2l-0.4-0.6c0.5,0,0.9,0.1,1.1,0.1h4.3l0.6-0.8L216.8,95.3z"/>
	<path class="st4" d="M235.6,91c0.1,0.1,0.1,0.2,0.1,0.2c0,0.1-0.1,0.1-0.2,0.1h-4.4c0,0.7-0.1,1.5-0.2,2.7h2.3l0.5-0.8l1,0.8
		c0.1,0.1,0.1,0.1,0.1,0.2c0,0.1,0,0.1-0.1,0.2l-0.5,0.3v7.2c0,0.4,0,0.7-0.1,0.8c-0.1,0.2-0.3,0.4-0.6,0.5
		c-0.3,0.2-0.4,0.2-0.5,0.2c-0.1,0-0.1-0.1-0.1-0.1c0-0.3-0.2-0.5-0.4-0.7c-0.3-0.2-0.8-0.4-1.5-0.6l0-0.2c1,0.2,1.6,0.3,1.9,0.3
		c0.3,0,0.5,0,0.6-0.1c0.1-0.1,0.2-0.2,0.2-0.4v-7.4H231c-0.2,1.2-0.2,1.9-0.3,2.1c0.6,0.4,1.1,0.8,1.4,1.2c0.4,0.4,0.6,0.8,0.6,1.2
		c0,0.2-0.1,0.4-0.2,0.6c-0.1,0.1-0.2,0.2-0.3,0.2c-0.1,0-0.2,0-0.2-0.1c-0.1-0.1-0.1-0.3-0.2-0.7c-0.1-0.6-0.5-1.3-1.2-2.1
		c-0.4,1.7-1.6,3.3-3.4,4.6l-0.1-0.2c1.1-1,1.9-2,2.3-2.9c0.4-0.9,0.7-2.2,0.8-3.9h-2.8c-0.1,0.8-0.2,1.4-0.3,1.8
		c1,0.8,1.5,1.4,1.5,1.8c0,0.2-0.1,0.4-0.2,0.5c-0.1,0.2-0.2,0.2-0.3,0.2c-0.1,0-0.2,0-0.2-0.1s-0.1-0.2-0.1-0.5
		c-0.1-0.6-0.4-1.2-0.8-1.7c-0.4,1.7-1.4,3.1-3,4.2c0,0.4,0,0.8,0,1.2l0,0.9c0,0.1-0.1,0.3-0.3,0.4s-0.3,0.1-0.4,0.1
		c-0.1,0-0.1-0.1-0.1-0.2c0-0.1,0-0.4,0-0.9c0-0.5,0-1.1,0-1.8v-5c0-0.7,0-1.4-0.1-2.2l1,0.8h2.4c0.1-1.1,0.1-2,0.1-2.7h-3.6
		c-0.4,0-0.7,0.1-1,0.2l-0.4-0.6c0.5,0,0.8,0.1,1.1,0.1h11l0.6-0.9L235.6,91z M226.9,94.3h-2.6v6c0.9-0.8,1.5-1.7,1.9-2.6
		C226.5,96.9,226.8,95.7,226.9,94.3z M230.5,91.3h-2.7c0,1.1-0.1,2-0.2,2.7h2.7C230.4,92.9,230.4,92,230.5,91.3z"/>
	<path class="st4" d="M249.8,91.2l-0.5,0.3V102c0,0.4,0,0.7-0.1,0.9c-0.1,0.2-0.2,0.4-0.5,0.6c-0.2,0.2-0.4,0.2-0.6,0.2
		c0,0-0.1,0-0.1-0.1c0-0.3-0.2-0.6-0.4-0.7s-0.8-0.4-1.6-0.6l0-0.2c1,0.2,1.6,0.3,1.9,0.3s0.4,0,0.5-0.1c0.1-0.1,0.1-0.2,0.1-0.3
		V91.3h-9v4.2c0,1.7-0.1,3-0.2,4c-0.1,1-0.4,1.8-0.7,2.5c-0.4,0.7-0.9,1.3-1.7,1.9l-0.1-0.1c0.6-0.6,1-1.3,1.3-1.9
		c0.3-0.7,0.5-1.5,0.5-2.4s0.1-2.2,0.1-3.9v-3.3c0-0.9,0-1.5,0-2l0.9,0.8h8.5l0.5-0.7l1,0.7c0.1,0.1,0.1,0.1,0.1,0.1
		C249.9,91.1,249.9,91.1,249.8,91.2z M248,95.7c0.1,0.1,0.1,0.2,0.1,0.2c0,0-0.1,0.1-0.2,0.1h-6.7c-0.3,0-0.6,0.1-0.9,0.1l-0.4-0.5
		c0.4,0,0.8,0.1,1,0.1h2.8v-1.9h-1.8c-0.3,0-0.6,0.1-0.9,0.1l-0.4-0.5c0.4,0,0.8,0.1,1,0.1h2.1v-0.6c0-0.5,0-1,0-1.5l0.9,0.4
		c0.1,0.1,0.2,0.1,0.2,0.1c0,0,0,0.1-0.1,0.1l-0.3,0.3v1.2h1.5l0.5-0.7l0.8,0.8c0.1,0.1,0.2,0.2,0.2,0.2c0,0-0.1,0.1-0.2,0.1h-2.7
		v1.9h2.2l0.5-0.8L248,95.7z M246.7,97.8l-0.4,0.3v1.3c0,0.4,0,0.8,0,1.1c0,0.3,0,0.5,0,0.6s0,0.2-0.1,0.2c0,0-0.1,0.1-0.3,0.2
		s-0.2,0.1-0.3,0.1c-0.1,0-0.1-0.1-0.1-0.2v-0.8h-3.4v0.6c0,0.1,0,0.2,0,0.2s-0.1,0.1-0.2,0.1c-0.1,0.1-0.2,0.1-0.3,0.1
		c-0.1,0-0.1-0.1-0.1-0.3l0-2v-0.9c0-0.5,0-1.1,0-1.5l0.8,0.6h3l0.4-0.6l0.9,0.6c0.1,0.1,0.1,0.1,0.1,0.1
		C246.8,97.7,246.7,97.8,246.7,97.8z M245.6,100.3v-2.4h-3.4v2.4H245.6z"/>
	<path class="st4" d="M265.7,99.4c0.1,0.1,0.1,0.1,0.1,0.1s0,0-0.2,0h-5.7c0,1.3,0,2.2,0,2.7l0,1.1c0,0.2-0.1,0.3-0.3,0.4
		s-0.3,0.1-0.4,0.1c-0.1,0-0.1-0.1-0.1-0.2c0-0.1,0-0.6,0-1.3c0-0.7,0-1.6,0-2.9h-5.7c-0.4,0-0.7,0.1-1,0.2l-0.4-0.6
		c0.5,0,0.8,0.1,1.1,0.1h1.8v-2.7c0-0.7,0-1.3,0-1.8l0.9,0.7h3.4v-3.2h-3.7c-1,1.5-2,2.7-2.9,3.6l-0.2-0.1c1.6-2,2.8-4,3.6-5.9
		l1.1,0.6c0.1,0,0.1,0.1,0.1,0.1c0,0,0,0.1-0.1,0.1c-0.1,0-0.2,0.1-0.3,0.1c-0.1,0.1-0.2,0.1-0.2,0.2c-0.1,0.1-0.2,0.2-0.3,0.4
		c-0.2,0.2-0.3,0.5-0.5,0.7h7.9l0.7-0.9l0.9,1c0.1,0.1,0.1,0.1,0.1,0.2c0,0-0.1,0-0.2,0h-5.3v3.2h2.6l0.6-0.8l0.9,0.9
		c0.1,0.1,0.1,0.1,0.1,0.1c0,0-0.1,0-0.2,0h-4.1v3.5h4.2l0.7-0.8L265.7,99.4z M259.1,99.3v-3.5h-3.5v3.5H259.1z"/>
</g>
<g>
	<path class="st4" d="M148.8,144.2c-1.5-1.5-2.8-2.8-4.2-3.9l1.9-2c1.6,1.2,3,2.4,4.4,3.7L148.8,144.2z M148.2,156.9l-2.8-1
		c1.2-3.6,2.2-6.9,2.9-9.7c0.8,0.3,1.7,0.6,2.7,1c-0.3,1-0.8,2.7-1.5,5.1C149,154.2,148.5,155.8,148.2,156.9z M149.5,137.1
		c-1.7-1.6-3-2.9-4.1-3.8l1.8-2c1.5,1.2,2.9,2.4,4.3,3.6L149.5,137.1z M153,135.3l-0.3-2.6c6-0.1,11.3-0.4,15.9-0.8l0.3,2.5
		c-2.2,0.2-4.4,0.4-6.6,0.4v3.9h7.7v2.6h-7.7v3.9h6.1V157h-2.7v-1.5H156v1.5h-2.8v-11.6h6.1v-3.9h-7.5v-2.6h7.5V135
		C157.2,135.1,155.1,135.2,153,135.3z M156,147.9v5.2h9.7v-5.2H156z"/>
	<path class="st4" d="M171.5,142.8v-2.6h12.1v2.6h-5.3c-1.1,3.1-2.2,5.9-3.3,8.4c0.2,0,0.5,0,0.9-0.1c1.9-0.1,3.4-0.2,4.5-0.3
		c-0.6-1.6-1.2-3.2-1.9-4.7l2.3-0.9c1.2,2.7,2.2,5.2,3,7.7c1.8-2.5,2.7-6.7,2.7-12.8c0-0.1,0-0.2,0-0.4c0.1-0.3,0.1-0.5,0.1-0.7
		h-2.9v-2.6h2.9c0.1-1.6,0.1-3.4,0.1-5.4h2.7c-0.1,1.7-0.1,3.5-0.1,5.4h6.5c0,0.4,0,1.1,0,2.1c-0.1,7.1-0.2,11.9-0.3,14.1
		c-0.1,2.6-1.2,3.9-3.5,3.9c-1,0-2.3,0-3.6,0c-0.1-0.7-0.3-1.6-0.6-2.7c0.3,0,0.9,0,1.6,0c0.7,0.1,1.2,0.1,1.6,0.1
		c1.2,0,1.9-0.7,1.9-2.2c0.3-4.3,0.4-8.5,0.4-12.7h-3.9c0,0.4,0,0.8,0,1.2c0.1,7.6-1.7,13.3-5.2,17.1c-0.7-0.5-1.5-1.1-2.4-1.8
		c0.6-0.7,1.2-1.3,1.7-1.9l-1.7,0.5l-0.1-0.2c-0.1-0.3-0.1-0.5-0.2-0.7c-0.6,0.1-1.3,0.1-2.3,0.2c-1.9,0.1-3.2,0.3-4.1,0.3
		c-0.9,0.1-1.7,0.2-2.4,0.3l-1-2.3c0.6-0.4,1-1.1,1.2-1.9c1.1-2.6,2-5,2.6-7.2H171.5z M172.7,135.5v-2.7h10v2.7H172.7z"/>
	<path class="st4" d="M198.2,141.6v-2.6h3.6v-3.7c-1,0.1-2.1,0.1-3.1,0.1c0-0.2,0-0.6-0.1-1.1c-0.1-0.8-0.1-1.3-0.2-1.5
		c3.2-0.1,6.1-0.3,8.6-0.5l0.5,2.6c-0.3,0-0.9,0-1.6,0.1c-0.7,0-1.2,0-1.6,0.1v3.9h3.2v2.6h-3.2v3.6l0.7-0.9c0.7,0.6,1.7,1.5,3,2.7
		c0.2,0.1,0.3,0.3,0.4,0.3l-1.7,2c-0.8-0.8-1.7-1.7-2.5-2.6v10.4h-2.6v-10.3c-0.8,2-1.7,3.8-2.9,5.6c-0.3-1.1-0.6-2.1-1-3.1
		c1.6-2,2.9-4.6,3.8-7.8H198.2z M208.8,157l-2.3-1.8c1.8-2,3.5-4.4,5.2-7.2l2.5,1.5C212.6,152,210.8,154.4,208.8,157z M208.9,146.6
		v-14h12.8v14H208.9z M211.7,135.3v8.6h7.3v-8.6H211.7z M220.9,156.7c-0.2-0.3-0.5-0.7-0.8-1.3c-0.8-1.2-2.2-3.2-4.1-5.8l2.3-1.5
		c1.8,2.6,3.5,4.9,5,7L220.9,156.7z"/>
	<path class="st4" d="M225,138.7v-2.6h3v-5h2.5v5h2.7v2.6h-2.7v2.5c1.2,0.9,2.4,1.9,3.5,3l-1.2,2.4c-0.3-0.2-0.7-0.6-1.1-1.1
		c-0.5-0.5-0.9-0.9-1.1-1.1v12.7H228v-12.6c-0.9,2.5-1.8,4.6-2.8,6.2c-0.3-1.6-0.6-2.8-0.8-3.7c1.5-2.5,2.7-5.2,3.4-8.3H225z
		 M237.1,157.1c-0.6-1.2-1.2-2-1.7-2.5c2.4-1.2,4.3-2.5,5.8-3.9c-1.5-2-2.7-4.3-3.5-6.8c-0.3,4.8-1.9,9.1-4.8,12.8
		c-0.1-0.2-0.4-0.6-0.8-1.2c-0.4-0.5-0.7-0.9-0.9-1.2c3-3.3,4.5-8.6,4.4-16.1l0.1-3.2h-2.1v-2.6h13.2v2.8l-2.3,4.5h4.2v3
		c-1.1,3.4-2.4,6-3.8,8c1.4,1.2,3,2.4,5,3.4c-0.5,0.9-1,1.8-1.6,2.7c-2.1-1.5-3.8-2.8-5.1-4C241.5,154.2,239.5,155.6,237.1,157.1z
		 M244.1,135h-5.9v3.1c1.1,4.4,2.7,7.9,4.8,10.5c1.2-1.8,2.2-3.8,2.9-6.1h-4.1v-2.7L244.1,135z"/>
	<path class="st4" d="M253.4,157.2c-0.7-1-1.3-1.9-1.8-2.5c4.2-1.6,6.5-4.2,7-7.8c0.1-0.7,0.2-1.4,0.2-2.2h-3.9v-2.4
		c-0.7,0.7-1.5,1.3-2.3,2c-0.1-0.1-0.2-0.4-0.4-0.7c-0.5-1-0.9-1.8-1.1-2.2c3.7-2.6,6.6-6.1,8.6-10.3l2.6,1.2c-2,4.1-4.3,7.3-7,9.6
		H272c-0.1,1-0.1,2.7-0.2,5.1c-0.1,2.1-0.2,3.6-0.2,4.5c-0.1,3.3-1.7,4.9-5,4.8c-1.6,0-2.9,0-4.1,0c-0.1-1.1-0.3-2-0.5-2.7
		c0.4,0,1,0,1.9,0c1,0.1,1.8,0.1,2.3,0.1c1.7,0.1,2.5-0.8,2.6-2.7c0.1-2.3,0.2-4.4,0.2-6.3h-7.3c0,0.3,0,0.7-0.1,1.2
		c-0.1,0.6-0.1,1-0.2,1.3C261.1,151.6,258.5,154.9,253.4,157.2z M274.8,144.2c-4.5-3.1-7.7-7.1-9.5-12.2l2.5-1.1
		c1.9,4.8,4.7,8.3,8.6,10.4C276.2,141.8,275.7,142.8,274.8,144.2z"/>
	<path class="st4" d="M277.8,145.6v-2.7h11.3V140l7.3-4.9h-16.3v-2.7h20.6v3.4l-8.5,5.7v1.4H303v2.7h-10.8v7
		c0.1,2.6-1.1,3.9-3.6,3.9c-1.4,0.1-2.9,0.1-4.5,0.1c-0.1-1.1-0.3-2.1-0.5-3c0.6,0.1,1.8,0.1,3.5,0.1c1.5,0.1,2.1-0.7,2.1-2.2v-6
		H277.8z"/>
</g>
</svg>
