<?xml version="1.0" encoding="UTF-8"?>
<svg width="805px" height="191px" viewBox="0 0 805 191" version="1.1" xmlns="http://www.w3.org/2000/svg" xmlns:xlink="http://www.w3.org/1999/xlink">
    <!-- Generator: Sketch 50 (54983) - http://www.bohemiancoding.com/sketch -->
    <title>Group 12</title>
    <desc>Created with Sketch.</desc>
    <defs>
        <linearGradient x1="50%" y1="0%" x2="50%" y2="100%" id="linearGradient-1">
            <stop stop-color="#7A77F3" offset="0%"></stop>
            <stop stop-color="#4542E3" offset="100%"></stop>
        </linearGradient>
    </defs>
    <g id="Page-1" stroke="none" stroke-width="1" fill="none" fill-rule="evenodd">
        <g id="Artboard-2" transform="translate(-591.000000, -6875.000000)">
            <g id="Group-12" transform="translate(593.000000, 6876.000000)">
                <rect id="Rectangle-8" fill="#5B5DFF" x="2" y="0" width="800" height="188"></rect>
                <path d="M2,120.160369 C189.081087,120.717458 321.400164,135.282542 398.957232,163.855618 C515.292835,206.715233 802,68 802,68 C802,68 802,108 802,188 L2,188 L2,120.160369 Z" id="Path-17" fill="url(#linearGradient-1)"></path>
                <text id="Woo，Woo，鼓掌，简直就是灭霸-的存" font-family="PingFangSC-Medium, PingFang SC" font-size="30" font-weight="400" fill="#FFFFFF">
                    <tspan x="159" y="81">Woo，Woo，鼓掌，简直就是灭霸</tspan>
                    <tspan x="159" y="123">的存在！来告诉小咖是哪个杂志吧！</tspan>
                </text>
                <path d="M16.7277568,121.869293 C3.97243605,106.569485 -1.02439396,94.6301328 1.73726679,86.0512366 C12.0324012,85.1783909 19.0391415,95.45762 22.7574876,116.888924 C41.9052279,121.718016 52.8628319,124.132562 55.6302995,124.132562 C61.1091015,135.405511 50.1514975,135.930199 22.7574876,125.706627 L16.7277568,121.869293 Z" id="Path-26" fill="#FFD522"></path>
                <path d="M29.2743561,110.459659 C18.2418813,87.486553 18.2418813,76 29.2743561,76 C34.8128059,78.2471625 36.8504867,88.0530953 35.3873987,105.417798 C55.3336288,100.366922 68.0864647,98.8451772 73.6459064,100.852564 C79.279064,109.617521 67.3363697,114 37.8178237,114 C35.2144567,113.574869 33.4543086,113.172319 32.5373793,112.792351 C31.5557602,112.385577 30.4680858,111.608013 29.2743561,110.459659 Z" id="Path-31" fill="#FFD522"></path>
                <path d="M1,144 C8.83453747,125.472018 29.5012041,107.472018 63,90" id="Path-32" stroke="#FFD522" stroke-width="5"></path>
                <path d="M2.9743614,137.902648 C0.991453801,137.610022 1.06866987e-16,136.389146 0,134.240021 L0,113.022688 C4.10627519,112.585667 6.68952817,118.462181 7.74975893,130.65223 C25.5973804,132.478506 34.9011596,134.895313 35.6610966,137.902648 C37.9941855,147.377028 28.2811349,148.53722 6.52194487,141.383224 L2.9743614,137.902648 Z" id="Path-34" fill="#FFD522"></path>
                <path d="M2,161.673914 C17.7293768,144.052249 28.4925536,134.613376 34.2895305,133.357295 L40.459434,147.515604 L43.5277702,125.045241 C50.1564471,120.719677 54.4367945,118.556894 56.3688124,118.556894 L58.9968368,130.229737 L64.4273488,111.89292 C67.0193729,111.89292 69.6432434,111.89292 72.2989603,111.89292 L74.5655968,120.840039 L79.734414,109 C84.9036927,109 87.4883321,109 87.4883321,109 C87.4883321,109 87.4883321,112.185631 87.4883321,118.556894 L92.8219201,109 L100.426298,109 L100.426298,118.556894 L103.820022,111.89292 C111.039474,116.289673 114.6492,119.882758 114.6492,122.672175 L105.679578,130.229737 L114.6492,127.917087 C118,132.003799 118.8377,135.849318 117.1623,139.453643 L100.426298,145.013277 C104.680799,147.234134 110.259467,147.234134 117.1623,145.013277 C119.799555,151.884725 114.220888,156.379359 100.426298,158.497181 C104.629107,160.615003 108.469142,161.673914 111.946405,161.673914 C114.199657,170.537669 104.183256,174.969546 81.8972033,174.969546 C82.811981,179.208937 90.1195873,181.328632 103.820022,181.328632 C103.482173,183.624423 102.350932,186.181545 100.426298,189 L2,189 L2,161.673914 Z" id="Path-22" fill="#FC7089"></path>
                <path d="M39,188 C65.1473588,149.918681 82.4806921,128.918681 91,125" id="Path-24" stroke="#523BB1" stroke-width="4"></path>
                <path d="M61.2507211,157 C60.3371435,143.417578 61.9202365,134.750912 66,131" id="Path-27" stroke="#523BB1" stroke-width="2"></path>
                <path d="M73,142.812038 C82.8708583,143.702048 89.8708583,141.431369 94,136" id="Path-28" stroke="#523BB1" stroke-width="2"></path>
                <path d="M56,162 C59.2941521,161.117306 77.9170919,162.975338 81,159" id="Path-29" stroke="#523BB1" stroke-width="2"></path>
                <path d="M51,170 C47,161.028838 47,154.362172 51,150" id="Path-30" stroke="#523BB1" stroke-width="2"></path>
                <path d="M802,188 L743.495857,188 C741.207901,186.764384 740.063923,184.358112 740.063923,180.781183 L750.37953,165.109802 L734.432214,176.554901 L722.883035,153.637364 L752.393987,133.587586 L718.156699,142.619169 L715.231209,127.058544 L740.063923,116.797421 L712.410403,114.170102 C710.529866,104.922614 710.529866,99.1992461 712.410403,97 L743.495857,97 C749.427944,100.034829 752.393987,104.093106 752.393987,109.174832 L756.5,102.306511 L775.379172,109.174832 L782.450993,130.763989 L785.283116,116.797421 L802,127.058544 L802,188 Z" id="Path-23" fill="#FFD522"></path>
                <path d="M801,177 C776.681989,141.204034 758.015322,120.8707 745,116" id="Path-33" stroke="#523BB1" stroke-width="4"></path>
                <path d="M788,158 C793.385887,155.208141 794.420607,147.541474 791.104161,135" id="Path-35" stroke="#523BB1" stroke-width="2"></path>
                <path d="M779,146 C776.302836,153.202616 768.63617,153.920522 756,148.153718" id="Path-36" stroke="#523BB1" stroke-width="2"></path>
                <path d="M796,170 C788.293789,175.333333 780.293789,175.333333 772,170" id="Path-37" stroke="#523BB1" stroke-width="2"></path>
                <path d="M685.990928,0 C653.176238,50.3087271 651.43404,68.9803539 680.764334,56.0148805 C711.588111,28.2681694 727,9.59654261 727,0 L685.990928,0 Z" id="Path-39" fill="#FC7089"></path>
                <path d="M704,0 C693.583687,23.9799303 683.250354,39.646597 673,47" id="Path-40" stroke="#523BB1" stroke-width="2"></path>
                <path d="M689,30 C691.666667,32.1475814 691.666667,36.1475814 689,42" id="Path-41" stroke="#523BB1"></path>
                <path d="M695,18 C684.144136,20.5416534 677.144136,23.8749867 674,28" id="Path-42" stroke="#523BB1"></path>
                <path d="M725.396215,0 C700.907641,33.5391514 699.607493,45.9869026 721.495772,37.3432536 C744.498591,18.8454463 756,6.39769507 756,0 L725.396215,0 Z" id="Path-39" fill="#FC7089"></path>
                <path d="M739,0 C731.943788,16.3267611 724.943788,26.9934277 718,32" id="Path-40" stroke="#523BB1" stroke-width="2"></path>
                <path d="M729,20 C731.666667,21.4317209 731.666667,24.0983876 729,28" id="Path-41" stroke="#523BB1"></path>
                <path d="M733,12 C725.762757,13.7791574 721.09609,16.1124907 719,19" id="Path-42" stroke="#523BB1"></path>
            </g>
        </g>
    </g>
</svg>