<?xml version="1.0" encoding="utf-8"?>
<!-- Generator: Adobe Illustrator 21.0.0, SVG Export Plug-In . SVG Version: 6.00 Build 0)  -->
<svg version="1.1" id="图层_1" xmlns="http://www.w3.org/2000/svg" xmlns:xlink="http://www.w3.org/1999/xlink" x="0px" y="0px"
	 viewBox="0 0 440 340" style="enable-background:new 0 0 440 340;" xml:space="preserve">
<style type="text/css">
	.st0{fill:#8BC83F;}
	.st1{fill:#5B9820;}
	.st2{opacity:0.32;fill:#EABE96;}
	.st3{fill:#F7AD37;}
	.st4{fill:#FFFFFF;}
</style>
<path class="st0" d="M334.1,154.8c0-22.5,14-49,3.5-67.2c-10.9-18.8-41.2-19.7-60-30.6c-18.2-10.5-33.9-36.6-56.5-36.6
	S182.9,46.5,164.7,57c-18.8,10.9-49.1,11.8-60,30.6c-10.5,18.2,3.5,44.7,3.5,67.2s-14,49-3.5,67.2c10.9,18.8,41.2,19.7,60,30.6
	c18.2,10.5,33.9,36.6,56.5,36.6s38.3-26.1,56.5-36.6c18.8-10.9,49.1-11.8,60-30.6C348.1,203.8,334.1,177.3,334.1,154.8z"/>
<circle class="st1" cx="220.5" cy="154.8" r="91.4"/>
<path class="st2" d="M277.8,252.6c18.8-10.9,49.1-11.8,60-30.6c10.5-18.2-3.5-44.7-3.5-67.2s14-49,3.5-67.2
	c-1.3-2.2-2.9-4.2-4.6-5.9c-30.3,81.5-115.3,140.2-215.5,140.2c-4.3,0-8.6-0.1-12.9-0.3c0.1,0.2,0.2,0.4,0.3,0.5
	c10.9,18.8,41.2,19.7,60,30.6c18.2,10.5,33.9,36.6,56.5,36.6C243.9,289.2,259.6,263.1,277.8,252.6z"/>
<g>
	<polygon class="st3" points="221.6,211.5 221.8,205.1 219.4,205.9 219.4,210.4 	"/>
	<polygon class="st3" points="221.8,219.1 219.6,218.3 219.6,221.2 221.6,220 	"/>
	<path class="st3" d="M216.9,199c-10.2-1.2-11.8-4.1-12.1-4.3s-0.9-1.1-0.5-2.3c0.5-1.2,2.4-0.9,2.4-0.9s4.5,2.2,7.2,1.6
		c4.5-1.9,0.7-5.1,0-5.3c-0.7-0.2-10.3,0.4-10.3,0.4c-3.2,0.8-5,4.6-2.2,8.1c2.8,3.6,9.6,5.7,10.8,5.7
		C212.7,201.2,216.9,199,216.9,199z"/>
	<path class="st3" d="M223.8,204.8c6.1,3.9-1.2,7.3-1.2,7.3l3.6,2.1c7.8-4.6,2.4-10.1,2.4-10.1L223.8,204.8z"/>
	<path class="st3" d="M218.3,217.8l-2.8-1.4c-3,5.6,3,7.4,3,7.4c-0.3-0.5,0.4-2.2,0.5-2.2C215.7,219.9,218.3,217.8,218.3,217.8z"/>
	<path class="st3" d="M239.5,189.4c-1.3-1.3-3.9-1.2-3.9-1.2s-7.2-0.6-7.7-0.5c0,0-2.9,0.9-2.8,2.9c0,2,2.2,2.4,2.8,2.5
		c0.7,0.1,2.4-0.1,6-1.6c2.2-0.8,4.8,1.2,2.2,3.3c-2.9,2.8-9.2,3.7-9.2,3.7s-7.8,1.4-9.7,2.4c-1.9,1-5.2,2.7-6,5.5
		c-0.8,2.8,0.5,4.8,1.2,5.6c0.7,0.7,4.9,3.6,7.5,4.5c2.6,0.9,3.3,1.8,3.5,2.1c0.2,0.3,0.7,1.5-0.6,2.5c-1.2,1-2.2,1.5-2.2,1.5
		s-1.2,1.9,1.1,1.5c2.3-0.4,4-2,4.8-4c0.8-2-1.1-4.6-2.9-5.7c-1.8-1-6.5-3.6-6.5-3.6s-5.1-3,0.3-6.1c2.4-1.6,10.5-2.5,11.5-2.8
		c1-0.3,7.1-1.5,9.9-4.7S241.6,192.3,239.5,189.4z"/>
	<path class="st3" d="M218.8,187l0.3,11.6l3.1-1.1l0.1-10.4c1-0.6,1.6-1.7,1.6-2.9c0-1.9-1.5-3.4-3.4-3.4s-3.4,1.5-3.4,3.4
		C217.2,185.3,217.8,186.4,218.8,187z"/>
</g>
<g>
	<path class="st4" d="M189.1,103.4c0.1,0.1,0.2,0.2,0.2,0.3c0,0-0.1,0.1-0.2,0.1h-10.9l-0.4,0.5c0,0.1-0.1,0.1-0.1,0.1
		s-0.1,0-0.1-0.1l-0.8-0.9l0.6-0.4v-9.3c0-0.3,0-1.1-0.1-2.4l1,0.9h9.4l0.6-0.8l0.9,0.8c0.1,0.1,0.2,0.2,0.2,0.2
		c0,0.1-0.1,0.1-0.2,0.1h-11v10.9h9.6l0.6-0.9L189.1,103.4z M188.7,98c0.1,0.1,0.1,0.2,0.1,0.2s-0.1,0.1-0.2,0.1h-4.8
		c-0.2,1.1-0.7,2-1.4,2.7c-0.7,0.7-1.9,1.3-3.5,1.9l-0.1-0.2c1.5-0.7,2.5-1.4,3.1-2c0.6-0.6,1-1.4,1.2-2.4h-3.3
		c-0.4,0-0.7,0.1-1,0.2l-0.4-0.6c0.5,0,0.8,0.1,1.1,0.1h3.6c0.1-0.6,0.2-1.5,0.1-2.6h-2.1c-0.6,0.9-1.2,1.6-1.7,2.1l-0.2-0.1
		c0.9-1.3,1.7-2.9,2.3-4.6l0.9,0.6c0.1,0.1,0.2,0.1,0.2,0.2s-0.1,0.1-0.2,0.1c-0.1,0-0.2,0.1-0.3,0.1c-0.1,0.1-0.2,0.2-0.3,0.4
		l-0.5,0.8h4.5l0.6-0.8l0.9,0.8c0.1,0.1,0.1,0.1,0.1,0.2s-0.1,0.1-0.2,0.1h-3.2c0,1.2-0.1,2-0.2,2.6h3.3l0.6-0.8L188.7,98z
		 M183.8,99.3c1.7,0.7,2.8,1.2,3.2,1.5c0.4,0.3,0.6,0.6,0.6,1c0,0.2,0,0.3-0.1,0.4s-0.1,0.2-0.2,0.2s-0.1,0-0.2-0.1
		c0,0-0.1-0.1-0.1-0.2c-0.4-0.7-1.4-1.6-3.2-2.7L183.8,99.3z"/>
	<path class="st4" d="M195.2,93.3c0,0.1,0.1,0.1,0.1,0.1s0,0.1-0.1,0.1l-0.4,0.2v4.5c0,0.8,0,1.3,0,1.6l0,0.9c0,0.2-0.1,0.3-0.3,0.4
		c-0.2,0.1-0.3,0.1-0.4,0.1c-0.1,0-0.1-0.1-0.1-0.2v-1.2h-1.5v1.8c0,0.2-0.1,0.3-0.3,0.4c-0.2,0.1-0.3,0.1-0.4,0.1s-0.1-0.1-0.1-0.3
		l0-1.1c0-0.4,0-1.1,0-1.9v-4.8c0-0.5,0-1.1,0-1.5l0.8,0.8h1.3l0.4-0.6L195.2,93.3z M194.1,99.5v-6.1h-1.5v6.1H194.1z M199.9,94.4
		l-0.6,0.3c0,1.3,0,2.6,0,3.9s-0.1,2.3-0.1,2.9c0,0.6-0.1,1-0.2,1.2c-0.1,0.2-0.2,0.4-0.4,0.6s-0.4,0.3-0.6,0.4
		c-0.2,0.1-0.3,0.2-0.4,0.2s-0.1-0.1-0.1-0.1c-0.1-0.2-0.2-0.4-0.5-0.6c-0.2-0.1-0.5-0.3-0.9-0.4l0-0.2c0.6,0.1,1,0.2,1.3,0.2
		c0.3,0,0.5-0.1,0.7-0.2c0.1-0.1,0.2-0.3,0.3-0.5c0-0.2,0.1-1.2,0.2-2.9c0.1-1.7,0.1-3.3,0.1-4.8h-1.4c0,2-0.2,3.5-0.3,4.7
		c-0.2,1.1-0.5,2.1-1,2.9c-0.5,0.8-1.4,1.8-2.8,2.9l-0.2-0.1c1.6-1.6,2.6-2.9,3-4.1c0.4-1.2,0.6-3.3,0.7-6.3h-0.4
		c-0.4,0-0.7,0.1-1,0.2l-0.4-0.6c0.3,0,0.7,0.1,1.1,0.1h0.7c0-1.7,0.1-2.8,0.1-3.4l1.1,0.5c0.1,0,0.1,0.1,0.1,0.1c0,0,0,0.1-0.1,0.1
		l-0.4,0.3l0,2.4h1.2l0.5-0.6l0.9,0.8C199.9,94.3,199.9,94.3,199.9,94.4C199.9,94.4,199.9,94.4,199.9,94.4z M204.1,93.8l-0.4,0.3
		v6.6c0,0.7,0,1.2,0,1.6l0,1c0,0.2-0.1,0.3-0.3,0.4s-0.3,0.1-0.4,0.1c-0.1,0-0.1-0.1-0.1-0.2V102h-1.8v1.5c0,0.1,0,0.2,0,0.2
		c0,0-0.1,0.1-0.3,0.2c-0.2,0.1-0.3,0.1-0.4,0.1c-0.1,0-0.1-0.1-0.1-0.3c0.1-0.8,0.1-1.8,0.1-3v-6.4c0-0.5,0-1.1,0-1.5l0.8,0.7h1.4
		l0.5-0.7l0.9,0.7c0.1,0.1,0.1,0.1,0.1,0.2S204.2,93.7,204.1,93.8z M203,101.7v-7.9h-1.8v7.9H203z"/>
	<path class="st4" d="M220,96.2c-0.4,0-0.7,0-1,0.1c-0.3,0.1-0.5,0.2-0.6,0.4c0,0.1-0.1,0.1-0.1,0.1c-0.1,0-0.5-0.2-1.3-0.7
		c-0.8-0.5-1.6-1.1-2.3-1.8c-0.7-0.7-1.4-1.6-1.8-2.5c0,0-0.1,0.1-0.2,0.2c-1.1,1.3-2.2,2.3-3.3,3.2s-2.3,1.6-3.6,2.3l-0.1-0.2
		c2.9-1.9,5.2-4.1,6.6-6.6l1.1,0.6c0.1,0,0.1,0.1,0.1,0.1c0,0-0.1,0.1-0.2,0.1c-0.1,0-0.2,0.1-0.3,0.1c1.7,2.5,4,4,7,4.4V96.2z
		 M218.5,99.1c0.1,0.1,0.2,0.2,0.2,0.2s-0.1,0.1-0.2,0.1H212l0.8,0.6c0.1,0,0.1,0.1,0.1,0.1s-0.1,0.1-0.2,0.1
		c-0.3,0-0.5,0.2-0.7,0.4c-1,1.1-1.9,2-2.9,2.9l7-0.3c-0.6-0.8-1.3-1.5-2.1-2.2l0.1-0.1c0.6,0.3,1.1,0.7,1.6,1
		c0.5,0.3,0.9,0.6,1.2,0.9c0.3,0.3,0.5,0.5,0.6,0.7c0.1,0.2,0.2,0.4,0.2,0.6c0,0.2,0,0.4-0.1,0.5s-0.2,0.2-0.3,0.2
		c-0.2,0-0.4-0.1-0.4-0.4c-0.1-0.3-0.2-0.6-0.5-0.9l-5.4,0.5c-1.2,0.1-2,0.2-2.3,0.4c-0.1,0-0.1,0.1-0.1,0.1s-0.1,0-0.1-0.1
		l-0.5-0.9c0.4,0,0.7-0.1,0.9-0.2c0.2-0.1,0.6-0.6,1.3-1.4c0.7-0.8,1.2-1.6,1.7-2.5h-3.9c-0.4,0-0.7,0.1-1,0.2l-0.4-0.6
		c0.5,0,0.9,0.1,1.1,0.1h9.4l0.6-0.9L218.5,99.1z M215.8,96.3c0.1,0.1,0.2,0.2,0.2,0.2c0,0.1-0.1,0.1-0.2,0.1h-5.3
		c-0.4,0-0.8,0.1-1,0.2l-0.4-0.6c0.5,0,0.9,0.1,1.1,0.1h4.3l0.6-0.8L215.8,96.3z"/>
	<path class="st4" d="M234.6,92c0.1,0.1,0.1,0.2,0.1,0.2c0,0.1-0.1,0.1-0.2,0.1h-4.4c0,0.7-0.1,1.5-0.2,2.7h2.3l0.5-0.8l1,0.8
		c0.1,0.1,0.1,0.1,0.1,0.2c0,0.1,0,0.1-0.1,0.2l-0.5,0.3v7.2c0,0.4,0,0.7-0.1,0.8c-0.1,0.2-0.3,0.4-0.6,0.5
		c-0.3,0.2-0.4,0.2-0.5,0.2c-0.1,0-0.1-0.1-0.1-0.1c0-0.3-0.2-0.5-0.4-0.7c-0.3-0.2-0.8-0.4-1.5-0.6l0-0.2c1,0.2,1.6,0.3,1.9,0.3
		c0.3,0,0.5,0,0.6-0.1c0.1-0.1,0.2-0.2,0.2-0.4v-7.4H230c-0.2,1.2-0.2,1.9-0.3,2.1c0.6,0.4,1.1,0.8,1.4,1.2c0.4,0.4,0.6,0.8,0.6,1.2
		c0,0.2-0.1,0.4-0.2,0.6c-0.1,0.1-0.2,0.2-0.3,0.2c-0.1,0-0.2,0-0.2-0.1c-0.1-0.1-0.1-0.3-0.2-0.7c-0.1-0.6-0.5-1.3-1.2-2.1
		c-0.4,1.7-1.6,3.3-3.4,4.6l-0.1-0.2c1.1-1,1.9-2,2.3-2.9c0.4-0.9,0.7-2.2,0.8-3.9h-2.8c-0.1,0.8-0.2,1.4-0.3,1.8
		c1,0.8,1.5,1.4,1.5,1.8c0,0.2-0.1,0.4-0.2,0.5c-0.1,0.2-0.2,0.2-0.3,0.2c-0.1,0-0.2,0-0.2-0.1s-0.1-0.2-0.1-0.5
		c-0.1-0.6-0.4-1.2-0.8-1.7c-0.4,1.7-1.4,3.1-3,4.2c0,0.4,0,0.8,0,1.2l0,0.9c0,0.1-0.1,0.3-0.3,0.4s-0.3,0.1-0.4,0.1
		c-0.1,0-0.1-0.1-0.1-0.2c0-0.1,0-0.4,0-0.9c0-0.5,0-1.1,0-1.8v-5c0-0.7,0-1.4-0.1-2.2l1,0.8h2.4c0.1-1.1,0.1-2,0.1-2.7h-3.6
		c-0.4,0-0.7,0.1-1,0.2l-0.4-0.6c0.5,0,0.8,0.1,1.1,0.1h11l0.6-0.9L234.6,92z M225.9,95.3h-2.6v6c0.9-0.8,1.5-1.7,1.9-2.6
		C225.5,97.9,225.8,96.7,225.9,95.3z M229.5,92.3h-2.7c0,1.1-0.1,2-0.2,2.7h2.7C229.4,93.9,229.4,93,229.5,92.3z"/>
	<path class="st4" d="M248.8,92.2l-0.5,0.3V103c0,0.4,0,0.7-0.1,0.9c-0.1,0.2-0.2,0.4-0.5,0.6c-0.2,0.2-0.4,0.2-0.6,0.2
		c0,0-0.1,0-0.1-0.1c0-0.3-0.2-0.6-0.4-0.7s-0.8-0.4-1.6-0.6l0-0.2c1,0.2,1.6,0.3,1.9,0.3s0.4,0,0.5-0.1c0.1-0.1,0.1-0.2,0.1-0.3
		V92.3h-9v4.2c0,1.7-0.1,3-0.2,4c-0.1,1-0.4,1.8-0.7,2.5c-0.4,0.7-0.9,1.3-1.7,1.9l-0.1-0.1c0.6-0.6,1-1.3,1.3-1.9
		c0.3-0.7,0.5-1.5,0.5-2.4s0.1-2.2,0.1-3.9v-3.3c0-0.9,0-1.5,0-2l0.9,0.8h8.5l0.5-0.7l1,0.7c0.1,0.1,0.1,0.1,0.1,0.1
		C248.9,92.1,248.9,92.1,248.8,92.2z M247,96.7c0.1,0.1,0.1,0.2,0.1,0.2c0,0-0.1,0.1-0.2,0.1h-6.7c-0.3,0-0.6,0.1-0.9,0.1l-0.4-0.5
		c0.4,0,0.8,0.1,1,0.1h2.8v-1.9h-1.8c-0.3,0-0.6,0.1-0.9,0.1l-0.4-0.5c0.4,0,0.8,0.1,1,0.1h2.1v-0.6c0-0.5,0-1,0-1.5l0.9,0.4
		c0.1,0.1,0.2,0.1,0.2,0.1c0,0,0,0.1-0.1,0.1l-0.3,0.3v1.2h1.5l0.5-0.7l0.8,0.8c0.1,0.1,0.2,0.2,0.2,0.2c0,0-0.1,0.1-0.2,0.1h-2.7
		v1.9h2.2l0.5-0.8L247,96.7z M245.7,98.8l-0.4,0.3v1.3c0,0.4,0,0.8,0,1.1c0,0.3,0,0.5,0,0.6s0,0.2-0.1,0.2c0,0-0.1,0.1-0.3,0.2
		s-0.2,0.1-0.3,0.1c-0.1,0-0.1-0.1-0.1-0.2v-0.8h-3.4v0.6c0,0.1,0,0.2,0,0.2s-0.1,0.1-0.2,0.1c-0.1,0.1-0.2,0.1-0.3,0.1
		c-0.1,0-0.1-0.1-0.1-0.3l0-2v-0.9c0-0.5,0-1.1,0-1.5l0.8,0.6h3l0.4-0.6l0.9,0.6c0.1,0.1,0.1,0.1,0.1,0.1
		C245.8,98.7,245.7,98.8,245.7,98.8z M244.6,101.3v-2.4h-3.4v2.4H244.6z"/>
	<path class="st4" d="M264.7,100.4c0.1,0.1,0.1,0.1,0.1,0.1s0,0-0.2,0h-5.7c0,1.3,0,2.2,0,2.7l0,1.1c0,0.2-0.1,0.3-0.3,0.4
		s-0.3,0.1-0.4,0.1c-0.1,0-0.1-0.1-0.1-0.2c0-0.1,0-0.6,0-1.3c0-0.7,0-1.6,0-2.9h-5.7c-0.4,0-0.7,0.1-1,0.2l-0.4-0.6
		c0.5,0,0.8,0.1,1.1,0.1h1.8v-2.7c0-0.7,0-1.3,0-1.8l0.9,0.7h3.4v-3.2h-3.7c-1,1.5-2,2.7-2.9,3.6l-0.2-0.1c1.6-2,2.8-4,3.6-5.9
		l1.1,0.6c0.1,0,0.1,0.1,0.1,0.1c0,0,0,0.1-0.1,0.1c-0.1,0-0.2,0.1-0.3,0.1c-0.1,0.1-0.2,0.1-0.2,0.2c-0.1,0.1-0.2,0.2-0.3,0.4
		c-0.2,0.2-0.3,0.5-0.5,0.7h7.9l0.7-0.9l0.9,1c0.1,0.1,0.1,0.1,0.1,0.2c0,0-0.1,0-0.2,0h-5.3v3.2h2.6l0.6-0.8l0.9,0.9
		c0.1,0.1,0.1,0.1,0.1,0.1c0,0-0.1,0-0.2,0h-4.1v3.5h4.2l0.7-0.8L264.7,100.4z M258.1,100.3v-3.5h-3.5v3.5H258.1z"/>
</g>
<g>
	<path class="st4" d="M171.2,149.5l3.3-0.8c0.5,3.6,2.5,5.4,5.9,5.4c3-0.1,4.6-1.3,4.8-3.8c0.2-1.7-1.2-3-4.3-3.8
		c-0.3-0.1-0.9-0.3-1.8-0.5c-0.3-0.1-0.5-0.1-0.6-0.1c-4.6-1-6.8-3.1-6.5-6.2c0.3-3.8,2.8-5.8,7.6-6c4.8-0.1,7.7,2,8.5,6.1l-3.2,0.8
		c-0.5-2.7-2.2-4-5.1-4c-2.7,0.1-4.2,1.1-4.4,3.2c-0.2,1.7,1.5,2.9,5,3.6c1.4,0.4,2.4,0.7,3.1,0.9c3.5,1.2,5.3,3.2,5.2,6.1
		c-0.1,4.2-2.9,6.3-8.2,6.5C175.2,156.7,172.1,154.3,171.2,149.5z"/>
	<path class="st4" d="M210.5,140.2l-3.2,0.9c-0.8-2.9-2.7-4.4-5.6-4.6c-4.1,0.3-6.3,3.2-6.5,8.6c0.2,5.5,2.4,8.4,6.4,8.8
		c3.3-0.1,5.3-2,6-5.7l3.2,1c-1,5-4.1,7.4-9.2,7.4c-6.3-0.4-9.6-4.2-10-11.4c0.3-7.4,3.7-11.3,10.1-11.7
		C206.1,133.6,209.1,135.9,210.5,140.2z"/>
	<path class="st4" d="M214.6,156.2v-22.4h3.2v22.4H214.6z"/>
	<path class="st4" d="M221.6,141.9v-3h10.5c0.1-1.6,0.1-3.9,0.1-6.9h3.1l-0.2,6.9h10.5v3h-10.4c0.9,6.3,4.5,10.6,10.9,13
		c-0.7,0.7-1.3,1.6-2,2.7c-5.8-2.6-9.2-6.5-10.5-11.6c-1.1,5-4.6,8.9-10.5,11.9c-0.2-0.3-0.6-0.8-1.1-1.6c-0.4-0.5-0.7-0.9-0.8-1.1
		c6.6-2.9,10.2-7.4,10.6-13.3H221.6z"/>
	<path class="st4" d="M255.8,149.1c-0.2-0.2-0.6-0.6-1.1-1.2c-0.6-0.7-1-1.1-1.2-1.4v11.6h-2.4v-10.7c-0.8,0.9-1.7,1.8-2.7,2.6
		c-0.3-0.9-0.6-1.9-0.9-3c2.8-2.3,4.7-4.7,5.8-7.4h-5.3v-2.5h8v2.6c-0.7,1.7-1.5,3.2-2.5,4.5v1.5l1.2-1.2c1,1,1.9,1.9,2.7,2.7v-10.9
		h5.9v-4.3h2.5v4.3h5.9V153h-2.5v-1.4h-3.4v6.6h-2.5v-6.6h-3.4v1.4h-2.5v-5.4L255.8,149.1z M252.2,137c-0.8-1.4-1.5-2.7-2.3-3.9
		l2.2-1.3c0.9,1.2,1.7,2.5,2.4,3.8L252.2,137z M259.9,138.8v3.9h3.4v-3.9H259.9z M259.9,145.1v3.9h3.4v-3.9H259.9z M269.2,138.8
		h-3.4v3.9h3.4V138.8z M265.8,145.1v3.9h3.4v-3.9H265.8z"/>
</g>
</svg>
