<svg xmlns="http://www.w3.org/2000/svg" viewBox="0 0 2353.6 1429.08"><defs><style>.cls-1{fill:#54cca4;}.cls-2{fill:#35d3aa;}.cls-3{fill:#915629;}.cls-4{fill:#fff;}.cls-5{fill:#573e0f;}.cls-12,.cls-6{fill:#e2e2e2;}.cls-7{fill:#754c24;}.cls-8{fill:#f2b3a2;}.cls-9{fill:#dee5e7;}.cls-10,.cls-11{fill:#c1c1c1;}.cls-10{opacity:0.9;}.cls-11{opacity:0.3;}.cls-12,.cls-19{opacity:0.8;}.cls-13{fill:#e59d89;}.cls-14{fill:#22607f;}.cls-15{fill:#ffcdbd;}.cls-16{fill:#0f1e42;}.cls-17,.cls-21,.cls-22{fill:none;stroke-miterlimit:10;}.cls-17{stroke:#1a96fb;stroke-width:21.45px;}.cls-18{fill:#1a96fb;}.cls-19,.cls-26{fill:#ed937e;}.cls-20{fill:#ff8871;}.cls-21{stroke:#a8392a;stroke-width:10.72px;}.cls-22{stroke:#22607f;stroke-width:19.3px;}.cls-23{fill:#d7f1f9;}.cls-24,.cls-26,.cls-28{opacity:0.5;}.cls-25,.cls-28{fill:#61bfff;}.cls-27{fill:#a4daff;}</style></defs><title>资源 5</title><g id="图层_2" data-name="图层 2"><g id="图层_1-2" data-name="图层 1"><rect id="_矩形_" data-name="&lt;矩形&gt;" class="cls-1" x="836.33" width="1341.77" height="1341.77" rx="66.17" ry="66.17"/><polygon id="_路径_" data-name="&lt;路径&gt;" class="cls-2" points="1407.91 669.57 1399.91 680.65 1541.42 727.66 1539.79 726.08 1550.22 716.68 1407.91 669.57"/><path id="_路径_2" data-name="&lt;路径&gt;" class="cls-2" d="M1786.13,485.27c-14,12.34-24,27.93-27.47,42.79a53.63,53.63,0,0,0-1,5.68l40.73-38.87-5.46-15.6Z"/><path id="_路径_3" data-name="&lt;路径&gt;" class="cls-2" d="M1790.84,757.28,1777.66,726l-30.41,15.82c-1.47.76-2.88.46-3.16-.69l-2.05-8.45c-.28-1.14.69-2.69,2.15-3.45l28.57-14.86-3.7-8.78c-.29-.68-.55-1.38-.82-2.07l-28.53,14.84c-1.47.76-2.88.46-3.16-.69l-2.05-8.45c-.28-1.14.69-2.69,2.15-3.45L1764,691.51a169.46,169.46,0,0,1-6.77-34.16L1673,732.8l120.6,39.93a25.18,25.18,0,0,0-1.59-12.56Z"/><path id="_路径_4" data-name="&lt;路径&gt;" class="cls-2" d="M1894.29,443.89l.07,0-.08,0Z"/><path id="_路径_5" data-name="&lt;路径&gt;" class="cls-2" d="M1894.54,425.36l10.18,15-.48.47h0a56.31,56.31,0,0,1,26.16-2.31l16.4,2.31C1936.54,426.7,1917.7,421,1894.54,425.36Z"/><g id="_编组_" data-name="&lt;编组&gt;"><path id="_路径_6" data-name="&lt;路径&gt;" class="cls-3" d="M1051.51,1273.58l-58.85,22.88a86.11,86.11,0,0,1-40.07,5.39l-33.65-3.58c-7.06-.73-14.09,3.51-16.16,10.3l0-.14c-2.39,7.84,3.08,15.85,10.91,18.24l76.16,23.19a126.57,126.57,0,0,0,48.87,4.87l16.35-1.6,57.88,17.62,15-49.31a10.39,10.39,0,0,0-4.79-12.24l-62.85-35A10.35,10.35,0,0,0,1051.51,1273.58Z"/><path id="_路径_7" data-name="&lt;路径&gt;" class="cls-3" d="M902.78,1308.57l0-.08,0-.06Z"/><path id="_路径_8" data-name="&lt;路径&gt;" class="cls-4" d="M1281,630.37,1425.26,399a63.5,63.5,0,0,1,88-17.89h0a63.5,63.5,0,0,1,17.89,88L1378.06,690.65Z"/><rect id="_矩形_2" data-name="&lt;矩形&gt;" class="cls-5" x="1049.08" y="1357.86" width="67.45" height="19.84" rx="8.66" ry="8.66" transform="translate(445.36 -256.09) rotate(16.93)"/><path id="_路径_9" data-name="&lt;路径&gt;" class="cls-3" d="M2151,1201.88l48.61,37.84a84,84,0,0,1,24.57,30.86l13.85,30c2.92,6.28,10,10,16.71,8.38l-.14,0c7.76-1.92,11.73-10.51,9.81-18.27l-18.7-75.39a123.49,123.49,0,0,0-20.38-43.37l-9.53-12.89-14.21-57.3-48.81,12.1A10.14,10.14,0,0,0,2145,1124l2.12,70.18A10.1,10.1,0,0,0,2151,1201.88Z"/><polygon id="_路径_10" data-name="&lt;路径&gt;" class="cls-6" points="1548.68 870.29 1740.08 1321.59 2115.89 1081.8 1666.65 934.29 1548.68 870.29"/><rect id="_矩形_3" data-name="&lt;矩形&gt;" class="cls-5" x="2181.36" y="1118.85" width="65.81" height="19.36" rx="8.45" ry="8.45" transform="translate(1651.86 3549.32) rotate(-103.93)"/><path id="_路径_11" data-name="&lt;路径&gt;" class="cls-5" d="M1607.83,896.61,1766.15,1213a97.1,97.1,0,0,0,110.49,50.72l239.25-60.1-16-73.05-188,21.94a23.41,23.41,0,0,1-24.46-14.59l-78.77-197.64Z"/><path id="_路径_12" data-name="&lt;路径&gt;" class="cls-7" d="M1725.37,896.61c2.45-4-152.81-134.2-152.81-134.2l-237.75,90.68a213,213,0,0,0-116.09,106.76l-141.41,294.23,99.49,44L1320.19,1017a51.52,51.52,0,0,1,33.28-26.54Z"/><path id="_矩形_4" data-name="&lt;矩形&gt;" class="cls-8" d="M1034.16,515.55h36.07a15.67,15.67,0,0,1,15.67,15.67v56.9a0,0,0,0,1,0,0h-67.4a0,0,0,0,1,0,0v-56.9a15.67,15.67,0,0,1,15.67-15.67Z" transform="translate(815.48 -612.46) rotate(50.83)"/><path id="_路径_13" data-name="&lt;路径&gt;" class="cls-3" d="M1013.27,1429.08l0-.08s0,0,0-.07Z"/><path id="_路径_14" data-name="&lt;路径&gt;" class="cls-3" d="M1013.27,1429.08l0-.08s0,0,0-.07Z"/><rect id="_矩形_5" data-name="&lt;矩形&gt;" class="cls-9" x="1255.79" y="627.33" width="138.34" height="74.81" transform="translate(607.12 -632.22) rotate(34.39)"/><path id="_路径_15" data-name="&lt;路径&gt;" class="cls-10" d="M1541,424.54a63.8,63.8,0,0,0-2.69-8.53l-.1-.25c-.3-.74-.61-1.47-.94-2.2l-.18-.4q-.48-1.07-1-2.11l-.21-.42q-.53-1.05-1.11-2.09l-.2-.36q-.6-1.07-1.24-2.11l-.13-.21A63.07,63.07,0,0,0,1522.62,393a104.87,104.87,0,0,0-39,5.9l-57,20.06-4.83,26.95A287.57,287.57,0,0,0,1438,603.83l93.1-134.74A63.26,63.26,0,0,0,1541,424.54Z"/><path id="_路径_16" data-name="&lt;路径&gt;" class="cls-4" d="M2225.24,863.5l-81,419.2L1501.49,789.51l38.13-42.85a40.17,40.17,0,0,0,.67-52.64l-50.82-60.1A287.65,287.65,0,0,1,1426,397.46l4.83-26.95,57-20.06a105.16,105.16,0,0,1,132.59,60.22l106.67,267.37A78.58,78.58,0,0,0,1776.7,724Z"/><path id="_路径_17" data-name="&lt;路径&gt;" class="cls-11" d="M1562.11,694l-50.82-60.1a287.66,287.66,0,0,1-63.48-236.47l4.83-26.95,57-20.06a105.34,105.34,0,0,1,24-5.41,104.76,104.76,0,0,0-45.84,5.41l-57,20.06L1426,397.46a287.66,287.66,0,0,0,63.48,236.47l50.82,60.1a40.17,40.17,0,0,1-.67,52.64l-38.13,42.85h0l60-42.85A40.17,40.17,0,0,0,1562.11,694Z"/><path id="_路径_18" data-name="&lt;路径&gt;" class="cls-12" d="M1546.5,735.87,2005.68,914l42.94,16.65,41.24,16,111,43.05,4.39-22.7-110.76-43-81-31.41L1549.07,712.46A40.24,40.24,0,0,1,1546.5,735.87Z"/><path id="_路径_19" data-name="&lt;路径&gt;" class="cls-13" d="M1829,773l48.86,14,7,2,6.94,2,3.33,1a8.33,8.33,0,0,1,4.15,13.28l-38.35,46.89a4,4,0,0,1-6.9-1.31Z"/><rect id="_矩形_6" data-name="&lt;矩形&gt;" class="cls-14" x="-45.27" y="600.6" width="2444.14" height="22.75" transform="translate(217.26 -303.8) rotate(16.19)"/><path id="_路径_20" data-name="&lt;路径&gt;" class="cls-10" d="M1521.83,465.16l135.23,37.43-36.67-91.91a105.15,105.15,0,0,0-86.3-65.59,63.48,63.48,0,0,0-44.81,47h0C1481.44,426.24,1487.65,457.32,1521.83,465.16Z"/><path id="_路径_21" data-name="&lt;路径&gt;" class="cls-15" d="M1848.06,853.89l-84.73-57.33a10.8,10.8,0,0,1-3.08-14.71l33.68-53.42a80,80,0,0,0,12.31-41.62l3.92-304.4,38.82,4.22a75.12,75.12,0,0,1,64.36,91.51l-49.46,214a198.85,198.85,0,0,0-4.89,54.1l4.64,98.94A10,10,0,0,1,1848.06,853.89Z"/><path id="_路径_22" data-name="&lt;路径&gt;" class="cls-4" d="M1354.57,80.65a114.74,114.74,0,0,0-122.4,46.2l-17,24.63a23.8,23.8,0,0,1-11.59,8.91l-37.81,13.5,19.38,13.48c9.47-2.64,20.84-6,20.84-6L1199.09,197l74,51.42L1435.8,101Z"/><polygon id="_路径_23" data-name="&lt;路径&gt;" class="cls-9" points="1378.15 86.56 1356.17 153 1364.32 165.77 1435.8 101.02 1378.15 86.56"/><path id="_复合路径_" data-name="&lt;复合路径&gt;" class="cls-16" d="M1297.33,130.45A37.57,37.57,0,1,0,1334.9,168,37.57,37.57,0,0,0,1297.33,130.45Zm0,67.57a30,30,0,1,1,30-30A30,30,0,0,1,1297.33,198Z"/><path id="_矩形_7" data-name="&lt;矩形&gt;" class="cls-9" d="M1532.5,353.36h269.1a0,0,0,0,1,0,0v127a0,0,0,0,1,0,0H1532.5a63.5,63.5,0,0,1-63.5-63.5v0A63.5,63.5,0,0,1,1532.5,353.36Z" transform="translate(72.72 -220.59) rotate(7.89)"/><path id="_路径_24" data-name="&lt;路径&gt;" class="cls-17" d="M1601.13,530a61.21,61.21,0,0,0,27,17.9"/><g id="_编组_2" data-name="&lt;编组&gt;"><path id="_路径_25" data-name="&lt;路径&gt;" class="cls-18" d="M1593,537.05a71.92,71.92,0,0,1-16.85-59.21l10.29-65.73a75.67,75.67,0,0,0-90.07-86.48l-84.67,17.63-4.37-21L1492,304.63a97.12,97.12,0,0,1,115.62,110.89l-10.29,65.73a50.59,50.59,0,0,0,11.83,41.69Z"/></g><path id="_路径_26" data-name="&lt;路径&gt;" class="cls-15" d="M1296,153.41l-65,146.22a6.7,6.7,0,0,0,3.85,9L1450,386.24l35.39-68.64-46.06-55.1,14.45-68.92a64.39,64.39,0,0,0-51.12-76.49l-27.61-5.19A72,72,0,0,0,1296,153.41Z"/><polygon id="_路径_27" data-name="&lt;路径&gt;" class="cls-19" points="1262.89 227.76 1307.37 200.7 1278.55 192.55 1262.89 227.76"/><path id="_矩形_8" data-name="&lt;矩形&gt;" class="cls-15" d="M1266,174.84h53.39a0,0,0,0,1,0,0v32a0,0,0,0,1,0,0H1266.8a16.39,16.39,0,0,1-16.39-16.39v0A15.61,15.61,0,0,1,1266,174.84Z"/><path id="_矩形_9" data-name="&lt;矩形&gt;" class="cls-16" d="M1287.41,167.48h17.7a3.76,3.76,0,0,1,3.76,3.76v0a3.76,3.76,0,0,1-3.76,3.76h-23.84a0,0,0,0,1,0,0v-1.39A6.14,6.14,0,0,1,1287.41,167.48Z" transform="translate(19.39 -110.12) rotate(4.91)"/><g id="_编组_3" data-name="&lt;编组&gt;"><path id="_复合路径_2" data-name="&lt;复合路径&gt;" class="cls-18" d="M1452.67,539.68a33,33,0,1,1,33-33A33,33,0,0,1,1452.67,539.68Zm0-47.76a14.76,14.76,0,1,0,14.76,14.76A14.78,14.78,0,0,0,1452.67,491.92Z"/></g><path id="_路径_28" data-name="&lt;路径&gt;" class="cls-18" d="M1395.12,438.6a61.72,61.72,0,0,1,10.24-47.09l4.68-6.6-11.67-15.06L1390.49,381a79.66,79.66,0,0,0,25,115l18.65,10.81L1443.3,491l-18.65-10.81A61.39,61.39,0,0,1,1395.12,438.6Z"/><path id="_路径_29" data-name="&lt;路径&gt;" class="cls-15" d="M1249.28,658.26l-177.69-51.73,11.79-39.6-67.29-73.06a16.53,16.53,0,0,0-26.19,2.46l-43.27,69.49a18.52,18.52,0,0,0,6.2,25.68L1233,759.33a84.86,84.86,0,0,0,119-30.8Z"/><path id="_路径_30" data-name="&lt;路径&gt;" class="cls-8" d="M1335,750a84.33,84.33,0,0,0,17-21.45l-75.41-51.62Z"/><polygon id="_路径_31" data-name="&lt;路径&gt;" class="cls-20" points="1801.6 519.89 1674.89 503.98 1694.56 347.37 1820.96 365.73 1801.6 519.89"/><line id="_路径_32" data-name="&lt;路径&gt;" class="cls-21" x1="1801.6" y1="519.9" x2="1820.96" y2="365.73"/><rect id="_矩形_10" data-name="&lt;矩形&gt;" class="cls-4" x="1718.06" y="396.78" width="65.95" height="19.52" transform="translate(69.34 -228.52) rotate(7.62)"/><rect id="_矩形_11" data-name="&lt;矩形&gt;" class="cls-4" x="1718.06" y="396.78" width="65.95" height="19.52" transform="translate(1115.98 2088.24) rotate(-82.38)"/><line id="_路径_33" data-name="&lt;路径&gt;" class="cls-21" x1="1694.56" y1="347.37" x2="1674.89" y2="503.98"/><path id="_路径_34" data-name="&lt;路径&gt;" class="cls-22" d="M63,296.56l42-150.32a34.5,34.5,0,0,1,42.5-24h0a34.5,34.5,0,0,1,24,42.52L167.8,178"/><g id="_编组_4" data-name="&lt;编组&gt;"><path id="_路径_35" data-name="&lt;路径&gt;" class="cls-23" d="M273.8,214.37a22.73,22.73,0,0,1-20.17-12.24l-9.7-18.66a42.16,42.16,0,0,0-44.45-22.19L150,169.53l-1.76-10.58,49.53-8.25a52.85,52.85,0,0,1,55.72,27.83l9.7,18.66a12,12,0,0,0,19.76,2.25l54-63.23A25.29,25.29,0,0,1,380,144.38l5.76,16.69a16.58,16.58,0,0,0,23.87,9l39.74-22.82,5.34,9.3L415,179.39a27.3,27.3,0,0,1-39.34-14.82l-5.76-16.69A14.57,14.57,0,0,0,345,143.17l-54,63.23A22.68,22.68,0,0,1,273.8,214.37Z"/></g><g id="_编组_5" data-name="&lt;编组&gt;"><rect id="_路径_36" data-name="&lt;路径&gt;" class="cls-23" x="154.86" y="175.5" width="36.7" height="10.73" transform="translate(-33.32 39.24) rotate(-11.8)"/></g><g id="_编组_6" data-name="&lt;编组&gt;" class="cls-24"><path id="_路径_37" data-name="&lt;路径&gt;" class="cls-25" d="M273.8,214.37a22.73,22.73,0,0,1-20.17-12.24l-9.7-18.66a42.16,42.16,0,0,0-44.45-22.19L150,169.53l-1.76-10.58,49.53-8.25a52.85,52.85,0,0,1,55.72,27.83l9.7,18.66a12,12,0,0,0,19.76,2.25l54-63.23A25.29,25.29,0,0,1,380,144.38l5.76,16.69a16.58,16.58,0,0,0,23.87,9l39.74-22.82,5.34,9.3L415,179.39a27.3,27.3,0,0,1-39.34-14.82l-5.76-16.69A14.57,14.57,0,0,0,345,143.17l-54,63.23A22.68,22.68,0,0,1,273.8,214.37Z"/></g><g id="_编组_7" data-name="&lt;编组&gt;" class="cls-24"><rect id="_路径_38" data-name="&lt;路径&gt;" class="cls-25" x="154.86" y="175.5" width="36.7" height="10.73" transform="translate(-33.32 39.24) rotate(-11.8)"/></g><rect id="_矩形_12" data-name="&lt;矩形&gt;" class="cls-1" x="1450.5" y="615.33" width="68.11" height="16.66" rx="2.74" ry="2.74" transform="translate(-96.44 929.12) rotate(-33.72)"/><rect id="_矩形_13" data-name="&lt;矩形&gt;" class="cls-1" x="1469.76" y="641.15" width="68.11" height="16.66" rx="2.74" ry="2.74" transform="translate(-107.54 944.16) rotate(-33.72)"/><path id="_路径_39" data-name="&lt;路径&gt;" class="cls-14" d="M1529,625.93a2.74,2.74,0,0,0-3.8-.76L1508,636.71c3.19,4.29,6.56,8.74,10.07,13.31l16.46-11a2.74,2.74,0,0,0,.76-3.8Z"/><path id="_路径_40" data-name="&lt;路径&gt;" class="cls-14" d="M1509.78,600.11a2.74,2.74,0,0,0-3.8-.76l-16.89,11.27c2.91,4.15,6.15,8.7,9.68,13.57l16.46-11a2.74,2.74,0,0,0,.76-3.8Z"/><g id="_编组_8" data-name="&lt;编组&gt;"><path id="_路径_41" data-name="&lt;路径&gt;" class="cls-18" d="M1651.13,603.69,1634.95,596a43.58,43.58,0,0,1-20.88-57.58A43.47,43.47,0,0,1,1673.31,518l16.29,8.34-9.77,19.09-16.29-8.34a22,22,0,0,0-30,10.34,22.08,22.08,0,0,0,10.58,29.17l16.19,7.64Z"/></g><path id="_路径_42" data-name="&lt;路径&gt;" class="cls-26" d="M1483.8,315.69l-20.59-24.63-18.49-22.12-5.38-6.43,1.12-5.33h0l3.81-18.16,2.36-11.25h0l7.16-34.17a64.39,64.39,0,0,0-51.12-76.49l-10-1.88-5.59,17.47a121,121,0,0,0,12.1,100.11L1417,261.72l-16.94,47.56a16.08,16.08,0,0,1-16.32,10.65c-30.28-2.2-109.06-7.89-145.91-10.16l168.45,60.72,72.35-39.83,6.73-13.06Z"/><path id="_复合路径_3" data-name="&lt;复合路径&gt;" class="cls-26" d="M1360.6,138a38.6,38.6,0,1,0,38.6,38.6A38.6,38.6,0,0,0,1360.6,138Zm0,69.42a30.82,30.82,0,1,1,30.82-30.82A30.82,30.82,0,0,1,1360.6,207.44Z"/><path id="_复合路径_4" data-name="&lt;复合路径&gt;" class="cls-16" d="M1354.18,126.7A41.32,41.32,0,1,0,1395.5,168,41.32,41.32,0,0,0,1354.18,126.7Zm0,74.32a33,33,0,1,1,33-33A33,33,0,0,1,1354.18,201Z"/><path id="_路径_43" data-name="&lt;路径&gt;" class="cls-4" d="M1470,198l23.95,7,20.88-12.51-31.63-13.17a19.45,19.45,0,0,1-11.9-19.73l.75-8.21a47.4,47.4,0,0,0-36.1-50.4l-40.43-9.75-8.43,25.47a113.48,113.48,0,0,0,12.1,96.74l22.31,34.94,59.91-35.89Z"/><path id="_路径_44" data-name="&lt;路径&gt;" class="cls-4" d="M1514.39,342.17l.4-.29-36.7-33L1396,366.77l30.13,38.91,56-40.29A63.76,63.76,0,0,1,1514.39,342.17Z"/><polygon id="_路径_45" data-name="&lt;路径&gt;" class="cls-11" points="1448.06 389.89 1416.23 352.49 1395.98 366.77 1426.11 405.67 1448.06 389.89"/><polygon id="_路径_46" data-name="&lt;路径&gt;" class="cls-27" points="1673.8 613.61 1651.06 603.63 1660.29 584.29 1682.03 595.02 1673.8 613.61"/><polygon id="_路径_47" data-name="&lt;路径&gt;" class="cls-27" points="1702.76 555.34 1680.02 545.42 1689.25 526.08 1710.63 537.05 1702.76 555.34"/><rect id="_矩形_14" data-name="&lt;矩形&gt;" class="cls-14" x="614.23" y="202.94" width="34.32" height="39.14" rx="8.37" ry="8.37" transform="translate(89 -169.89) rotate(16.47)"/><path id="_矩形_15" data-name="&lt;矩形&gt;" class="cls-23" d="M462.74,133.78H574.68A58.31,58.31,0,0,1,633,192.1v0a58.31,58.31,0,0,1-58.31,58.31H462.74a23.29,23.29,0,0,1-23.29-23.29V157.07a23.29,23.29,0,0,1,23.29-23.29Z" transform="translate(77.65 -145.76) rotate(16.67)"/><path id="_路径_48" data-name="&lt;路径&gt;" class="cls-28" d="M539.91,193.47h0a41.5,41.5,0,0,0-46.41-.74c-9.25,6-19.91,13-29.39,19.13a2.62,2.62,0,0,0,.61,4.7l.05,0,92.41,27.68a44,44,0,0,0,54.71-29.49h0a43.83,43.83,0,0,0,1.82-14.49,11.65,11.65,0,0,0-16.24-10.17L580,197.58A41.51,41.51,0,0,1,539.91,193.47Z"/><polygon id="_路径_49" data-name="&lt;路径&gt;" class="cls-4" points="463.64 237.96 499.16 113.16 510.31 116.4 474.79 241.21 463.64 237.96"/><circle id="_路径_50" data-name="&lt;路径&gt;" class="cls-28" cx="566.54" cy="175.77" r="11.53"/><polygon id="_路径_51" data-name="&lt;路径&gt;" class="cls-4" points="546.47 262.09 582.06 137.3 592.11 140.22 556.51 265.01 546.47 262.09"/></g></g></g></svg>