<svg xmlns="http://www.w3.org/2000/svg" viewBox="0 0 1719.92 1510.09"><defs><style>.cls-1,.cls-21{fill:#ffd557;}.cls-2{fill:#e59d89;}.cls-3{fill:#fff;}.cls-4{opacity:0.8;}.cls-5{fill:#d6d6d6;}.cls-6{fill:#915629;}.cls-7{fill:#573e0f;}.cls-8{fill:#5f4ec6;}.cls-9{fill:#efefef;}.cls-10{opacity:0.6;}.cls-11{fill:none;stroke:#d6d6d6;stroke-miterlimit:10;stroke-width:10px;}.cls-12{opacity:0.4;}.cls-13{opacity:0.7;}.cls-14{fill:#d36e57;}.cls-15{fill:#ff7690;}.cls-16{fill:#d37e6a;}.cls-17{opacity:0.48;}.cls-18{fill:#bc6855;}.cls-19{fill:#ddd;}.cls-20{fill:#8277e8;}.cls-21{fill-rule:evenodd;}.cls-22{opacity:0.5;}</style></defs><title>资源 4</title><g id="图层_2" data-name="图层 2"><g id="图层_1-2" data-name="图层 1"><path class="cls-1" d="M220.49,16.21l317.3,1483.27a13.39,13.39,0,0,0,22,7.17C694.08,1386.07,1563.58,582,1697.23,458.35a13.39,13.39,0,0,0-5.26-22.67L237.43.58A13.4,13.4,0,0,0,220.49,16.21Z"/><g id="_编组_" data-name="&lt;编组&gt;"><g id="_编组_2" data-name="&lt;编组&gt;"><path id="_路径_" data-name="&lt;路径&gt;" class="cls-1" d="M168.6,1131.81a10.82,10.82,0,0,0-5.52-12.51l-45-23.83a9,9,0,0,0-4.76-7.19l-2.31-1.22a9,9,0,0,0-12.18,3.75l-24.4,46.11a9,9,0,0,0,3.75,12.18l2.31,1.22a9,9,0,0,0,4,1L73,1160.77a131.72,131.72,0,0,0-32.25,39.66L2,1273.66,7.35,1295c6.53,3.45,14.81,1.37,19.45-4.37l22-27.47a89.61,89.61,0,0,1,33.38-25.63l60.05-26.66a10.78,10.78,0,0,0,6.07-7Z"/><path id="_路径_2" data-name="&lt;路径&gt;" class="cls-1" d="M1695.84,1213.08l.05,0,.07,0Z"/><path id="_路径_3" data-name="&lt;路径&gt;" class="cls-1" d="M1695.89,1213.13c-5.8-4.51-14.28-3.94-19.85.87l-26.61,23.07a89.61,89.61,0,0,1-37.43,19.24l-63.86,15.48a10.78,10.78,0,0,0-7.22,5.78l-32.83,67.31a10.81,10.81,0,0,0,3.19,13.3l40.05,31.51a9,9,0,0,0,3.39,7.93l2.06,1.62a9,9,0,0,0,12.66-1.51l32.26-41a9,9,0,0,0-1.51-12.66l-2.06-1.62a9,9,0,0,0-3.72-1.73l12.88-7.22a131.73,131.73,0,0,0,38.83-33.24l51.23-65.11C1702.63,1228.47,1702.54,1218.41,1695.89,1213.13Z"/><path id="_路径_4" data-name="&lt;路径&gt;" class="cls-1" d="M1709.44,301h0L1555.68,445.57l-11.29-2.82q-1.75-.44-3.51-.83l-.93-.19c-.87-.19-1.75-.37-2.62-.54l-1-.17c-.88-.16-1.76-.32-2.64-.47l-.85-.13c-.93-.15-1.86-.28-2.79-.41l-.7-.09q-1.49-.19-3-.35l-.52-.05q-1.6-.16-3.19-.29l-.34,0q-1.7-.13-3.4-.21h-.16A131.61,131.61,0,0,0,1440,460.52l-25.45,16.77,34.87,59.46,13.33.77c2.25.13,4.51.21,6.76.27a10.6,10.6,0,0,0,1.44,1.95l12,12.72a10.58,10.58,0,0,0,15,.46l20.85-19.6,1.64-.36,1-.23q2-.45,4-.95l1.29-.32q2-.5,4-1l1.16-.31a212.21,212.21,0,0,0,71.78-35.68l19-14.47a10.52,10.52,0,0,0-3.82-18.56l-18.62-4.66L1707.75,355.6A38.61,38.61,0,0,0,1709.44,301Z"/></g><g id="_编组_3" data-name="&lt;编组&gt;"><g id="_编组_4" data-name="&lt;编组&gt;"><path id="_路径_5" data-name="&lt;路径&gt;" class="cls-2" d="M730.58,188.25c-70.18-24.89-115.07,29.53-115.07,29.53,31.36,40.61,50.68,96,50.68,157,0,4.57-.12,9.11-.33,13.61l14.78,49.71,151.58-45.07S800.76,213.14,730.58,188.25Z"/></g></g><g id="_编组_5" data-name="&lt;编组&gt;"><g id="_编组_6" data-name="&lt;编组&gt;"><path id="_路径_6" data-name="&lt;路径&gt;" class="cls-3" d="M935.2,495.36l211.29,80.09a76.22,76.22,0,0,0,69.35-7.89l178.71-119.38,80.71,130.19L1265.14,715.71a170.73,170.73,0,0,1-159.58,14.48L935.2,658.58Z"/></g></g><g id="_编组_7" data-name="&lt;编组&gt;" class="cls-4"><g id="_编组_8" data-name="&lt;编组&gt;"><polygon id="_路径_7" data-name="&lt;路径&gt;" class="cls-5" points="964.41 506.36 935.6 495.36 935.6 658.58 1069.09 714.74 964.41 506.36"/></g></g><g id="_编组_9" data-name="&lt;编组&gt;"><g id="_编组_10" data-name="&lt;编组&gt;"><path id="_路径_8" data-name="&lt;路径&gt;" class="cls-6" d="M142.28,1210.89l-60.05,26.66a89.61,89.61,0,0,0-33.38,25.63l-22,27.47c-4.64,5.75-12.92,7.83-19.45,4.37l.14.07C0,1291.11-2,1281.2,2,1273.66l38.75-73.24A131.72,131.72,0,0,1,73,1160.77l13.18-10.9,29.45-55.66,47.42,25.09a10.81,10.81,0,0,1,5.52,12.51l-20.24,72.1A10.78,10.78,0,0,1,142.28,1210.89Z"/></g></g><g id="_编组_11" data-name="&lt;编组&gt;"><g id="_编组_12" data-name="&lt;编组&gt;"><rect id="_矩形_" data-name="&lt;矩形&gt;" class="cls-7" x="60.6" y="1108.37" width="70.2" height="20.65" rx="9.01" ry="9.01" transform="translate(-937.89 680.14) rotate(-62.12)"/></g></g><g id="_编组_13" data-name="&lt;编组&gt;"><g id="_编组_14" data-name="&lt;编组&gt;"><path id="_路径_9" data-name="&lt;路径&gt;" class="cls-6" d="M1548.15,1271.79l63.86-15.48a89.61,89.61,0,0,0,37.43-19.24L1676,1214c5.59-4.82,14.12-5.39,19.92-.82l-.12-.09c6.7,5.27,6.8,15.36,1.53,22.06l-51.23,65.11a131.72,131.72,0,0,1-38.83,33.24l-14.92,8.36-38.94,49.49-42.16-33.17a10.81,10.81,0,0,1-3.19-13.3l32.83-67.31A10.78,10.78,0,0,1,1548.15,1271.79Z"/></g></g><g id="_编组_15" data-name="&lt;编组&gt;"><g id="_编组_16" data-name="&lt;编组&gt;"><rect id="_矩形_2" data-name="&lt;矩形&gt;" class="cls-7" x="1542.37" y="1360.52" width="70.2" height="20.65" rx="9.01" ry="9.01" transform="matrix(-0.62, 0.79, -0.79, -0.62, 3630.25, 978.8)"/></g></g><g id="_编组_17" data-name="&lt;编组&gt;"><g id="_编组_18" data-name="&lt;编组&gt;"><path id="_路径_10" data-name="&lt;路径&gt;" class="cls-3" d="M852.34,343.52,738.55,362.34l-13.31-80.47,89.57-14.81A24.56,24.56,0,0,1,843,287.28L845.32,301Z"/></g></g><g id="_编组_19" data-name="&lt;编组&gt;"><g id="_编组_20" data-name="&lt;编组&gt;"><path id="_路径_11" data-name="&lt;路径&gt;" class="cls-2" d="M1414.59,477.29,1440,460.52a131.62,131.62,0,0,1,104.36-17.77l74.42,18.62a10.52,10.52,0,0,1,3.82,18.56l-19,14.47a212.24,212.24,0,0,1-140.88,43.1l-13.33-.77Z"/></g></g><g id="_编组_21" data-name="&lt;编组&gt;"><g id="_编组_22" data-name="&lt;编组&gt;"><rect id="_矩形_3" data-name="&lt;矩形&gt;" class="cls-3" x="660.07" y="317.56" width="113.5" height="8.68" transform="translate(-40.62 112.76) rotate(-8.75)"/></g></g><g id="_编组_23" data-name="&lt;编组&gt;"><g id="_编组_24" data-name="&lt;编组&gt;"><path id="_路径_12" data-name="&lt;路径&gt;" class="cls-8" d="M238,1127.75l-92.25,130.73,275.11,177.07a119.11,119.11,0,0,0,167.76-40.85L731.2,1146.28l-149-77.83L478.82,1262.86a15,15,0,0,1-21.33,5.58Z"/></g></g><g id="_编组_25" data-name="&lt;编组&gt;"><g id="_编组_26" data-name="&lt;编组&gt;"><path id="_路径_13" data-name="&lt;路径&gt;" class="cls-8" d="M865.24,1120.08l275.38-22.91a78,78,0,0,1,60.87,21.86l216.77,211.26L1529.68,1215l-223.86-222.3a187.42,187.42,0,0,0-135.38-54.4l-305.25,5.4v167.61"/></g></g><g id="_编组_27" data-name="&lt;编组&gt;"><g id="_编组_28" data-name="&lt;编组&gt;"><polygon id="_路径_14" data-name="&lt;路径&gt;" class="cls-9" points="738.55 362.34 852.34 343.52 847.06 311.57 732.9 328.19 738.55 362.34"/></g></g><g id="_编组_29" data-name="&lt;编组&gt;"><g id="_编组_30" data-name="&lt;编组&gt;"><path id="_路径_15" data-name="&lt;路径&gt;" class="cls-3" d="M889.2,469.69h0L869.25,322.84l-204,29.71h0a257.77,257.77,0,0,1-44.26,168h0a498.5,498.5,0,0,1-66.47,78.2L434.06,714a76.59,76.59,0,0,0-2.4,108.29h0a76.59,76.59,0,0,0,108.29,2.4L688.73,682.38l3.1,43.52a369.64,369.64,0,0,1-34.7,184.59l-74.89,158L878.6,1233.88q1.73-3.67,3.45-7.36l48.78-127.23c34.23-110,53.29-232.1,53.29-360.73a1261.22,1261.22,0,0,0-16.43-204A77.28,77.28,0,0,0,889.2,469.69Z"/></g></g><g id="_编组_31" data-name="&lt;编组&gt;" class="cls-10"><g id="_编组_32" data-name="&lt;编组&gt;"><path id="_路径_16" data-name="&lt;路径&gt;" class="cls-11" d="M830.14,322.84"/></g></g><g id="_编组_33" data-name="&lt;编组&gt;"><g id="_编组_34" data-name="&lt;编组&gt;"><rect id="_矩形_4" data-name="&lt;矩形&gt;" class="cls-3" x="614.53" y="876.8" width="109.73" height="162" rx="25.64" ry="25.64" transform="translate(429.46 -185.84) rotate(23.1)"/></g></g><g id="_编组_35" data-name="&lt;编组&gt;"><g id="_编组_36" data-name="&lt;编组&gt;"><path id="_路径_17" data-name="&lt;路径&gt;" class="cls-9" d="M753.57,896.92a7.19,7.19,0,0,0-3.89-9.4l-72.29-30q-2.06,6.92-4.38,13.76l71.16,29.49A7.19,7.19,0,0,0,753.57,896.92Z"/></g></g><g id="_编组_37" data-name="&lt;编组&gt;"><g id="_编组_38" data-name="&lt;编组&gt;"><rect id="_矩形_5" data-name="&lt;矩形&gt;" class="cls-9" x="670.2" y="901.36" width="20.67" height="14" rx="7" ry="7" transform="translate(517.73 -214.91) rotate(28.59)"/></g></g><g id="_编组_39" data-name="&lt;编组&gt;"><g id="_编组_40" data-name="&lt;编组&gt;" class="cls-12"><g id="_编组_41" data-name="&lt;编组&gt;"><path id="_路径_18" data-name="&lt;路径&gt;" class="cls-5" d="M845.84,1205q-1.92,4.22-3.88,8.45l.52.29Z"/></g></g><g id="_编组_42" data-name="&lt;编组&gt;" class="cls-12"><g id="_编组_43" data-name="&lt;编组&gt;"><path id="_路径_19" data-name="&lt;路径&gt;" class="cls-5" d="M967.7,534.52a77.28,77.28,0,0,0-78.5-64.83L869.25,322.84l-40.75,5.93,0,.28,7.32-.94,18.53,144.51a.87.87,0,0,0,.78.78,82.33,82.33,0,0,1,78.31,68.75C945.07,612.72,950,671.46,950,738.56c0,126.26-18,248.12-53.52,362.22l-.11.3-45.08,117.56,27.29,15.23q1.73-3.67,3.45-7.36l48.78-127.23c34.23-110,53.29-232.1,53.29-360.73A1261.22,1261.22,0,0,0,967.7,534.52Z"/></g></g></g><g id="_编组_44" data-name="&lt;编组&gt;" class="cls-12"><g id="_编组_45" data-name="&lt;编组&gt;"><rect id="_矩形_6" data-name="&lt;矩形&gt;" class="cls-5" x="749.75" y="589.69" width="78.08" height="121.81" transform="translate(82.6 -88.83) rotate(6.8)"/></g></g><g id="_编组_46" data-name="&lt;编组&gt;"><g id="_编组_47" data-name="&lt;编组&gt;"><rect id="_矩形_7" data-name="&lt;矩形&gt;" class="cls-1" x="730.03" y="565.88" width="87.97" height="124.61" transform="translate(340.6 -269.52) rotate(25.17)"/></g></g><g id="_编组_48" data-name="&lt;编组&gt;"><g id="_编组_49" data-name="&lt;编组&gt;"><rect id="_矩形_8" data-name="&lt;矩形&gt;" class="cls-3" x="742.29" y="578.51" width="63.44" height="99.35" transform="translate(340.6 -269.52) rotate(25.17)"/></g></g><g id="_编组_50" data-name="&lt;编组&gt;"><g id="_编组_51" data-name="&lt;编组&gt;"><path id="_复合路径_" data-name="&lt;复合路径&gt;" class="cls-3" d="M637.88,365a16.54,16.54,0,0,1-4.1-.53c-4.32-1.1-8-4.67-10.06-9.78a23.31,23.31,0,0,1,.09-18.55,19.84,19.84,0,0,1,12.12-10.5c8.09-2.6,16.83-1.69,24.54-.89l2.6.27,5.84.58-2.67,5.23c-.77,1.51-1.65,3.51-2.66,5.83C658.82,347.5,651.17,365,637.88,365Zm10.4-33.09a32.34,32.34,0,0,0-9.9,1.34,11.78,11.78,0,0,0-7.32,6.27,15.31,15.31,0,0,0,.07,12.16c1.1,2.7,2.83,4.58,4.63,5,8.55,2.19,14.81-10.3,20.48-23.27l.46-1C653.87,332.13,651,331.91,648.27,331.91Z"/></g></g><g id="_编组_52" data-name="&lt;编组&gt;"><g id="_编组_53" data-name="&lt;编组&gt;"><path id="_路径_20" data-name="&lt;路径&gt;" class="cls-3" d="M660.12,332a46.09,46.09,0,0,0-12.87-8.9c-11.34-5.54-24.33-7.5-38.59-5.81l-.94-7.95c38.29-4.53,57.54,16.41,58.34,17.3l-6,5.34,3-2.67Z"/></g></g><g id="_编组_54" data-name="&lt;编组&gt;" class="cls-13"><g id="_编组_55" data-name="&lt;编组&gt;"><rect id="_矩形_9" data-name="&lt;矩形&gt;" class="cls-5" x="742.71" y="323.99" width="4.18" height="11.49" transform="translate(-44.62 129.06) rotate(-9.62)"/></g></g><g id="_编组_56" data-name="&lt;编组&gt;" class="cls-13"><g id="_编组_57" data-name="&lt;编组&gt;"><rect id="_矩形_10" data-name="&lt;矩形&gt;" class="cls-5" x="739.7" y="303.51" width="4.18" height="11.49" transform="translate(-41.24 128.27) rotate(-9.62)"/></g></g><g id="_编组_58" data-name="&lt;编组&gt;" class="cls-13"><g id="_编组_59" data-name="&lt;编组&gt;"><rect id="_矩形_11" data-name="&lt;矩形&gt;" class="cls-5" x="740" y="284.93" width="4.18" height="11.49" transform="translate(903.58 -489.77) rotate(80.3)"/></g></g><g id="_编组_60" data-name="&lt;编组&gt;" class="cls-13"><g id="_编组_61" data-name="&lt;编组&gt;"><rect id="_矩形_12" data-name="&lt;矩形&gt;" class="cls-5" x="764.11" y="280.71" width="4.18" height="11.49" transform="translate(919.47 -517.06) rotate(80.3)"/></g></g><g id="_编组_62" data-name="&lt;编组&gt;" class="cls-13"><g id="_编组_63" data-name="&lt;编组&gt;"><rect id="_矩形_13" data-name="&lt;矩形&gt;" class="cls-5" x="789.71" y="276.48" width="4.18" height="11.49" transform="matrix(0.17, 0.99, -0.99, 0.17, 936.59, -545.8)"/></g></g><g id="_编组_64" data-name="&lt;编组&gt;" class="cls-13"><g id="_编组_65" data-name="&lt;编组&gt;"><rect id="_矩形_14" data-name="&lt;矩形&gt;" class="cls-5" x="814.8" y="272.53" width="4.18" height="11.49" transform="translate(953.55 -573.82) rotate(80.3)"/></g></g><g id="_编组_66" data-name="&lt;编组&gt;" class="cls-4"><g id="_编组_67" data-name="&lt;编组&gt;"><path id="_路径_21" data-name="&lt;路径&gt;" class="cls-14" d="M730.58,188.25c-70.18-24.89-115.07,29.53-115.07,29.53a232.61,232.61,0,0,1,31,54.43L779,235.48C765.54,212.86,749.46,194.94,730.58,188.25Z"/></g></g><g id="_编组_68" data-name="&lt;编组&gt;"><g id="_编组_69" data-name="&lt;编组&gt;"><path id="_路径_22" data-name="&lt;路径&gt;" class="cls-3" d="M639.21,255.86,797.42,212a15.91,15.91,0,0,0,10.95-20l-24-77.79a15.91,15.91,0,0,0-18.08-11L507.58,150.8l0,0C563.18,158.92,611,198.91,639.21,255.86Z"/></g></g><g id="_编组_70" data-name="&lt;编组&gt;" class="cls-12"><g id="_编组_71" data-name="&lt;编组&gt;"><path id="_路径_23" data-name="&lt;路径&gt;" class="cls-5" d="M808.37,191.94l-24-77.79a15.91,15.91,0,0,0-18.08-11l-16.27,3a16,16,0,0,1,14.64,11.75l24,81.67a17.33,17.33,0,0,1-3,15.61L797.42,212A15.91,15.91,0,0,0,808.37,191.94Z"/></g></g><g id="_编组_72" data-name="&lt;编组&gt;"><g id="_编组_73" data-name="&lt;编组&gt;"><rect id="_矩形_15" data-name="&lt;矩形&gt;" class="cls-15" x="733.43" y="154.35" width="43.78" height="12.12" transform="translate(-16.46 184.8) rotate(-13.8)"/></g></g><g id="_编组_74" data-name="&lt;编组&gt;"><g id="_编组_75" data-name="&lt;编组&gt;"><rect id="_矩形_16" data-name="&lt;矩形&gt;" class="cls-15" x="733.94" y="154.35" width="42.76" height="12.12" transform="matrix(-0.25, -0.97, 0.97, -0.25, 791.75, 931.72)"/></g></g><g id="_编组_76" data-name="&lt;编组&gt;"><g id="_编组_77" data-name="&lt;编组&gt;"><polygon id="_路径_24" data-name="&lt;路径&gt;" class="cls-2" points="437.51 483.43 387.86 381.73 447.04 357.45 502.65 468.89 437.51 483.43"/></g></g><g id="_编组_78" data-name="&lt;编组&gt;"><g id="_编组_79" data-name="&lt;编组&gt;"><g id="_编组_80" data-name="&lt;编组&gt;"><path id="_路径_25" data-name="&lt;路径&gt;" class="cls-3" d="M469.2,325,456,319.44l45.47-108.65a14.33,14.33,0,0,1,18.75-7.69h0Z"/></g></g></g><g id="_编组_81" data-name="&lt;编组&gt;"><g id="_编组_82" data-name="&lt;编组&gt;"><path id="_路径_26" data-name="&lt;路径&gt;" class="cls-16" d="M469.53,465.2l25.79-5.76,1-3.95L474.8,409.74,470.3,416a42.25,42.25,0,0,0-3.56,43.67Z"/></g></g><g id="_编组_83" data-name="&lt;编组&gt;"><g id="_编组_84" data-name="&lt;编组&gt;"><path id="_路径_27" data-name="&lt;路径&gt;" class="cls-2" d="M476.86,474.64l-2.79-5.57a42.25,42.25,0,0,1,3.56-43.67L501.1,393l19.46,4.6-17.9,71.3Z"/></g></g><g id="_编组_85" data-name="&lt;编组&gt;"><g id="_编组_86" data-name="&lt;编组&gt;"><g id="_编组_87" data-name="&lt;编组&gt;"><path id="_路径_28" data-name="&lt;路径&gt;" class="cls-3" d="M473,322.7l-14.22,1.71L442.95,193.26h0a14.33,14.33,0,0,1,15.94,12.51Z"/></g></g></g><g id="_编组_88" data-name="&lt;编组&gt;"><g id="_编组_89" data-name="&lt;编组&gt;"><g id="_编组_90" data-name="&lt;编组&gt;"><path id="_复合路径_2" data-name="&lt;复合路径&gt;" class="cls-3" d="M418.88,398.57a36.49,36.49,0,0,1-20.89-3,40.46,40.46,0,0,1-19.7-53.72l.43-.93a57.56,57.56,0,0,1,76.42-28L473,321.15,446.8,377.66a36.52,36.52,0,0,1-20.7,19.06A37.1,37.1,0,0,1,418.88,398.57ZM425,325.39a40.52,40.52,0,0,0-7.89,2,39.87,39.87,0,0,0-22.6,20.81l-.43.93a23,23,0,0,0,11.22,30.6h0A19.34,19.34,0,0,0,431,370.33l18.86-40.71-2-.95A39.86,39.86,0,0,0,425,325.39Z"/></g></g></g><g id="_编组_91" data-name="&lt;编组&gt;"><g id="_编组_92" data-name="&lt;编组&gt;"><g id="_编组_93" data-name="&lt;编组&gt;"><path id="_复合路径_3" data-name="&lt;复合路径&gt;" class="cls-3" d="M507.83,413.2q-1,.16-2.11.26h0a36.76,36.76,0,0,1-40.21-33l-6.15-62,19.57-1.94a57.62,57.62,0,0,1,63,51.59l.1,1a40.47,40.47,0,0,1-34.16,44ZM504,396.13a23,23,0,0,0,20.65-25.21l-.1-1a40.18,40.18,0,0,0-43.91-36l-2.24.22,4.43,44.65A19.34,19.34,0,0,0,504,396.13Z"/></g></g></g><g id="_编组_94" data-name="&lt;编组&gt;" class="cls-17"><g id="_编组_95" data-name="&lt;编组&gt;"><path id="_路径_29" data-name="&lt;路径&gt;" class="cls-18" d="M1536.88,528.63l76-68.75-37.53-9.39-11.5-1.34L1493.39,537A212.22,212.22,0,0,0,1536.88,528.63Z"/></g></g><g id="_编组_96" data-name="&lt;编组&gt;"><g id="_编组_97" data-name="&lt;编组&gt;"><path id="_矩形_17" data-name="&lt;矩形&gt;" class="cls-2" d="M393.2,353.4H453a0,0,0,0,1,0,0V365a10.69,10.69,0,0,1-10.69,10.69H403.89A10.69,10.69,0,0,1,393.2,365V353.4A0,0,0,0,1,393.2,353.4Z" transform="translate(-135.33 372.52) rotate(-41.57)"/></g></g><g id="_编组_98" data-name="&lt;编组&gt;"><g id="_编组_99" data-name="&lt;编组&gt;"><circle id="_路径_30" data-name="&lt;路径&gt;" class="cls-1" cx="464.5" cy="329.9" r="6.28" transform="matrix(0.99, -0.15, 0.15, 0.99, -44.15, 73.24)"/></g></g><g id="_编组_100" data-name="&lt;编组&gt;"><g id="_编组_101" data-name="&lt;编组&gt;"><path id="_矩形_18" data-name="&lt;矩形&gt;" class="cls-2" d="M501.65,381.27H515a0,0,0,0,1,0,0v22.28a0,0,0,0,1,0,0H501.65a11.14,11.14,0,0,1-11.14-11.14v0a11.14,11.14,0,0,1,11.14-11.14Z" transform="translate(-100.92 598.12) rotate(-56.79)"/></g></g><g id="_编组_102" data-name="&lt;编组&gt;"><g id="_编组_103" data-name="&lt;编组&gt;"><path id="_路径_31" data-name="&lt;路径&gt;" class="cls-3" d="M1709.44,301h0L1546.79,453.94l26.95,27.66,134-126A38.61,38.61,0,0,0,1709.44,301Z"/></g></g><g id="_编组_104" data-name="&lt;编组&gt;"><g id="_编组_105" data-name="&lt;编组&gt;"><path id="_路径_32" data-name="&lt;路径&gt;" class="cls-3" d="M1471.44,524.77a10.58,10.58,0,0,0-.46,15l12,12.72a10.58,10.58,0,0,0,15,.46l75.84-71.3-26.95-27.66Z"/></g></g><g id="_编组_106" data-name="&lt;编组&gt;"><g id="_编组_107" data-name="&lt;编组&gt;"><path id="_路径_33" data-name="&lt;路径&gt;" class="cls-19" d="M1543.9,456.65l-22.31,21,2.49,2.48a30.88,30.88,0,0,0,43.16.37Z"/></g></g><g id="_编组_108" data-name="&lt;编组&gt;"><g id="_编组_109" data-name="&lt;编组&gt;"><path id="_矩形_19" data-name="&lt;矩形&gt;" class="cls-9" d="M402.33,471.23H555.5a0,0,0,0,1,0,0V770a76.59,76.59,0,0,1-76.59,76.59h0A76.59,76.59,0,0,1,402.33,770V471.23a0,0,0,0,1,0,0Z" transform="matrix(1, -0.07, 0.07, 1, -44.56, 34.81)"/></g></g><g id="_编组_110" data-name="&lt;编组&gt;"><g id="_编组_111" data-name="&lt;编组&gt;"><path id="_路径_34" data-name="&lt;路径&gt;" class="cls-2" d="M1508.27,468.27l32.55,7.69a33.42,33.42,0,0,0,40-24.09l-36.44-9.12a131.56,131.56,0,0,0-29.18-3.9Z"/></g></g><g id="_编组_112" data-name="&lt;编组&gt;"><g id="_编组_113" data-name="&lt;编组&gt;"><rect id="_矩形_20" data-name="&lt;矩形&gt;" class="cls-20" x="783.35" y="557.79" width="10.88" height="28.55" rx="5.44" ry="5.44" transform="translate(319.45 -281.85) rotate(25.25)"/></g></g><g id="_编组_114" data-name="&lt;编组&gt;"><g id="_编组_115" data-name="&lt;编组&gt;"><rect id="_矩形_21" data-name="&lt;矩形&gt;" class="cls-20" x="802.51" y="566.62" width="10.88" height="28.55" rx="5.44" ry="5.44" transform="translate(325.05 -289.18) rotate(25.25)"/></g></g><g id="_编组_116" data-name="&lt;编组&gt;"><g id="_编组_117" data-name="&lt;编组&gt;"><g id="_编组_118" data-name="&lt;编组&gt;"><path id="_复合路径_4" data-name="&lt;复合路径&gt;" class="cls-21" d="M778.69,634.08c-.24-.22-1.62-1.82,1-4.64h0a20.45,20.45,0,0,0,10.75-10c3.32-7.16.31-13.11-5.22-15.68s-12-1-15.33,6.14a20.4,20.4,0,0,0-.7,14.69c-.25,3.45-2.75,3.61-3.24,3.57-6.76-.6-15.32.07-17.07,3.84l-.66,1.41c-2.39,5.13,7,10.92,16.23,15.2s19.59,7.68,22,2.55l.66-1.41c1.8-3.88-3.26-10.84-8.4-15.67h0m0,0"/></g></g></g><g id="_编组_119" data-name="&lt;编组&gt;" class="cls-22"><g id="_编组_120" data-name="&lt;编组&gt;"><rect id="_矩形_22" data-name="&lt;矩形&gt;" class="cls-1" x="746.15" y="654.98" width="24.12" height="9.75" transform="translate(353.94 -260.4) rotate(25.25)"/></g></g></g></g></g></svg>