<svg xmlns="http://www.w3.org/2000/svg" xmlns:xlink="http://www.w3.org/1999/xlink" viewBox="0 0 1685.5 1360.95"><defs><style>.cls-1{fill:#ff7761;}.cls-2{fill:#ffcdbd;}.cls-3{fill:#ed937e;}.cls-22,.cls-3{opacity:0.7;}.cls-4{fill:#e55041;}.cls-5{fill:#ffe094;}.cls-6{fill:#edc469;}.cls-7{fill:#fff;}.cls-8{fill:#c4c5c6;opacity:0.6;}.cls-9{fill:#b5726d;}.cls-10{fill:#e2a49c;}.cls-11{fill:#efefef;}.cls-12{fill:#c93c35;}.cls-13{fill:#0f1e42;}.cls-14{fill:#915629;}.cls-15{fill:#573e0f;}.cls-16{fill:#3b497a;}.cls-17{opacity:0.15;fill:url(#未命名的渐变_17);}.cls-18{fill:none;stroke:#b3e8ff;stroke-miterlimit:10;stroke-width:22px;}.cls-19{fill:#ccc;}.cls-20{fill:#92cce0;}.cls-21{fill:#b3e8ff;}.cls-22{fill:#e8e8e8;}.cls-23{opacity:0.25;}.cls-24{fill:url(#未命名的渐变_24);}.cls-25{fill:url(#未命名的渐变_24-2);}</style><linearGradient id="未命名的渐变_17" x1="439.59" y1="561.69" x2="561.59" y2="367.69" gradientUnits="userSpaceOnUse"><stop offset="0" stop-color="#c93c35" stop-opacity="0"/><stop offset="1" stop-color="#c93c35"/></linearGradient><linearGradient id="未命名的渐变_24" x1="960.76" y1="469.42" x2="396.76" y2="779.42" gradientUnits="userSpaceOnUse"><stop offset="0" stop-color="#c93c35"/><stop offset="1" stop-color="#c93c35" stop-opacity="0"/></linearGradient><linearGradient id="未命名的渐变_24-2" x1="1006.37" y1="552.4" x2="442.37" y2="862.4" xlink:href="#未命名的渐变_24"/></defs><title>资源 6</title><g id="图层_2" data-name="图层 2"><g id="图层_1-2" data-name="图层 1"><circle class="cls-1" cx="793.34" cy="628.93" r="595"/><path id="_路径_" data-name="&lt;路径&gt;" class="cls-2" d="M970.82,270.14l-1.55-7.21,5.61-4.42a5.49,5.49,0,0,1,7.77,1h0a126.23,126.23,0,0,1,25.22,66.21l1.07,13.43,15.37-8.37a11.49,11.49,0,0,1,15.85,5.13h0a2.41,2.41,0,0,1-.55,2.82L1016.25,360l.19.09-8.07,7.09-4.75,4.34-.09-.05L953,391.59l-10.22-13.67h-7.2l15.81-20.77a106.68,106.68,0,0,0,19.75-43.76h0A106.68,106.68,0,0,0,970.82,270.14Z"/><path class="cls-3" d="M966,386.41l-18.73-23.85s0,11.25,0,21.44l5.68,7.59Z"/><path id="_路径_2" data-name="&lt;路径&gt;" class="cls-1" d="M944.55,901.18l148.53,33a302.08,302.08,0,0,1,23.12-21.46L971,880.38Z"/><path id="_路径_3" data-name="&lt;路径&gt;" class="cls-1" d="M685.44,648.26,593,774.3l-13.29-5.15-17.28,28.44.22-.07.34.07-.74,1.9-.91-.1-7,11.55a74.24,74.24,0,0,1-13.19,15.93l-35.36,32.57,68.23,77c5.82,6.56,16.39,7.91,28,3.6s21.09-13,25.07-23.15l16.21-41.47c5.82-14.9,19.07-28.53,35.71-36.47a68.09,68.09,0,0,1,20.32-6.19c-3.76-47.24,6.17-98.81,29.16-150.52l.17-.38q1.6-3.58,3.28-7.17l0-.06q3.44-7.32,7.22-14.64l.26-.5q1.68-3.25,3.44-6.49l.58-1.07q1.78-3.28,3.63-6.56l.25-.45q4-7,8.29-14l1-1.57q1.66-2.68,3.37-5.35l1.1-1.72q1.95-3,4-6l.49-.74q2.27-3.4,4.62-6.78l1.1-1.57q1.78-2.55,3.61-5.1l1.56-2.16q1.72-2.37,3.47-4.73l1.49-2q2.47-3.3,5-6.58l6.66-8.59C751.56,586.95,710.91,613.53,685.44,648.26Z"/><path id="_路径_4" data-name="&lt;路径&gt;" class="cls-4" d="M1579.45,1179.54l0,.06,0,.07Z"/><path id="_路径_5" data-name="&lt;路径&gt;" class="cls-4" d="M791.32,1337.2l-.05,0-.06.06Z"/><polygon id="_路径_6" data-name="&lt;路径&gt;" class="cls-4" points="701.21 850.93 701.21 850.92 701.21 850.93 701.21 850.93"/><polygon id="_路径_7" data-name="&lt;路径&gt;" class="cls-5" points="894.94 381.81 945.78 358.81 976.22 434.7 917.47 461.91 894.94 381.81"/><polygon id="_路径_8" data-name="&lt;路径&gt;" class="cls-6" points="935.05 453.77 949.15 447.24 906.94 383.81 935.05 453.77"/><path id="_矩形_" data-name="&lt;矩形&gt;" class="cls-7" d="M716.69,326.25H830.21a7.52,7.52,0,0,1,7.52,7.52V656a0,0,0,0,1,0,0h-121a0,0,0,0,1,0,0V326.25A0,0,0,0,1,716.69,326.25Z" transform="translate(935.53 -414.52) rotate(67.63)"/><path id="_路径_9" data-name="&lt;路径&gt;" class="cls-8" d="M789.27,504.55l1.15-84.3L727.79,446l-1.4,102.86a65.93,65.93,0,0,0,5.14,26.5l71.57-29.46A65.94,65.94,0,0,1,789.27,504.55Z"/><path id="_路径_10" data-name="&lt;路径&gt;" class="cls-9" d="M188.61,727c1.15.14,29.73-18.9,43.95-28.44a8.29,8.29,0,0,1,12.07,3.24l24,49-48.49,23.55Z"/><polyline id="_路径_11" data-name="&lt;路径&gt;" class="cls-10" points="253.68 794.24 225.52 782.48 188.61 727.05 221.15 731.14 256.61 795.65"/><path id="_复合路径_" data-name="&lt;复合路径&gt;" class="cls-11" d="M818.25,215.55l-121.39-40.3L677.34,234l67.07,22.19-20.05-1.49L745.89,288l14-18.47a11.25,11.25,0,0,1,12.53-3.87l26.3,8.74a5.75,5.75,0,0,0,7.27-3.64l15.91-47.92A5.75,5.75,0,0,0,818.25,215.55Zm-14.6,13.88-9.11,27.16a2,2,0,0,1-2.5,1.24L781,254.12a2,2,0,0,1-1.24-2.5l9.11-27.16a2,2,0,0,1,2.5-1.24l11.07,3.71A2,2,0,0,1,803.65,229.43Z"/><path id="_路径_12" data-name="&lt;路径&gt;" class="cls-12" d="M750.74,59.21l25.62,2.59a8,8,0,0,1,5,13.51L767.94,89.48,750.12,60.81Z"/><polygon id="_路径_13" data-name="&lt;路径&gt;" class="cls-4" points="616.19 72.93 598.75 144.37 635.24 150.85 679.02 72.93 616.19 72.93"/><path id="_复合路径_2" data-name="&lt;复合路径&gt;" class="cls-13" d="M777.62,80a34.43,34.43,0,1,0,34.43,34.43A34.43,34.43,0,0,0,777.62,80Zm0,61.93a27.5,27.5,0,1,1,27.5-27.5A27.5,27.5,0,0,1,777.62,141.94Z"/><path id="_路径_14" data-name="&lt;路径&gt;" class="cls-12" d="M751.23,43.81"/><path id="_路径_15" data-name="&lt;路径&gt;" class="cls-14" d="M1551.83,1071.15l49.74,42.94a89.61,89.61,0,0,0,37.42,19.25l34.25,8.22c7.18,1.74,12.59,8.35,12.25,15.73v-.15c-.39,8.51-8.54,14.47-17.06,14.08l-82.77-3.8a131.72,131.72,0,0,1-49.63-12.25l-15.48-7.27-62.9-2.89,2.46-53.59a10.81,10.81,0,0,1,9-10.33l73.85-12.45A10.78,10.78,0,0,1,1551.83,1071.15Z"/><rect id="_矩形_2" data-name="&lt;矩形&gt;" class="cls-15" x="1453.22" y="1142.29" width="70.2" height="20.65" rx="9.01" ry="9.01" transform="translate(2922.22 2372.27) rotate(-177.37)"/><path id="_路径_16" data-name="&lt;路径&gt;" class="cls-14" d="M765.72,1213.53l21.91,61.95a89.61,89.61,0,0,0,23,35.27l25.67,24.11c5.37,5.07,6.8,13.49,2.85,19.73l.08-.13c-4.56,7.2-14.59,8.33-21.79,3.77l-70-44.33a131.72,131.72,0,0,1-37-35.24l-9.84-14L647.33,1231l28.7-45.32a10.81,10.81,0,0,1,12.9-4.53l70.31,25.79A10.78,10.78,0,0,1,765.72,1213.53Z"/><rect id="_矩形_3" data-name="&lt;矩形&gt;" class="cls-15" x="635.08" y="1242.48" width="70.2" height="20.65" rx="9.01" ry="9.01" transform="translate(566.17 2669.78) rotate(-147.66)"/><path id="_路径_17" data-name="&lt;路径&gt;" class="cls-2" d="M787.41,243l-96.47-4.16L616.19,121,688,69.11a67.13,67.13,0,0,1,93.72,15.14h0a65.78,65.78,0,0,1,11.83,29.54l14.69,106.9A19.66,19.66,0,0,1,787.41,243Z"/><path id="_矩形_4" data-name="&lt;矩形&gt;" class="cls-2" d="M619.13,113.91h25.7a19.88,19.88,0,0,1,19.88,19.88v46.76a0,0,0,0,1,0,0H619.13a0,0,0,0,1,0,0V113.91A0,0,0,0,1,619.13,113.91Z" transform="translate(20.97 366.69) rotate(-32.38)"/><path id="_路径_18" data-name="&lt;路径&gt;" class="cls-3" d="M794.73,122.13h0l-14,12.49c-2.47,2.19.07,20.81.07,20.81l20.73,15.85Z"/><path id="_复合路径_3" data-name="&lt;复合路径&gt;" class="cls-13" d="M735.81,83.6a38.53,38.53,0,1,0,38.53,38.53A38.53,38.53,0,0,0,735.81,83.6Zm0,69.29a30.77,30.77,0,1,1,30.77-30.77A30.77,30.77,0,0,1,735.81,152.9Z"/><path id="_路径_19" data-name="&lt;路径&gt;" class="cls-16" d="M696.08,958.52l249.48,27.55a2.91,2.91,0,0,1,1.55,5.12L750.56,1155.91l66.6,79.47,261.36-161.05a118.5,118.5,0,0,0,54.14-123.58h0a118.5,118.5,0,0,0-90.86-93L766,797.08Z"/><path id="_路径_20" data-name="&lt;路径&gt;" class="cls-16" d="M959.06,638.22,812,776.46l230.28,50.75a493,493,0,0,1,231.39,122.08l152.17,142.92,75.2-72.78L1382,873.08a594.65,594.65,0,0,0-287.83-193.46C1024,658.23,959.06,638.22,959.06,638.22Z"/><path id="_路径_21" data-name="&lt;路径&gt;" class="cls-7" d="M694.27,226.15A140.36,140.36,0,0,1,799.64,386.75L776,521.95A66.13,66.13,0,0,0,822,596.61l137.11,41.61L871.83,744.47,696.08,958.52,587.84,849.17a417.52,417.52,0,0,1-96.41-434.28l3.84-10.75h0A132.45,132.45,0,0,0,402,492.2L351.7,649.95l-117-42.31,44.73-150.51a286.91,286.91,0,0,1,193-193.2l50.12-15a65.1,65.1,0,0,0,42.69-40.46L595.44,124a7.1,7.1,0,0,1,8.29-4.53l163.91,38a4.23,4.23,0,0,1,3.14,5.17l-14.63,56.9a4.23,4.23,0,0,1-5,3.06l-52.15-12.11-4.67,15.67Z"/><path id="_路径_22" data-name="&lt;路径&gt;" class="cls-17" d="M495.28,404.14l-3.84,10.75a417,417,0,0,0-24.31,147.36c6.27-91.71,79.41-152.58,131.64-184.67Z"/><path id="_路径_23" data-name="&lt;路径&gt;" class="cls-2" d="M813.44,128.76l-14-8.08a12.71,12.71,0,0,1-6.21-9.1h0l-10.8,5.06,10.4,2.45-15.22,18.07,3.72,21.68,29.37-8.3a11.92,11.92,0,0,0,8.17-8h0A11.92,11.92,0,0,0,813.44,128.76Z"/><circle id="_路径_24" data-name="&lt;路径&gt;" class="cls-18" cx="1030.34" cy="581.15" r="42.25"/><path id="_路径_25" data-name="&lt;路径&gt;" class="cls-4" d="M687.14,69.75l-8.72,67-8.56-2,2.91-26.87a1.32,1.32,0,0,0-2.36-.95l-18.25,23.71-41.08-9.52Z"/><g id="_编组_" data-name="&lt;编组&gt;"><path id="_路径_26" data-name="&lt;路径&gt;" class="cls-4" d="M629.76,184.24l-1.64-9.86,10.33-1.72A2.17,2.17,0,0,0,640.2,170l-4.76-18.92a7.94,7.94,0,0,1,10.65-9.31l17.79,7.11a2.25,2.25,0,0,0,3.06-1.75l11-71.66L687.82,77l-11,71.66a12.25,12.25,0,0,1-16.66,9.52l-14.05-5.61,3.77,15a12.17,12.17,0,0,1-9.8,15Z"/></g><path id="_路径_27" data-name="&lt;路径&gt;" class="cls-7" d="M771.75,61.81l-160.67,32,3.8-15.59a73.15,73.15,0,0,0-2.49-42.79L607.77,23,722.12.39a20.8,20.8,0,0,1,16.44,3.71h0a81.89,81.89,0,0,1,31.19,48.47Z"/><path id="_路径_28" data-name="&lt;路径&gt;" class="cls-19" d="M769.76,52.58a81.88,81.88,0,0,0-22.57-41.07L698,21.52l9.49,46.64,62.83-12.79Z"/><path id="_路径_29" data-name="&lt;路径&gt;" class="cls-13" d="M801.13,118.29l-15,2.83a4.92,4.92,0,0,1-5.76-4L780,115l13.93-2.62a6,6,0,0,1,7.07,4.87Z"/><path id="_路径_30" data-name="&lt;路径&gt;" class="cls-11" d="M747.18,7.1,692.63,18.2l9.49,46.64,72.06-14.67a81.86,81.86,0,0,0-26.8-43A.24.24,0,0,0,747.18,7.1Z"/><rect id="_矩形_5" data-name="&lt;矩形&gt;" class="cls-4" x="727.58" y="28.78" width="24.38" height="6.73" transform="translate(10.11 158.22) rotate(-12.29)"/><rect id="_矩形_6" data-name="&lt;矩形&gt;" class="cls-4" x="727.58" y="28.78" width="24.38" height="6.73" transform="translate(863.58 762.2) rotate(-102.11)"/><rect id="_矩形_7" data-name="&lt;矩形&gt;" class="cls-7" x="705.45" y="50.5" width="3.67" height="7.93" transform="translate(3.94 146.77) rotate(-11.88)"/><rect id="_矩形_8" data-name="&lt;矩形&gt;" class="cls-7" x="702.24" y="35.03" width="3.67" height="7.93" transform="matrix(0.98, -0.21, 0.21, 0.98, 7.05, 145.78)"/><rect id="_矩形_9" data-name="&lt;矩形&gt;" class="cls-7" x="698.94" y="21.34" width="3.67" height="7.93" transform="translate(9.8 144.81) rotate(-11.88)"/><rect id="_矩形_10" data-name="&lt;矩形&gt;" class="cls-2" x="722.31" y="177.72" width="32.59" height="15.62" rx="1.97" ry="1.97" transform="translate(376.63 855.55) rotate(-75.72)"/><polygon id="_路径_31" data-name="&lt;路径&gt;" class="cls-20" points="214.09 722.36 272.05 771.09 281.66 756.23 261.97 733.88 229.46 706.54 214.09 722.36"/><polygon id="_路径_32" data-name="&lt;路径&gt;" class="cls-5" points="253.2 614.33 241.94 654.48 326.69 679.1 333.87 643.5 253.2 614.33"/><rect id="_矩形_11" data-name="&lt;矩形&gt;" class="cls-1" x="257.03" y="629.91" width="10.67" height="21" transform="translate(180.86 -46.84) rotate(15.51)"/><polygon id="_路径_33" data-name="&lt;路径&gt;" class="cls-6" points="333.87 643.5 253.2 614.33 250.79 622.93 333.87 643.5"/><path id="_路径_34" data-name="&lt;路径&gt;" class="cls-1" d="M574.95,835.55s93.66,118.93,296,142.28l-252,103.58Z"/><g id="_编组_2" data-name="&lt;编组&gt;"><path id="_路径_35" data-name="&lt;路径&gt;" class="cls-21" d="M63,782.17,51.32,762.65,67.39,753a30.72,30.72,0,0,0,10.82-41.29l-7.52-13.21a30.54,30.54,0,0,0-42.09-11.18l-17,10.07L0,677.81l17-10.07a53.3,53.3,0,0,1,73.46,19.51L98,700.45A53.3,53.3,0,0,1,79.1,772.52Z"/></g><path id="_路径_36" data-name="&lt;路径&gt;" class="cls-22" d="M822,596.61A66.13,66.13,0,0,1,776,521.95l23.62-135.19A139.82,139.82,0,0,0,788,302l-80.91,13.67a140,140,0,0,1,23.46,104.89L706.9,555.74a66.13,66.13,0,0,0,45.94,74.66l168.05,54.31,38.17-46.49Z"/><g id="_编组_3" data-name="&lt;编组&gt;"><path id="_路径_37" data-name="&lt;路径&gt;" class="cls-21" d="M423.84,882.4a53.58,53.58,0,0,1-34.58-12.74L182,695.37a60.51,60.51,0,0,0-68.91-6.12L93.45,700.55,82.61,681.48l19.5-11.3a82.58,82.58,0,0,1,94,8.35L403.42,852.81a32.24,32.24,0,0,0,52.93-24.46v-51.9a53.7,53.7,0,0,1,76.94-48.68l45.29,21.69a29.11,29.11,0,0,0,34.33-7l96.45-113.18a222.88,222.88,0,0,1,201.28-76.06l80,11.47-3.12,21.78-80-11.47a200.9,200.9,0,0,0-181.43,68.55l-96.6,113.34A51.22,51.22,0,0,1,569,769.31l-45.34-21.69a31.65,31.65,0,0,0-45.35,28.83v51.9A53.64,53.64,0,0,1,447,877.27,55.11,55.11,0,0,1,423.84,882.4Z"/></g><path id="_路径_38" data-name="&lt;路径&gt;" class="cls-2" d="M281.58,676.31a15.77,15.77,0,0,1-6.86,10.12l-66.25,43.12,42.64,62.24a9.17,9.17,0,0,0,15.18-.33l48.95-75.71a57.65,57.65,0,0,0,8.1-19.93l3.36-16.71-43.17-12.54Z"/><polygon id="_路径_39" data-name="&lt;路径&gt;" class="cls-3" points="326.69 679.1 283.65 666.59 281.78 676.31 327.34 681.48 327.34 679.1 326.91 679.01 326.69 679.1"/><g id="_编组_4" data-name="&lt;编组&gt;" class="cls-23"><path id="_路径_40" data-name="&lt;路径&gt;" class="cls-24" d="M504.16,722.78l-3.37-2.95c.46,1.07.93,2.13,1.4,3.2C502.84,722.94,503.5,722.85,504.16,722.78Z"/><path id="_路径_41" data-name="&lt;路径&gt;" class="cls-25" d="M821.5,596.46a269.62,269.62,0,0,0-34,5.39,197.53,197.53,0,0,0-22.17,6.38,201,201,0,0,0-39.26,35.31l-87.27,102.4q-1.14,4.41-2.09,8.89l-13.13,62.52a5,5,0,0,1-8.14,2.72l-72.13-63-19.63-9.39a32,32,0,0,0-11.34-3q5.89,11.61,12.53,22.88l77.41,67.66a24.75,24.75,0,0,0,16.35,6.2,25.24,25.24,0,0,0,8-1.32,24.74,24.74,0,0,0,16.52-18.55l13.13-62.52A179.06,179.06,0,0,1,791.9,621.36a249.85,249.85,0,0,1,63.22-5.94l4.3.15a283.37,283.37,0,0,1,37.53,3.8l-75-22.76Z"/></g><path id="_路径_42" data-name="&lt;路径&gt;" class="cls-7" d="M796.55,324.74,663.79,349.28l3.27,17.7,133.23-24.63A139.59,139.59,0,0,0,796.55,324.74Z"/><polygon id="_路径_43" data-name="&lt;路径&gt;" class="cls-7" points="840.44 723.81 925.11 627.91 959.06 638.22 869.63 747.15 840.44 723.81"/><rect id="_矩形_12" data-name="&lt;矩形&gt;" class="cls-1" x="942.51" y="423.35" width="20.96" height="11" transform="translate(-91.98 417.13) rotate(-23.59)"/></g></g></svg>