<?xml version="1.0" encoding="UTF-8"?>
<svg width="16px" height="16px" viewBox="0 0 16 16" version="1.1" xmlns="http://www.w3.org/2000/svg" xmlns:xlink="http://www.w3.org/1999/xlink">
    <!-- Generator: Sketch 44.1 (41455) - http://www.bohemiancoding.com/sketch -->
    <title>编辑</title>
    <desc>Created with Sketch.</desc>
    <defs></defs>
    <g id="icon" stroke="none" stroke-width="1" fill="none" fill-rule="evenodd">
        <g id="Artboard" transform="translate(-367.000000, -209.000000)" fill-rule="nonzero" fill="#FFFFFF">
            <g id="编辑" transform="translate(367.000000, 209.000000)">
                <path d="M2.99710927,1.836057 C2.18546968,1.836057 1.52184517,2.48876223 1.52184517,3.29614867 L1.52184517,12.0950968 C1.52184517,12.8983796 2.18546968,13.5511058 2.99710927,13.5511058 L11.8914886,13.5511058 C12.703107,13.5511058 13.3626065,12.8983796 13.3626065,12.0950968 L13.3626065,6.31276698 L14.8888308,4.85267531 L14.8888308,12.6305349 C14.8888308,13.9735898 13.7389164,15.0614039 12.3819035,15.0614039 L2.45609378,15.0614039 C1.09918673,15.0614039 -2.08054421e-07,13.9735898 -2.08054421e-07,12.6305349 L-2.08054421e-07,2.91126718 C-2.08054421e-07,1.56829606 1.09918673,0.329820586 2.45609378,0.329820586 L10.3146849,0.329820586 L8.84356703,1.83614075 L2.99710927,1.83614075 L2.99710927,1.836057 Z M8.43774722,8.98637743 L5.14052486,9.91094722 L6.0831928,6.66844161 L8.43774722,8.98637743 L8.43774722,8.98637743 Z M8.7676239,8.66005621 L6.40869057,6.34628682 L11.5913546,1.25039145 L13.9502879,3.56399336 L8.7676239,8.66005621 L8.7676239,8.66005621 Z M15.015586,2.51805284 L14.3095687,3.21265264 L11.9507412,0.894716821 L12.6566738,0.200117015 C12.9188574,-0.0550609024 13.3288023,-0.0677276751 13.569853,0.170910159 L15.0450959,1.61850254 C15.2861255,1.85691007 15.2733273,2.26287493 15.015586,2.51805284 L15.015586,2.51805284 Z" id="Shape"></path>
            </g>
        </g>
    </g>
</svg>