<?xml version="1.0" encoding="UTF-8"?>
<svg width="24px" height="20px" viewBox="0 0 24 20" version="1.1" xmlns="http://www.w3.org/2000/svg" xmlns:xlink="http://www.w3.org/1999/xlink">
    <!-- Generator: Sketch 52.1 (67048) - http://www.bohemiancoding.com/sketch -->
    <title>加入</title>
    <desc>Created with Sketch.</desc>
    <g id="慢阻肺专项" stroke="none" stroke-width="1" fill="none" fill-rule="evenodd">
        <g id="慢阻肺项目-科研项目" transform="translate(-729.000000, -293.000000)" fill="#FFFFFF" fill-rule="nonzero">
            <g id="加入" transform="translate(729.000000, 293.000000)">
                <path d="M20,14.5219826 L20,1.48072601 C20,0.665647473 19.3103448,0 18.463695,0 L10.8690777,0 C10.3980936,0 10.0168209,0.369502271 10.0168209,0.825946252 C10.0168209,1.28239023 10.3980936,1.6518925 10.8690777,1.6518925 L17.8553406,1.6518925 C18.0964396,1.6518925 18.2898795,1.83936057 18.2898795,2.07029949 L18.2898795,13.937843 C18.2898795,14.1687819 18.0936361,14.35625 17.8553406,14.35625 L2.1418559,14.35625 C1.90075694,14.35625 1.70731707,14.1687819 1.70731707,13.937843 L1.70731707,10.4167037 L1.69890664,10.4167037 L1.69890664,10.3868175 C1.69890664,9.93037353 1.31763387,9.56087126 0.846649846,9.56087126 C0.406504065,9.56087126 0.0420521447,9.88690267 0,10.3025927 L0,14.6252259 C0.0560695262,15.3941167 0.720493412,15.9999917 1.53069807,15.9999917 L18.4608915,15.9999917 C19.3103448,16.0027086 20,15.3370612 20,14.5219826 Z" id="Shape"></path>
                <path d="M23.1315696,3.87303355 C22.653221,3.87303355 22.2631392,4.25170542 22.2631392,4.71947654 L22.2631392,17.808715 C22.2631392,18.0843659 22.0325068,18.307114 21.7506228,18.307114 L3.8780401,18.307114 C3.39969154,18.307114 3.00960968,18.6857859 3.00960968,19.153557 C3.00960968,19.6185438 3.39969154,20 3.8780401,20 L21.7506228,20 C22.9920513,20 24,19.0171238 24,17.8114994 L24,4.71947654 C24,4.25448977 23.6099181,3.87303355 23.1315696,3.87303355 Z M0.871277732,6.18126131 C0.896903547,6.18126131 0.925376676,6.18126131 0.951002491,6.17847696 L4.50444893,6.17847696 L4.50444893,9.66726994 C4.50444893,9.68397605 4.50160161,9.70068217 4.50160161,9.72017263 C4.50160161,9.73687874 4.50160161,9.75358485 4.50444893,9.77307532 L4.50444893,9.78978143 C4.54146399,10.229709 4.91730929,10.5749687 5.37572666,10.5749687 C5.83414403,10.5749687 6.20998932,10.229709 6.24700439,9.78978143 L6.2498517,9.78978143 L6.2498517,9.7452318 L6.2498517,9.72017263 L6.2498517,9.67840735 L6.2270732,6.18126131 L9.98552616,6.18126131 L9.98552616,6.17847696 C10.0168466,6.18126131 10.0510144,6.18404566 10.0851821,6.18404566 C10.566378,6.18404566 10.9564598,5.80258945 10.9564598,5.33203397 C10.9564598,4.86147849 10.566378,4.48002227 10.0851821,4.48002227 C10.0510144,4.48002227 10.0196939,4.48280663 9.98552616,4.48559098 L9.98552616,4.48280663 L6.2498517,4.48280663 L6.2498517,0.871502158 L6.2498517,0.852011694 C6.2498517,0.381456216 5.85976984,0 5.37857397,0 C4.8973781,0 4.50729624,0.381456216 4.50729624,0.852011694 L4.50729624,4.48002227 L0.951002491,4.48002227 C0.925376676,4.47723792 0.896903547,4.47723792 0.871277732,4.47723792 C0.39008186,4.47723792 0,4.85869414 0,5.32924962 C0,5.7998051 0.39008186,6.18126131 0.871277732,6.18126131 Z" id="Shape"></path>
            </g>
        </g>
    </g>
</svg>