<?xml version="1.0" encoding="UTF-8"?>
<svg width="474px" height="84px" viewBox="0 0 474 84" version="1.1" xmlns="http://www.w3.org/2000/svg" xmlns:xlink="http://www.w3.org/1999/xlink">
    <!-- Generator: Sketch 44.1 (41455) - http://www.bohemiancoding.com/sketch -->
    <title>Group 8</title>
    <desc>Created with Sketch.</desc>
    <defs>
        <path d="M21,5.32904341e-15 L92,5.32904341e-15 L92,5.32907052e-15 C94.209139,1.27716848e-14 96,1.790861 96,4 L96,38 L96,38 C96,40.209139 94.209139,42 92,42 L61.7974999,42 L54.5054553,48.1096395 L48.0996835,42 L21,42 L21,42 C18.790861,42 17,40.209139 17,38 L17,4 L17,4 C17,1.790861 18.790861,3.95853055e-15 21,3.55271368e-15 Z" id="path-1"></path>
        <path d="M31,5.32904341e-15 L102,5.32904341e-15 L102,5.32907052e-15 C104.209139,1.27716848e-14 106,1.790861 106,4 L106,38 L106,38 C106,40.209139 104.209139,42 102,42 L71.7974999,42 L64.5054553,48.1096395 L58.0996835,42 L31,42 L31,42 C28.790861,42 27,40.209139 27,38 L27,4 L27,4 C27,1.790861 28.790861,3.95853055e-15 31,3.55271368e-15 Z" id="path-2"></path>
        <path d="M372,5 L443,5 L443,5 C445.209139,5 447,6.790861 447,9 L447,43 L447,43 C447,45.209139 445.209139,47 443,47 L412.7975,47 L405.505455,53.1096395 L399.099684,47 L372,47 L372,47 C369.790861,47 368,45.209139 368,43 L368,9 L368,9 C368,6.790861 369.790861,5 372,5 Z" id="path-3"></path>
    </defs>
    <g id="icon" stroke="none" stroke-width="1" fill="none" fill-rule="evenodd">
        <g id="Artboard" transform="translate(-55.000000, -47.000000)">
            <g id="Group-8" transform="translate(55.000000, 47.000000)">
                <text id="任何人提可以提问" font-family="PingFangSC-Regular, PingFang SC" font-size="13" font-weight="normal" fill="#3260B6">
                    <tspan x="13" y="82">任何人都可以提问</tspan>
                </text>
                <text id="任何人都可以回答" font-family="PingFangSC-Regular, PingFang SC" font-size="13" font-weight="normal" fill="#3260B6">
                    <tspan x="171" y="82">任何人都可以回答</tspan>
                </text>
                <g id="Group-7" transform="translate(168.000000, 5.000000)">
                    <g id="Group-2" transform="translate(12.000000, 51.000000)" stroke="#465A79" stroke-linecap="square">
                        <path d="M19.4868469,1.5 L57.507246,1.5" id="Line-Copy-2"></path>
                        <path d="M0.5,1.5 L17.507246,1.5" id="Line-Copy-6"></path>
                        <path d="M59.5,1.5 L89.5,1.5" id="Line-Copy-3"></path>
                    </g>
                    <path d="M18.4286665,11.9341384 C-3.41971689,20.9403059 -5.84109004,29.5384328 11.164547,37.7285193 C36.6730026,50.013649 45.1833367,37.5766477 54.021622,35.3955523 C62.8599073,33.2144569 80.3233096,44.8061007 90.3873125,43.9552539 C100.451316,43.1044071 116.242167,37.0130761 119.285964,24.4736072 C122.329761,11.9341384 115.600612,1.32325562 99.8958481,3.22073543 C84.1910842,5.11821525 63.8376118,17.3155156 45.665015,11.6358846 C33.5499505,7.84946392 24.4711676,7.94888186 18.4286665,11.9341384 Z" id="Path-5" fill-opacity="0.501981431" fill="#D8D8D8"></path>
                    <g id="Rectangle-12-Copy">
                        <use fill="#F7F8F9" fill-rule="evenodd" xlink:href="#path-1"></use>
                        <path stroke="#465A79" stroke-width="1" d="M54.5270299,47.4392611 L61.6157225,41.5 L92,41.5 C93.9329966,41.5 95.5,39.9329966 95.5,38 L95.5,4 C95.5,2.06700338 93.9329966,0.5 92,0.5 L21,0.5 C19.0670034,0.5 17.5,2.06700338 17.5,4 L17.5,38 C17.5,39.9329966 19.0670034,41.5 21,41.5 L48.2998948,41.5 L54.5270299,47.4392611 Z"></path>
                    </g>
                    <g id="Group-4" transform="translate(42.000000, 8.000000)" stroke="#465A79">
                        <circle id="Oval-2-Copy" fill="#43BFF5" cx="13" cy="13" r="13"></circle>
                        <path d="M12,10.5 C12,9.11928813 10.4329966,8 8.5,8 C6.56700338,8 5,9.11928813 5,10.5" id="Oval-5"></path>
                        <path d="M16,20.5 C16,19.1192881 14.4329966,18 12.5,18 C10.5670034,18 9,19.1192881 9,20.5" id="Oval-5-Copy-2" transform="translate(12.500000, 19.250000) rotate(-180.000000) translate(-12.500000, -19.250000) "></path>
                        <path d="M22,10.5 C22,9.11928813 20.4329966,8 18.5,8 C16.5670034,8 15,9.11928813 15,10.5" id="Oval-5-Copy"></path>
                    </g>
                    <polygon id="Star" fill="#D8D8D8" points="78.8794466 6.12527256 77.7178847 6.76911412 77.9397233 5.40543582 77 4.43967349 78.2986657 4.2407155 78.8794466 3 79.4602275 4.2407155 80.7588932 4.43967349 79.8191699 5.40543582 80.0410085 6.76911412"></polygon>
                    <polygon id="Star-Copy" fill="#D8D8D8" points="80.7742522 12.7659078 79.4976023 13.0298744 80.0499126 11.786809 79.3867199 10.5713114 80.6845465 10.7768885 81.5513207 9.76170298 81.8011114 11.1318221 83 11.7199005 81.8565526 12.3611036 81.7307322 13.7397416"></polygon>
                    <path d="M71,9.31626316 C73.412427,8.10357984 75.3034474,7.33149212 76.6730612,7" id="Path-8" stroke="#D8D8D8"></path>
                    <path d="M72.5248582,11.9734761 C75.1453537,11.5449252 77.1550913,11.380578 78.5540709,11.4804345 L72.5248582,11.9734761 Z" id="Path-8-Copy" stroke="#D8D8D8"></path>
                </g>
                <g id="Group-6" transform="translate(0.000000, 5.000000)">
                    <g id="Group" transform="translate(22.000000, 51.000000)" stroke="#465A79" stroke-linecap="square">
                        <path d="M0.5,1.5 L57.507246,1.5" id="Line"></path>
                        <path d="M59.5,1.5 L89.5,1.5" id="Line-Copy"></path>
                    </g>
                    <path d="M19.2833963,17.3239105 C-0.799778842,21.3410159 -5.19586037,26.1570448 6.09515169,31.7719971 C23.0316698,40.1944256 113.818302,37.0945141 116.436009,31.8808874 C119.053717,26.6672608 124.60853,21.0593214 112.454525,16.8587595 C100.30052,12.6581975 128.355114,11.3325764 97.4158027,8.3487453 C66.4764919,5.36491418 18.1663499,7.75576656 19.9610598,11.3964903 C21.157533,13.8236394 20.9316452,15.7994462 19.2833963,17.3239105 Z" id="Path-4" fill-opacity="0.500877491" fill="#D8D8D8"></path>
                    <g id="Rectangle-12">
                        <use fill="#F7F8F9" fill-rule="evenodd" xlink:href="#path-2"></use>
                        <path stroke="#465A79" stroke-width="1" d="M64.5270299,47.4392611 L71.6157225,41.5 L102,41.5 C103.932997,41.5 105.5,39.9329966 105.5,38 L105.5,4 C105.5,2.06700338 103.932997,0.5 102,0.5 L31,0.5 C29.0670034,0.5 27.5,2.06700338 27.5,4 L27.5,38 C27.5,39.9329966 29.0670034,41.5 31,41.5 L58.2998948,41.5 L64.5270299,47.4392611 Z"></path>
                    </g>
                    <text id="？" font-family="PingFangSC-Regular, PingFang SC" font-size="12" font-weight="normal" fill="#BCC1CC">
                        <tspan x="78" y="14">？</tspan>
                    </text>
                    <g id="Group-5" transform="translate(50.000000, 8.000000)">
                        <circle id="Oval-2" stroke="#465A79" fill="#43BFF5" cx="13" cy="13" r="13"></circle>
                        <ellipse id="Oval-3" fill="#FFFFFF" cx="8.5" cy="8.5" rx="2.5" ry="3.5"></ellipse>
                        <circle id="Oval-4" stroke="#979797" fill="#0D0D0D" cx="9.5" cy="6.5" r="1.5"></circle>
                        <ellipse id="Oval-3-Copy" fill="#FFFFFF" cx="17.5" cy="8.5" rx="2.5" ry="3.5"></ellipse>
                        <circle id="Oval-4-Copy" stroke="#979797" fill="#0D0D0D" cx="17.5" cy="6.5" r="1.5"></circle>
                        <path d="M5,15 C7.54828443,16.477512 8.86864704,17.5012937 8.96108783,18.0713452" id="Path-3" stroke="#465A79"></path>
                    </g>
                </g>
                <text id="最好的答案会被采纳哦" font-family="PingFangSC-Regular, PingFang SC" font-size="13" font-weight="normal" fill="#3260B6">
                    <tspan x="344" y="82">最好的答案会被采纳哦</tspan>
                </text>
                <g id="Group-3" transform="translate(363.000000, 58.000000)" stroke="#465A79" stroke-linecap="square">
                    <path d="M32.5,1.5 L89.507246,1.5" id="Line-Copy-4"></path>
                    <path d="M0.5,1.5 L30.5,1.5" id="Line-Copy-5"></path>
                </g>
                <path d="M360.402418,17.2304625 C337.871224,24.0300598 334.001594,31.8505311 348.793527,40.6918764 C370.981427,53.9538943 398.470875,47.6748883 407.30916,45.4937929 C416.147445,43.3126974 422.297061,50.1024248 432.361064,49.251578 C442.425067,48.4007312 466.275095,43.4501655 469.318892,30.9106967 C472.362689,18.3712279 457.427456,-1.77249405 441.722692,0.124985765 C426.017928,2.02246558 382.287166,14.1966905 364.114569,8.51705952 C351.999505,4.73063885 350.762121,7.63510651 360.402418,17.2304625 Z" id="Path-5-Copy" fill-opacity="0.501981431" fill="#D8D8D8"></path>
                <g id="Rectangle-12-Copy-2">
                    <use fill="#F7F8F9" fill-rule="evenodd" xlink:href="#path-3"></use>
                    <path stroke="#465A79" stroke-width="1" d="M405.52703,52.4392611 L412.615722,46.5 L443,46.5 C444.932997,46.5 446.5,44.9329966 446.5,43 L446.5,9 C446.5,7.06700338 444.932997,5.5 443,5.5 L372,5.5 C370.067003,5.5 368.5,7.06700338 368.5,9 L368.5,43 C368.5,44.9329966 370.067003,46.5 372,46.5 L399.299895,46.5 L405.52703,52.4392611 Z"></path>
                </g>
                <circle id="Oval-2-Copy-2" stroke="#465A79" fill="#43BFF5" cx="404" cy="26" r="13"></circle>
                <path d="M399,21.6430298 C400.656854,21.6430298 402,23.9521226 402,22.5460036 C402,21.1398846 400.656854,20 399,20 C397.343146,20 396,21.1398846 396,22.5460036 C396,23.9521226 397.343146,21.6430298 399,21.6430298 Z" id="Oval-6" fill="#4A4A4A"></path>
                <path d="M409,21.6430298 C410.656854,21.6430298 412,23.9521226 412,22.5460036 C412,21.1398846 410.656854,20 409,20 C407.343146,20 406,21.1398846 406,22.5460036 C406,23.9521226 407.343146,21.6430298 409,21.6430298 Z" id="Oval-6-Copy" fill="#4A4A4A"></path>
                <path d="M403,28 C404.713125,28.3149339 405.618508,28.8174126 405.71615,29.5074362 C405.862612,30.5424717 404.502966,31.1749933 403.751483,30.7379784 C403,30.3009634 406.252339,31.1488963 405.984245,32.2754925 C405.71615,33.4020888 403.55379,33.43659 403.276895,33.43659" id="Path-6" stroke="#465A79"></path>
                <path d="M427.620231,20.9883404 C428.878835,20.0670793 429.933565,19.7876039 430.784422,20.149914 C432.060707,20.6933791 433.126374,22.6600781 429.653663,24.0505944 C427.848505,24.7734015 426.526351,25.0019639 425.687199,24.7362814 L424.153114,22.481774 C423.706609,19.4127896 424.236664,17.9199666 425.74328,18.0033048 C427.249895,18.0866431 427.875545,19.0816549 427.620231,20.9883404 Z" id="Path-7" fill="#D8D8D8"></path>
                <path d="M423.964161,29.2435854 C424.885154,28.4108979 425.702262,28.1066836 426.415486,28.3309423 C427.485322,28.6673303 428.517757,30.1571474 425.870676,31.5346154 C424.494692,32.2506399 423.459208,32.5346805 422.764224,32.3867372 L421.331016,30.7028634 C420.691961,28.2847475 420.978219,27.0512123 422.189787,27.0022579 C423.401356,26.9533034 423.992814,27.7004126 423.964161,29.2435854 Z" id="Path-7-Copy" fill="#D8D8D8"></path>
            </g>
        </g>
    </g>
</svg>