<?xml version="1.0" encoding="UTF-8"?>
<svg width="66px" height="65px" viewBox="0 0 66 65" version="1.1" xmlns="http://www.w3.org/2000/svg" xmlns:xlink="http://www.w3.org/1999/xlink">
    <!-- Generator: Sketch 44.1 (41455) - http://www.bohemiancoding.com/sketch -->
    <title>7</title>
    <desc>Created with Sketch.</desc>
    <defs></defs>
    <g id="首页" stroke="none" stroke-width="1" fill="none" fill-rule="evenodd" opacity="0.85">
        <g transform="translate(-242.000000, -1535.000000)" id="7" fill-rule="nonzero">
            <g transform="translate(242.000000, 1534.733675)">
                <g id="XMLID_21_" fill="#3B3C3D">
                    <path d="M32.2515829,64.4273578 C26.4830071,64.4273578 20.5833273,62.8654825 15.3391675,59.6115755 C8.06289573,55.1211839 2.9498399,48.0276667 0.983279967,39.762743 C-0.983279967,31.4327412 0.458863984,22.907505 4.98195183,15.6187534 C14.3558875,0.650781392 34.2181428,-3.96976649 49.2951023,5.33640741 C54.6703661,8.65539251 58.865694,13.4060967 61.4877739,19.0678948 C61.8810859,19.9139106 61.4877739,20.8250045 60.7011499,21.2154734 C59.848974,21.6059422 58.931246,21.2154734 58.537934,20.4345357 C56.1780621,15.3584408 52.3760462,11.0632837 47.5907504,8.1347674 C34.0214868,-0.195234418 16.1913435,3.90468835 7.80068774,17.3758632 C-0.58996798,30.847038 3.53980788,48.5482918 17.1090714,56.8782936 C23.6642712,60.9131383 31.3994069,62.2147011 38.9378867,60.4575913 C46.4763664,58.7004815 52.8349102,54.1450118 56.8991341,47.6371979 C59.39011,43.6674314 60.8978059,39.1119616 61.1600139,34.4263356 C61.2255659,33.5152417 62.0121899,32.8644603 62.9299179,32.9295384 C63.8476458,32.9946166 64.5031658,33.7755542 64.4376138,34.6866482 C64.1098538,39.8928993 62.4055019,44.9689942 59.652318,49.3943076 C53.5559822,59.0909504 43.0021105,64.4273578 32.2515829,64.4273578 Z" id="XMLID_16_"></path>
                </g>
                <g id="XMLID_1_" transform="translate(17.043519, 18.221879)" fill="#3B3C3D">
                    <path d="M1.63879994,27.0074278 C0.721071976,27.0074278 0,26.2915682 0,25.3804743 L0,1.95234418 C0,1.04125023 0.721071976,0.325390696 1.63879994,0.325390696 C2.55652791,0.325390696 3.27759989,1.04125023 3.27759989,1.95234418 L3.27759989,25.3804743 C3.27759989,26.2915682 2.55652791,27.0074278 1.63879994,27.0074278 Z" id="XMLID_15_"></path>
                </g>
                <g id="XMLID_24_" transform="translate(17.043519, 42.300790)" fill="#3B3C3D">
                    <path d="M28.187359,3.25390696 L1.96655993,3.25390696 C1.04883196,3.25390696 0.327759989,2.53804743 0.327759989,1.62695348 C0.327759989,0.715859531 1.04883196,0 1.96655993,0 L28.187359,0 C29.105087,0 29.826159,0.715859531 29.826159,1.62695348 C29.826159,2.53804743 29.105087,3.25390696 28.187359,3.25390696 Z" id="XMLID_14_"></path>
                </g>
                <g id="XMLID_26_" transform="translate(20.321119, 21.475786)" fill="#3B3C3D">
                    <path d="M1.63879994,19.7186762 C1.31103996,19.7186762 0.983279967,19.653598 0.721071976,19.4583636 C2.97158131e-15,18.9377385 -0.196655993,17.9615664 0.262207991,17.1806287 L6.81740777,7.54906415 C7.07961576,7.15859531 7.47292775,6.89828275 7.93179173,6.83320461 C8.39065572,6.76812647 8.8495197,6.89828275 9.17727969,7.15859531 L14.0936795,10.9982055 L22.4187832,0.911093949 C23.0087512,0.195234418 24.0575832,0.130156278 24.7131032,0.715859531 C25.4341751,1.30156278 25.4997271,2.34281301 24.9097592,2.9935944 L15.6013755,14.3171906 C15.0114075,14.967972 14.0281275,15.0981283 13.3070555,14.5775032 L8.52175971,10.8680492 L2.9498399,19.0028166 C2.68763191,19.4583636 2.16321593,19.7186762 1.63879994,19.7186762 Z" id="XMLID_13_"></path>
                </g>
                <g id="XMLID_25_" transform="translate(38.020159, 20.825005)" fill="#3B3C3D">
                    <path d="M7.34182375,7.15859531 C6.75185577,7.15859531 6.16188779,6.70304834 6.0307838,6.11734508 L5.44081582,3.25390696 L2.09766393,3.83961021 C1.37659195,3.96976649 0.721071976,3.51421952 0.58996798,2.79835998 C0.458863984,2.08250045 0.917727969,1.43171906 1.63879994,1.30156278 L6.22743979,0.520625113 C6.94851176,0.390468835 7.60403174,0.846015809 7.73513574,1.56187534 L8.52175971,5.66179811 C8.65286371,6.37765764 8.19399972,7.02843903 7.47292775,7.15859531 C7.47292775,7.15859531 7.40737575,7.15859531 7.34182375,7.15859531 Z" id="XMLID_12_"></path>
                </g>
                <g id="XMLID_23_" transform="translate(58.996798, 29.935944)">
                    <ellipse id="XMLID_6_" fill="#FCFCFC" cx="3.0809439" cy="3.12375068" rx="2.03211193" ry="2.01742231"></ellipse>
                    <path d="M3.0809439,6.11734508 C2.49097592,6.11734508 1.96655993,5.9871888 1.50769595,5.66179811 C0.786623973,5.20625113 0.327759989,4.55546974 0.131103996,3.77453207 C-0.0655519978,2.9935944 0.0655519978,2.21265673 0.524415982,1.4967972 C1.37659195,0.0650781392 3.27759989,-0.325390696 4.71974384,0.520625113 C6.16188779,1.36664092 6.55519978,3.25390696 5.70302381,4.68562602 C5.24415982,5.40148555 4.58863984,5.85703253 3.80201587,6.05226694 C3.53980788,6.11734508 3.27759989,6.11734508 3.0809439,6.11734508 Z M3.0809439,2.08250045 C2.75318391,2.08250045 2.35987192,2.27773487 2.16321593,2.60312557 C2.03211193,2.86343812 1.96655993,3.12375068 2.03211193,3.38406324 C2.09766393,3.64437579 2.29431992,3.90468835 2.49097592,4.03484463 C2.75318391,4.16500091 3.0153919,4.23007905 3.27759989,4.16500091 C3.53980788,4.09992277 3.80201587,3.90468835 3.93311987,3.70945393 C4.26087986,3.18882882 4.06422386,2.53804743 3.60535988,2.27773487 C3.47425588,2.08250045 3.27759989,2.08250045 3.0809439,2.08250045 Z" id="XMLID_8_" fill="#3B3C3D"></path>
                </g>
                <g id="XMLID_28_" transform="translate(5.899680, 6.507814)" fill="#3B3C3D">
                    <path d="M25.9585911,51.8021988 C21.8943673,51.8021988 17.6990394,50.8260267 13.8970235,48.8086044 C9.37393568,46.4657914 5.70302381,42.8864937 3.27759989,38.4611803 C2.8187359,37.6802426 3.14649589,36.7040705 3.93311987,36.2485235 C4.71974384,35.7929766 5.70302381,36.1183672 6.16188779,36.8993049 C8.32510372,40.7389151 11.5371516,43.8626658 15.4702715,45.9451663 C26.5485591,51.7371206 40.3144786,47.5070416 46.1486064,36.5088361 C51.9827342,25.5106306 47.7218544,11.8442213 36.6435668,6.05226694 C25.5652791,0.260312557 11.7993596,4.4903916 5.9652318,15.4885971 C4.26087986,18.7425041 3.34315189,22.5821143 3.34315189,26.2264901 C3.34315189,27.137584 2.62207991,27.9835998 1.70435194,27.9835998 C1.70435194,27.9835998 1.70435194,27.9835998 1.70435194,27.9835998 C0.786623973,27.9835998 0.0655519978,27.137584 0.0655519978,26.2264901 C0.0655519978,22.0614892 1.11438396,17.766332 3.0809439,14.0568781 C9.76724767,1.4967972 25.4997271,-3.38406324 38.2168147,3.25390696 C44.3787025,6.44273578 48.8362383,11.8442213 50.9339023,18.4171134 C52.9660142,24.9900054 52.3104942,31.9533663 49.0984463,38.0707114 C44.3131505,46.7911821 35.2669748,51.8021988 25.9585911,51.8021988 Z" id="XMLID_7_"></path>
                </g>
                <g id="XMLID_27_" transform="translate(4.588640, 28.634381)">
                    <ellipse id="XMLID_2_" fill="#FCFCFC" cx="3.34315189" cy="2.9935944" rx="1.90100794" ry="1.88726604"></ellipse>
                    <path d="M3.34315189,5.92211067 C2.8842879,5.92211067 2.42542392,5.79195439 1.96655993,5.59671997 C1.31103996,5.27132927 0.786623973,4.62054788 0.524415982,3.90468835 C0.327759989,3.18882882 0.393311987,2.40789115 0.721071976,1.69203162 C1.44214395,0.260312557 3.21204789,-0.260312557 4.65419184,0.520625113 C5.30971182,0.846015809 5.8341278,1.4967972 6.09633579,2.21265673 C6.29299179,2.92851626 6.22743979,3.70945393 5.8996798,4.42531346 L5.8996798,4.42531346 C5.37526382,5.33640741 4.39198385,5.92211067 3.34315189,5.92211067 Z M3.34315189,2.08250045 C3.0153919,2.08250045 2.68763191,2.27773487 2.49097592,2.60312557 C2.35987192,2.79835998 2.35987192,3.05867254 2.42542392,3.3189851 C2.49097592,3.57929766 2.68763191,3.77453207 2.8842879,3.83961021 C3.34315189,4.09992277 3.86756787,3.90468835 4.12977586,3.44914138 L4.12977586,3.44914138 C4.26087986,3.25390696 4.26087986,2.9935944 4.19532786,2.73328185 C4.12977586,2.47296929 3.93311987,2.27773487 3.73646387,2.21265673 C3.60535988,2.14757859 3.47425588,2.08250045 3.34315189,2.08250045 Z" id="XMLID_3_" fill="#3B3C3D"></path>
                </g>
            </g>
        </g>
    </g>
</svg>