<?xml version="1.0" encoding="UTF-8"?>
<svg width="76px" height="60px" viewBox="0 0 76 60" version="1.1" xmlns="http://www.w3.org/2000/svg" xmlns:xlink="http://www.w3.org/1999/xlink">
    <!-- Generator: Sketch 44.1 (41455) - http://www.bohemiancoding.com/sketch -->
    <title>未标题-3</title>
    <desc>Created with Sketch.</desc>
    <defs></defs>
    <g id="首页" stroke="none" stroke-width="1" fill="none" fill-rule="evenodd">
        <g transform="translate(-999.000000, -731.000000)">
            <rect id="Rectangle-Copy-2" fill="#F8F8F8" x="0" y="511" width="1415" height="655"></rect>
            <g id="Group-3" transform="translate(887.000000, 693.000000)" fill="#FFFFFF">
                <rect id="Rectangle-Copy" x="0" y="0" width="299.944747" height="379.118528" rx="4"></rect>
            </g>
            <g id="未标题-3" transform="translate(999.000000, 731.000000)" fill-rule="nonzero">
                <g id="XMLID_418_" transform="translate(25.778833, 39.205069)">
                    <rect id="XMLID_14_" fill="#F7F8F9" x="0.77936006" y="0.764976959" width="16.1867089" height="14.4389401"></rect>
                    <path d="M17.5655767,15.8413978 L0.179852322,15.8413978 L0.179852322,0.12749616 L17.5655767,0.12749616 L17.5655767,15.8413978 Z M1.3788678,14.5664363 L16.3665613,14.5664363 L16.3665613,1.40245776 L1.3788678,1.40245776 L1.3788678,14.5664363 Z" id="XMLID_21_" fill="#465A79"></path>
                </g>
                <g id="XMLID_417_" fill="#465A79">
                    <path d="M65.6460974,46.5042243 L3.6569972,46.5042243 C1.67862167,46.5042243 0.0599507738,44.7830261 0.0599507738,42.6793395 L0.0599507738,4.07987711 C0.0599507738,1.97619048 1.67862167,0.25499232 3.6569972,0.25499232 L65.6460974,0.25499232 C67.6244729,0.25499232 69.2431438,1.97619048 69.2431438,4.07987711 L69.2431438,42.6793395 C69.2431438,44.7830261 67.6244729,46.5042243 65.6460974,46.5042243 Z" id="Shape"></path>
                </g>
                <g id="XMLID_416_" transform="translate(1.199015, 38.567588)" fill="#F3F3F3">
                    <path d="M0,0 L0,2.80491551 C0,5.16359447 0.839310834,6.62980031 3.26731717,6.69354839 L63.5178449,6.69354839 C66.0657528,6.69354839 66.8750882,5.25921659 66.8750882,2.80491551 L66.8750882,0 L0,0 Z" id="Shape"></path>
                </g>
                <g id="XMLID_415_" transform="translate(33.272679, 40.480031)" fill="#465A79">
                    <ellipse id="Oval" cx="1.3788678" cy="1.593702" rx="1.34889241" ry="1.4343318"></ellipse>
                </g>
                <g id="XMLID_414_" transform="translate(15.287447, 51.635945)">
                    <g id="XMLID_3_" transform="translate(0.599508, 0.318740)" fill="#F7F8F9">
                        <path d="M36.0903659,3.82488479 C37.7390121,3.82488479 37.8888891,3.18740399 36.3901197,2.42242704 L34.861375,1.62557604 C33.392581,0.860599078 30.8146978,0.22311828 29.1660515,0.22311828 L8.09335447,0.286866359 C6.44470819,0.286866359 3.8968003,0.924347158 2.39803095,1.72119816 L1.07911393,2.42242704 C-0.38968003,3.18740399 -0.269778482,3.82488479 1.3788678,3.82488479 L36.0903659,3.82488479 Z" id="Shape"></path>
                    </g>
                    <g id="XMLID_2_" fill="#465A79">
                        <path d="M36.6898736,4.78110599 L2.03832631,4.78110599 C1.61867089,4.78110599 0.329729256,4.78110599 0.119901548,3.88863287 C-0.0899261608,2.99615975 1.07911393,2.35867896 1.43881857,2.16743472 L2.7577356,1.46620584 C4.31645572,0.637480799 6.98426515,0.0318740399 8.69286221,0 L29.7655592,0 C29.7655592,0 29.7655592,0 29.7955346,0 C31.534107,0 34.1719411,0.605606759 35.7306612,1.4343318 L37.2594059,2.19930876 C37.649086,2.390553 38.7881507,2.99615975 38.6082984,3.88863287 C38.3984706,4.78110599 37.109529,4.78110599 36.6898736,4.78110599 Z M1.64864628,3.50614439 C1.73857244,3.50614439 1.88844938,3.50614439 2.03832631,3.50614439 L36.6898736,3.50614439 C36.8397505,3.50614439 36.9596521,3.50614439 37.0495782,3.50614439 C36.9596521,3.44239631 36.8697259,3.37864823 36.719849,3.31490015 L35.1911042,2.51804916 C33.8122364,1.78494624 31.3242793,1.17933948 29.7655592,1.17933948 L8.69286221,1.24308756 C7.13414209,1.24308756 4.67616036,1.88056836 3.26731717,2.61367127 L1.94840015,3.31490015 C1.85847399,3.37864823 1.73857244,3.44239631 1.64864628,3.50614439 Z" id="XMLID_18_"></path>
                    </g>
                </g>
                <g id="XMLID_413_" transform="translate(4.796062, 55.142089)" fill="#465A79">
                    <path d="M59.3512661,1.2749616 L0.599507738,1.2749616 C0.269778482,1.2749616 0,0.988095238 0,0.637480799 C0,0.286866359 0.269778482,0 0.599507738,0 L59.3512661,0 C59.6809954,0 59.9507738,0.286866359 59.9507738,0.637480799 C59.9507738,0.988095238 59.6809954,1.2749616 59.3512661,1.2749616 Z" id="XMLID_17_"></path>
                </g>
                <g id="XMLID_412_" transform="translate(14.987693, 58.010753)" fill="#465A79">
                    <path d="M38.968003,1.2749616 L0.599507738,1.2749616 C0.269778482,1.2749616 0,0.988095238 0,0.637480799 C0,0.286866359 0.269778482,0 0.599507738,0 L38.968003,0 C39.2977323,0 39.5675107,0.286866359 39.5675107,0.637480799 C39.5675107,0.988095238 39.2977323,1.2749616 38.968003,1.2749616 Z" id="XMLID_16_"></path>
                </g>
                <g id="XMLID_411_" transform="translate(1.798523, 2.231183)" fill="#F3F3F3">
                    <path d="M63.3679679,34.7108295 L2.5179325,34.7108295 C1.19901548,34.7108295 0.119901548,33.5633641 0.119901548,32.1609063 L0.119901548,2.67741935 C0.119901548,1.2749616 1.19901548,0.12749616 2.5179325,0.12749616 L63.3679679,0.12749616 C64.686885,0.12749616 65.7659989,1.2749616 65.7659989,2.67741935 L65.7659989,32.1609063 C65.7659989,33.5633641 64.686885,34.7108295 63.3679679,34.7108295 Z" id="Shape"></path>
                </g>
                <g id="XMLID_410_" transform="translate(1.798523, 2.231183)" fill="#38A0DE">
                    <path d="M65.6460974,4.14362519 L65.6460974,2.67741935 C65.6460974,1.2749616 64.7168604,0 63.4578941,0 L2.12825247,0 C0.869286221,0 0,1.2749616 0,2.67741935 L0,4.14362519 L65.6460974,4.14362519 Z" id="Shape"></path>
                </g>
                <g id="XMLID_409_" transform="translate(3.597046, 3.506144)" fill="#DEE2E6">
                    <ellipse id="Oval" cx="0.749384673" cy="0.892473118" rx="1" ry="1"></ellipse>
                </g>
                <g id="XMLID_408_" transform="translate(5.695324, 3.506144)" fill="#DEE2E6">
                    <ellipse id="Oval" cx="0.929236994" cy="0.892473118" rx="1" ry="1"></ellipse>
                </g>
                <g id="XMLID_407_" transform="translate(6.594585, 11.155914)" fill="#43BFF5">
                    <polygon id="XMLID_15_" points="14.1184072 20.8774962 10.5213608 3.60176651 3.53709566 16.2557604 0 16.2557604 0 14.9807988 2.84766176 14.9807988 11.0309424 0.1593702 14.5080873 16.733871 18.3149614 7.33102919 25.179325 7.33102919 25.179325 8.60599078 19.0943215 8.60599078"></polygon>
                </g>
                <g id="XMLID_406_" transform="translate(35.370957, 14.343318)" fill="#465A79">
                    <path d="M25.179325,1.2749616 L0.599507738,1.2749616 C0.269778482,1.2749616 0,0.988095238 0,0.637480799 C0,0.286866359 0.269778482,0 0.599507738,0 L25.179325,0 C25.5090543,0 25.7788328,0.286866359 25.7788328,0.637480799 C25.7788328,0.988095238 25.5090543,1.2749616 25.179325,1.2749616 Z" id="XMLID_13_"></path>
                </g>
                <g id="XMLID_405_" transform="translate(35.370957, 20.718126)" fill="#465A79">
                    <path d="M25.179325,1.2749616 L0.599507738,1.2749616 C0.269778482,1.2749616 0,0.988095238 0,0.637480799 C0,0.286866359 0.269778482,0 0.599507738,0 L25.179325,0 C25.5090543,0 25.7788328,0.286866359 25.7788328,0.637480799 C25.7788328,0.988095238 25.5090543,1.2749616 25.179325,1.2749616 Z" id="XMLID_11_"></path>
                </g>
                <g id="XMLID_404_" transform="translate(35.370957, 27.411674)" fill="#465A79">
                    <path d="M15.2874473,1.2749616 L0.599507738,1.2749616 C0.269778482,1.2749616 0,0.988095238 0,0.637480799 C0,0.286866359 0.269778482,0 0.599507738,0 L15.2874473,0 C15.6171766,0 15.8869551,0.286866359 15.8869551,0.637480799 C15.8869551,0.988095238 15.6171766,1.2749616 15.2874473,1.2749616 Z" id="XMLID_9_"></path>
                </g>
                <g id="XMLID_403_" transform="translate(59.651020, 31.555300)">
                    <ellipse id="XMLID_1_" fill="#38A0DE" cx="7.85355137" cy="8.41474654" rx="7.22406825" ry="7.68164363"></ellipse>
                    <path d="M7.85355137,16.733871 C3.53709566,16.733871 0.0299753869,13.0046083 0.0299753869,8.41474654 C0.0299753869,3.82488479 3.53709566,0.0956221198 7.85355137,0.0956221198 C12.1700071,0.0956221198 15.6771274,3.82488479 15.6771274,8.41474654 C15.6771274,13.0046083 12.1700071,16.733871 7.85355137,16.733871 Z M7.85355137,1.37058372 C4.19655417,1.37058372 1.22899086,4.52611367 1.22899086,8.41474654 C1.22899086,12.3033794 4.19655417,15.4589094 7.85355137,15.4589094 C11.5105486,15.4589094 14.4781119,12.3033794 14.4781119,8.41474654 C14.4781119,4.52611367 11.5105486,1.37058372 7.85355137,1.37058372 Z" id="XMLID_5_" fill="#465A79"></path>
                </g>
                <g id="XMLID_401_" transform="translate(62.348805, 36.336406)" fill="#F7F8F9">
                    <path d="M3.74692336,7.80913978 L0.419655417,5.00422427 C0.239803095,4.84485407 0.179852322,4.52611367 0.359704643,4.33486943 C0.509581578,4.14362519 0.809335447,4.07987711 0.989187768,4.27112135 L3.6569972,6.53417819 L8.78278837,0.318740399 C8.9326653,0.12749616 9.23241917,0.0956221198 9.41227149,0.286866359 C9.59212381,0.446236559 9.6220992,0.764976959 9.44224688,0.956221198 L3.74692336,7.80913978 Z" id="XMLID_4_"></path>
                </g>
                <g id="XMLID_400_" transform="translate(26.977848, 46.217358)" fill="#DEE2E6">
                    <rect id="Rectangle-path" x="0.179852322" y="0.286866359" width="14.9876935" height="2.93241167"></rect>
                </g>
            </g>
        </g>
    </g>
</svg>