<?xml version="1.0" encoding="UTF-8"?>
<svg width="18px" height="18px" viewBox="0 0 18 18" version="1.1" xmlns="http://www.w3.org/2000/svg" xmlns:xlink="http://www.w3.org/1999/xlink">
    <!-- Generator: Sketch 43 (38999) - http://www.bohemiancoding.com/sketch -->
    <title>Group 4</title>
    <desc>Created with Sketch.</desc>
    <defs></defs>
    <g id="6.-登录" stroke="none" stroke-width="1" fill="none" fill-rule="evenodd">
        <g id="UX:-click-用户名框输入" transform="translate(-524.000000, -309.000000)" fill="#FFFFFF">
            <g id="Group-4" transform="translate(521.000000, 306.000000)">
                <path d="M12.1066017,20.2760191 C7.59475708,20.2760191 3.93718434,16.6184464 3.93718434,12.1066017 C3.93718434,7.59475708 7.59475708,3.93718434 12.1066017,3.93718434 C16.6184464,3.93718434 20.2760191,7.59475708 20.2760191,12.1066017 C20.2760191,16.6184464 16.6184464,20.2760191 12.1066017,20.2760191 Z M12.1066017,19.5333448 C16.2082787,19.5333448 19.5333448,16.2082787 19.5333448,12.1066017 C19.5333448,8.00492478 16.2082787,4.67985864 12.1066017,4.67985864 C8.00492478,4.67985864 4.67985864,8.00492478 4.67985864,12.1066017 C4.67985864,16.2082787 8.00492478,19.5333448 12.1066017,19.5333448 Z M11.7352646,11.7352646 L11.7352646,8.02189303 L12.4779389,8.02189303 L12.4779389,11.7352646 L16.1913104,11.7352646 L16.1913104,12.4779389 L12.4779389,12.4779389 L12.4779389,16.1913104 L11.7352646,16.1913104 L11.7352646,12.4779389 L8.02189303,12.4779389 L8.02189303,11.7352646 L11.7352646,11.7352646 Z" id="Contact-Add" transform="translate(12.106602, 12.106602) rotate(45.000000) translate(-12.106602, -12.106602) "></path>
            </g>
        </g>
    </g>
</svg>