<?xml version="1.0" encoding="UTF-8"?>
<svg width="87px" height="63px" viewBox="0 0 87 63" version="1.1" xmlns="http://www.w3.org/2000/svg" xmlns:xlink="http://www.w3.org/1999/xlink">
    <!-- Generator: Sketch 52.2 (67145) - http://www.bohemiancoding.com/sketch -->
    <title>分组 3</title>
    <desc>Created with Sketch.</desc>
    <g id="8.-其它" stroke="none" stroke-width="1" fill="none" fill-rule="evenodd">
        <g id="UI：关于我们改版" transform="translate(-886.000000, -1089.000000)" fill="#FFD557">
            <g id="分组-13" transform="translate(239.000000, 1045.000000)">
                <g id="分组-11" transform="translate(620.000000, 0.000000)">
                    <g id="分组-3" transform="translate(21.000000, 35.000000)">
                        <path d="M50.5180351,64.1186718 C45.7857341,67.0325753 40.5096961,68.8240448 35.1546976,68.8240448 C17.8649225,68.8240448 2.65231918,50.0377391 6.29930105,35.3163943 C9.94628292,20.5950494 20.3154331,8.46018886 37.6052082,8.46018886 C48.054257,8.46018886 57.3076501,12.8517746 62.9941931,19.6007841 C78.7992098,21.9388242 90.571453,30.9211397 90.571453,41.6451614 C90.571453,54.1472463 74.5718668,64.2821887 54.835377,64.2821887 C53.3741196,64.2821887 51.9333467,64.2266322 50.5180351,64.1186718 Z" id="合并形状-copy" opacity="0.171130952" transform="translate(48.162792, 38.642117) rotate(-11.000000) translate(-48.162792, -38.642117) "></path>
                        <g id="研究" transform="translate(28.000000, 9.000000)" fill-rule="nonzero">
                            <path d="M64.6368487,59.2075816 L57.68658,53.5045935 C60.073437,49.9185195 60.9101389,45.52848 60.0083947,41.3224072 C58.7781148,35.4469279 53.7518521,31.404167 48.1684407,30.3584395 L48.1684407,1.44461321 C48.1667746,0.655419639 47.529938,0.0129262486 46.7365465,0 L9.75552378,0 C4.4181683,-1.25697633e-16 0.277490428,3.44982268 0,9.02344241 L0,46.432457 C0.00194404774,46.5822381 0.024929328,46.7310138 0.0682886673,46.8744655 C0.503945654,51.4232449 4.27863537,54.9366162 8.87102297,55.0677944 L35.4656648,55.0677944 C35.6098297,55.2295048 35.7442391,55.3804346 35.8927399,55.5313643 C40.481088,60.1886249 47.7175187,60.6414141 53.2283056,57.5796965 C54.373444,56.9354985 55.4157145,56.1252425 56.3208067,55.1756013 L63.1117352,60.7384404 C64.1794231,61.6116768 65.7132082,60.0915986 64.6292611,59.2075816 L64.6368487,59.2075816 Z M11.7955122,2.90000719 L45.3079043,2.90000719 L45.3079043,30.1643869 C40.5268169,30.4280005 36.1723352,32.9847939 33.6305423,37.0209095 L8.97183003,37.0209095 C6.69702478,36.9578166 4.49431115,37.817934 2.87029188,39.4034433 L2.87029188,9.18515285 C2.87029188,9.15281077 2.85945239,9.1204687 2.85945239,9.08812656 L2.87029188,9.02344241 C3.13802683,3.57919098 7.61147646,2.90000719 11.8020159,2.90000719 L11.7955122,2.90000719 Z M8.97724975,52.1677872 L8.87969454,52.1677872 C1.07527552,51.7581207 1.13380866,39.5112502 8.97399794,39.9209167 C9.00992601,39.9263104 9.04646457,39.9263104 9.08239264,39.9209167 L32.2875319,39.9209167 C31.7838519,41.4277571 31.5108964,43.00137 31.4778234,44.588958 L8.87752663,44.588958 C8.10026767,44.6310526 7.49171292,45.2701623 7.49171292,46.0443519 C7.49171292,46.8185416 8.10026767,47.4576512 8.87752663,47.4997459 L31.7032844,47.4997459 C31.9954636,49.1333735 32.5588575,50.7072775 33.370395,52.1570065 L8.97183003,52.1570065 L8.97183003,52.1677872 L8.97724975,52.1677872 Z M52.4261848,54.6689086 C48.1440527,57.5630926 42.4512671,57.2814708 38.4790376,53.9789441 C34.0771285,50.4320952 33.1991314,44.1577302 35.6542716,39.1986101 L35.665111,39.1770487 C36.1138651,38.6380139 36.4390492,37.9157073 36.894307,37.3335497 C39.2815552,34.3995739 42.9516783,32.7999389 46.7387145,33.0428328 C57.6020322,34.0669989 61.3297262,48.275956 52.4261848,54.6689086 Z M14.4229999,22.1327686 C14.4229999,21.5427258 14.9039319,21.0644016 15.4971915,21.0644016 C16.0904511,21.0644016 16.571383,21.5427258 16.5713831,22.1327686 L16.5713831,30.2506325 C16.571383,30.8406753 16.0904511,31.3189994 15.4971915,31.3189994 C14.9039319,31.3189994 14.4229999,30.8406753 14.4229999,30.2506325 L14.4229999,22.1327686 Z M20.2925734,18.6398231 C20.2927135,18.0498789 20.7736044,17.5717084 21.366765,17.5717084 C21.9599255,17.5717084 22.4408164,18.0498789 22.4409565,18.6398231 L22.4409565,30.2506325 C22.4408164,30.8405767 21.9599255,31.3187472 21.366765,31.3187472 C20.7736044,31.3187472 20.2927135,30.8405767 20.2925734,30.2506325 L20.2925734,18.6398231 Z M26.1653987,21.7662249 C26.1653987,21.1773729 26.6453601,20.700014 27.2374224,20.700014 C27.8294847,20.700014 28.3094461,21.1773729 28.3094461,21.7662249 L28.3094461,30.2506325 C28.3094461,30.8394845 27.8294847,31.3168434 27.2374224,31.3168434 C26.6453601,31.3168434 26.1653987,30.8394845 26.1653987,30.2506325 L26.1653987,21.7662249 Z M32.2474259,18.6398231 C32.247566,18.0498789 32.7284569,17.5717084 33.3216174,17.5717084 C33.914778,17.5717084 34.3956689,18.0498789 34.3958089,18.6398231 L34.3958089,30.2506325 C34.3956689,30.8405767 33.914778,31.3187472 33.3216174,31.3187472 C32.7284569,31.3187472 32.247566,30.8405767 32.2474259,30.2506325 L32.2474259,18.6398231 Z M16.2635421,17.2706747 C15.9866533,17.5402848 15.5861782,17.6424973 15.2129717,17.5388098 C14.8397653,17.4351224 14.5505264,17.1412875 14.4542087,16.7679901 C14.357891,16.3946926 14.4691274,15.9986453 14.7460161,15.7290352 L20.3337634,10.2200997 C20.7530765,9.80394303 21.4319763,9.80394303 21.8512894,10.2200997 L28.2194785,16.3866577 L26.7019525,16.3866577 L32.5704421,10.2200997 C33.0030951,9.8566122 33.6441761,9.88566611 34.0417983,10.2867818 C34.4394205,10.6878975 34.459537,11.3258502 34.087968,11.7509584 L28.2183945,17.9282972 C28.0204177,18.1344483 27.7462633,18.2510728 27.4596315,18.2510728 C27.1729998,18.2510728 26.8988454,18.1344483 26.7008686,17.9282972 L20.3326795,11.7617392 L21.8502054,11.7617392 L16.2667939,17.2814555 L16.2667939,17.2706747 L16.2635421,17.2706747 Z" id="形状"></path>
                        </g>
                    </g>
                </g>
            </g>
        </g>
    </g>
</svg>