<?xml version="1.0" encoding="UTF-8"?>
<svg width="18px" height="21px" viewBox="0 0 18 21" version="1.1" xmlns="http://www.w3.org/2000/svg" xmlns:xlink="http://www.w3.org/1999/xlink">
    <!-- Generator: Sketch 43 (38999) - http://www.bohemiancoding.com/sketch -->
    <title>Page 1</title>
    <desc>Created with Sketch.</desc>
    <defs></defs>
    <g id="3.-详情页" stroke="none" stroke-width="1" fill="none" fill-rule="evenodd">
        <g id="UI：详情页" transform="translate(-1046.000000, -132.000000)">
            <g id="Page-1" transform="translate(1043.000000, 131.000000)">
                <polygon id="Stroke-1" stroke-opacity="0.00784313771" stroke="#000000" stroke-width="1.33333335e-11" points="0 0 23.9999985 0 23.9999985 23.9999985 0 23.9999985"></polygon>
                <path d="M14.9999991,0.99999994 L8.99999946,0.99999994 L8.99999946,2.99999982 L14.9999991,2.99999982 L14.9999991,0.99999994 Z M10.9999993,13.9999992 L12.9999992,13.9999992 L12.9999992,7.99999952 L10.9999993,7.99999952 L10.9999993,13.9999992 Z M17.6199978,5.97999965 C16.0699986,4.73999949 14.119999,3.99999976 11.9999993,3.99999976 C7.02999931,3.99999976 2.99999982,8.0300002 2.99999982,12.9999992 C2.99999982,17.9699982 7.01999956,21.9999987 11.9999993,21.9999987 C16.9799985,21.9999987 20.9999987,17.9699982 20.9999987,12.9999992 C20.9999987,10.8799994 20.259999,8.92999976 19.0299995,7.38999942 L17.6199978,5.97999965 Z M11.9999993,19.9999988 C8.12999962,19.9999988 4.9999997,16.8699979 4.9999997,12.9999992 C4.9999997,9.13000051 8.12999962,5.99999964 11.9999993,5.99999964 C15.8699988,5.99999964 18.9999989,9.12999956 18.9999989,12.9999992 C18.9999989,16.8699979 15.8699988,19.9999988 11.9999993,19.9999988 Z" id="Fill-2" fill="#BCC1CC"></path>
            </g>
        </g>
    </g>
</svg>