<?xml version="1.0" encoding="UTF-8"?>
<svg width="25px" height="25px" viewBox="0 0 25 25" version="1.1" xmlns="http://www.w3.org/2000/svg" xmlns:xlink="http://www.w3.org/1999/xlink">
    <!-- Generator: Sketch 52.2 (67145) - http://www.bohemiancoding.com/sketch -->
    <title>勾</title>
    <desc>Created with Sketch.</desc>
    <g id="慢阻肺专项" stroke="none" stroke-width="1" fill="none" fill-rule="evenodd">
        <g id="慢阻肺项目-科研项目-课程列表" transform="translate(-1095.000000, -562.000000)" fill="#52B446" fill-rule="nonzero">
            <g id="勾" transform="translate(1095.000000, 562.000000)">
                <path d="M12.5000615,0 C5.59657144,0 0,5.59619581 0,12.5000461 C0,19.4033125 5.59657144,25 12.5000615,25 C19.4035515,25 25,19.4033125 25,12.5000461 C25,5.59619581 19.4035515,0 12.5000615,0 M19.2003432,9.20031957 L11.4225319,16.978152 C11.0973618,17.3035676 10.5694442,17.3035676 10.2441511,16.978152 L6.35516868,13.0891743 C6.0297834,12.7636358 6.0297834,12.2357496 6.35516868,11.910795 C6.68058469,11.5854101 7.20850225,11.5854101 7.53367241,11.910795 L10.833403,15.2105215 L18.0218394,8.02184802 C18.3471633,7.69630951 18.8750808,7.69630951 19.2003739,8.02184802 C19.5258821,8.34689489 19.5258821,8.87481179 19.2003432,9.20031957" id="形状"></path>
            </g>
        </g>
    </g>
</svg>