<?xml version="1.0" encoding="UTF-8"?>
<svg width="11px" height="13px" viewBox="0 0 11 13" version="1.1" xmlns="http://www.w3.org/2000/svg" xmlns:xlink="http://www.w3.org/1999/xlink">
    <!-- Generator: Sketch 43 (38999) - http://www.bohemiancoding.com/sketch -->
    <title>safe</title>
    <desc>Created with Sketch.</desc>
    <defs>
        <polygon id="path-1" points="10.9820449 12.8101372 10.9820449 0.0041689808 0 0.0041689808 0 12.8101372"></polygon>
    </defs>
    <g id="7.-注册" stroke="none" stroke-width="1" fill="none" fill-rule="evenodd">
        <g id="UX：click-注册点击状态" transform="translate(-537.000000, -597.000000)">
            <g id="safe" transform="translate(537.000000, 597.000000)">
                <g id="Page-1">
                    <path d="M4.04323394,6.41158548 C4.04323394,7.24216015 4.69355175,7.9154695 5.49576473,7.9154695 C6.2979777,7.9154695 6.94829551,7.24216015 6.94829551,6.41158548 C6.94829551,5.5810108 6.2979777,4.90770146 5.49576473,4.90770146 C4.69355175,4.90770146 4.04323394,5.5810108 4.04323394,6.41158548 L4.04323394,6.41158548 Z" id="Fill-1" fill="#000000"></path>
                    <g id="Group-5" transform="translate(0.000000, 0.014781)">
                        <mask id="mask-2" fill="white">
                            <use xlink:href="#path-1"></use>
                        </mask>
                        <g id="Clip-4"></g>
                        <path d="M7.77664493,7.39489645 C7.65189285,7.70025534 7.47355008,7.97429003 7.24646689,8.20938265 C7.0194203,8.44445631 6.7547614,8.62914216 6.45981131,8.75830477 C6.15389784,8.8922617 5.82957171,8.96017819 5.49576473,8.96017819 C5.16199434,8.96017819 4.83766822,8.8922617 4.53177304,8.75830477 C4.23680466,8.62914216 3.97214576,8.44445631 3.74509917,8.20938265 C3.51803428,7.97432793 3.33967321,7.70025534 3.21492113,7.39489645 C3.08553844,7.07816761 3.0199411,6.7423562 3.0199411,6.3967856 C3.0199411,6.05121499 3.08553844,5.71540358 3.21492113,5.39873159 C3.33967321,5.0933348 3.51801597,4.81931906 3.74506256,4.58424539 C3.97210915,4.34915278 4.23678636,4.16448588 4.53175474,4.03532327 C4.83766822,3.90138529 5.16199434,3.83344985 5.49576473,3.83344985 C5.82957171,3.83344985 6.15393444,3.90138529 6.45981131,4.03532327 C6.7547614,4.16448588 7.0194203,4.34917173 7.24650349,4.58424539 C7.47351348,4.81931906 7.65191115,5.09335375 7.77664493,5.39873159 C7.90602762,5.71542253 7.97162496,6.05123394 7.97162496,6.3967856 C7.97162496,6.7423562 7.90602762,7.07822446 7.77664493,7.39489645 M10.7161158,1.66326795 C7.54564493,2.13849386 6.91685125,1.30822238 5.49102429,0.00416519082 C4.06517903,1.30826028 3.43645857,2.13851281 0.265932779,1.66326795 C-1.42374775,10.3769874 5.49102429,12.8101372 5.49102429,12.8101372 C5.49102429,12.8101372 12.4057963,10.3769874 10.7161158,1.66326795" id="Fill-3" fill="#000000" mask="url(#mask-2)"></path>
                    </g>
                </g>
            </g>
        </g>
    </g>
</svg>