<?xml version="1.0" encoding="UTF-8"?>
<svg width="87px" height="64px" viewBox="0 0 87 64" version="1.1" xmlns="http://www.w3.org/2000/svg" xmlns:xlink="http://www.w3.org/1999/xlink">
    <!-- Generator: Sketch 52.2 (67145) - http://www.bohemiancoding.com/sketch -->
    <title>分组 2</title>
    <desc>Created with Sketch.</desc>
    <g id="8.-其它" stroke="none" stroke-width="1" fill="none" fill-rule="evenodd">
        <g id="UI：关于我们改版" transform="translate(-569.000000, -1089.000000)">
            <g id="分组-13" transform="translate(239.000000, 1045.000000)">
                <g id="分组-12" transform="translate(310.000000, 0.000000)">
                    <g id="分组-2" transform="translate(20.000000, 44.000000)">
                        <path d="M19.9952461,42.6433812 C8.65627533,40.9855386 0,32.1329708 0,21.4610778 C0,9.60845184 10.6776899,0 23.849288,0 C36.9975731,0 47.6607705,9.57446926 47.6984756,21.3981638 C49.5820778,21.187615 51.5197415,21.0778443 53.4974288,21.0778443 C72.000388,21.0778443 87,30.6862961 87,42.5389222 C87,54.3915482 72.000388,64 53.4974288,64 C35.0488565,64 20.0830664,54.4479506 19.9952461,42.6433812 Z" id="合并形状" fill="#54CCA4" opacity="0.171130952"></path>
                        <g id="连接" transform="translate(22.000000, 7.000000)" fill="#14ADC4">
                            <path d="M14.5979541,46 C13.5145873,45.9705662 12.4602147,45.6463974 11.5500281,45.0629095 L2.71104292,39.5008243 C-0.0349614222,37.7352487 -0.825211449,34.1002504 0.943245879,31.3692974 L12.3729681,13.655265 C14.1922908,10.9921073 17.7957291,10.2082586 20.5718889,11.8717703 L29.2889571,17.4640843 C32.0349614,19.2296598 32.8252114,22.8646582 31.0567541,25.5956111 C30.7774364,26.0812425 30.2506319,26.3742846 29.6871659,26.357463 C29.1236998,26.3406414 28.6156211,26.0167041 28.3662609,25.5152897 C28.1169007,25.0138753 28.1669951,24.4168957 28.4964963,23.96326 C29.2772089,22.6214026 28.9086765,20.91137 27.6430771,20.0032971 L18.9564882,14.4412118 C17.5960568,13.6731485 15.8701672,14.0520752 14.9637052,15.3178448 L3.47302441,33.0016485 C2.61104612,34.3297876 2.992334,36.0990069 4.32644367,36.9616114 L13.0435118,42.5236967 C13.6820915,42.9382957 14.46227,43.0799711 15.2075393,42.9166701 C15.9600013,42.7633946 16.6188852,42.3168582 17.0362948,41.6772924 L20.4194926,36.4477231 C20.6988103,35.9620917 21.2256148,35.6690496 21.7890808,35.6858712 C22.3525469,35.7026928 22.8606256,36.0266301 23.1099858,36.5280445 C23.359346,37.0294589 23.3092517,37.6264385 22.9797504,38.0800742 L19.5965526,43.2794148 C18.7503333,44.5916985 17.4124595,45.5161618 15.878083,45.8488564 C15.4579595,45.9439718 15.0288508,45.9946362 14.5979541,46 Z" id="路径"></path>
                            <path d="M31.5795694,35 C30.4950581,34.9704385 29.4395716,34.6448638 28.5284235,34.0588453 L19.6801002,28.5940759 C16.9920335,26.7818821 16.2008533,23.1925634 17.8799241,20.4272817 C18.3540682,19.772372 19.2603697,19.6011904 19.9427175,20.0376626 C20.6250653,20.4741348 20.8448179,21.365611 20.4428867,22.0667125 C19.6676396,23.4218131 20.0501104,25.1409401 21.327719,26.0438502 L30.0539965,31.6300589 C31.4158651,32.4014533 33.1435781,32.0208833 34.0509977,30.7496238 L45.5233065,12.9891233 C46.3861954,11.655224 46.0045047,9.87833136 44.6689856,9.01198564 L35.9427082,3.45613677 C34.5942277,2.60325967 32.8064266,2.9970656 31.945707,4.33657184 L28.558935,9.55846257 C28.2793222,10.0462002 27.7519611,10.3405133 27.1878998,10.3236187 C26.6238385,10.3067242 26.115223,9.98138194 25.8655993,9.47779282 C25.6159757,8.9742037 25.666123,8.37463494 25.9959723,7.91903176 L29.3827444,2.66678119 C31.2039891,-0.00792694384 34.8112343,-0.795175272 37.590327,0.875551231 L46.286093,6.46175993 C49.0349984,8.23499303 49.8260833,11.8857568 48.0557576,14.6285542 L36.5834488,32.3890546 C35.4452659,34.021577 33.5763836,34.9967303 31.5795694,35 Z" id="路径"></path>
                        </g>
                    </g>
                </g>
            </g>
        </g>
    </g>
</svg>