<?xml version="1.0" encoding="UTF-8"?>
<svg width="20px" height="20px" viewBox="0 0 20 20" version="1.1" xmlns="http://www.w3.org/2000/svg" xmlns:xlink="http://www.w3.org/1999/xlink">
    <!-- Generator: Sketch 52.1 (67048) - http://www.bohemiancoding.com/sketch -->
    <title>失败</title>
    <desc>Created with Sketch.</desc>
    <g id="慢阻肺专项" stroke="none" stroke-width="1" fill="none" fill-rule="evenodd">
        <g id="慢阻肺项目-提示信息" transform="translate(-416.000000, -1024.000000)">
            <g id="分组-2" transform="translate(416.000000, 1023.000000)">
                <g id="失败" transform="translate(0.000000, 1.000000)">
                    <path d="M0,10 C2.17941607e-15,15.5228475 4.4771525,20 10,20 C15.5228475,20 20,15.5228475 20,10 C20,4.4771525 15.5228475,0 10,0 C4.4771525,-7.26472022e-16 2.17941607e-15,4.4771525 0,10 Z" id="路径" fill="#FF5700"></path>
                    <path d="M9.22081243,14.9130125 C9.22081243,15.1964479 9.30453099,15.4797951 9.44977766,15.6816314 C9.59502434,15.8834678 9.79608338,16 10.0028581,16 C10.206775,16 10.4106919,15.883556 10.5559386,15.6816314 C10.7011853,15.4797951 10.7849038,15.2003294 10.7849038,14.9130125 C10.7849038,14.6296654 10.7011853,14.34623 10.5559386,14.1443937 C10.4106919,13.9425573 10.2096329,13.8261133 10.0028581,13.8261133 C9.79894122,13.8261133 9.59502431,13.9425573 9.44977766,14.1443937 C9.30453099,14.3501115 9.22081243,14.6296654 9.22081243,14.9130125 Z M11,5.04940843 C11,4.46895254 10.5530807,4.00000063 10.0000003,4.00000063 C9.7347095,3.99969592 9.48019967,4.11015753 9.29260278,4.30702322 C9.1050059,4.50388891 8.99973247,4.77098674 9.00000051,5.04940843 C9.00000051,5.06996256 9.00000051,5.09042849 9.00285838,5.11098264 L9.22072838,11.7976052 C9.22072838,12.2490023 9.56989193,12.6153599 9.9999162,12.6153599 C10.4301086,12.6153599 10.7792721,12.2490023 10.7792722,11.7976052 L10.9971421,5.11098264 C10.9971421,5.09042852 11,5.06996258 11,5.04940843 Z" id="形状" fill="#FFFFFF" fill-rule="nonzero"></path>
                </g>
            </g>
        </g>
    </g>
</svg>