<?xml version="1.0" encoding="UTF-8"?>
<svg width="20px" height="20px" viewBox="0 0 20 20" version="1.1" xmlns="http://www.w3.org/2000/svg" xmlns:xlink="http://www.w3.org/1999/xlink">
    <!-- Generator: Sketch 43 (38999) - http://www.bohemiancoding.com/sketch -->
    <title>Page 1</title>
    <desc>Created with Sketch.</desc>
    <defs></defs>
    <g id="6.-登录" stroke="none" stroke-width="1" fill="none" fill-rule="evenodd">
        <g id="UX：hover-用户信息窗口-" transform="translate(-1175.000000, -20.000000)">
            <g id="Page-1" transform="translate(1174.000000, 19.000000)">
                <polygon id="Stroke-1" stroke-opacity="0.00784313771" stroke="#000000" stroke-width="1.33333335e-11" points="0 0 21.9999986 0 21.9999986 21.9999986 0 21.9999986"></polygon>
                <path d="M18.3333322,7.96583334 L18.3333322,4.66378767 C18.3333322,4.11309283 17.8894385,3.66666645 17.336211,3.66666645 L14.0341653,3.66666645 L11.7037243,1.33622514 C11.3150678,0.947568485 10.6867184,0.945781035 10.2962743,1.33622514 L7.96583334,3.66666645 L4.66378767,3.66666645 C4.11309283,3.66666645 3.66666645,4.11056016 3.66666645,4.66378767 L3.66666645,7.96583334 L1.33622514,10.2962743 C0.947568485,10.6849309 0.945781035,11.3132804 1.33622514,11.7037246 L3.66666645,14.0341662 L3.66666645,17.3362112 C3.66666645,17.8869059 4.11056016,18.3333322 4.66378767,18.3333322 L7.96583334,18.3333322 L10.2962743,20.6637732 C10.6849309,21.0524297 11.3132804,21.0542172 11.7037246,20.6637732 L14.0341662,18.3333322 L17.3362112,18.3333322 C17.8869059,18.3333322 18.3333322,17.8894385 18.3333322,17.336211 L18.3333322,14.0341653 L20.6637732,11.7037243 C21.0524297,11.3150678 21.0542172,10.6867184 20.6637732,10.2962743 L18.3333322,7.96583334 Z M10.9999993,16.499999 C7.96583334,16.499999 5.49999967,14.0341653 5.49999967,10.9999993 C5.49999967,7.96583334 7.96583334,5.49999967 10.9999993,5.49999967 C14.0341653,5.49999967 16.499999,7.96583334 16.499999,10.9999993 C16.499999,14.0341653 14.0341653,16.499999 10.9999993,16.499999 Z M10.9999993,8.39208245 C9.55912523,8.39208245 8.39208245,9.55912523 8.39208245,10.9999993 C8.39208245,12.4408734 9.55912523,13.6079162 10.9999993,13.6079162 C12.4408734,13.6079162 13.6079162,12.4408734 13.6079162,10.9999993 C13.6079162,9.55912523 12.4408734,8.39208245 10.9999993,8.39208245 Z" id="Fill-2" fill="#33B76F"></path>
            </g>
        </g>
    </g>
</svg>