<?xml version="1.0" encoding="UTF-8"?>
<svg width="219px" height="29px" viewBox="0 0 219 29" version="1.1" xmlns="http://www.w3.org/2000/svg" xmlns:xlink="http://www.w3.org/1999/xlink">
    <!-- Generator: Sketch 47.1 (45422) - http://www.bohemiancoding.com/sketch -->
    <title>head 2 copy</title>
    <desc>Created with Sketch.</desc>
    <defs></defs>
    <g id="研究进展2.0" stroke="none" stroke-width="1" fill="none" fill-rule="evenodd">
        <g id="其他---提问--没有回答" transform="translate(-114.000000, -25.000000)" fill-rule="nonzero">
            <g id="head-2-copy" transform="translate(114.000000, 25.000000)">
                <g id="_编组_" transform="translate(30.000000, 1.000000)" fill="#FFFFFF">
                    <g id="_编组_2" transform="translate(53.438370, 0.167370)">
                        <path d="M0.575025423,10.1013375 C2.20234188,9.61819612 3.6824694,9.06922252 4.96872493,8.47226951 C6.18251458,7.92022001 7.34119938,7.25081714 8.4287633,6.47331378 C9.39441575,5.77988899 10.2845875,4.9839222 11.0842054,4.09889135 C11.7874941,3.31683957 12.4260173,2.47713713 12.9932679,1.58834132 C13.3950573,2.28151185 13.8476034,2.94300153 14.3470765,3.56721265 C15.048842,4.45688687 15.8186672,5.28888383 16.6493751,6.05544668 C17.6178883,6.95055844 18.6529286,7.76844826 19.7452856,8.50183821 C20.9643521,9.31604214 22.2587614,10.0073982 23.6100935,10.5660682 L23.727625,10.6140476 L24.9468766,8.0906659 L24.7941955,8.0348759 C23.4315995,7.5690294 22.1744522,7.07417209 21.0524112,6.56090408 C19.9793959,6.07153808 18.9479548,5.49307938 17.9685834,4.83141406 C17.0535082,4.20763139 16.1961392,3.50065344 15.4070565,2.71920463 C14.6094949,1.91580608 13.8920332,1.03431891 13.265128,0.0875903011 L13.2239371,0.0278950004 L10.5981524,0.0278950004 L10.5575107,0.108232601 C10.12712,0.947585457 9.63008419,1.74989944 9.07134185,2.50720263 C8.45311323,3.32774166 7.75501162,4.08286636 6.98762986,4.76111866 C6.1769923,5.48638867 5.19609888,6.21165868 4.08009921,6.90289679 C2.96409953,7.5941349 1.63610385,8.29374151 0.138401535,8.96154781 L0.0148287358,9.01733782 L0.437722314,10.1509906 L0.575025423,10.1013375 Z" id="Shape"></path>
                    </g>
                    <g id="_编组_3" transform="translate(58.491125, 9.205350)">
                        <rect id="Rectangle-path" x="0.0516259692" y="0.0312424004" width="14.2976474" height="1.13978971"></rect>
                    </g>
                    <g id="_编组_4" transform="translate(43.332861, 2.398970)">
                        <path d="M5.83428374,0.691796009 C5.46960668,0.245476003 4.98794737,0.0172949002 4.40633139,0.0172949002 L3.26067425,0.0172949002 C2.96364919,0.0103689064 2.66819998,0.0630752285 2.39127096,0.172391102 C2.26445411,0.227083677 2.14261018,0.29298302 2.02714311,0.369329805 L2.02714311,0.0172949002 L0.0181240105,0.0172949002 L0.0181240105,21.22419 L4.2300342,21.22419 C4.80720497,21.2301726 5.36143758,20.9949675 5.76288612,20.5736786 C6.17800657,20.161091 6.40931382,19.5942301 6.40326782,19.0043058 L6.40326782,2.28404263 C6.38679145,1.66421572 6.19291946,1.13309491 5.83428374,0.691796009 Z M4.31900662,19.5789429 C4.32434248,19.7156092 4.27570153,19.8487761 4.18390036,19.9488306 C4.08930365,20.0450411 3.95959333,20.096978 3.82581385,20.0922109 L2.02824154,20.0922109 L2.02824154,1.93870252 C2.14541439,1.74516833 2.28993501,1.57016574 2.45717645,1.41929762 C2.6450071,1.24634862 2.89160349,1.15708461 3.2145404,1.15708461 L3.80219771,1.15708461 C3.94185857,1.15198705 4.07685464,1.2085487 4.1723669,1.31218082 C4.27314011,1.41237914 4.32843563,1.55058205 4.32504795,1.69378442 L4.32504795,19.5789429 L4.31900662,19.5789429 Z" id="Shape"></path>
                    </g>
                    <g id="_编组_5" transform="translate(14.334445, 13.891710)">
                        <path d="M1.41532045,2.26674773 C1.96453289,2.74375224 2.5609776,3.27096774 3.19531797,3.83612045 C3.82965833,4.40127316 4.45246524,4.96977326 5.0511068,5.52432587 C5.66238024,6.08557328 6.18523048,6.58433588 6.59604139,7.01615049 L6.70588388,7.13554109 L8.26235193,4.98148916 L8.13877913,4.89780416 C7.63350368,4.55804306 7.03486213,4.15802875 6.37086429,3.70445605 C5.68929165,3.23916744 4.98465209,2.77387884 4.28385702,2.31416923 C3.60228438,1.87287032 2.93279442,1.43715042 2.28692059,1.02542021 C1.66411369,0.631542808 1.15279691,0.321350404 0.777135601,0.112695801 L0.671686812,0.0524426007 L0.0252637722,1.01314641 L0.113686975,1.09627351 C0.416852241,1.38359202 0.85127928,1.77746942 1.41532045,2.26674773 Z" id="Shape"></path>
                    </g>
                    <g id="_编组_6" transform="translate(0.000000, 1.617910)">
                        <path d="M3.39632972,0.315213504 C3.18726463,0.395259643 2.98329701,0.488422422 2.78560549,0.594163508 C2.69479522,0.643109608 2.60661347,0.696930077 2.52143431,0.75539661 L2.52143431,0.0463057006 L0.0071397617,0.0463057006 L0.0071397617,19.862914 C0.00387837106,20.45938 0.226922114,21.0342013 0.629946667,21.4679923 L0.635438791,21.4741292 C1.04703499,21.9080643 1.61630126,22.1507928 2.20948164,22.1452829 L22.7747414,22.1452829 L22.7747414,21.0027037 L3.63139264,21.0027037 C3.34235993,21.0071172 3.06428001,20.8904939 2.86249523,20.6802375 L2.85645389,20.6746585 C2.63446951,20.4811966 2.5113505,20.1955356 2.52198352,19.8986196 L2.52198352,2.18864173 C2.63175937,2.06975885 2.75596063,1.96552669 2.89160349,1.87844932 C3.06240856,1.76686932 3.25628055,1.63966812 3.46772734,1.50856162 C3.93660663,1.27303432 4.45394563,1.15427544 4.97696312,1.16210571 L22.7714461,1.16210571 L22.7714461,0.0463057006 L5.02364618,0.0463057006 C4.36568967,0.0463057006 3.8192233,0.136127602 3.39632972,0.315213504 Z" id="Shape"></path>
                    </g>
                    <g id="_编组_7" transform="translate(3.405117, 3.682140)">
                        <path d="M6.18248442,12.7329519 L6.18248442,12.7329519 C5.78365734,13.1601982 5.34498007,13.5471464 4.87261276,13.8883628 C4.42061092,14.2281239 3.96201853,14.5444532 3.5100167,14.81894 C2.98881383,15.1465462 2.44951412,15.4434662 1.89478291,15.7082326 C1.32795382,15.9758777 0.747534585,16.2127607 0.155976333,16.4178814 L0.0208700727,16.4658608 L0.47287191,17.6893355 L0.596444708,17.653072 C1.92058266,17.2778257 3.20759353,16.7785974 4.44093178,16.1618053 C4.99893162,15.8633288 5.55089012,15.5408626 6.0797817,15.1949646 C6.37176688,15.0219811 6.65412578,14.8327509 6.92556885,14.6281382 C7.18974003,14.4311995 7.46599389,14.221987 7.77135601,13.9893427 C8.34398772,13.5292631 8.87683476,13.0202772 9.36407208,12.4679494 C9.62220192,12.1889994 9.85836327,11.9128389 10.0687116,11.6562048 C10.3024903,11.3676005 10.5070952,11.0558385 10.6794359,10.7256276 L10.6794359,10.7194907 C10.7313706,10.61677 10.7727789,10.5089009 10.8030087,10.3975824 C10.8259351,10.3106038 10.8534352,10.2249362 10.8853905,10.1409484 C10.9118125,10.0776099 10.9315124,10.0115907 10.9441563,9.94400973 L18.3947722,9.94400973 L18.3947722,8.80645161 L10.9935854,8.80645161 L10.9935854,3.96722695 L17.936729,3.96722695 L17.936729,2.82743724 L5.7442129,2.82743724 L6.16161435,2.27232673 C6.243447,2.16074673 6.31978753,2.03968243 6.39063594,1.93256562 C6.45969731,1.82909173 6.52242603,1.72139954 6.57846659,1.61009942 L6.9629153,0.894313711 L4.43818572,0.0468636006 L4.39095345,0.166254202 C4.04857501,1.02833257 3.60902029,1.84721083 3.08108178,2.60650883 C2.84052673,2.95296474 2.60546381,3.28714684 2.38193435,3.59120235 C2.17658972,3.876494 1.95506523,4.14939707 1.71848572,4.40852586 C1.4482732,4.70086546 1.18355281,4.96977326 0.93695642,5.20855447 C0.690360035,5.44733567 0.431680977,5.67384307 0.179592467,5.87803448 L0.085127928,5.95614048 L0.6667439,6.94641299 L0.776586388,6.89843359 C1.60211032,6.5438701 2.37510927,6.07446167 3.07339281,5.50368357 C3.68150454,5.04319051 4.25097553,4.53226291 4.77595137,3.97615335 L8.36505465,3.97615335 L8.36505465,8.81147271 L0.531637641,8.81147271 L0.531637641,9.93285173 L8.07397206,9.93285173 C7.87589987,10.4312117 7.62371642,10.9055706 7.32210023,11.3471282 C6.98911123,11.8468536 6.607303,12.3111494 6.18248442,12.7329519 L6.18248442,12.7329519 Z" id="Shape"></path>
                    </g>
                    <g id="_编组_8" transform="translate(31.085424, 0.000000)">
                        <path d="M10.2927903,3.64531865 C9.89351287,3.20959874 9.34704649,2.98922824 8.66602307,2.98922824 L6.49333866,2.98922824 L6.49333866,0.0234318003 L4.17895745,0.0234318003 L4.17895745,2.98922824 L2.21717061,2.98922824 L2.21717061,4.12901795 L4.17895745,4.12901795 L4.17895745,7.7866104 C4.21465625,10.2971604 4.1240362,12.4528861 3.92631972,14.1890709 C3.72860325,15.9252557 3.43202853,17.4293541 3.06899911,18.6645447 C2.70596968,19.8997354 2.25836155,20.9435663 1.74704477,21.7731636 C1.25224834,22.5911026 0.706884267,23.3763421 0.114236187,24.1241542 L0.0439369951,24.2139761 L0.789767487,25.1066161 L0.895765487,25.0229311 C1.90891767,24.2172986 2.77562308,23.2379476 3.45674309,22.1291038 C4.13023671,21.035594 4.67616459,19.8661802 5.08351033,18.6444603 C5.48845176,17.4343288 5.79700385,16.1930974 6.00618723,14.9327516 C6.20468761,13.7319868 6.34180839,12.521581 6.41699813,11.3064015 C6.4818052,10.14318 6.5169548,9.05694872 6.50542134,8.084529 C6.49388787,7.11210929 6.49333866,6.27637508 6.49333866,5.60187397 L6.49333866,4.12901795 L8.20852911,4.12901795 C8.33903189,4.12095362 8.46557014,4.17621955 8.54959003,4.27797725 C8.63860452,4.38641012 8.6846231,4.52466044 8.67865495,4.66571776 L8.67865495,19.3507617 C8.67865495,20.1262428 8.56881247,20.8124598 8.34363537,21.39156 C8.15307301,21.9093784 7.89858507,22.4005353 7.58627141,22.853258 C7.28477466,23.2984744 6.92503502,23.6999407 6.5169548,24.0466061 L6.41150601,24.136428 L7.12548218,25.0073099 L7.21994672,24.9598884 C8.18326534,24.482326 8.92909583,23.8915099 9.43437127,23.199156 C9.93964671,22.5068021 10.2977332,21.8451327 10.5207135,21.2124741 C10.7805427,20.4630573 10.9116983,19.6738667 10.9084575,18.8793362 L10.8870382,5.17898577 C10.8984629,4.60767502 10.6844928,4.05544958 10.2927903,3.64531865 Z" id="Shape"></path>
                    </g>
                    <g id="_编组_9" transform="translate(53.658055, 13.501180)">
                        <path d="M0.0499783319,1.18330592 L8.30903498,1.18330592 C7.81619447,2.20249811 7.2569523,3.18714737 6.63503547,4.13069165 C6.03090179,5.04397396 5.44269527,5.85516058 4.88469543,6.55365138 C4.32669559,7.25214219 3.80933747,7.8663901 3.32767817,8.39137401 C2.84601886,8.91635791 2.43520795,9.40005722 2.11172183,9.81178743 C1.95354864,10.0025892 1.93542463,10.2051069 2.07053089,10.3903297 C2.15291276,10.5097203 2.31767649,10.6469637 2.61974333,10.6168371 C3.91808154,10.4980044 4.91654975,10.4081825 5.75025423,10.3306344 C6.68995671,10.2413704 7.58297614,10.1576854 8.39965504,10.0684214 C9.16306033,9.99031543 9.95612309,9.90105143 10.819485,9.80565053 C11.6010143,9.71582862 12.4292267,9.60871182 13.2810552,9.47760532 C14.1328837,9.34649882 15.0605035,9.19084472 16.0359048,9.00617982 C16.9816486,8.82709391 18.0740321,8.61230241 19.2839471,8.35566841 C19.6541163,8.73727201 20.0418603,9.14900222 20.4372933,9.58304842 C20.8601868,10.0544739 21.2946139,10.5376153 21.7175075,11.0268936 L21.8235055,11.1462842 L23.7501427,8.94481081 L23.6441447,8.84940991 C22.9631213,8.24074101 22.2052081,7.6259352 21.3923737,7.02340319 C20.6992676,6.50399828 19.8946714,5.93159288 18.9956106,5.31678707 C18.0965499,4.70198126 17.1337804,4.11116515 16.1353122,3.55661255 L16.0293142,3.49691724 L15.3186333,4.42191546 L15.4125487,4.51117946 C15.6355289,4.71983406 15.9002493,4.97646806 16.1995701,5.26322867 C16.4461665,5.50145197 16.7520778,5.79434947 17.1277391,6.16981618 C17.4572666,6.49841928 17.7972291,6.84431729 18.1322487,7.18463629 C17.6566307,7.24433159 17.0574399,7.31574279 16.3407177,7.39329089 C15.4361648,7.4886918 14.4184742,7.5963665 13.3156556,7.7034833 C12.1936146,7.8150633 10.9128512,7.9305486 9.5151055,8.0438023 C8.26399956,8.1453401 6.92447043,8.22846721 5.53221689,8.29429941 C6.27530424,7.66247245 6.98323326,6.98916377 7.65272612,6.27749088 C8.35791489,5.52544167 8.98017258,4.80965596 9.50302283,4.15300765 C9.96801252,3.57975809 10.4033916,2.98237306 10.8074024,2.36326443 C11.1188058,1.87956512 11.3714435,1.48010872 11.5592742,1.16377941 L24.0357332,1.16377941 L24.0357332,0.0256634003 L0.0461338448,0.0256634003 L0.0461338448,1.18330592 L0.0499783319,1.18330592 Z" id="Shape"></path>
                    </g>
                    <g id="_编组_10" transform="translate(26.691725, 2.566340)">
                        <path d="M6.30440958,16.0803519 L6.30440958,2.30022173 C6.30440958,1.67927902 6.12207105,1.14871611 5.76398454,0.712996209 C5.41298815,0.281716459 4.88674684,0.037666739 4.3360322,0.0507689007 L3.39632972,0.0507689007 C3.037694,0.0507689007 2.73233188,0.106558901 2.4857355,0.218138903 C2.34500619,0.282973249 2.20948638,0.358893361 2.08041672,0.445204206 L2.08041672,0.0524426007 L0.0483306946,0.0524426007 L0.0483306946,18.2701094 L4.15424289,18.2701094 C4.72577025,18.2711548 5.27410553,18.0406055 5.67772126,17.629558 C6.08133699,17.2185106 6.30689669,16.6609153 6.30440958,16.0803519 L6.30440958,16.0803519 Z M4.24815821,16.6293255 C4.2533346,16.7728545 4.19775623,16.9117644 4.09547715,17.0109291 C3.99862349,17.1122326 3.86485578,17.1683629 3.72585718,17.1660253 L2.08096593,17.1660253 L2.08096593,2.01011373 C2.2104404,1.80292765 2.36650786,1.61418518 2.54505044,1.44886632 C2.73892243,1.26420142 3.00913495,1.17437952 3.34360533,1.17437952 L3.72805403,1.17437952 C3.86833006,1.17174817 4.00295605,1.2304738 4.097674,1.33561262 C4.19840917,1.44085724 4.25340485,1.58273179 4.25035506,1.72949002 L4.24815821,16.6293255 Z" id="Shape"></path>
                    </g>
                </g>
                <g id="_编组_11" transform="translate(14.000000, 3.000000)" fill="#FFFFFF">
                    <path d="M0.802564103,5.80971429 C1.47638016,6.1660213 2.28186165,5.84689721 2.6025641,5.09657143 L3.84410256,2.19142857 C4.16442772,1.4406369 3.87788996,0.54264803 3.20410256,0.185714286 C2.53031517,-0.171219458 1.72442772,0.148065474 1.40410256,0.898857143 L0.165641026,3.804 C-0.154843701,4.55388522 0.130140134,5.45131878 0.802564103,5.80971429 Z" id="Shape"></path>
                </g>
                <g id="_编组_12" fill="#FFFFFF">
                    <path d="M19.4889503,17.9450471 C18.9492194,17.4622728 18.1246406,17.4710732 17.5955801,17.9652542 C15.6775588,19.8108591 13.0472147,20.7486328 10.3790055,20.5381168 C9.06650108,20.4267086 7.79401498,20.0354298 6.64917127,19.3912241 C6.81491713,19.0711864 6.98066298,18.7506026 7.15359116,18.4354802 C7.55817742,17.7044269 7.6439594,16.8419739 7.39115328,16.0470282 C7.13834717,15.2520824 6.5687806,14.5932804 5.81381215,14.2225612 L2.79668508,12.7381544 C5.50117922,8.24597698 9.05827182,4.31268079 13.2723757,1.15453861 C12.7866688,0.535886519 12.0643363,0.142656013 11.2757772,0.067610633 C10.4872182,-0.00743474695 9.70226075,0.24235039 9.10607735,0.758041431 C8.44309392,1.33258004 7.86629834,1.83612053 7.75303867,1.9480791 C5.24254144,4.30740113 2.95359116,6.97693032 1.08121547,9.86 C0.293922652,11.0702448 -0.405524862,12.5754049 0.283977901,13.9888136 C0.860220994,15.1635593 2.07900552,15.6212241 3.17458564,16.1908475 C3.28508287,16.2514689 4.61491713,16.8210923 4.61104972,16.9079284 L4.54309392,17.0248023 C3.06435115,19.7016091 1.94055662,22.5555474 1.19944751,25.516177 C0.798342541,27.1130885 1.7519337,28.6996234 3.3961326,28.956855 C3.78287293,26.5363653 4.49668508,24.1868738 5.44861878,21.9291337 C6.90103405,22.7039472 8.49993597,23.1732729 10.1447514,23.3075895 C13.6221564,23.5820059 17.0500398,22.3586004 19.5480663,19.9515631 C19.8206125,19.694205 19.9694813,19.3343515 19.9574586,18.9619586 C19.9542005,18.5726583 19.7839053,18.2030276 19.4889503,17.9450471 Z" id="Shape"></path>
                </g>
                <circle id="Oval" fill="#FFFFFF" cx="119.5" cy="13.5" r="1.5"></circle>
                <path d="M135.311663,9.66914296 C135.797229,9.66459784 136.264232,9.85539177 136.607594,10.1985959 C136.950957,10.5418001 137.141839,11.0085873 137.137292,11.4939301 L137.137292,19.9427433 C137.13986,20.2451857 137.078327,20.5447438 136.956741,20.8217068 C136.840159,21.0850837 136.675884,21.3246568 136.472191,21.5283566 C136.264698,21.7341556 136.019991,21.8986942 135.751075,22.013227 C135.46982,22.1336185 135.166785,22.1948636 134.86083,22.1931509 L131.118752,22.1931509 L131.118752,13.9498097 C130.810509,14.4256744 130.471718,14.88106 130.104514,15.3131002 C129.819186,15.6359848 129.661476,15.8198949 129.631384,15.8648306 L129,15.1440478 C129.589466,14.1169087 130.101889,13.0474767 130.53305,11.9445552 C130.95361,10.8635622 131.299122,9.84979163 131.569585,8.90324334 C131.840049,7.95669505 132.046703,7.11179562 132.189549,6.36854503 C132.332031,5.62493205 132.425932,5.05798152 132.471251,4.66769342 L129.608543,4.66769342 L129.608543,3.9463671 L137.340139,3.9463671 L137.340139,4.66769342 L134.409997,4.66769342 C134.301672,5.68268051 134.116973,6.68806431 133.857468,7.6753035 C133.628112,8.54071152 133.353464,9.39348846 133.034657,10.2301142 C133.190919,10.0605626 133.378548,9.92285877 133.587185,9.82460591 C133.804716,9.7195144 134.086419,9.66696865 134.432293,9.66696865 L135.311663,9.66914296 Z M134.387156,10.3899257 C133.952094,10.3899257 133.621628,10.4986411 133.395758,10.7160718 C133.169888,10.9335024 133.019611,11.1250226 132.944925,11.2906324 L132.944925,21.4522558 L134.500272,21.4522558 C134.716287,21.4559478 134.924256,21.3703991 135.075098,21.2158 C135.226738,21.0723946 135.312349,20.872728 135.311663,20.6640696 L135.311663,10.9981881 C135.315355,10.8477475 135.276121,10.6993653 135.198546,10.5703932 C135.123498,10.4500815 135.003312,10.3899257 134.837989,10.3899257 L134.387156,10.3899257 Z M140.47313,11.9445552 C140.47358,11.9105587 140.477405,11.8766908 140.48455,11.8434499 C140.491728,11.8100305 140.495553,11.7759792 140.495971,11.7418011 L140.495971,3.74361297 L138.332081,3.74361297 L138.332081,3 L150.390913,3 L150.390913,3.74361297 L148.475009,3.74361297 L148.475009,11.9445552 L151,11.9445552 L151,12.6658815 L148.475009,12.6658815 L148.475009,23.6151477 L146.67222,23.6151477 L146.67222,12.6658815 L142.344441,12.6658815 C142.295514,13.6745659 142.182533,14.6791253 142.00618,15.6734916 C141.822443,16.7111537 141.530821,17.7268062 141.136056,18.7039319 C140.72752,19.7141392 140.197956,20.6711124 139.558956,21.5539047 C138.875973,22.4919672 138.050227,23.3173318 137.111732,24 L136.619024,23.433593 C137.322341,22.6961071 137.931702,21.8745055 138.433233,20.9874977 C138.899974,20.1544094 139.277834,19.2746004 139.560587,18.3625657 C139.840214,17.4534972 140.043763,16.5227701 140.16913,15.5799964 C140.296386,14.6265628 140.390287,13.654104 140.450833,12.66262 L137.813269,12.66262 L137.813269,11.9445552 L140.47313,11.9445552 Z M142.389034,11.9445552 L146.67222,11.9445552 L146.67222,3.74361297 L142.389034,3.74361297 L142.389034,11.9445552 Z" id="Shape" fill="#E3F4FC"></path>
                <path d="M157.812916,5.35974336 C157.200792,5.35974336 156.656002,5.49214165 156.178545,5.75693823 C155.701088,6.02173481 155.335434,6.26738287 155.081582,6.49388242 L155.081582,8.30806724 L153,8.30806724 L153,4.63428827 L155.081582,4.63428827 L155.081582,5.51840247 C155.4174,5.28567103 155.773347,5.08424389 156.145058,4.91659206 C156.556373,4.72758865 157.003171,4.63091349 157.454824,4.63319407 L163.566163,4.63319407 C163.282786,4.33119467 163.017952,4.04779668 162.771662,3.7830001 C162.525372,3.51820352 162.305188,3.29516894 162.111108,3.11389635 C161.887503,2.90216851 161.679021,2.71341888 161.484581,2.54710037 L161.909647,2 C162.41699,2.24181836 162.890846,2.47232998 163.331216,2.69153487 C163.771585,2.91073975 164.155963,3.10350144 164.48435,3.26981995 C164.872148,3.46604662 165.222859,3.66263802 165.536483,3.85959415 L164.752784,4.63045857 L171.806615,4.63045857 C172.288862,4.62588399 172.752672,4.8179147 173.093687,5.16334364 C173.434702,5.50877257 173.624279,5.97858565 173.619763,6.46707451 L173.619763,8.30423754 L171.53656,8.30423754 L171.53656,5.96811897 C171.532197,5.63185485 171.264145,5.36033294 170.932178,5.35591366 L157.812916,5.35974336 Z M154.298423,12.7521635 L159.156169,12.7521635 L159.156169,10.8247289 L161.28312,10.8247289 L161.28312,12.7521635 L167.485739,12.7521635 C167.979192,12.7464117 168.453032,12.9475885 168.794964,13.3080175 C169.15391,13.6617131 169.352515,14.1499983 169.343715,14.657167 L169.343715,20.9614046 C169.337937,21.2600829 169.424009,21.5531877 169.590005,21.8001094 C169.753839,22.0419278 170.00751,22.162837 170.35102,22.162837 L171.514956,22.162837 C171.902755,22.162837 172.205036,22.068371 172.4218,21.879439 C172.624038,21.7084385 172.788076,21.4958412 172.903037,21.2557446 C173.028112,20.9604431 173.10386,20.6461363 173.127183,20.3256739 L174,20.6429921 C173.880456,21.3691767 173.701319,21.9210186 173.462591,22.2985179 C173.223863,22.6760171 172.977933,22.9559501 172.724801,23.1383169 C172.457728,23.3428811 172.139896,23.46844 171.806615,23.5010445 L170.306731,23.5010445 C168.322008,23.5010445 167.329647,22.4797904 167.329647,20.4372824 L167.329647,14.1128021 C167.325278,13.7763282 167.056902,13.5047221 166.724724,13.5005968 L161.28312,13.5005968 L161.28312,14.5439172 C161.278305,15.0950136 161.229536,15.6448148 161.137291,16.1879538 C161.033874,16.8079517 160.868841,17.4157705 160.644711,18.0021387 C160.399356,18.6419517 160.087966,19.2537217 159.715722,19.8272655 C159.303581,20.4607298 158.810706,21.0363254 158.249865,21.5391425 C157.611729,22.1088281 156.903751,22.5928062 156.143438,22.9791107 C155.330033,23.4025664 154.393843,23.7428628 153.334868,24 L153.021604,23.296976 C153.931509,22.964339 154.715028,22.5826453 155.372161,22.151895 C155.977004,21.7639508 156.533228,21.3032191 157.028677,20.7797672 C157.452118,20.3296449 157.817119,19.8266265 158.114838,19.2829006 C158.376364,18.8030011 158.590042,18.2979041 158.752707,17.775092 C158.894658,17.3164671 158.995881,16.8459145 159.055168,16.3690441 C159.107019,15.9237044 159.140506,15.5193972 159.155629,15.1561226 L159.155629,13.5005968 L154.297883,13.5005968 L154.298423,12.7521635 Z M153.044829,10.9160947 C153.806007,10.647664 154.546234,10.321772 155.259278,9.94116184 C156.04027,9.52532768 156.792078,9.0555348 157.509375,8.5351139 C158.417767,7.87747642 159.274594,7.14966939 160.072195,6.35820153 L161.460276,7.9447926 C160.69062,8.48259022 159.890814,8.97471287 159.06489,9.41868099 C158.304056,9.81186379 157.427278,10.2130707 156.434557,10.6223018 C155.390076,11.045244 154.307207,11.3635348 153.201461,11.5726151 L153.044829,10.9160947 Z M165.737404,6.72092908 C166.681704,6.99500563 167.608328,7.32809874 168.511947,7.71829305 C169.422211,8.11184058 170.243178,8.48222753 170.974846,8.82945389 C171.825699,9.25290958 172.631542,9.68365994 173.392377,10.121705 L172.096114,12.0042773 C171.155963,11.2784575 170.275404,10.6321496 169.454438,10.0653536 C168.633471,9.49855764 167.917106,9.01856825 167.305342,8.62538546 C166.589157,8.15706754 165.939945,7.74893067 165.357707,7.40097483 L165.737404,6.72092908 Z" id="Shape" fill="#E3F4FC"></path>
                <path d="M197,23.4457115 L183.223463,23.4457115 C182.751642,23.4506639 182.281767,23.3841716 181.829637,23.2484698 C181.426818,23.1257654 181.040187,22.9546675 180.678119,22.738882 C180.340651,22.5366445 180.027541,22.2959012 179.745011,22.021436 C179.480976,21.7645123 179.234757,21.4897048 179.008084,21.1989434 C178.722707,21.6661397 178.373847,22.0909864 177.971606,22.461179 C177.630303,22.7744497 177.268635,23.0645281 176.889001,23.3294898 C176.51368,23.5936429 176.112358,23.818326 175.691356,24 L175.230637,23.3294898 C175.714776,22.9813134 176.148834,22.5676588 176.520538,22.100221 C176.87386,21.6476963 177.171493,21.1538987 177.406962,20.6295685 C177.675946,20.0499496 177.810438,19.3667742 177.810438,18.5800422 L177.810438,10.3104158 C177.817592,10.0807879 177.730114,9.85838232 177.568686,9.69578137 C177.414537,9.53686439 177.202007,9.44892632 176.981256,9.45272141 L175,9.45272141 L175,8.71627765 L177.994392,8.71627765 C178.494027,8.7081966 178.97547,8.90463925 179.328197,9.26050847 C179.690371,9.60654713 179.891062,10.089798 179.88117,10.5920301 L179.88117,18.2347294 C179.882079,18.4670449 179.866665,18.6991347 179.835043,18.9292662 C179.803921,19.1460646 179.766129,19.3544815 179.720002,19.5545171 C179.866396,19.9261667 180.047648,20.2829604 180.261305,20.6200696 C180.484796,20.9764105 180.751781,21.303218 181.05603,21.5928682 C181.370451,21.8908689 181.732477,22.1335882 182.126964,22.3108729 C182.534516,22.4971258 183.00672,22.5902522 183.543576,22.5902522 L196.99611,22.5902522 L197,23.4457115 Z M179.470469,7.25680035 C178.917681,6.50098629 178.40713,5.84481751 177.938817,5.28829401 C177.470503,4.7317705 177.059617,4.26800091 176.706159,3.89698524 C176.357117,3.51474886 175.988134,3.15141679 175.600768,2.80852361 L176.109837,2.16483377 C176.678117,2.44473584 177.231642,2.75395478 177.768201,3.09125543 C178.320697,3.44313374 178.8544,3.82398823 179.367099,4.23224037 C179.968298,4.7118612 180.534059,5.23474432 181.05992,5.79676428 L179.470469,7.25680035 Z M184.238822,12.5141594 L184.238822,5.26538491 L181.428384,5.26538491 L181.428384,4.50100323 L184.238822,4.50100323 L184.238822,2 L186.288991,2 L186.288991,4.50100323 L191.909311,4.50100323 L191.909311,2 L193.982266,2 L193.982266,4.50100323 L196.538726,4.50100323 L196.538726,5.26538491 L193.982266,5.26538491 L193.982266,12.5141594 L197,12.5141594 L197,13.3014502 L193.982266,13.3014502 L193.982266,20.5736926 L191.909311,20.5736926 L191.909311,13.3014502 L186.265649,13.3014502 C186.188956,14.5985151 185.94813,15.7178947 185.543172,16.6595891 C185.138214,17.6012835 184.704357,18.3887605 184.241601,19.0220202 C183.7389,19.7270756 183.133151,20.3517372 182.444854,20.8748635 L181.684585,19.9713509 C182.144001,19.433388 182.538372,18.8425697 182.859445,18.2112615 C183.16622,17.6402103 183.45021,16.9415759 183.711413,16.1153582 C183.972617,15.2891406 184.141565,14.3511713 184.218259,13.3014502 L180.94488,13.3014502 L180.94488,12.5141594 L184.238822,12.5141594 Z M186.288991,12.5141594 L191.909311,12.5141594 L191.909311,5.26538491 L186.288991,5.26538491 L186.288991,12.5141594 Z" id="Shape" fill="#E3F4FC"></path>
                <path d="M200.540654,2.55373026 C200.8133,2.388466 201.105086,2.25676008 201.409612,2.16150186 C201.740803,2.05394041 202.14613,2.00015969 202.625594,2.00015969 L216.916178,2.00015969 C217.408776,1.99359561 217.882273,2.18964759 218.224923,2.54204686 C218.58234,2.89049258 218.779302,3.37045814 218.769209,3.86839082 L218.769209,4.92879837 C218.768288,6.03533003 217.868343,6.93255244 216.756915,6.93500488 L200.540654,6.93500488 L200.540654,13.4816028 C200.532986,14.5425602 200.455705,15.6018856 200.309304,16.6528111 C200.139026,17.8885907 199.864801,19.1079495 199.489522,20.2980316 C199.083358,21.5926855 198.49464,22.8233759 197.740989,23.9532664 L197,23.4230626 C197.387291,22.5415381 197.693472,21.6268567 197.914781,20.69026 C198.138511,19.7435881 198.308659,18.7851527 198.42442,17.8194819 C198.540281,16.8506871 198.613672,15.8781832 198.644593,14.9019703 C198.675515,13.9257574 198.690789,12.9688314 198.690416,12.0311923 L198.690416,2.00015969 L200.543448,2.00015969 L200.540654,2.55373026 Z M202.579212,2.73843923 C202.172179,2.72980519 201.768417,2.81252163 201.397877,2.9804525 C201.093361,3.12046574 200.805782,3.29441792 200.540654,3.49897287 L200.540654,6.19728169 L216.1981,6.19728169 C216.389428,6.20089346 216.57379,6.12582341 216.70774,5.98976227 C216.847818,5.84906513 216.923253,5.65698037 216.916178,5.45900214 L216.916178,3.36099749 C216.919843,3.20355304 216.870902,3.04935228 216.777033,2.92259186 C216.685279,2.80055063 216.538825,2.73160401 216.385862,2.73843923 L202.579212,2.73843923 Z M205.798547,10.1379253 L205.798547,8.06273106 L207.651579,8.06273106 L207.651579,10.1379253 L212.469125,10.1379253 L212.469125,8.06273106 L214.298128,8.06273106 L214.298128,10.1379253 L218.073484,10.1379253 L218.073484,10.8762048 L214.298128,10.8762048 L214.298128,14.844666 L219,14.844666 L219,15.5823892 L210.013691,15.5823892 C210.445965,16.458744 211.021355,17.2575815 211.716401,17.9463303 C212.402502,18.6321925 213.150768,19.2534954 213.951662,19.8023216 C214.344512,19.3969058 214.704578,18.9612247 215.0285,18.4993445 C215.422278,17.9541192 215.819968,17.2431009 216.22157,16.3662896 L217.889075,17.2197341 C217.656981,17.5735742 217.394524,17.9348323 217.101704,18.3035085 C216.838316,18.6109858 216.514017,18.9531425 216.128807,19.3299785 C215.72297,19.722276 215.272929,20.0665338 214.78765,20.3558922 C215.288666,20.6721043 215.80672,20.960728 216.33948,21.2204637 C216.833473,21.4585825 217.273447,21.6625784 217.659402,21.8324513 C218.106454,22.0179021 218.531154,22.1792443 218.933501,22.3164778 L218.030455,24 C217.04536,23.6258265 216.098351,23.1589734 215.202291,22.6057811 C214.440007,22.1320304 213.715839,21.6000409 213.036323,21.0146134 C212.453149,20.5123224 211.914681,19.9607784 211.426935,19.3661414 C211.020639,18.8704226 210.645517,18.3501679 210.303716,17.8083549 C210.038386,17.3906605 209.802196,16.9553096 209.596815,16.5053777 C209.426935,16.1214946 209.303437,15.8140172 209.22632,15.5829456 L205.035205,15.5829456 L205.035205,21.2577393 C205.562338,21.189387 206.084848,21.0894328 206.599888,20.9584218 C207.070411,20.8352825 207.483375,20.7199321 207.838782,20.6123706 C208.20834,20.5019292 208.571714,20.3719287 208.927354,20.222924 L209.390612,20.9150263 C208.669429,21.4497272 207.897592,21.9131363 207.086058,22.2986746 C206.445871,22.6009707 205.783879,22.8551905 205.105616,23.0592082 C204.476933,23.2481763 203.834123,23.3869619 203.183291,23.474247 L203.183291,15.5823892 L201.165968,15.5823892 L201.165968,14.844666 L205.798547,14.844666 L205.798547,10.8784302 L201.282202,10.8784302 L201.282202,10.1401507 L205.798547,10.1379253 Z M207.651579,14.8424406 L212.469125,14.8424406 L212.469125,10.8784302 L207.651579,10.8784302 L207.651579,14.8424406 Z" id="Shape" fill="#E3F4FC"></path>
            </g>
        </g>
    </g>
</svg>