<svg xmlns="http://www.w3.org/2000/svg" width="12" height="15" viewBox="0 0 12 15">
    <path fill="#FFF" fill-rule="evenodd" d="M10.079 6.286h1.442c.227 0 .412.179.412.4v7.056c0 .222-.188.4-.412.4H.412a.406.406 0 0 1-.412-.4V6.686c0-.221.188-.4.412-.4h1.364V3.925C1.776 1.757 3.64 0 5.928 0c2.292 0 4.15 1.755 4.15 3.925v2.36zm-1.66 0V3.929c0-1.298-1.116-2.358-2.491-2.358-1.373 0-2.491 1.056-2.491 2.358v2.357h4.981zM4.662 9.029v2.37c0 .678.566 1.208 1.265 1.208.703 0 1.264-.54 1.264-1.207V9.03c0-.678-.566-1.209-1.264-1.209-.703 0-1.265.541-1.265 1.208z" opacity=".7"/>
</svg>
