<?xml version="1.0" encoding="utf-8"?>
<!-- Generator: Adobe Illustrator 19.0.0, SVG Export Plug-In . SVG Version: 6.00 Build 0)  -->
<svg version="1.1" id="图层_1" xmlns="http://www.w3.org/2000/svg" xmlns:xlink="http://www.w3.org/1999/xlink" x="0px" y="0px"
	 viewBox="0 0 2331.6 801.8" style="enable-background:new 0 0 2331.6 801.8;" xml:space="preserve">
<style type="text/css">
	.st0{fill:url(#XMLID_164_);}
	.st1{fill-rule:evenodd;clip-rule:evenodd;fill:#3E3A39;}
	.st2{fill:#353232;}
	.st3{fill:#FFFFFF;}
</style>
<linearGradient id="XMLID_164_" gradientUnits="userSpaceOnUse" x1="112.8228" y1="-25.6753" x2="652.7368" y2="773.8127">
	<stop  offset="0" style="stop-color:#51AEED"/>
	<stop  offset="1" style="stop-color:#449FEA"/>
</linearGradient>
<path id="XMLID_263_" class="st0" d="M617.3,801.8H184.5C82.6,801.8,0,719.2,0,617.3V184.5C0,82.6,82.6,0,184.5,0h432.9
	c101.9,0,184.5,82.6,184.5,184.5v432.9C801.8,719.2,719.2,801.8,617.3,801.8z"/>
<g id="XMLID_11_">
	<g id="XMLID_12_">
		<path id="XMLID_13_" class="st1" d="M1916.7,271.9c27.7-8.1,52.9-17.3,74.8-27.3c22-10,41.8-21.3,58.9-33.5
			c17.1-12.2,32.3-25.6,45.2-39.8c12-13.1,22.9-27.3,32.5-42.1c5.7,10,13.4,21.1,23,33.2c10.7,13.6,23.9,27.6,39.2,41.7
			c15.3,14.1,33.1,27.9,52.7,41c19.7,13.1,41.8,24.7,65.8,34.6l2,0.8l20.8-42.3l-2.6-0.9c-23.2-7.8-44.6-16.1-63.7-24.7
			c-19-8.6-36.7-18.4-52.5-29c-15.8-10.6-30.5-22.6-43.6-35.4c-13.1-12.9-25.4-27.7-36.5-44.1l-0.7-1h-44.7l-0.7,1.3
			c-7.1,13.7-15.6,27.2-25.3,40.2c-9.7,12.9-21.6,25.6-35.4,37.8c-13.8,12.2-30.5,24.3-49.5,35.9c-19.1,11.7-41.6,23.3-67.1,34.5
			l-2.1,0.9l7.2,19L1916.7,271.9z"/>
		<rect id="XMLID_14_" x="1993.8" y="254.6" class="st1" width="243.4" height="19.1"/>
		<path id="XMLID_15_" class="st1" d="M1834.2,151.6c-6.2-7.5-14.4-11.3-24.3-11.3h-19.5c-5.8,0-10.7,0.9-14.8,2.6
			c-2.3,1-4.4,2.1-6.2,3.3v-5.9h-34.2v355.4h71.7c10.1,0,18.9-3.7,26.1-10.9c7.2-7.3,10.9-16.1,10.9-26.3l0-280.2
			C1843.6,167.9,1840.3,159,1834.2,151.6z M1808.4,468.1c0,2.6-0.8,4.6-2.3,6.2c-1.6,1.6-3.6,2.4-6.1,2.4h-30.6V172.5
			c1.6-2.8,4.1-5.7,7.3-8.7c3.2-2.9,7.4-4.4,12.9-4.4h10c2.5,0,4.6,0.8,6.3,2.6c1.7,1.7,2.6,3.8,2.6,6.4V468.1z"/>
		<path id="XMLID_18_" class="st1" d="M1265.3,370.6c9.3,8,19.5,16.8,30.3,26.3c10.8,9.5,21.4,19,31.6,28.3
			c10.4,9.4,19.3,17.8,26.3,25l1.9,2l26.5-36.1l-2.1-1.4c-8.6-5.7-18.8-12.4-30.1-20c-11.6-7.8-23.6-15.6-35.5-23.3
			c-11.6-7.4-23-14.7-34-21.6c-10.6-6.6-19.3-11.8-25.7-15.3l-1.9-1l-11,16.1l1.5,1.4C1248.3,355.8,1255.7,362.4,1265.3,370.6z"/>
		<path id="XMLID_19_" class="st1" d="M1055,132.2c-3.8,1.5-7.3,3-10.4,4.7c-1.6,0.8-3.1,1.8-4.5,2.7v-11.9h-42.8v332.1
			c0,10.2,3.6,19.2,10.6,26.9l0.1,0.1c7.4,7.4,16.4,11.2,26.8,11.2h350.1v-19.1h-325.9c-5.2,0-9.4-1.8-13.1-5.4l-0.1-0.1
			c-3.8-3.3-5.7-7.6-5.7-13V163.6c1.8-1.9,3.9-3.7,6.3-5.2c2.9-1.9,6.2-4,9.8-6.2c7.7-3.9,16.3-5.8,25.7-5.8h302.9v-18.7h-302.1
			C1071.5,127.7,1062.2,129.2,1055,132.2z"/>
		<path id="XMLID_20_" class="st1" d="M1160.4,374.9L1160.4,374.9c-7.2,7.5-14.6,14-22.3,19.4c-7.7,5.7-15.5,11-23.2,15.6
			c-8.9,5.5-18.1,10.5-27.5,14.9c-9.4,4.4-19.4,8.4-29.6,11.9l-2.3,0.8l7.7,20.5l2.1-0.6c22-6.1,44-14.5,65.4-25
			c9.5-5,18.9-10.4,27.9-16.2c5-2.9,9.8-6.1,14.4-9.5c4.5-3.3,9.2-6.8,14.4-10.7c9-7,18.1-15.6,27.1-25.5c4.4-4.7,8.4-9.3,12-13.6
			c3.7-4.4,7.2-9.7,10.4-15.6l0-0.1c1-1.9,1.6-3.7,2.1-5.4c0.4-1.5,0.9-3,1.4-4.3c0.4-1,0.8-2.1,1-3.3h126.9v-19.1h-126v-81.1h118.2
			v-19.1h-207.6l7.1-9.3c1.4-1.9,2.7-3.9,3.9-5.7c1.2-1.8,2.3-3.6,3.2-5.4l6.5-12l-42.9-14.2l-0.8,2c-6.2,15.1-13.7,28.9-22.3,40.9
			c-4.1,5.8-8.1,11.4-11.9,16.5c-3.8,5.1-7.6,9.8-11.3,13.7c-4.6,4.9-9.1,9.4-13.3,13.4c-4.3,4-8.6,7.8-12.9,11.2l-1.6,1.3l9.9,16.6
			l1.9-0.8c14.8-6.4,28-14.3,39.1-23.4c11.6-8.8,21.3-17.4,29-25.6h61.1v81.1h-133.4V328h128.4c-3.3,8.2-7.6,16.2-12.8,23.7
			C1173.8,360.5,1167.2,368.3,1160.4,374.9z"/>
		<path id="XMLID_21_" class="st1" d="M1701.6,160.9c-6.8-7.3-16.1-11-27.7-11h-37v-49.7h-39.4v49.7h-33.4V169h33.4v61.3
			c0.6,42.1-0.9,78.2-4.3,107.3c-3.4,29.1-8.4,54.3-14.6,75c-6.3,20.6-13.8,38.2-22.5,52.1c-8.7,14.1-18.1,27.4-27.8,39.4l-1.2,1.5
			l12.7,15l1.8-1.4c17.5-13.7,32.1-30.1,43.6-48.5c11.5-18.4,20.8-38,27.7-58.4c6.9-20.3,12.2-41.3,15.7-62.2
			c3.5-20.9,5.8-41.4,7-60.8c1.1-19.5,1.7-37.7,1.5-54c-0.1-16.3-0.2-30.3-0.2-41.6V169h29.2c2.5,0,4.4,0.8,5.8,2.5
			c1.5,1.7,2.2,3.9,2.2,6.5v246.1c0,13-1.9,24.5-5.7,34.2c-3.8,9.8-8.2,18-12.9,24.5c-5.3,7.6-11.4,14.4-18.2,20l-1.8,1.5l12.2,14.6
			l1.6-0.8c16.4-8,29.1-17.9,37.7-29.5c8.5-11.5,14.7-22.7,18.5-33.3c4.4-12.4,6.6-25.5,6.6-39.1l-0.4-229.6
			C1711.8,176.8,1708.4,168.1,1701.6,160.9z"/>
		<path id="XMLID_22_" class="st1" d="M1911.5,345.9h140.6c-9.2,18.5-18.8,35.1-28.5,49.4c-10.3,15.3-20.3,28.9-29.8,40.6
			c-9.4,11.6-18.3,22-26.5,30.8c-8.2,8.8-15.2,16.9-20.7,23.8c-2.7,3.2-3,6.6-0.7,9.7c1.4,2,4.2,4.3,9.3,3.8
			c22.1-2,39.1-3.5,53.3-4.8c16-1.5,31.2-2.9,45.1-4.4c13-1.3,26.5-2.8,41.2-4.4c13.3-1.5,27.4-3.3,41.9-5.5
			c14.5-2.2,30.3-4.8,46.9-7.9c16.1-3,34.7-6.6,55.3-10.9c6.3,6.4,12.9,13.3,19.6,20.6c7.2,7.9,14.6,16,21.8,24.2l1.8,2l32.8-36.9
			l-1.8-1.6c-11.6-10.2-24.5-20.5-38.3-30.6c-11.8-8.7-25.5-18.3-40.8-28.6c-15.3-10.3-31.7-20.2-48.7-29.5l-1.8-1l-12.1,15.5
			l1.6,1.5c3.8,3.5,8.3,7.8,13.4,12.6c4.2,4,9.4,8.9,15.8,15.2c5.6,5.5,11.4,11.3,17.1,17c-8.1,1-18.3,2.2-30.5,3.5
			c-15.4,1.6-32.7,3.4-51.5,5.2c-19.1,1.9-40.9,3.8-64.7,5.7c-21.3,1.7-44.1,3.1-67.8,4.2c13.4-11.3,25.6-22.7,36.1-33.8
			c12-12.6,22.6-24.6,31.5-35.6c9-11.1,16.5-21.2,22.2-30c5.3-8.1,9.6-14.8,12.8-20.1h212.4v-19.1h-408.4V345.9z"/>
		<path id="XMLID_23_" class="st1" d="M1558.9,412.3V181.4c0-10.4-3.1-19.3-9.2-26.6c-6.2-7.3-14.4-11.1-24.3-11.1h-16
			c-6.1,0-11.3,0.9-15.5,2.8c-2.5,1.1-4.7,2.4-6.9,3.8v-6.6h-34.6v305.3h69.9c10.1,0,18.9-3.6,25.9-10.7
			C1555.3,431.3,1558.9,422.5,1558.9,412.3z M1523.9,421.5c0,2.6-0.8,4.6-2.6,6.4c-1.7,1.7-3.8,2.6-6.3,2.6h-28v-254
			c1.9-3.1,4.5-6.2,7.9-9.4c3.3-3.1,7.9-4.6,13.6-4.6h6.5c2.5,0,4.6,0.9,6.3,2.7c1.8,1.9,2.6,4.1,2.6,6.6V421.5z"/>
	</g>
	<g id="XMLID_26_">
		<path id="XMLID_27_" class="st2" d="M1010.9,731.5v-97.1h19.1l26.9,75.1l27.7-75.1h17.1v97.1h-12.9v-79L1062,725h-13.3l-26-72.7
			v79.2H1010.9z"/>
		<path id="XMLID_29_" class="st2" d="M1140,731.5v-97.1h54.2v10.3h-40.5v31.2h33.9V686h-33.9v35.2h43.3v10.3H1140z"/>
		<path id="XMLID_31_" class="st2" d="M1226.3,731.5v-97.1h32.3c9.6,0,17.4,1.1,23.3,3.2c5.9,2.1,11.1,5.8,15.4,10.9
			c6.9,8.1,10.3,18.8,10.3,32.1c0,16.1-4.3,28.6-12.8,37.5c-8.5,8.9-20.5,13.3-36,13.3H1226.3z M1240.1,721.2h17.6
			c12.6,0,21.5-3.4,26.8-10.2c5.6-7.2,8.5-16.9,8.5-29.1c0-11.4-2.8-20.4-8.3-26.9c-3.4-4-7.4-6.7-12.1-8.2
			c-4.7-1.5-11.7-2.2-21.1-2.2h-11.4V721.2z"/>
		<path id="XMLID_36_" class="st2" d="M1340.3,731.5v-97.1h13.8v97.1H1340.3z"/>
		<path id="XMLID_42_" class="st2" d="M1392.5,731.5v-97.1h54.2v10.3h-40.5v31.2h33.9V686h-33.9v35.2h43.3v10.3H1392.5z"/>
		<path id="XMLID_47_" class="st2" d="M1520.3,733.9c-15.1,0-26.7-4.4-35-13.3c-8.2-8.9-12.3-21.4-12.3-37.6
			c0-16.2,4.2-28.7,12.6-37.7c8.4-8.9,20.2-13.4,35.4-13.4c8.7,0,18.9,1.4,30.6,4.3v12.9c-13.3-4.6-23.5-6.9-30.8-6.9
			c-10.5,0-18.7,3.6-24.5,10.7c-5.8,7.1-8.7,17.2-8.7,30.2c0,12.4,3.1,22.1,9.2,29.3c6.2,7.2,14.6,10.7,25.3,10.7
			c9.2,0,19-2.8,29.5-8.5v11.8C1542.1,731.4,1531.7,733.9,1520.3,733.9z"/>
		<path id="XMLID_53_" class="st2" d="M1624.2,733.9c-13.5,0-24.3-4.7-32.5-14c-8.2-9.3-12.3-21.7-12.3-37c0-15.4,4.1-27.8,12.4-37
			s19.2-13.9,33-13.9c13.7,0,24.7,4.6,33,13.8c8.3,9.2,12.4,21.5,12.4,36.9c0,15.7-4.1,28.1-12.4,37.4
			C1649.5,729.3,1638.3,733.9,1624.2,733.9z M1624.4,723.6c9.9,0,17.6-3.6,23-10.7c5.4-7.2,8.1-17.2,8.1-30.3
			c0-12.6-2.7-22.5-8.2-29.6c-5.4-7.1-13-10.7-22.6-10.7c-9.7,0-17.2,3.6-22.6,10.7c-5.4,7.2-8.1,17.1-8.1,29.8
			c0,12.7,2.7,22.7,8.1,29.9C1607.5,720,1614.9,723.6,1624.4,723.6z"/>
		<path id="XMLID_76_" class="st2" d="M1887.8,728.9c-11.8,3.4-22,5-30.8,5c-15.4,0-27.3-4.4-35.5-13.2
			c-8.2-8.8-12.4-21.4-12.4-37.8c0-16.1,4.2-28.6,12.5-37.5c8.4-8.9,20.1-13.4,35.2-13.4c9.9,0,20.2,1.5,30.8,4.4v12.7
			c-13.4-4.5-23.6-6.8-30.8-6.8c-10.5,0-18.6,3.6-24.4,10.7c-5.8,7.1-8.7,17.2-8.7,30.1c0,12.8,3.1,22.8,9.3,29.9
			c6.2,7.1,14.9,10.7,26.1,10.7c4.6,0,9.6-0.8,14.9-2.4v-31.6h13.7V728.9z"/>
		<path id="XMLID_79_" class="st2" d="M1925.3,731.5v-97.1h29.4c9.3,0,16.4,2.1,21.4,6.2c5,4.1,7.4,10.1,7.4,17.9
			c0,12.9-6.5,22.1-19.6,27.5l32.4,45.5h-16.9l-27.6-41.1H1939v41.1H1925.3z M1939,680.1h4.5c17.3,0,26-6.8,26-20.4
			c0-10-7.3-15-21.8-15h-8.7V680.1z"/>
		<path id="XMLID_85_" class="st2" d="M2062.8,733.9c-13.5,0-24.3-4.7-32.5-14c-8.2-9.3-12.3-21.7-12.3-37c0-15.4,4.1-27.8,12.4-37
			c8.2-9.2,19.2-13.9,33-13.9c13.7,0,24.7,4.6,33,13.8c8.3,9.2,12.4,21.5,12.4,36.9c0,15.7-4.1,28.1-12.4,37.4
			C2088.1,729.3,2076.9,733.9,2062.8,733.9z M2063,723.6c9.9,0,17.6-3.6,23-10.7c5.4-7.2,8.1-17.2,8.1-30.3
			c0-12.6-2.7-22.5-8.2-29.6c-5.4-7.1-13-10.7-22.6-10.7c-9.7,0-17.2,3.6-22.6,10.7c-5.4,7.2-8.1,17.1-8.1,29.8
			c0,12.7,2.7,22.7,8.1,29.9C2046.1,720,2053.5,723.6,2063,723.6z"/>
		<path id="XMLID_89_" class="st2" d="M2140.7,634.4h13.8v61.3c0,9.8,1.8,16.8,5.4,21.3c3.6,4.4,9.4,6.7,17.2,6.7
			c7.7,0,13.2-2.1,16.4-6.3c3.2-4.2,4.8-11.3,4.8-21.2v-61.7h12.1v61.5c0,13.2-2.7,22.9-8.2,28.9c-5.4,6-14.1,9.1-26,9.1
			c-12.1,0-21.1-3.1-26.8-9.4c-5.8-6.3-8.7-15.9-8.7-29V634.4z"/>
		<path id="XMLID_91_" class="st2" d="M2248,731.5v-97.1h26.4c11.7,0,20.1,2,25.2,5.9c5.1,4,7.7,10.5,7.7,19.5
			c0,10.3-3.5,18.4-10.5,24.3c-7,5.9-16.7,8.8-29.1,8.8h-6.1v38.6H2248z M2261.7,682.5h5.6c8.2,0,14.5-1.9,19-5.6
			c4.5-3.8,6.7-9.1,6.7-15.9c0-5.8-1.7-10-5.2-12.5c-3.5-2.5-9.3-3.7-17.5-3.7h-8.5V682.5z"/>
	</g>
</g>
<path id="XMLID_216_" class="st3" d="M483.9,292.3c14.1,6.7,31,0.7,37.7-13.4l26-54.6c6.7-14.1,0.7-31-13.4-37.7
	c-14.1-6.7-31-0.7-37.7,13.4l-26,54.6C463.8,268.7,469.8,285.6,483.9,292.3z"/>
<path id="XMLID_215_" class="st3" d="M571,466.2c-10.6-9.5-26.8-9.3-36.8,0.4c-37.4,36.3-88.5,54.8-140.3,50.6
	c-25.8-2.1-50.2-10.1-72.5-22.6c3.2-6.3,6.4-12.6,9.8-18.8c16.4-30,4.6-67.5-26-82.8l-58.7-29.2c52.7-88.5,121-164.9,203.6-227.8
	c-19.7-25.4-56.8-29-81-7.8c-12.9,11.3-24.1,21.2-26.3,23.4c-48.8,46.4-93.3,98.9-129.7,155.6c-15.3,23.8-28.9,53.4-15.5,81.2
	c11.2,23.1,34.9,32.1,56.2,43.3c2.2,1.2,28,12.4,27.9,14.1l-1.2,2.3c-28.9,52.9-50.6,108.9-65,167c-7.8,31.4,10.7,62.6,42.7,67.7
	c7.5-47.6,21.4-93.8,39.9-138.2c28.3,15.2,59.3,24.5,91.3,27.1c67.4,5.5,134-18.6,182.8-66c5.3-5.1,8.1-12,7.9-19.5
	C580.1,478.6,576.7,471.3,571,466.2z"/>
</svg>
