<?xml version="1.0" encoding="UTF-8"?>
<svg width="141px" height="95px" viewBox="0 0 141 95" version="1.1" xmlns="http://www.w3.org/2000/svg" xmlns:xlink="http://www.w3.org/1999/xlink">
    <!-- Generator: Sketch 44.1 (41455) - http://www.bohemiancoding.com/sketch -->
    <title>问答</title>
    <desc>Created with Sketch.</desc>
    <defs></defs>
    <g id="icon" stroke="none" stroke-width="1" fill="none" fill-rule="evenodd">
        <g id="问答" fill-rule="nonzero">
            <g id="赞-copy-2" transform="translate(99.000000, 21.000000)" fill="#4990E2">
                <path d="M12.8655434,7.68925 C12.793276,7.84492858 12.6987748,7.98180358 12.5820398,8.099875 C12.4653049,8.21794643 12.3235624,8.311875 12.1568122,8.38166072 C11.9900621,8.45144643 11.8177397,8.48633929 11.639845,8.48633929 L11.1562376,8.48633929 C11.52311,8.48633929 11.837175,8.60443453 12.0984324,8.840625 C12.3596899,9.07681548 12.4903186,9.36667858 12.4903186,9.71021429 C12.4903186,10.05375 12.3596899,10.3489821 12.0984324,10.5959107 C11.837175,10.8428393 11.52311,10.9663036 11.1562376,10.9663036 L10.6559687,10.9663036 C11.0339611,10.9663036 11.3535799,11.0897679 11.614825,11.3366964 C11.8760702,11.583625 12.0066989,11.8788571 12.0067112,12.2223929 C12.0067112,12.3941548 11.9566837,12.557875 11.8566287,12.7135536 C11.7565737,12.8692321 11.620385,13.0034286 11.4480626,13.1161429 C11.2757402,13.2288571 11.0784101,13.3174286 10.8560725,13.3818571 C10.6337349,13.4462857 10.405825,13.4784941 10.1723428,13.4784821 C10.5392153,13.4784821 10.8366003,13.604625 11.0644979,13.8569107 C11.2923954,14.1091964 11.4063504,14.4071071 11.4063627,14.7506429 C11.4063627,14.9653571 11.3424414,15.1505476 11.2145989,15.3062143 C11.0867563,15.461881 10.9255538,15.5907024 10.7309915,15.6926786 C10.5364291,15.7946548 10.3279791,15.8698036 10.1056415,15.918125 C9.88330394,15.9664464 9.68319393,15.9906012 9.50531152,15.9905893 L2.51807966,15.9905893 C2.16232717,15.9905893 1.83158227,15.9342262 1.52584495,15.8215 C1.22010763,15.7087738 0.953290185,15.5477441 0.725392603,15.3384107 C0.497495021,15.1290774 0.319618777,14.8794762 0.191763869,14.5896071 C0.0639089616,14.2997381 -1.23281176e-05,13.9723036 0,13.6073036 L0,8.67966072 C0,8.46494643 0.00833997155,8.25023215 0.0250199147,8.03551786 C0.0416998578,7.82080358 0.0833935514,7.61951191 0.150100996,7.43164286 C0.21680844,7.24377381 0.319643433,7.07200596 0.458605974,6.91633929 C0.597568516,6.76067262 0.783784732,6.63452977 1.01725462,6.53791072 C1.23960455,6.45202977 1.49252205,6.32320834 1.77600711,6.15144643 C2.05949218,5.97968453 2.35410337,5.77571429 2.65984068,5.53953572 C2.965578,5.30335715 3.26296302,5.03766072 3.55199573,4.74244643 C3.84102845,4.44723215 4.10229208,4.13589881 4.33578663,3.80844643 C4.56928118,3.48099405 4.75549739,3.14014286 4.89443528,2.78589286 C5.03337316,2.43164286 5.1028606,2.072 5.10289758,1.70696429 C5.11401754,1.38490477 5.15848506,1.11651786 5.23630014,0.901803575 C5.31411522,0.687089289 5.41695021,0.512630956 5.54480512,0.378428575 C5.67266003,0.244226194 5.81162873,0.147601194 5.96171124,0.088553575 C6.11179374,0.029505956 6.26465624,-1.19011624e-05 6.42029872,3.59949672e-09 C6.82051873,3.59949672e-09 7.15682361,0.118095242 7.42921337,0.354285718 C7.70160313,0.590476194 7.89337933,0.976958337 8.00454196,1.51373215 C8.02678189,1.975375 7.99898198,2.46384524 7.92114225,2.97914286 C7.8544348,3.41930953 7.73769986,3.90241072 7.57093741,4.42844643 C7.40417496,4.95448215 7.14847748,5.47516072 6.80384495,5.99048215 L11.6399004,5.99048215 C12.0067729,5.99048215 12.3208378,6.10588691 12.5820953,6.33669643 C12.8433528,6.56750596 12.9739815,6.85468453 12.9739815,7.19823215 C12.9739445,7.36985119 12.9378108,7.53357143 12.8655434,7.68925 Z" id="Shape"></path>
            </g>
            <g id="Group" transform="translate(60.000000, 19.000000)" fill="#4990E2">
                <path d="M5.5952482,8.82368061 C6.58731137,10.5028664 4.94051153,11.2635231 4.25213926,11.6859775 C1.29332753,13.4798931 0,14.1516906 0,15.0244471 L0,16.216847 C0,16.6001503 0.268860709,16.9324025 0.671573137,16.9324025 L15.2191699,16.9324025 C15.621845,16.9324025 15.8907057,16.6008218 15.8907057,16.216847 L15.8907057,15.0244471 C15.8907057,14.1516719 14.5973782,13.479203 11.6379692,11.6859588 C10.9502315,11.2635044 9.30335704,10.5028478 10.2954949,8.82366196 C11.1761612,7.42965013 11.8638988,6.86193216 11.8620135,4.53088817 C11.8638988,2.31849103 10.3278425,0 8.05738439,0 C5.56286322,0 4.02684429,2.31847238 4.02871086,4.53088817 C4.02686296,6.86196946 4.71456326,7.42968743 5.5952482,8.82368061 Z" id="Shape-Copy"></path>
                <path d="M18.3932516,15.4917746 C18.7135923,15.4917746 18.9274638,15.2279947 18.9274638,14.9225458 L18.9274638,13.9739679 C18.9274638,13.2796572 17.8986106,12.7447112 15.5443435,11.3181513 C14.9972519,10.982094 13.6871252,10.3769597 14.4763856,9.0411428 C15.1769652,7.93219302 15.7240755,7.48056654 15.7225822,5.62618033 C15.7240755,3.86619307 14.5021256,2.02178581 12.6959393,2.02178581 C12.6959393,2.02178581 12.1865338,1.97276774 11.9812111,2.02178581 C11.9812111,2.02178581 14.5025176,5.17826565 11.4212402,8.89752062 C11.4212402,8.89752062 10.0399786,10.4643081 12.2798623,11.508833 C14.519746,12.553358 16.6103041,14.2320588 16.6849669,14.6051035 C16.7596297,14.9781481 16.7969611,15.4917933 16.7969611,15.4917933 L18.3932516,15.4917933 L18.3932516,15.4917746 Z" id="Shape-Copy-2"></path>
            </g>
            <g id="列表" transform="translate(24.000000, 21.000000)" fill="#4990E2">
                <path d="M0,1.18322359 C0,1.83109337 0.5089,2.35624816 1.13671667,2.35624816 C1.76451667,2.35624816 2.27343333,1.83109337 2.27343333,1.18322359 C2.27343333,0.535439803 1.76453333,0.0102850123 1.13671667,0.0102850123 C0.5089,0.0102850123 0,0.535439803 0,1.18322359 Z M0,6.9999484 C0,7.64783538 0.5089,8.17295577 1.13671667,8.17295577 C1.76451667,8.17295577 2.27343333,7.64783538 2.27343333,6.9999484 C2.27343333,6.35209582 1.76453333,5.82692383 1.13671667,5.82692383 C0.5089,5.82692383 0,6.35209582 0,6.9999484 L0,6.9999484 Z M0,12.8166904 C0,13.4643882 0.5089,13.989715 1.13671667,13.989715 C1.76451667,13.989715 2.27343333,13.4643882 2.27343333,12.8166904 C2.27343333,12.1688206 1.76453333,11.6436658 1.13671667,11.6436658 C0.5089,11.6436658 0,12.1688206 0,12.8166904 L0,12.8166904 Z M16,1.21232432 C16,1.77488698 15.5539,2.23523587 15.00875,2.23523587 L4.69263333,2.23523587 C4.14748333,2.23523587 3.70138333,1.77488698 3.70138333,1.21232432 L3.70138333,1.15419165 C3.70138333,0.591628993 4.14748333,0.131280098 4.69263333,0.131280098 L15.00875,0.131280098 C15.5539,0.131280098 16,0.591611794 16,1.15419165 L16,1.21232432 Z M16,7.02904914 C16,7.591543 15.5539,8.05187469 15.00875,8.05187469 L4.69263333,8.05187469 C4.14748333,8.05187469 3.70138333,7.591543 3.70138333,7.02904914 L3.70138333,6.97084767 C3.70138333,6.40828501 4.14748333,5.94802211 4.69263333,5.94802211 L15.00875,5.94802211 C15.5539,5.94802211 16,6.40828501 16,6.97084767 L16,7.02904914 Z M16,12.8457224 C16,13.4083022 15.5539,13.8686511 15.00875,13.8686511 L4.69263333,13.8686511 C4.14748333,13.8686511 3.70138333,13.4083022 3.70138333,12.8457224 L3.70138333,12.7875209 C3.70138333,12.225113 4.14748333,11.7647641 4.69263333,11.7647641 L15.00875,11.7647641 C15.5539,11.7647641 16,12.225113 16,12.7875209 L16,12.8457224 Z" id="Shape"></path>
            </g>
            <g id="列表-copy" transform="translate(24.000000, 60.000000)" fill-opacity="0.500905797" fill="#BCC1CC">
                <path d="M0,1.18322359 C0,1.83109337 0.5089,2.35624816 1.13671667,2.35624816 C1.76451667,2.35624816 2.27343333,1.83109337 2.27343333,1.18322359 C2.27343333,0.535439803 1.76453333,0.0102850123 1.13671667,0.0102850123 C0.5089,0.0102850123 0,0.535439803 0,1.18322359 Z M0,6.9999484 C0,7.64783538 0.5089,8.17295577 1.13671667,8.17295577 C1.76451667,8.17295577 2.27343333,7.64783538 2.27343333,6.9999484 C2.27343333,6.35209582 1.76453333,5.82692383 1.13671667,5.82692383 C0.5089,5.82692383 0,6.35209582 0,6.9999484 L0,6.9999484 Z M0,12.8166904 C0,13.4643882 0.5089,13.989715 1.13671667,13.989715 C1.76451667,13.989715 2.27343333,13.4643882 2.27343333,12.8166904 C2.27343333,12.1688206 1.76453333,11.6436658 1.13671667,11.6436658 C0.5089,11.6436658 0,12.1688206 0,12.8166904 L0,12.8166904 Z M16,1.21232432 C16,1.77488698 15.5539,2.23523587 15.00875,2.23523587 L4.69263333,2.23523587 C4.14748333,2.23523587 3.70138333,1.77488698 3.70138333,1.21232432 L3.70138333,1.15419165 C3.70138333,0.591628993 4.14748333,0.131280098 4.69263333,0.131280098 L15.00875,0.131280098 C15.5539,0.131280098 16,0.591611794 16,1.15419165 L16,1.21232432 Z M16,7.02904914 C16,7.591543 15.5539,8.05187469 15.00875,8.05187469 L4.69263333,8.05187469 C4.14748333,8.05187469 3.70138333,7.591543 3.70138333,7.02904914 L3.70138333,6.97084767 C3.70138333,6.40828501 4.14748333,5.94802211 4.69263333,5.94802211 L15.00875,5.94802211 C15.5539,5.94802211 16,6.40828501 16,6.97084767 L16,7.02904914 Z M16,12.8457224 C16,13.4083022 15.5539,13.8686511 15.00875,13.8686511 L4.69263333,13.8686511 C4.14748333,13.8686511 3.70138333,13.4083022 3.70138333,12.8457224 L3.70138333,12.7875209 C3.70138333,12.225113 4.14748333,11.7647641 4.69263333,11.7647641 L15.00875,11.7647641 C15.5539,11.7647641 16,12.225113 16,12.7875209 L16,12.8457224 Z" id="Shape"></path>
            </g>
            <g id="赞-copy-3" transform="translate(99.000000, 57.000000)" fill-opacity="0.500905797" fill="#BCC1CC">
                <path d="M12.9907724,7.20080357 C12.9907724,7.37256548 12.9546387,7.53628571 12.8823713,7.69196429 C12.8101038,7.84764286 12.7156027,7.98451786 12.5988677,8.10258929 C12.4821328,8.22066071 12.3403902,8.31458929 12.1736401,8.384375 C12.00689,8.45416071 11.8345676,8.48905357 11.6566728,8.48905357 L11.1730654,8.48905357 C11.5399379,8.48905357 11.8540028,8.60714881 12.1152603,8.84333929 C12.3765178,9.07952976 12.5071465,9.36939286 12.5071465,9.71292857 C12.5071465,10.0564643 12.3765178,10.3516964 12.1152603,10.598625 C11.8540028,10.8455536 11.5399379,10.9690179 11.1730654,10.9690179 L10.6727966,10.9690179 C11.050789,10.9690179 11.3704078,11.0924821 11.6316529,11.3394107 C11.8928981,11.5863393 12.0235268,11.8815714 12.0235391,12.2251071 C12.0235391,12.396869 11.9735116,12.5605893 11.8734566,12.7162679 C11.7734016,12.8719464 11.6372129,13.0061429 11.4648905,13.1188571 C11.292568,13.2315714 11.095238,13.3201429 10.8729004,13.3845714 C10.6505628,13.449 10.4226529,13.4812083 10.1891707,13.4811964 C10.5560431,13.4811964 10.8534282,13.6073393 11.0813257,13.859625 C11.3092233,14.1119107 11.4231783,14.4098214 11.4231906,14.7533571 C11.4231906,14.9680714 11.3592693,15.1532619 11.2314267,15.3089286 C11.1035842,15.4645952 10.9423817,15.5934167 10.7478193,15.6953929 C10.553257,15.797369 10.344807,15.8725179 10.1224694,15.9208393 C9.90013182,15.9691607 9.70002181,15.9933155 9.5221394,15.9933036 L2.53490754,15.9933036 C2.17915505,15.9933036 1.84841015,15.9369405 1.54267283,15.8242143 C1.23693551,15.7114881 0.970118065,15.5504583 0.742220484,15.341125 C0.514322902,15.1317917 0.336446657,14.8821905 0.20859175,14.5923214 C0.0807368421,14.3024524 0.0168155524,13.9750179 0.0168278805,13.6100179 L0.0168278805,8.682375 C0.0168278805,8.46766071 0.0251678521,8.25294643 0.0418477952,8.03823214 C0.0585277383,7.82351786 0.100221432,7.62222619 0.166928876,7.43435714 C0.233636321,7.2464881 0.336471313,7.07472024 0.475433855,6.91905357 C0.614396396,6.7633869 0.800612613,6.63724405 1.0340825,6.540625 C1.25643243,6.45474405 1.50934993,6.32592262 1.79283499,6.15416071 C2.07632006,5.98239881 2.37093125,5.77842857 2.67666856,5.54225 C2.98240588,5.30607143 3.2797909,5.040375 3.56882361,4.74516071 C3.85785633,4.44994643 4.11911996,4.1386131 4.35261451,3.81116071 C4.58610906,3.48370833 4.77232527,3.14285714 4.91126316,2.78860714 C5.05020104,2.43435714 5.11968848,2.07471429 5.11972546,1.70967857 C5.13084542,1.38761905 5.17531294,1.11923214 5.25312802,0.904517857 C5.3309431,0.689803571 5.43377809,0.515345238 5.561633,0.381142857 C5.68948791,0.246940476 5.82845661,0.150315476 5.97853912,0.0912678571 C6.12862162,0.0322202381 6.28148412,0.00270238095 6.4371266,0.00271428571 C6.83734661,0.00271428571 7.17365149,0.120809524 7.44604125,0.357 C7.71843101,0.593190476 7.91020721,0.979672619 8.02136984,1.51644643 C8.04360977,1.97808929 8.01580986,2.46655952 7.93797013,2.98185714 C7.87126268,3.42202381 7.75452774,3.905125 7.58776529,4.43116071 C7.42100284,4.95719643 7.16530536,5.477875 6.82067283,5.99319643 L11.6567283,5.99319643 C12.0236008,5.99319643 12.3376657,6.10860119 12.5989232,6.33941071 C12.8601807,6.57022024 12.9908094,6.85739881 12.9908094,7.20094643 L12.9907724,7.20080357 Z" id="Shape"></path>
            </g>
            <g id="好友" transform="translate(58.000000, 57.000000)" fill-opacity="0.500905797" fill="#BCC1CC">
                <path d="M5.5952482,8.82368061 C6.58731137,10.5028664 4.94051153,11.2635231 4.25213926,11.6859775 C1.29332753,13.4798931 0,14.1516906 0,15.0244471 L0,16.216847 C0,16.6001503 0.268860709,16.9324025 0.671573137,16.9324025 L15.2191699,16.9324025 C15.621845,16.9324025 15.8907057,16.6008218 15.8907057,16.216847 L15.8907057,15.0244471 C15.8907057,14.1516719 14.5973782,13.479203 11.6379692,11.6859588 C10.9502315,11.2635044 9.30335704,10.5028478 10.2954949,8.82366196 C11.1761612,7.42965013 11.8638988,6.86193216 11.8620135,4.53088817 C11.8638988,2.31849103 10.3278425,0 8.05738439,0 C5.56286322,0 4.02684429,2.31847238 4.02871086,4.53088817 C4.02686296,6.86196946 4.71456326,7.42968743 5.5952482,8.82368061 Z" id="Shape"></path>
                <path d="M18.3932516,15.4917746 C18.7135923,15.4917746 18.9274638,15.2279947 18.9274638,14.9225458 L18.9274638,13.9739679 C18.9274638,13.2796572 17.8986106,12.7447112 15.5443435,11.3181513 C14.9972519,10.982094 13.6871252,10.3769597 14.4763856,9.0411428 C15.1769652,7.93219302 15.7240755,7.48056654 15.7225822,5.62618033 C15.7240755,3.86619307 14.5021256,2.02178581 12.6959393,2.02178581 C12.6959393,2.02178581 12.1865338,1.97276774 11.9812111,2.02178581 C11.9812111,2.02178581 14.5025176,5.17826565 11.4212402,8.89752062 C11.4212402,8.89752062 10.0399786,10.4643081 12.2798623,11.508833 C14.519746,12.553358 16.6103041,14.2320588 16.6849669,14.6051035 C16.7596297,14.9781481 16.7969611,15.4917933 16.7969611,15.4917933 L18.3932516,15.4917933 L18.3932516,15.4917746 Z" id="Shape"></path>
            </g>
        </g>
    </g>
</svg>