<?xml version="1.0" encoding="UTF-8"?>
<svg width="17px" height="18px" viewBox="0 0 17 18" version="1.1" xmlns="http://www.w3.org/2000/svg" xmlns:xlink="http://www.w3.org/1999/xlink">
    <!-- Generator: Sketch 44.1 (41455) - http://www.bohemiancoding.com/sketch -->
    <title>Shape</title>
    <desc>Created with Sketch.</desc>
    <defs></defs>
    <g id="11.标签页" stroke="none" stroke-width="1" fill="none" fill-rule="evenodd">
        <g id="标签页" transform="translate(-184.000000, -154.000000)" fill-rule="nonzero" fill="#7AB1F1">
            <g id="百科-(1)" transform="translate(184.000000, 154.000000)">
                <path d="M13.6764551,17.9837085 L3.32354488,17.9837085 C1.49364447,17.9772618 0.0118381628,16.5151943 0.00530440215,14.7096695 L0.00530440215,3.27403899 C0.00700606559,1.47751503 1.50276677,0 3.32524652,0 L13.6781568,0 C15.5006366,0 16.9963973,1.47415704 16.9963973,3.27403899 L16.9963973,14.7113485 C16.9963973,16.5095515 15.5006366,17.9853875 13.6781568,17.9853875 L13.6764551,17.9837085 Z M13.6764551,3.09270761 C13.6769111,2.92083937 13.6078001,2.75590516 13.4844701,2.63453328 C13.3611401,2.51316139 13.1938005,2.44539904 13.0196137,2.44629478 L9.37465415,2.44629478 C9.20076166,2.44584738 9.03386071,2.51380771 8.91089974,2.63513075 C8.78793876,2.75645379 8.71906093,2.9211315 8.71951436,3.09270761 L8.71951436,8.31102204 C8.71951436,8.67032684 9.00879688,8.95743487 9.37465415,8.95743487 L11.1971339,7.66293022 L13.0196137,8.95743487 C13.1938005,8.9583306 13.3611401,8.89056826 13.4844701,8.76919637 C13.6078001,8.64782449 13.6769111,8.48289028 13.6764551,8.31102204 L13.6764551,3.09270761 Z" id="Shape"></path>
            </g>
        </g>
    </g>
</svg>