<?xml version="1.0" encoding="UTF-8"?>
<svg width="12px" height="12px" viewBox="0 0 12 12" version="1.1" xmlns="http://www.w3.org/2000/svg" xmlns:xlink="http://www.w3.org/1999/xlink">
    <!-- Generator: Sketch 44.1 (41455) - http://www.bohemiancoding.com/sketch -->
    <title>Fill 2 Copy 3</title>
    <desc>Created with Sketch.</desc>
    <defs></defs>
    <g id="icon" stroke="none" stroke-width="1" fill="none" fill-rule="evenodd" opacity="0.778532609">
        <g id="Artboard" transform="translate(-398.000000, -177.000000)" fill="#3260B6">
            <path d="M409.646,182.748 L404.246,177.348 C404.03,177.132 403.73,177 403.4,177 L399.2,177 C398.54,177 398,177.54 398,178.2 L398,182.4 C398,182.73 398.132,183.03 398.354,183.252 L403.754,188.652 C403.97,188.868 404.27,189 404.6,189 C404.93,189 405.23,188.868 405.446,188.646 L409.646,184.446 C409.868,184.23 410,183.93 410,183.6 C410,183.27 409.862,182.964 409.646,182.748 Z M400,180 C399.446667,180 399,179.553333 399,179 C399,178.446667 399.446667,178 400,178 C400.553333,178 401,178.446667 401,179 C401,179.553333 400.553333,180 400,180 Z" id="Fill-2-Copy-3"></path>
        </g>
    </g>
</svg>