<?xml version="1.0" encoding="UTF-8"?>
<svg width="22px" height="26px" viewBox="0 0 22 26" version="1.1" xmlns="http://www.w3.org/2000/svg" xmlns:xlink="http://www.w3.org/1999/xlink">
    <!-- Generator: Sketch 52.1 (67048) - http://www.bohemiancoding.com/sketch -->
    <title>简介</title>
    <desc>Created with Sketch.</desc>
    <g id="慢阻肺专项" stroke="none" stroke-width="1" fill="none" fill-rule="evenodd">
        <g id="慢阻肺项目-项目详情1" transform="translate(-465.000000, -446.000000)" fill="#45A0EA" fill-rule="nonzero">
            <g id="分组-2" transform="translate(429.000000, 414.000000)">
                <g id="简介" transform="translate(36.000000, 32.000000)">
                    <path d="M18.8587143,0 L3.14285714,0 C1.41585714,0 0,1.301625 0,2.88925 L0,23.11075 C0,24.698375 1.41585714,26 3.14285714,26 L18.8587143,26 C20.5872857,26 22,24.698375 22,23.11075 L22,2.88925 C22,1.301625 20.5888571,0 18.8587143,0 Z M4.41728571,6.023875 L17.578,6.023875 L17.578,8.552375 L4.41728571,8.552375 L4.41728571,6.023875 Z M17.578,19.89 L4.41728571,19.89 L4.41728571,17.359875 L17.578,17.359875 L17.578,19.89 Z M17.6172857,14.2545 L4.45657143,14.2545 L4.45657143,11.656125 L17.6172857,11.656125 L17.6172857,14.2545 Z" id="Shape"></path>
                </g>
            </g>
        </g>
    </g>
</svg>