<?xml version="1.0" encoding="UTF-8"?>
<svg width="8px" height="16px" viewBox="0 0 8 16" version="1.1" xmlns="http://www.w3.org/2000/svg" xmlns:xlink="http://www.w3.org/1999/xlink">
    <!-- Generator: Sketch 43 (38999) - http://www.bohemiancoding.com/sketch -->
    <title>password</title>
    <desc>Created with Sketch.</desc>
    <defs>
        <polygon id="path-1" points="7.97879467 7.98920444 7.97879467 15.9784 0 15.9784 0 7.98920444 0 8.88888917e-06 7.97879467 8.88888917e-06 7.97879467 7.98920444"></polygon>
    </defs>
    <g id="7.-注册" stroke="none" stroke-width="1" fill="none" fill-rule="evenodd">
        <g id="UX：注册信息错误状态-" transform="translate(-671.000000, -437.000000)">
            <g id="password" transform="translate(671.000000, 437.000000)">
                <g id="Page-1">
                    <mask id="mask-2" fill="white">
                        <use xlink:href="#path-1"></use>
                    </mask>
                    <g id="Clip-2"></g>
                    <path d="M5.12138667,2.59867556 C5.12138667,3.23134222 4.61429333,3.74418667 3.98958933,3.74418667 C3.36445867,3.74418667 2.85774933,3.23134222 2.85774933,2.59867556 C2.85774933,1.96567556 3.36443733,1.45280889 3.98958933,1.45280889 C4.61429333,1.45278667 5.12138667,1.96567556 5.12138667,2.59867556 M0,4.03934222 C0,5.82232 1.14069333,7.33552 2.72384,7.87138667 L2.659584,7.87260889 L2.659584,14.6679644 L3.98532267,15.9784089 L4.71069867,15.1268089 L4.71069867,13.8662311 L4.44475733,13.5766978 L5.341632,12.6686756 L4.44942933,11.7626978 L5.29674667,10.91032 L5.29674667,10.4502533 L4.44324267,9.44707556 L5.33858133,8.65034222 L5.33858133,7.84189778 C6.877952,7.28187556 7.97879467,5.79080889 7.97879467,4.03932 C7.97879467,1.80838667 6.192832,8.88888917e-06 3.989632,8.88888917e-06 C1.78594133,3.11111114e-05 0,1.80840889 0,4.03934222" id="Fill-1" fill="#F86756" mask="url(#mask-2)"></path>
                </g>
            </g>
        </g>
    </g>
</svg>