<?xml version="1.0" encoding="UTF-8"?>
<svg width="13px" height="25px" viewBox="0 0 13 25" version="1.1" xmlns="http://www.w3.org/2000/svg" xmlns:xlink="http://www.w3.org/1999/xlink">
    <!-- Generator: Sketch 43 (38999) - http://www.bohemiancoding.com/sketch -->
    <title>Page 1</title>
    <desc>Created with Sketch.</desc>
    <defs>
        <polygon id="path-1" points="12.9655413 12.4831319 12.9655413 24.96625 0 24.96625 0 12.4831319 0 1.38888895e-05 12.9655413 1.38888895e-05 12.9655413 12.4831319"></polygon>
    </defs>
    <g id="5.-个人中心" stroke="none" stroke-width="1" fill="none" fill-rule="evenodd">
        <g id="UX:-修改密码成功" transform="translate(-88.000000, -274.000000)">
            <g id="Page-1" transform="translate(88.000000, 274.000000)">
                <mask id="mask-2" fill="white">
                    <use xlink:href="#path-1"></use>
                </mask>
                <g id="Clip-2"></g>
                <path d="M8.32225333,4.06043056 C8.32225333,5.04897222 7.49822667,5.85029167 6.48308267,5.85029167 C5.46724533,5.85029167 4.64384267,5.04897222 4.64384267,4.06043056 C4.64384267,3.07136806 5.46721067,2.27001389 6.48308267,2.27001389 C7.49822667,2.26997917 8.32225333,3.07136806 8.32225333,4.06043056 M0,6.31147222 C0,9.097375 1.85362667,11.46175 4.42624,12.2990417 L4.321824,12.3009514 L4.321824,22.9186944 L6.47614933,24.9662639 L7.65488533,23.6356389 L7.65488533,21.6659861 L7.22273067,21.2135903 L8.680152,19.7948056 L7.23032267,18.3792153 L8.60721333,17.047375 L8.60721333,16.3285208 L7.22026933,14.7610556 L8.67519467,13.5161597 L8.67519467,12.2529653 C11.176672,11.3779306 12.9655413,9.04813889 12.9655413,6.3114375 C12.9655413,2.82560417 10.063352,1.38888895e-05 6.483152,1.38888895e-05 C2.90215467,4.86111117e-05 0,2.82563889 0,6.31147222" id="Fill-1" fill="#BCC1CC" mask="url(#mask-2)"></path>
            </g>
        </g>
    </g>
</svg>