<svg xmlns="http://www.w3.org/2000/svg" xmlns:xlink="http://www.w3.org/1999/xlink" width="8" height="16" viewBox="0 0 8 16">
    <defs>
        <path id="a" d="M7.979 7.99v7.988H0V0h7.979v7.99z"/>
    </defs>
    <g fill="none" fill-rule="evenodd">
        <mask id="b" fill="#fff">
            <use xlink:href="#a"/>
        </mask>
        <path fill="#D8D8D8" d="M5.121 2.599c0 .632-.507 1.145-1.131 1.145A1.139 1.139 0 0 1 2.858 2.6c0-.633.506-1.146 1.132-1.146.624 0 1.131.513 1.131 1.146M0 4.039a4.037 4.037 0 0 0 2.724 3.832l-.064.002v6.795l1.325 1.31.726-.851v-1.26l-.266-.29.897-.908-.893-.906.848-.853v-.46l-.854-1.003.896-.797v-.808a4.038 4.038 0 0 0 2.64-3.803C7.979 1.81 6.193 0 3.989 0 1.787 0 0 1.808 0 4.04" mask="url(#b)"/>
    </g>
</svg>
