<svg xmlns="http://www.w3.org/2000/svg" viewBox="0 0 803.44 819.2"><defs><style>.cls-1,.cls-10,.cls-11,.cls-12,.cls-2,.cls-3,.cls-4,.cls-5,.cls-6,.cls-7,.cls-8,.cls-9{fill:#b0b5bf;fill-rule:evenodd;}.cls-2{opacity:0.02;}.cls-3{opacity:0.05;}.cls-4{opacity:0.1;}.cls-5{opacity:0.2;}.cls-6{opacity:0.3;}.cls-7{opacity:0.4;}.cls-8{opacity:0.5;}.cls-9{opacity:0.6;}.cls-10{opacity:0.7;}.cls-11{opacity:0.8;}.cls-12{opacity:0.9;}</style></defs><title>jiazai</title><g id="图层_2" data-name="图层 2"><g id="图层_1-2" data-name="图层 1"><path class="cls-1" d="M401.68,0A39.33,39.33,0,0,1,441,39.36v126a39.36,39.36,0,1,1-78.72,0v-126A39.33,39.33,0,0,1,401.68,0Z"/><path class="cls-2" d="M610.48,61a39.45,39.45,0,0,1,14.4,53.84l-63,109.12a39.41,39.41,0,0,1-68.24-39.44l63-109.12A39.45,39.45,0,0,1,610.48,61Z"/><path class="cls-3" d="M742.48,208.72a39.46,39.46,0,0,1-14.4,53.84L619,325.6a39.41,39.41,0,0,1-39.44-68.24l109.12-63a39.45,39.45,0,0,1,53.84,14.4Z"/><path class="cls-4" d="M803.44,401.76a39.33,39.33,0,0,1-39.36,39.36H638a39.36,39.36,0,0,1,0-78.72H764a39.35,39.35,0,0,1,39.44,39.36Z"/><path class="cls-5" d="M742.48,610.48a39.45,39.45,0,0,1-53.84,14.4l-109.12-63A39.41,39.41,0,1,1,619,493.6l109.12,63a39.45,39.45,0,0,1,14.4,53.84Z"/><path class="cls-6" d="M610.48,774a39.46,39.46,0,0,1-53.84-14.4l-63-109.2A39.41,39.41,0,0,1,561.84,611l63,109.12A39.52,39.52,0,0,1,610.48,774Z"/><path class="cls-7" d="M401.68,819.2a39.33,39.33,0,0,1-39.36-39.36V653.76a39.36,39.36,0,1,1,78.72,0v126a39.3,39.3,0,0,1-39.36,39.44Z"/><path class="cls-8" d="M193,774a39.45,39.45,0,0,1-14.4-53.84L241.6,611a39.41,39.41,0,0,1,68.24,39.44l-63,109.12A39.45,39.45,0,0,1,193,774Z"/><path class="cls-9" d="M45.2,610.48a39.46,39.46,0,0,1,14.4-53.84l109.12-63a39.41,39.41,0,0,1,39.44,68.24L99,624.88a39.45,39.45,0,0,1-53.84-14.4Z"/><path class="cls-10" d="M0,401.76A39.33,39.33,0,0,1,39.36,362.4h126a39.36,39.36,0,1,1,0,78.72h-126A39.38,39.38,0,0,1,0,401.76Z"/><path class="cls-11" d="M45.2,208.72A39.45,39.45,0,0,1,99,194.32l109.12,63a39.41,39.41,0,0,1-39.44,68.24l-109.12-63a39.45,39.45,0,0,1-14.4-53.84Z"/><path class="cls-12" d="M193,61a39.46,39.46,0,0,1,53.84,14.4l63,109.12a39.41,39.41,0,0,1-68.24,39.44l-63-109.12A39.45,39.45,0,0,1,193,61Z"/></g></g></svg>