<?xml version="1.0" encoding="UTF-8"?>
<svg width="11px" height="15px" viewBox="0 0 11 15" version="1.1" xmlns="http://www.w3.org/2000/svg" xmlns:xlink="http://www.w3.org/1999/xlink">
    <!-- Generator: Sketch 43 (38999) - http://www.bohemiancoding.com/sketch -->
    <title>Login</title>
    <desc>Created with Sketch.</desc>
    <defs></defs>
    <g id="1.-研究方法" stroke="none" stroke-width="1" fill="none" fill-rule="evenodd">
        <g id="UI：研究方法" transform="translate(-1130.000000, -23.000000)" fill="#BCC1CC">
            <g id="Login" transform="translate(1130.000000, 23.000000)">
                <g id="Group-4">
                    <path d="M9.29098303,6.28571429 L10.6200819,6.28571429 C10.8299052,6.28571429 11,6.46458414 11,6.686153 L11,13.7424184 C11,13.9635743 10.8268907,14.1428571 10.6200819,14.1428571 L0.379918002,14.1428571 C0.170095102,14.1428571 0,13.9639865 0,13.7424184 L0,6.686153 C0,6.46499702 0.173109231,6.28571429 0.379918002,6.28571429 L1.6374132,6.28571429 L1.6374132,3.92466562 C1.6374132,1.75713275 3.3550235,0 5.46419812,0 C7.57767326,0 9.29098303,1.75514594 9.29098303,3.92466562 L9.29098303,6.28571429 Z M7.76026907,6.28571429 L7.76026907,3.92883031 C7.76026907,2.63107762 6.73228336,1.57142857 5.46419812,1.57142857 C4.19869379,1.57142857 3.16812717,2.62687322 3.16812717,3.92883031 L3.16812717,6.28571429 L7.76026907,6.28571429 Z M4.29876817,9.02906624 L4.29876817,11.3995051 C4.29876817,12.0767018 4.82054951,12.6071429 5.46419812,12.6071429 C6.11233462,12.6071429 6.62962807,12.0664647 6.62962807,11.3995051 L6.62962807,9.02906624 C6.62962807,8.35186949 6.10784667,7.82142857 5.46419812,7.82142857 C4.81606152,7.82142857 4.29876817,8.36210661 4.29876817,9.02906624 Z" id="Fill-2"></path>
                </g>
            </g>
        </g>
    </g>
</svg>