<?xml version="1.0" encoding="UTF-8"?>
<svg width="842px" height="896px" viewBox="0 0 842 896" version="1.1" xmlns="http://www.w3.org/2000/svg" xmlns:xlink="http://www.w3.org/1999/xlink">
    <!-- Generator: Sketch 43.1 (39012) - http://www.bohemiancoding.com/sketch -->
    <title>退出</title>
    <desc>Created with Sketch.</desc>
    <defs></defs>
    <g id="Page-1" stroke="none" stroke-width="1" fill="none" fill-rule="evenodd">
        <g id="退出" fill-rule="nonzero" fill="#9FADC7">
            <path d="M662.1682,130.19998 C690.373589,150.258828 715.45073,172.982366 737.389392,198.368546 C759.32703,223.754726 778.130282,251.175239 793.801193,280.636225 C809.471081,310.098234 821.384412,341.285537 829.530952,374.190971 C837.677493,407.099475 841.752298,440.47563 841.752298,474.327622 C841.752298,532.622306 830.62896,587.308813 808.377166,638.400445 C786.125373,689.48389 756.036077,733.989524 718.114396,771.906088 C680.187598,809.832886 635.682988,839.918088 584.597496,862.170904 C533.516097,884.425767 478.821404,895.550129 420.534906,895.550129 C362.863415,895.550129 308.485947,884.425767 257.400455,862.170904 C206.309846,839.918087 161.653787,809.832885 123.416928,771.906088 C85.176999,733.983384 55.091796,689.479797 33.154158,638.400445 C11.212426,587.308813 0.245654,532.622307 0.245654,474.321483 C0.245654,441.10394 4.158777,408.508568 11.995256,376.540483 C19.832758,344.572397 30.95712,314.174063 45.371411,285.336271 C59.795935,256.506665 77.657745,229.551757 98.96912,204.483825 C120.278448,179.406683 144.099993,156.841758 170.427615,136.781887 C184.219736,126.75144 199.103725,122.990789 215.088791,125.496866 C231.071811,128.008059 244.080079,135.840445 254.109503,149.005279 C264.138927,162.17216 267.899577,176.901629 265.394524,193.199827 C262.882307,209.498025 255.050945,222.656719 241.885087,232.69126 C202.394677,261.520866 172.149839,296.93647 151.15262,338.932956 C130.156423,380.930466 119.660372,426.063386 119.660372,474.322506 C119.660372,515.692729 127.491734,554.717534 143.163669,591.384642 C158.833557,628.055843 180.300474,660.019835 207.565445,687.287876 C234.834509,714.55694 266.801571,736.182469 303.474818,752.165489 C340.140902,768.148509 379.156498,776.139507 420.535931,776.139507 C461.902061,776.139507 500.921749,768.148509 537.588857,752.165489 C574.260058,736.182469 606.22712,714.55694 633.497207,687.287876 C660.762177,660.020859 682.385661,628.055843 698.370727,591.384642 C714.353747,554.717534 722.344745,515.691706 722.344745,474.322506 C722.344745,425.435076 711.063817,379.204148 688.497869,335.642003 C665.931921,292.080881 634.279013,256.19251 593.536077,227.987121 C579.748049,218.586007 571.44085,205.736351 568.620618,189.438153 C565.800386,173.139955 569.086222,158.098377 578.489383,144.306256 C587.895614,131.143468 600.74527,123.148377 617.043467,120.333262 C633.333478,117.512007 648.370962,120.798866 662.1682,130.19998 L662.1682,130.19998 L662.1682,130.19998 Z M420.534907,477.147854 C404.232616,477.147854 390.282906,471.351848 378.68987,459.755742 C367.093764,448.156566 361.294688,434.206856 361.294688,417.909682 L361.294688,60.624369 C361.294688,44.326171 367.093764,30.219895 378.68987,18.311681 C390.282906,6.402443 404.232616,0.449871 420.534907,0.449871 C437.456298,0.449871 451.714024,6.402443 463.313199,18.311681 C474.907258,30.219895 480.704288,44.326171 480.704288,60.624369 L480.704288,417.909682 C480.704288,434.206857 474.907258,448.156567 463.313199,459.755742 C451.714024,471.350824 437.456299,477.147854 420.534907,477.147854 L420.534907,477.147854 L420.534907,477.147854 Z" id="Shape"></path>
        </g>
    </g>
</svg>