<svg xmlns="http://www.w3.org/2000/svg" xmlns:xlink="http://www.w3.org/1999/xlink" viewBox="0 0 112.28 38.61"><defs><style>.cls-1{fill:url(#未命名的渐变_7);}.cls-2,.cls-3{fill:#3e3a39;}.cls-2{fill-rule:evenodd;}.cls-4{fill:#353232;}.cls-5{fill:#fff;}</style><linearGradient id="未命名的渐变_7" x1="5.43" y1="-1.24" x2="31.43" y2="37.26" gradientUnits="userSpaceOnUse"><stop offset="0" stop-color="#51aeed"/><stop offset="1" stop-color="#449fea"/></linearGradient></defs><title>Logo</title><g id="图层_2" data-name="图层 2"><g id="图层_1-2" data-name="图层 1"><rect class="cls-1" width="38.61" height="38.61" rx="8.88" ry="8.88"/><path class="cls-2" d="M92.3,13.29A27.06,27.06,0,0,0,95.9,12a17.09,17.09,0,0,0,2.83-1.62,13.9,13.9,0,0,0,2.18-1.91,15.71,15.71,0,0,0,1.57-2A13.21,13.21,0,0,0,103.59,8a17.74,17.74,0,0,0,1.89,2A20.67,20.67,0,0,0,108,12a18.38,18.38,0,0,0,3.17,1.67l.1,0,1-2-.12,0a32.38,32.38,0,0,1-3.07-1.19A17.66,17.66,0,0,1,106.56,9a14.57,14.57,0,0,1-2.1-1.71,14.13,14.13,0,0,1-1.76-2.12l0,0h-2.15l0,.06a13.79,13.79,0,0,1-1.22,1.93A12.3,12.3,0,0,1,97.56,9a17.2,17.2,0,0,1-2.38,1.73A27.31,27.31,0,0,1,92,12.37l-.1,0,.35.91Z"/><rect class="cls-3" x="96.01" y="12.46" width="11.72" height="0.92"/><path class="cls-2" d="M88.33,7.5A1.46,1.46,0,0,0,87.16,7h-.94a1.83,1.83,0,0,0-.71.12,2,2,0,0,0-.3.16V7H83.56V24.07H87a1.72,1.72,0,0,0,1.26-.53,1.74,1.74,0,0,0,.52-1.27V8.79A2.06,2.06,0,0,0,88.33,7.5ZM87.09,22.74A.4.4,0,0,1,87,23a.4.4,0,0,1-.3.11H85.21V8.51a1.85,1.85,0,0,1,.35-.42.87.87,0,0,1,.62-.21h.48A.41.41,0,0,1,87,8a.42.42,0,0,1,.12.31Z"/><path class="cls-2" d="M60.93,18l1.46,1.27,1.52,1.36c.5.45.93.86,1.27,1.2l.09.09,1.28-1.74-.1-.07L65,19.2l-1.71-1.12-1.64-1c-.51-.32-.93-.57-1.24-.74l-.09,0-.53.77.07.07C60.11,17.33,60.47,17.65,60.93,18Z"/><path class="cls-2" d="M50.81,6.57a4.83,4.83,0,0,0-.5.23l-.22.13V6.35H48v16a1.87,1.87,0,0,0,.51,1.29h0a1.76,1.76,0,0,0,1.29.54H66.69v-.92H51a.85.85,0,0,1-.63-.26h0a.78.78,0,0,1-.27-.63V8.08a1.64,1.64,0,0,1,.3-.25l.47-.3a2.73,2.73,0,0,1,1.24-.28H66.69v-.9H52.14A3.5,3.5,0,0,0,50.81,6.57Z"/><path class="cls-2" d="M55.88,18.25h0a7.49,7.49,0,0,1-1.07.93,13.25,13.25,0,0,1-1.12.75,13.55,13.55,0,0,1-1.32.72,13,13,0,0,1-1.43.57l-.11,0,.37,1,.1,0A18.43,18.43,0,0,0,54.45,21c.46-.24.91-.5,1.34-.78.24-.14.47-.3.69-.46l.69-.52A10.47,10.47,0,0,0,58.48,18c.21-.23.41-.45.58-.66a4.77,4.77,0,0,0,.5-.75h0a1.45,1.45,0,0,0,.1-.26,2.15,2.15,0,0,1,.07-.21,1.13,1.13,0,0,0,.05-.16h6.11v-.92H59.83v-3.9h5.69v-.92h-10l.34-.45.19-.28a2.41,2.41,0,0,0,.15-.26l.31-.58L54.45,8l0,.1a10,10,0,0,1-1.07,2l-.57.79a8.34,8.34,0,0,1-.54.66c-.22.24-.44.45-.64.64s-.41.38-.62.54l-.08.06.48.8.09,0a8,8,0,0,0,1.88-1.13,11.33,11.33,0,0,0,1.4-1.23h2.94v3.9H51.26V16h6.18a5.65,5.65,0,0,1-.62,1.14A7.79,7.79,0,0,1,55.88,18.25Z"/><path class="cls-2" d="M81.94,7.95a1.74,1.74,0,0,0-1.33-.53H78.83V5h-1.9V7.42H75.32v.92h1.61v2.95a40.67,40.67,0,0,1-.21,5.17A21.19,21.19,0,0,1,76,20.06a10.74,10.74,0,0,1-1.08,2.51,18.87,18.87,0,0,1-1.34,1.9l-.06.07.61.72.09-.07a9.1,9.1,0,0,0,2.1-2.34,13.64,13.64,0,0,0,1.34-2.81,18.78,18.78,0,0,0,.76-3,28.24,28.24,0,0,0,.34-2.93c.06-.94.08-1.82.07-2.6s0-1.46,0-2V8.34h1.41a.35.35,0,0,1,.28.12.46.46,0,0,1,.11.31V20.62a4.55,4.55,0,0,1-.27,1.65,5.16,5.16,0,0,1-.62,1.18,5,5,0,0,1-.88,1l-.09.07.59.7.08,0a4.82,4.82,0,0,0,1.81-1.42,6.34,6.34,0,0,0,.89-1.6,5.61,5.61,0,0,0,.32-1.88l0-11.05A1.77,1.77,0,0,0,81.94,7.95Z"/><path class="cls-2" d="M92,16.86h6.77a21.07,21.07,0,0,1-1.37,2.38c-.5.73-1,1.39-1.43,2s-.88,1.06-1.28,1.48-.73.81-1,1.15a.35.35,0,0,0,0,.47.46.46,0,0,0,.45.18l2.57-.23L98.89,24l2-.21c.64-.07,1.32-.16,2-.26s1.46-.23,2.26-.38l2.66-.52c.3.31.62.64.94,1l1.05,1.16.08.1,1.58-1.78-.09-.08c-.56-.49-1.18-1-1.84-1.47s-1.23-.88-2-1.38-1.53-1-2.35-1.42l-.08,0-.58.75.08.07.65.61.76.73.83.82-1.47.17-2.48.25-3.12.27c-1,.08-2.12.15-3.26.2A21.34,21.34,0,0,0,98.28,21c.58-.61,1.09-1.18,1.52-1.72a17.69,17.69,0,0,0,1.07-1.45l.62-1h10.23v-.92H92Z"/><path class="cls-2" d="M75.07,20.06V8.94a1.93,1.93,0,0,0-.44-1.28,1.47,1.47,0,0,0-1.17-.53h-.77a1.83,1.83,0,0,0-.74.14,2.06,2.06,0,0,0-.33.18V7.12H69.94v14.7h3.37a1.7,1.7,0,0,0,1.25-.52A1.72,1.72,0,0,0,75.07,20.06Zm-1.69.44a.41.41,0,0,1-.12.31.41.41,0,0,1-.31.12H71.61V8.7A2.18,2.18,0,0,1,72,8.25.93.93,0,0,1,72.64,8H73a.39.39,0,0,1,.3.13.45.45,0,0,1,.13.32Z"/><path class="cls-4" d="M48.68,35.42V30.75h.92l1.3,3.62,1.33-3.62H53v4.68h-.62v-3.8l-1.29,3.49H50.5l-1.25-3.5v3.81Z"/><path class="cls-4" d="M54.9,35.42V30.75h2.61v.5H55.56v1.5H57.2v.49H55.56v1.69h2.08v.5Z"/><path class="cls-4" d="M59.05,35.42V30.75h1.55a3.37,3.37,0,0,1,1.12.15,1.73,1.73,0,0,1,.74.52A2.32,2.32,0,0,1,63,33a2.5,2.5,0,0,1-.62,1.81,2.29,2.29,0,0,1-1.73.64Zm.66-.5h.85a1.53,1.53,0,0,0,1.29-.49,2.21,2.21,0,0,0,.41-1.4,1.93,1.93,0,0,0-.4-1.3,1.23,1.23,0,0,0-.58-.39,3.65,3.65,0,0,0-1-.11h-.55Z"/><path class="cls-4" d="M64.54,35.42V30.75h.66v4.68Z"/><path class="cls-4" d="M67.06,35.42V30.75h2.61v.5H67.72v1.5h1.63v.49H67.72v1.69H69.8v.5Z"/><path class="cls-4" d="M73.21,35.54a2.18,2.18,0,0,1-1.68-.64,3,3,0,0,1,0-3.62,2.22,2.22,0,0,1,1.7-.64,6.34,6.34,0,0,1,1.47.21v.62a5,5,0,0,0-1.48-.33,1.43,1.43,0,0,0-1.18.51,2.25,2.25,0,0,0-.42,1.45,2.09,2.09,0,0,0,.45,1.41A1.52,1.52,0,0,0,73.3,35a3,3,0,0,0,1.42-.41v.57A3.24,3.24,0,0,1,73.21,35.54Z"/><path class="cls-4" d="M78.22,35.54a2,2,0,0,1-1.57-.67,3,3,0,0,1,0-3.57,2.23,2.23,0,0,1,3.18,0,2.57,2.57,0,0,1,.6,1.78,2.59,2.59,0,0,1-.6,1.8A2.06,2.06,0,0,1,78.22,35.54Zm0-.5a1.31,1.31,0,0,0,1.11-.52,2.37,2.37,0,0,0,.39-1.46,2.3,2.3,0,0,0-.39-1.43,1.41,1.41,0,0,0-2.18,0,2.33,2.33,0,0,0-.39,1.44,2.37,2.37,0,0,0,.39,1.44A1.26,1.26,0,0,0,78.23,35Z"/><path class="cls-4" d="M90.91,35.3a5.5,5.5,0,0,1-1.48.24,2.23,2.23,0,0,1-1.71-.63,3,3,0,0,1,0-3.63,2.2,2.2,0,0,1,1.69-.65,5.6,5.6,0,0,1,1.48.21v.61a5,5,0,0,0-1.48-.33,1.43,1.43,0,0,0-1.18.51,2.24,2.24,0,0,0-.42,1.45,2.12,2.12,0,0,0,.45,1.44,1.58,1.58,0,0,0,1.26.51,2.49,2.49,0,0,0,.72-.12V33.41h.66Z"/><path class="cls-4" d="M92.72,35.42V30.75h1.42a1.58,1.58,0,0,1,1,.3,1.06,1.06,0,0,1,.36.86,1.36,1.36,0,0,1-.94,1.33l1.56,2.19h-.82l-1.33-2h-.62v2ZM93.37,33h.22q1.25,0,1.25-1,0-.72-1-.72h-.42Z"/><path class="cls-4" d="M99.34,35.54a2,2,0,0,1-1.57-.67,3,3,0,0,1,0-3.57,2.23,2.23,0,0,1,3.18,0,2.57,2.57,0,0,1,.6,1.78,2.59,2.59,0,0,1-.6,1.8A2.06,2.06,0,0,1,99.34,35.54Zm0-.5a1.31,1.31,0,0,0,1.11-.52,2.37,2.37,0,0,0,.39-1.46,2.3,2.3,0,0,0-.39-1.43,1.41,1.41,0,0,0-2.18,0,2.33,2.33,0,0,0-.39,1.44,2.37,2.37,0,0,0,.39,1.44A1.26,1.26,0,0,0,99.35,35Z"/><path class="cls-4" d="M103.09,30.75h.66v3a1.62,1.62,0,0,0,.26,1,1,1,0,0,0,.83.32.93.93,0,0,0,.79-.3,1.71,1.71,0,0,0,.23-1v-3h.58v3a2,2,0,0,1-.39,1.39,1.61,1.61,0,0,1-1.25.44,1.68,1.68,0,0,1-1.29-.45,2,2,0,0,1-.42-1.4Z"/><path class="cls-4" d="M108.25,35.42V30.75h1.27a2,2,0,0,1,1.22.29,1.11,1.11,0,0,1,.37.94,1.44,1.44,0,0,1-.51,1.17,2.12,2.12,0,0,1-1.4.42h-.29v1.86Zm.66-2.36h.27a1.38,1.38,0,0,0,.91-.27,1,1,0,0,0,.32-.77.69.69,0,0,0-.25-.6,1.5,1.5,0,0,0-.84-.18h-.41Z"/><path class="cls-5" d="M23.6,14.38a1.36,1.36,0,0,0,1.82-.64l1.25-2.63a1.36,1.36,0,0,0-2.46-1.17L23,12.56A1.36,1.36,0,0,0,23.6,14.38Z"/><path class="cls-5" d="M27.8,22.75a1.3,1.3,0,0,0-1.77,0,8.69,8.69,0,0,1-6.75,2.43,8.55,8.55,0,0,1-3.49-1.09c.15-.3.31-.61.47-.91a2.9,2.9,0,0,0-1.25-4l-2.83-1.41a38.41,38.41,0,0,1,9.8-11,2.69,2.69,0,0,0-3.9-.38L16.81,7.6a41,41,0,0,0-6.24,7.49c-.74,1.15-1.39,2.57-.74,3.91.54,1.11,1.68,1.55,2.71,2.09a9.73,9.73,0,0,1,1.34.68l-.06.11a33.61,33.61,0,0,0-3.13,8,2.59,2.59,0,0,0,2.06,3.26,29.12,29.12,0,0,1,1.92-6.65,11.24,11.24,0,0,0,13.2-1.87,1.26,1.26,0,0,0,.38-.94A1.34,1.34,0,0,0,27.8,22.75Z"/></g></g></svg>