<svg xmlns="http://www.w3.org/2000/svg" viewBox="0 0 18.68 27.37"><defs><style>.cls-1{fill:#dee0e6;}</style></defs><title>Logo_2</title><g id="图层_2" data-name="图层 2"><g id="图层_1-2" data-name="图层 1"><path class="cls-1" d="M14,8.57a1.36,1.36,0,0,0,1.82-.64L17.11,5.3a1.36,1.36,0,0,0-2.46-1.17L13.4,6.76A1.36,1.36,0,0,0,14,8.57Z"/><path class="cls-1" d="M18.24,16.94a1.3,1.3,0,0,0-1.77,0A8.69,8.69,0,0,1,9.71,19.4a8.55,8.55,0,0,1-3.49-1.09c.15-.3.31-.61.47-.91a2.9,2.9,0,0,0-1.25-4L2.62,12a38.41,38.41,0,0,1,9.8-11A2.69,2.69,0,0,0,8.52.67L7.25,1.79A41,41,0,0,0,1,9.28C.27,10.43-.38,11.86.26,13.2.8,14.31,1.95,14.74,3,15.28A9.73,9.73,0,0,1,4.31,16l-.06.11a33.61,33.61,0,0,0-3.13,8,2.59,2.59,0,0,0,2.06,3.26A29.12,29.12,0,0,1,5.1,20.72a11.24,11.24,0,0,0,13.2-1.87,1.26,1.26,0,0,0,.38-.94A1.34,1.34,0,0,0,18.24,16.94Z"/></g></g></svg>