<?xml version="1.0" encoding="UTF-8"?>
<svg width="23px" height="26px" viewBox="0 0 23 26" version="1.1" xmlns="http://www.w3.org/2000/svg" xmlns:xlink="http://www.w3.org/1999/xlink">
    <!-- Generator: Sketch 44.1 (41455) - http://www.bohemiancoding.com/sketch -->
    <title>铃声</title>
    <desc>Created with Sketch.</desc>
    <defs></defs>
    <g id="icon" stroke="none" stroke-width="1" fill="none" fill-rule="evenodd">
        <g id="Artboard" transform="translate(-77.000000, -176.000000)" fill-rule="nonzero" fill="#ABA8AB">
            <g id="铃声" transform="translate(77.000000, 176.000000)">
                <path d="M0.278699935,19.6154483 L0.278699935,19.7275223 C0.291465905,19.626472 0.31638994,19.5885016 0.34252981,19.5621672 C0.318624022,19.5853374 0.29722749,19.610999 0.278699935,19.6387205 C0.260755491,19.666001 0.24721382,19.695973 0.238578336,19.7275223 C0.229624832,19.7618936 0.225330517,19.7973277 0.225812341,19.8328596 L0.529764029,19.8328596 L0.270189296,19.6736288 C0.0793076504,20.0129129 0.0136540866,20.3093271 0.0136540866,20.6761703 C0.0136540866,21.8912237 0.989338976,22.8802919 2.17292684,22.8802919 L7.49451286,22.8802919 C7.94314555,24.6636767 9.61244818,25.9901916 11.5030277,25.9901916 C13.4495342,25.9901916 15.0714204,24.7059341 15.5133661,22.8802919 L20.8325206,22.8802919 C22.0167163,22.8802919 22.9924012,21.8912237 22.9924012,20.6761703 C22.9924012,20.3742442 22.9364741,20.1660194 22.7790271,19.7697797 C22.7759769,19.7247556 22.7628861,19.6810044 22.7407292,19.6417826 C22.7133736,19.5866643 22.7018234,19.5744158 22.6373857,19.5094986 L20.3419425,16.7688918 L20.3419425,12.2424504 C20.3419425,8.0889766 17.5346448,4.49097326 13.6768901,3.49945539 C13.841024,3.16690801 13.9273463,2.8123133 13.9273463,2.43812094 C13.9273463,1.10854387 12.8361597,0.0233248289 11.5030277,0.0233248289 C10.1698956,0.0233248289 9.07870903,1.1085439 9.07870903,2.43812094 C9.07870903,2.81353813 9.1650313,3.1693577 9.33038103,3.50251753 C5.39134153,4.5455794 2.65025133,8.13933583 2.66411274,12.2424504 L2.66411274,16.7688918 L0.278699935,19.6154483 Z M21.31398,20.5236762 C21.3218828,20.5518478 21.3243144,20.5922679 21.3243144,20.6767827 C21.3243144,20.9756467 21.0951348,21.213268 20.8331285,21.213268 L2.17292684,21.213268 C1.91092049,21.213268 1.68174093,20.9756467 1.68174091,20.6761703 C1.68174091,20.5922679 1.68417252,20.5518478 1.69207526,20.5236762 L4.15226017,17.6611966 C4.25317213,17.562596 4.33219956,17.3255871 4.33219956,17.1449214 L4.33219956,12.2951191 C4.33219956,8.24208314 7.54071353,4.95825437 11.5030277,4.95825437 C15.4653418,4.95825437 18.6738557,8.24208314 18.6738557,12.2951191 L18.6738557,17.1449214 C18.6738557,17.3727439 18.7078983,17.5136019 18.86109,17.6697706 L21.31398,20.5236762 Z" id="Shape"></path>
            </g>
        </g>
    </g>
</svg>