<?xml version="1.0" encoding="UTF-8"?>
<svg width="115px" height="127px" viewBox="0 0 115 127" version="1.1" xmlns="http://www.w3.org/2000/svg" xmlns:xlink="http://www.w3.org/1999/xlink">
    <!-- Generator: Sketch 52.2 (67145) - http://www.bohemiancoding.com/sketch -->
    <title>医咖会勋章1-01 copy</title>
    <desc>Created with Sketch.</desc>
    <g id="慢阻肺专项" stroke="none" stroke-width="1" fill="none" fill-rule="evenodd">
        <g id="慢阻肺项目-科研项目-完成课程" transform="translate(-642.000000, -571.000000)">
            <g id="医咖会勋章1-01-copy" transform="translate(642.000000, 571.000000)">
                <path d="M111.433824,63.5023623 C111.433824,52.8580038 118.122531,40.3521818 113.110779,31.7535434 C107.927031,22.8856069 93.4268713,22.4367769 84.4448942,17.305941 C75.7734642,12.3215654 68.2534472,0 57.4941853,0 C46.7349233,0 39.2101287,12.3262899 30.5195881,17.2917674 C21.5519439,22.4226033 7.05656173,22.8808824 1.85370371,31.7393698 C-3.15327076,40.3380083 3.56887913,52.8580038 3.56887913,63.5023623 C3.56887913,74.1467207 -3.11982723,86.6525427 1.89192489,95.2511811 C7.07567231,104.119118 21.5758322,104.572672 30.5578093,109.698784 C39.2483499,114.678435 46.7635892,127 57.5276288,127 C68.2916684,127 75.8069078,114.67371 84.4974484,109.703508 C93.4650925,104.572672 107.960475,104.114393 113.163333,95.2559057 C118.136864,86.6667163 111.433824,74.1419962 111.433824,63.5023623 Z" id="路径" fill="#93BEF1"></path>
                <ellipse id="椭圆形" fill="#6DA2EC" cx="56.5416667" cy="64.4621212" rx="43.125" ry="43.2954545"></ellipse>
                <path d="M84.5035405,109.694334 C93.4593185,104.559375 107.93552,104.100727 113.131494,95.2351197 C118.1557,86.6342984 111.456758,74.1042399 111.456758,63.4513261 C111.456758,52.7984122 118.136614,40.2825387 113.131494,31.6769891 C112.522705,30.6460514 111.778208,29.6999662 110.917599,28.8636364 C96.4700249,67.3852916 55.8994438,95.1405532 8.08121927,95.1405532 C6.01046398,95.1405532 3.958794,95.079085 1.91666667,94.9750619 C1.96437992,95.0554434 1.99300788,95.1452815 2.04072113,95.225663 C7.21760934,104.100727 21.6985824,104.554646 30.6686744,109.684878 C39.3477155,114.668531 46.8530106,127 57.6028071,127 C68.3526035,127 75.8244993,114.668531 84.5035405,109.694334 Z" id="路径" fill="#EDECEB" opacity="0.148171503"></path>
                <polygon id="路径" fill="#7CCFD4" points="57.3606934 90.4393939 57.5 84.6666667 55.5833333 85.4084137 55.5833333 89.4235229"></polygon>
                <polygon id="路径" fill="#7CCFD4" points="59.4166667 94.8342686 57.5 94.2878788 57.5 96.2121212 59.2635445 95.4360893"></polygon>
                <path d="M55.5833333,80.2806419 C47.4716,79.3077046 46.168951,76.9240081 45.9494571,76.7683381 C45.4452894,76.279491 45.2946757,75.5214508 45.5725001,74.8711102 C45.9494571,73.8981729 47.4811432,74.1560013 47.4811432,74.1560013 C47.4811432,74.1560013 51.0264478,75.9170179 53.2070726,75.4791961 C56.7523773,73.9127669 53.7367211,71.3393476 53.2070726,71.2177305 C52.6774242,71.0961133 45.03808,71.5485292 45.03808,71.5485292 C42.4804982,72.1906678 41.0299294,75.2505558 43.2821283,78.1353151 C45.5343272,81.0200743 50.8880712,82.7664969 51.8710224,82.7421735 C52.1907202,82.0319292 55.5833333,80.2806419 55.5833333,80.2806419 Z" id="路径" fill="#7CCFD4"></path>
                <path d="M60.3006771,85.2731222 C64.7914499,88.255242 59.4166667,90.78594 59.4166667,90.78594 L62.0686979,92.3636364 C67.7882452,88.8662574 63.8367187,84.6666667 63.8367187,84.6666667 L60.3006771,85.2731222 Z" id="路径" fill="#7CCFD4"></path>
                <path d="M55.0008694,95.4162059 L52.4909793,94.2878788 C49.8434159,98.6373221 55.1385427,100.023151 55.1809037,100.060606 C54.8737863,99.6673302 55.567448,98.3798201 55.5833333,98.3798201 C52.6445379,97.0361277 55.0008694,95.4162059 55.0008694,95.4162059 Z" id="路径" fill="#7CCFD4"></path>
                <path d="M71.6806416,72.4930488 C70.6751382,71.4628787 68.6687228,71.5720672 68.6687228,71.5720672 C68.6687228,71.5720672 63.1591154,71.0973344 62.8193563,71.2160176 C62.8193563,71.2160176 60.6292873,71.8996328 60.6430613,73.5042296 C60.6568353,75.1088264 62.2867609,75.4031607 62.8193563,75.4933599 C63.3519517,75.5835591 64.6558921,75.4126553 67.4336525,74.2305707 C69.0773521,73.5706922 71.0837675,75.1800363 69.1186741,76.8653376 C66.8781004,79.058603 62.0755593,79.8134281 62.0755593,79.8134281 C62.0755593,79.8134281 56.1068178,80.8815769 54.6329978,81.7123592 C53.1591779,82.5431416 50.6660805,83.8106781 50.0416583,86.0324274 C49.5628375,87.5644038 49.9229152,89.2443443 50.9828829,90.4237056 C51.538435,90.9838903 54.6972766,93.2721022 56.7128747,93.9889487 C58.7284727,94.7057952 59.2335201,95.413147 59.4033996,95.6362714 C59.7857201,96.3262101 59.5849081,97.2045038 58.9442657,97.6443911 C58.4147166,98.1040097 57.8443915,98.5109197 57.2408787,98.859707 C57.2408787,98.859707 56.3455675,100.340873 58.1040505,100.013308 C59.7734264,99.702052 61.1605711,98.5041189 61.7541655,96.861082 C62.355631,95.2707272 60.923133,93.2151343 59.5686879,92.3890993 C58.2142427,91.5630642 54.5824931,89.5407026 54.5824931,89.5407026 C54.5824931,89.5407026 50.6982199,87.1385548 54.8074687,84.6984284 C56.6440046,83.4498812 62.8055822,82.752024 63.5631533,82.5241523 C64.3207243,82.2962805 68.9625686,81.3373203 71.1250895,78.8402259 C73.2876104,76.3431316 73.3105671,74.7955027 71.6806416,72.4930488 Z" id="路径" fill="#7CCFD4"></path>
                <path d="M55.0330569,70.8474133 L55.2721957,80.8181818 L57.9179868,79.8500958 L58.0451883,70.8422364 C59.1419949,70.1574536 59.6579252,68.8144614 59.3082548,67.5544117 C58.9585844,66.294362 57.828504,65.4242424 56.5416667,65.4242424 C55.2548293,65.4242424 54.1247489,66.294362 53.7750785,67.5544117 C53.4254081,68.8144614 53.9413384,70.1574536 55.038145,70.8422364 L55.0330569,70.8474133 Z" id="路径" fill="#7CCFD4"></path>
                <path d="M42.8919866,34.8709772 L45.9894881,34.8709772 L45.9894881,36.5194458 L42.8919866,36.5194458 L42.8919866,34.8709772 Z M45.5129494,36.2045698 L45.5129494,35.8403014 L43.3685253,35.8403014 L43.3685253,36.2045698 L45.5129494,36.2045698 Z M43.3685253,35.5439475 L45.5129494,35.5439475 L45.5129494,35.1858532 L43.3685253,35.1858532 L43.3685253,35.5439475 Z M41.2801645,34.698104 L41.7356795,34.698104 L41.7356795,40.3411765 L41.2801645,40.3411765 L41.2801645,34.698104 Z M40.523309,35.8711716 L40.9087447,35.8958678 C40.8947288,36.5070977 40.8036258,37.0874575 40.6494516,37.6431211 L40.25,37.5443364 C40.4111822,37.013369 40.5022852,36.4577054 40.523309,35.8711716 Z M42.1982023,35.6612543 C42.3243449,35.9637822 42.4434796,36.3157025 42.5485984,36.710841 L42.1771785,36.7972776 C42.0930835,36.4391833 41.9809567,36.093437 41.8548141,35.7662129 L42.1982023,35.6612543 Z M42.5065509,36.8528439 L46.3889397,36.8528439 L46.3889397,38.0567817 L42.5065509,38.0567817 L42.5065509,36.8528439 Z M45.9544485,37.7542538 L45.9544485,37.1553719 L45.1975929,37.1553719 L45.1975929,37.7542538 L45.9544485,37.7542538 Z M44.8051493,37.7542538 L44.8051493,37.1553719 L44.0763254,37.1553719 L44.0763254,37.7542538 L44.8051493,37.7542538 Z M43.6768739,37.7542538 L43.6768739,37.1553719 L42.9200183,37.1553719 L42.9200183,37.7542538 L43.6768739,37.7542538 Z M42.5345826,38.4333982 L46.178702,38.4333982 L46.178702,38.7421001 C45.8493297,39.0878464 45.4498781,39.3780263 44.9873553,39.6188138 C45.4779098,39.7855129 46.0455515,39.9151677 46.6832724,40.0139524 L46.4099634,40.3658726 C45.6741316,40.2362178 45.0434186,40.0571706 44.5178245,39.8349052 C43.929159,40.0695187 43.2423827,40.2485659 42.4645034,40.3596986 L42.2542657,39.9892562 C42.9130104,39.9089937 43.5086837,39.7793388 44.02727,39.6064657 C43.5787629,39.3718522 43.214351,39.0940204 42.9270262,38.7853184 L42.5345826,38.7853184 L42.5345826,38.4333982 Z M43.4175807,38.7853184 C43.7049055,39.03228 44.0623096,39.2421974 44.4897928,39.4274186 C44.8962523,39.2483714 45.2466484,39.03228 45.554997,38.7853184 L43.4175807,38.7853184 Z M47.5382389,34.9265435 L49.7036868,34.9265435 L49.7036868,35.2722897 C49.4934491,35.8403014 49.2481718,36.4268352 48.967855,37.0318911 C49.4023461,37.5690326 49.6336076,38.0567817 49.6616392,38.4889645 C49.6616392,38.7544482 49.5845521,38.9458435 49.4443937,39.0631502 C49.2411639,39.2113272 48.8837599,39.2854157 48.3791895,39.2915897 L48.2180073,38.8347107 C48.3231261,38.8470588 48.4142291,38.8594069 48.4913163,38.8594069 C48.7576173,38.8470588 48.9328154,38.8161886 49.0239183,38.7667963 C49.1080134,38.7112299 49.1570689,38.6186193 49.1570689,38.4889645 C49.1570689,38.0753038 48.9187995,37.6122509 48.4422608,37.0998055 C48.7646252,36.4515314 49.0099025,35.8649976 49.1921085,35.3402042 L48.0358013,35.3402042 L48.0358013,40.3473505 L47.5382389,40.3473505 L47.5382389,34.9265435 Z M53.0815052,34.9265435 L53.0815052,39.7052504 L53.6491469,39.7052504 L53.6491469,40.1312591 L49.4864412,40.1312591 L49.4864412,39.7052504 L50.1662096,39.7052504 L50.1662096,34.9265435 L53.0815052,34.9265435 Z M50.6567642,39.7052504 L52.5909506,39.7052504 L52.5909506,38.5136607 L50.6567642,38.5136607 L50.6567642,39.7052504 Z M50.6567642,38.0876519 L52.5909506,38.0876519 L52.5909506,36.9022363 L50.6567642,36.9022363 L50.6567642,38.0876519 Z M50.6567642,36.4824016 L52.5909506,36.4824016 L52.5909506,35.3525523 L50.6567642,35.3525523 L50.6567642,36.4824016 Z M59.8301341,39.6682061 L59.4026508,39.6682061 L59.2765082,39.2545455 L59.6689519,39.2730676 C59.837142,39.2730676 59.928245,39.1928051 59.928245,39.0446281 L59.928245,37.0936315 L58.9961913,37.0936315 L58.9961913,40.3288284 L58.5126447,40.3288284 L58.5126447,37.0936315 L57.5805911,37.0936315 L57.5805911,39.6867282 L57.1110603,39.6867282 L57.1110603,36.6923189 L58.5126447,36.6923189 L58.5126447,35.8711716 L56.8517672,35.8711716 L56.8517672,35.4389888 L58.5126447,35.4389888 L58.5126447,34.698104 L58.9961913,34.698104 L58.9961913,35.4389888 L60.6500609,35.4389888 L60.6500609,35.8711716 L58.9961913,35.8711716 L58.9961913,36.6923189 L60.4047837,36.6923189 L60.4047837,39.1372387 C60.4047837,39.489159 60.2085619,39.6682061 59.8301341,39.6682061 Z M55.162858,36.7787555 L55.162858,37.8036461 L56.1229433,37.8036461 L56.1229433,36.7787555 L55.162858,36.7787555 Z M56.1229433,36.3774429 L56.1229433,35.3402042 L55.162858,35.3402042 L55.162858,36.3774429 L56.1229433,36.3774429 Z M55.1558501,38.2111327 C55.1278184,39.0754983 54.980652,39.7916869 54.714351,40.3473505 L54.3429311,40.0448226 C54.5812005,39.4829849 54.7003352,38.7667963 54.7073431,37.8962567 L54.7073431,34.9265435 L56.5854662,34.9265435 L56.5854662,39.7731648 C56.5854662,40.1250851 56.4032602,40.3041322 56.0458562,40.3041322 L55.5482937,40.3041322 L55.429159,39.9028196 C55.5973492,39.9151677 55.7515235,39.9275158 55.8986898,39.9275158 C56.0458562,39.9275158 56.1229433,39.8225571 56.1229433,39.6249878 L56.1229433,38.2111327 L55.1558501,38.2111327 Z M61.3228215,36.5626641 L63.3270871,36.5626641 C63.4041743,36.3095284 63.4742535,36.0563928 63.5443327,35.7970831 L61.7993601,35.7970831 L61.7993601,35.3834225 L63.6494516,35.3834225 C63.7125229,35.1302868 63.7685862,34.8833252 63.8246496,34.6363636 L64.3432358,34.6734079 C64.2871725,34.9203695 64.238117,35.161157 64.1820536,35.3834225 L67.202468,35.3834225 L67.202468,35.7970831 L64.0769348,35.7970831 C64.0068556,36.0687409 63.9367764,36.3218765 63.8666971,36.5626641 L67.6159354,36.5626641 L67.6159354,36.9948469 L63.7335466,36.9948469 C63.6354357,37.2850267 63.5303169,37.5566845 63.432206,37.8098201 L66.7679768,37.8098201 L66.7679768,38.1926106 C66.4315966,38.6494895 65.9060024,39.1125425 65.1841865,39.5694215 C65.6046618,39.7052504 66.0111213,39.8596014 66.396557,40.0201264 L66.1162401,40.4090909 C65.0650518,39.952212 63.9788239,39.5941176 62.8645643,39.3286339 L63.1308653,38.9828877 C63.6564595,39.1063685 64.1610299,39.2483714 64.6445765,39.3965484 C65.2893053,39.026106 65.8008836,38.6309674 66.1723035,38.2234808 L62.71039,38.2234808 C62.8785801,37.8283422 63.0397623,37.4208556 63.1869287,36.9948469 L61.3228215,36.9948469 L61.3228215,36.5626641 Z M69.1927179,35.7168206 L68.3587751,35.7168206 L68.3587751,35.2846378 L70.524223,35.2846378 L70.524223,35.7168206 L69.7113041,35.7168206 L69.7113041,38.5074866 C70.0126447,38.414876 70.2999695,38.3222654 70.5732785,38.2234808 L70.5732785,38.6680117 C69.9565814,38.8964511 69.2417733,39.1063685 68.4288544,39.2977637 L68.281688,38.8594069 C68.5970445,38.7914925 68.8983851,38.723578 69.1927179,38.6494895 L69.1927179,35.7168206 Z M70.7905241,34.9450656 L74.6729129,34.9450656 L74.6729129,35.3772484 L72.9980195,35.3772484 C72.955972,35.6118619 72.9069165,35.8279533 72.8508531,36.0378707 L74.3365326,36.0378707 L74.3365326,38.9396694 L73.8459781,38.9396694 L73.8459781,36.4453573 L71.5964351,36.4453573 L71.5964351,38.9396694 L71.1128885,38.9396694 L71.1128885,36.0378707 L72.3462828,36.0378707 C72.416362,35.8279533 72.4654174,35.6056879 72.500457,35.3772484 L70.7905241,35.3772484 L70.7905241,34.9450656 Z M73.2923522,38.9520175 C73.8670018,39.3224599 74.3575564,39.6929023 74.75,40.0633447 L74.3855881,40.3843947 C74.035192,40.0263004 73.5586533,39.64351 72.955972,39.2360233 L73.2923522,38.9520175 Z M72.4373857,36.8404959 L72.9419561,36.8404959 L72.9419561,37.9024307 C72.9139244,38.569227 72.7177026,39.1001945 72.3392748,39.501507 C71.967855,39.8657754 71.3651737,40.1559553 70.524223,40.3658726 L70.2509141,39.9830822 C71.063833,39.7916869 71.6384826,39.5323772 71.960847,39.2113272 C72.2551798,38.877929 72.416362,38.4395722 72.4373857,37.9024307 L72.4373857,36.8404959 Z" id="慢阻肺专项" fill="#FFFFFF"></path>
                <path d="M36.551788,49.4293632 L37.8016603,49.4293632 L37.8016603,46.2929509 L38.8601107,46.2929509 L38.8601107,49.4293632 L40.008642,49.4293632 L40.008642,50.5653865 L38.8601107,50.5653865 L38.8601107,54.2945066 C39.3217752,54.1092854 39.7721797,53.899368 40.2225841,53.6771026 L40.2225841,54.8378221 C39.1190932,55.3934857 37.9480417,55.8627127 36.6869093,56.2331551 L36.4166667,55.0477394 C36.8895913,54.9489548 37.3512559,54.825474 37.8016603,54.677297 L37.8016603,50.5653865 L36.551788,50.5653865 L36.551788,49.4293632 Z M40.3689655,47.3672338 L42.8349298,47.3672338 C42.7335888,47.0214876 42.6209877,46.6880895 42.5083865,46.3917355 L43.6343976,46.1941663 C43.7244785,46.5399125 43.8032993,46.935051 43.8933802,47.3672338 L46.4043848,47.3672338 L46.4043848,48.478561 L40.3689655,48.478561 L40.3689655,47.3672338 Z M40.0649425,50.7629558 L41.7314389,50.7629558 C41.540017,50.2072922 41.3148148,49.6886728 41.0445722,49.1947496 L42.0129417,48.7996111 C42.2831843,49.3429266 42.5196467,49.9973748 42.7335888,50.7629558 L44.1636228,50.7629558 C44.4338655,50.1208556 44.6815879,49.4417112 44.9067901,48.7131745 L45.8751596,49.0836169 C45.6724777,49.7010209 45.4360153,50.2690326 45.1882929,50.7629558 L46.6408472,50.7629558 L46.6408472,51.886631 L40.0649425,51.886631 L40.0649425,50.7629558 Z M46.0440613,52.7880408 L46.0440613,57.5914439 L45.0193912,57.5914439 L45.0193912,56.9740399 L41.84404,56.9740399 L41.84404,57.5914439 L40.8306301,57.5914439 L40.8306301,52.7880408 L46.0440613,52.7880408 Z M41.84404,55.8750608 L45.0193912,55.8750608 L45.0193912,53.8870199 L41.84404,53.8870199 L41.84404,55.8750608 Z M54.3878033,47.0955761 L55.4124734,47.0955761 L55.4124734,56.8258629 L54.3878033,56.8258629 L54.3878033,47.0955761 Z M56.7299063,46.4905202 L57.7770966,46.4905202 L57.7770966,57.6655323 L56.7299063,57.6655323 L56.7299063,46.4905202 Z M52.1470413,46.5275644 L53.1717114,46.5275644 L53.1717114,51.9977637 C53.1491911,54.6155566 52.6424862,56.5171609 51.6628565,57.7272727 L50.8633887,56.9493437 C51.6966369,55.912105 52.1245211,54.2698104 52.1470413,51.9977637 L52.1470413,46.5275644 Z M49.2757131,46.3423432 C50.0076203,46.9473991 50.6269264,47.552455 51.1336313,48.169859 L50.4017241,48.9848323 C49.9513197,48.4044725 49.3320136,47.7870685 48.5325458,47.1449684 L49.2757131,46.3423432 Z M47.7893785,49.9232863 L50.390464,49.9232863 L50.390464,54.9366067 C50.6381865,54.664949 50.9084291,54.356247 51.1899319,54.0351969 L51.4714347,55.2453087 C50.8408685,55.9614973 50.1765219,56.5912494 49.4783951,57.1592611 L49.0730311,56.1096743 C49.264453,55.9368012 49.365794,55.7268838 49.365794,55.4552261 L49.365794,51.0469616 L47.7893785,51.0469616 L47.7893785,49.9232863 Z M63.2269902,54.9983471 L63.2269902,56.1096743 C62.0784589,56.5542052 60.7835462,56.9246475 59.3197318,57.2086534 L59.1846105,56.07263 C60.7272456,55.8009723 62.0784589,55.442878 63.2269902,54.9983471 Z M60.9749681,46.1818182 L61.9771179,46.6016529 C61.4366326,48.0957705 60.8961473,49.3058824 60.3331418,50.2443364 C60.761026,50.1949441 61.2001703,50.1332037 61.6505747,50.0591152 C61.8532567,49.6392805 62.0559387,49.2070977 62.2811409,48.7502188 L63.2157301,49.1206612 C62.2586207,51.0469616 61.4591528,52.4669908 60.8060664,53.3560525 C61.5604938,53.1831794 62.3261814,52.9485659 63.0918689,52.652212 L63.0918689,53.7017987 C61.8307365,54.1710258 60.6484249,54.4797278 59.5224138,54.6402528 L59.240911,53.590666 C59.4323329,53.5042295 59.5899745,53.3930967 59.7250958,53.2572679 C60.0854193,52.8374332 60.5470839,52.1335926 61.0988293,51.1210501 C60.5358238,51.2074866 59.9390379,51.2939232 59.3309919,51.3927078 L59.0720094,50.3184249 C59.2296509,50.2443364 59.3760324,50.0961595 59.5111537,49.8862421 C60.0741592,48.7749149 60.5696041,47.540107 60.9749681,46.1818182 Z M63.0580885,47.6759358 L65.6591741,47.6759358 L65.6591741,46.2806028 L66.7288846,46.2806028 L66.7288846,47.6759358 L69.3187101,47.6759358 L69.3187101,48.8119592 L66.7288846,48.8119592 L66.7288846,50.3678172 L68.9921669,50.3678172 L68.9921669,51.5038405 L63.4296722,51.5038405 L63.4296722,50.3678172 L65.6591741,50.3678172 L65.6591741,48.8119592 L63.0580885,48.8119592 L63.0580885,47.6759358 Z M68.7557046,52.4669908 L68.7557046,57.6037919 L67.7197744,57.6037919 L67.7197744,57.1098687 L64.7471052,57.1098687 L64.7471052,57.6037919 L63.6999149,57.6037919 L63.6999149,52.4669908 L68.7557046,52.4669908 Z M64.7471052,55.9985416 L67.7197744,55.9985416 L67.7197744,53.5783179 L64.7471052,53.5783179 L64.7471052,55.9985416 Z M73.7214134,46.3423432 L74.7911239,46.3423432 L74.7911239,56.0479339 L76.1423372,56.0479339 L76.1423372,46.3423432 L77.2120477,46.3423432 L77.2120477,56.0479339 L80.5,56.0479339 L80.5,57.1963053 L70.4559813,57.1963053 L70.4559813,56.0479339 L73.7214134,56.0479339 L73.7214134,46.3423432 Z M79.3176884,48.639086 L80.2635377,48.93544 C79.8356535,51.0593097 79.283908,52.9115216 78.6083014,54.5044239 L77.651192,54.1339815 C78.2817582,52.7016043 78.8447637,50.8617404 79.3176884,48.639086 Z M71.5932524,48.6143899 C72.1675181,50.2690326 72.6742231,52.1582888 73.1246275,54.2821585 L72.1449979,54.5538162 C71.7621541,52.6151677 71.2667092,50.7382596 70.6811835,48.93544 L71.5932524,48.6143899 Z" id="培训结业" fill="#FFFFFF"></path>
            </g>
        </g>
    </g>
</svg>