<?xml version="1.0" encoding="UTF-8"?>
<svg width="117px" height="127px" viewBox="0 0 117 127" version="1.1" xmlns="http://www.w3.org/2000/svg" xmlns:xlink="http://www.w3.org/1999/xlink">
    <!-- Generator: Sketch 52.2 (67145) - http://www.bohemiancoding.com/sketch -->
    <title>医咖会勋章1-01</title>
    <desc>Created with Sketch.</desc>
    <g id="慢阻肺专项" stroke="none" stroke-width="1" fill="none" fill-rule="evenodd">
        <g id="慢阻肺项目-科研项目-提醒" transform="translate(-624.000000, -546.000000)">
            <g id="医咖会勋章1-01" transform="translate(624.000000, 546.000000)">
                <path d="M113.371804,63.5023623 C113.371804,52.8580038 120.176836,40.3521818 115.077923,31.7535434 C109.804023,22.8856069 95.0516865,22.4367769 85.9135011,17.305941 C77.0912636,12.3215654 69.4404637,0 58.4940842,0 C47.5477046,0 39.892044,12.3262899 31.0503635,17.2917674 C21.9267603,22.4226033 7.17928454,22.8808824 1.88594204,31.7393698 C-3.20811025,40.3380083 3.63094659,52.8580038 3.63094659,63.5023623 C3.63094659,74.1467207 -3.17408509,86.6525427 1.92482793,95.2511811 C7.19872749,104.119118 21.951064,104.572672 31.0892494,109.698784 C39.9309299,114.678435 47.576869,127 58.5281093,127 C69.4793496,127 77.1252888,114.67371 85.9669692,109.703508 C95.0905724,104.572672 109.838048,104.114393 115.131391,95.2559057 C120.191418,86.6667163 113.371804,74.1419962 113.371804,63.5023623 Z" id="路径" fill="#E2E2E2"></path>
                <ellipse id="椭圆形" fill="#C5C5C5" cx="57" cy="64.5" rx="44" ry="43.5"></ellipse>
                <path d="M85.71697,109.718381 C94.9037372,104.590556 109.753312,104.132546 115.083301,95.279258 C120.237092,86.6903879 113.36537,74.1777403 113.36537,63.539629 C113.36537,52.9015177 120.217514,40.4030354 115.083301,31.8094435 C114.45881,30.7799383 113.695111,29.8351677 112.812305,29 C97.9920963,67.4681282 56.3751111,95.1848229 7.3235499,95.1848229 C5.19938531,95.1848229 3.09479827,95.1234401 1,95.0195616 C1.04894388,95.0998314 1.07831022,95.1895447 1.1272541,95.2698145 C6.43766559,104.132546 21.2921346,104.585835 30.4935849,109.708938 C39.3964775,114.685666 47.0953506,127 58.1224078,127 C69.1494651,127 76.8140774,114.685666 85.71697,109.718381 Z" id="路径" fill="#E8E8E8" opacity="0.32"></path>
                <polygon id="路径" fill="#EAEAF0" points="58.7819549 91 59 86 56 86.6424581 56 90.1201117"></polygon>
                <polygon id="路径" fill="#EAEAF0" points="61 95.2839506 58 95 58 96 60.7603306 95.5967078"></polygon>
                <path d="M57,80.4412971 C48.5355826,79.4300552 47.1762967,76.9525123 46.9472596,76.7907136 C46.4211716,76.2826206 46.2640094,75.4947362 46.5539131,74.8187917 C46.9472596,73.8075498 48.5455407,74.0755289 48.5455407,74.0755289 C48.5455407,74.0755289 52.244989,75.9058769 54.5204236,75.450818 C58.2198719,73.8227184 55.0731003,71.1479834 54.5204236,71.0215781 C53.9677469,70.8951729 45.9962574,71.3654004 45.9962574,71.3654004 C43.3274764,72.0328201 41.8138394,75.2131761 44.16396,78.2115086 C46.5140806,81.209841 52.100596,83.0250204 53.1262843,82.9997393 C53.4598819,82.2615327 57,80.4412971 57,80.4412971 Z" id="路径" fill="#EAEAF0"></path>
                <path d="M60.9224456,84.6303318 C65.6084695,87.7298578 60,90.3601896 60,90.3601896 L62.7673369,92 C68.7355602,88.3649289 64.6122282,84 64.6122282,84 L60.9224456,84.6303318 Z" id="路径" fill="#EAEAF0"></path>
                <path d="M55.3922115,95.9772912 L52.7731958,95 C50.0105209,98.7672344 55.5358706,99.9675588 55.5800734,100 C55.2596031,99.6593674 55.983424,98.5442011 56,98.5442011 C52.9334309,97.3803731 55.3922115,95.9772912 55.3922115,95.9772912 Z" id="路径" fill="#EAEAF0"></path>
                <path d="M72.8473083,72.3022023 C71.8418049,71.2671652 69.8353895,71.3768696 69.8353895,71.3768696 C69.8353895,71.3768696 64.3257821,70.899894 63.9860229,71.0191379 C63.9860229,71.0191379 61.795954,71.7059828 61.809728,73.3181603 C61.823502,74.9303379 63.4534275,75.2260627 63.9860229,75.3166881 C64.5186183,75.4073135 65.8225587,75.2356023 68.6003192,74.047933 C70.2440187,73.3849369 72.2504341,75.0018842 70.2853408,76.6951476 C68.0447671,78.8987749 63.2422259,79.6571661 63.2422259,79.6571661 C63.2422259,79.6571661 57.2734845,80.7303612 55.7996645,81.5650685 C54.3258445,82.3997758 51.8327471,83.6733007 51.208325,85.9055465 C50.7295041,87.4447606 51.0895818,89.1326378 52.1495496,90.3175709 C52.7051017,90.8804021 55.8639433,93.1794245 57.8795413,93.8996577 C59.8951394,94.6198908 60.4001867,95.3305845 60.5700663,95.554763 C60.9523868,96.2479612 60.7515748,97.1304044 60.1109324,97.5723698 C59.5813833,98.0341599 59.0110582,98.4429923 58.4075454,98.7934274 C58.4075454,98.7934274 57.5122342,100.281591 59.2707172,99.9524781 C60.940093,99.6397519 62.3272378,98.4361594 62.9208322,96.7853601 C63.5222976,95.1874918 62.0897997,93.1221874 60.7353545,92.2922499 C59.3809094,91.4623123 55.7491598,89.4303962 55.7491598,89.4303962 C55.7491598,89.4303962 51.8648865,87.0168997 55.9741354,84.5652451 C57.8106712,83.3107992 63.9722489,82.6096451 64.7298199,82.3806968 C65.487391,82.1517485 70.1292352,81.1882578 72.2917562,78.6793661 C74.4542771,76.1704744 74.4772338,74.615534 72.8473083,72.3022023 Z" id="路径" fill="#EAEAF0"></path>
                <path d="M55.6634316,70.6366815 L55.9545571,81 L59.1755202,79.9938003 L59.3303742,70.6313008 C60.665617,69.919558 61.2937061,68.5236922 60.8680204,67.2140342 C60.4423347,65.9043763 59.0665846,65 57.5,65 C55.9334154,65 54.5576653,65.9043763 54.1319796,67.2140342 C53.7062939,68.5236922 54.334383,69.919558 55.6696258,70.6313008 L55.6634316,70.6366815 Z" id="路径" fill="#EAEAF0"></path>
                <path d="M42.6802763,35.2032086 L45.8226691,35.2032086 L45.8226691,36.631016 L42.6802763,36.631016 L42.6802763,35.2032086 Z M45.3392241,36.3582888 L45.3392241,36.0427807 L43.1637213,36.0427807 L43.1637213,36.3582888 L45.3392241,36.3582888 Z M43.1637213,35.7860963 L45.3392241,35.7860963 L45.3392241,35.4759358 L43.1637213,35.4759358 L43.1637213,35.7860963 Z M41.0450945,35.0534759 L41.5072111,35.0534759 L41.5072111,39.9411765 L41.0450945,39.9411765 L41.0450945,35.0534759 Z M40.27727,36.0695187 L40.6682917,36.0909091 C40.6540727,36.6203209 40.5616494,37.1229947 40.4052407,37.6042781 L40,37.5187166 C40.1635182,37.0588235 40.2559415,36.5775401 40.27727,36.0695187 Z M41.9764371,35.8877005 C42.1044079,36.1497326 42.2252691,36.4545455 42.3319114,36.7967914 L41.9551087,36.8716578 C41.8697948,36.5614973 41.7560431,36.2620321 41.6280723,35.9786096 L41.9764371,35.8877005 Z M42.2892545,36.9197861 L46.2279098,36.9197861 L46.2279098,37.9625668 L42.2892545,37.9625668 L42.2892545,36.9197861 Z M45.7871217,37.7005348 L45.7871217,37.1818182 L45.0192972,37.1818182 L45.0192972,37.7005348 L45.7871217,37.7005348 Z M44.621166,37.7005348 L44.621166,37.1818182 L43.8817794,37.1818182 L43.8817794,37.7005348 L44.621166,37.7005348 Z M43.4765387,37.7005348 L43.4765387,37.1818182 L42.7087142,37.1818182 L42.7087142,37.7005348 L43.4765387,37.7005348 Z M42.3176925,38.2887701 L46.0146252,38.2887701 L46.0146252,38.5561497 C45.6804794,38.855615 45.2752387,39.1069519 44.8060126,39.315508 C45.3036766,39.459893 45.879545,39.5721925 46.5265082,39.657754 L46.2492383,39.9625668 C45.5027422,39.8502674 44.8628885,39.6951872 44.329677,39.5026738 C43.7324802,39.7058824 43.0357506,39.8609626 42.2465976,39.9572193 L42.033313,39.6363636 C42.7016047,39.5668449 43.305911,39.4545455 43.832013,39.3048128 C43.3770059,39.1016043 43.0073126,38.8609626 42.7158237,38.5935829 L42.3176925,38.5935829 L42.3176925,38.2887701 Z M43.2134877,38.5935829 C43.5049766,38.8074866 43.8675604,38.9893048 44.3012391,39.1497326 C44.7135893,38.9946524 45.0690636,38.8074866 45.381881,38.5935829 L43.2134877,38.5935829 Z M47.3938655,35.2513369 L49.5906967,35.2513369 L49.5906967,35.5508021 C49.3774121,36.0427807 49.1285801,36.5508021 48.8442007,37.0748663 C49.2849888,37.540107 49.5196019,37.9625668 49.5480398,38.3368984 C49.5480398,38.5668449 49.4698355,38.7326203 49.3276457,38.8342246 C49.1214706,38.9625668 48.7588869,39.026738 48.2470039,39.0320856 L48.0834857,38.6363636 C48.190128,38.6470588 48.2825513,38.657754 48.3607556,38.657754 C48.6309161,38.6470588 48.8086533,38.6203209 48.9010766,38.5775401 C48.9863904,38.5294118 49.0361568,38.4491979 49.0361568,38.3368984 C49.0361568,37.9786096 48.7944343,37.5775401 48.3109892,37.1336898 C48.6380256,36.5721925 48.8868576,36.0641711 49.0717042,35.6096257 L47.898639,35.6096257 L47.898639,39.9465241 L47.3938655,39.9465241 L47.3938655,35.2513369 Z M53.017469,35.2513369 L53.017469,39.3903743 L53.5933374,39.3903743 L53.5933374,39.7593583 L49.3703027,39.7593583 L49.3703027,39.3903743 L50.0599228,39.3903743 L50.0599228,35.2513369 L53.017469,35.2513369 Z M50.5575868,39.3903743 L52.519805,39.3903743 L52.519805,38.3582888 L50.5575868,38.3582888 L50.5575868,39.3903743 Z M50.5575868,37.9893048 L52.519805,37.9893048 L52.519805,36.9625668 L50.5575868,36.9625668 L50.5575868,37.9893048 Z M50.5575868,36.5989305 L52.519805,36.5989305 L52.519805,35.6203209 L50.5575868,35.6203209 L50.5575868,36.5989305 Z M59.8639041,39.3582888 L59.4302255,39.3582888 L59.3022547,39 L59.7003859,39.0160428 C59.8710136,39.0160428 59.9634369,38.9465241 59.9634369,38.8181818 L59.9634369,37.1283422 L59.0178753,37.1283422 L59.0178753,39.9304813 L58.5273207,39.9304813 L58.5273207,37.1283422 L57.5817591,37.1283422 L57.5817591,39.3743316 L57.1054235,39.3743316 L57.1054235,36.7807487 L58.5273207,36.7807487 L58.5273207,36.0695187 L56.8423725,36.0695187 L56.8423725,35.6951872 L58.5273207,35.6951872 L58.5273207,35.0534759 L59.0178753,35.0534759 L59.0178753,35.6951872 L60.695714,35.6951872 L60.695714,36.0695187 L59.0178753,36.0695187 L59.0178753,36.7807487 L60.446882,36.7807487 L60.446882,38.8983957 C60.446882,39.2032086 60.2478164,39.3582888 59.8639041,39.3582888 Z M55.1289864,36.855615 L55.1289864,37.7433155 L56.102986,37.7433155 L56.102986,36.855615 L55.1289864,36.855615 Z M56.102986,36.5080214 L56.102986,35.6096257 L55.1289864,35.6096257 L55.1289864,36.5080214 L56.102986,36.5080214 Z M55.1218769,38.0962567 C55.093439,38.8449198 54.9441398,39.4652406 54.6739793,39.9465241 L54.2971765,39.684492 C54.538899,39.197861 54.6597603,38.5775401 54.6668698,37.8235294 L54.6668698,35.2513369 L56.5722121,35.2513369 L56.5722121,39.4491979 C56.5722121,39.7540107 56.3873654,39.9090909 56.0247816,39.9090909 L55.5200081,39.9090909 L55.3991469,39.5614973 C55.5697745,39.5721925 55.7261832,39.5828877 55.8754824,39.5828877 C56.0247816,39.5828877 56.102986,39.4919786 56.102986,39.3208556 L56.102986,38.0962567 L55.1218769,38.0962567 Z M61.3782247,36.6684492 L63.4115377,36.6684492 C63.489742,36.4491979 63.5608369,36.2299465 63.6319317,36.0053476 L61.8616697,36.0053476 L61.8616697,35.6470588 L63.738574,35.6470588 C63.8025594,35.4278075 63.8594353,35.2139037 63.9163112,35 L64.4424132,35.0320856 C64.3855373,35.2459893 64.3357709,35.4545455 64.278895,35.6470588 L67.3430835,35.6470588 L67.3430835,36.0053476 L64.1722527,36.0053476 C64.1011578,36.2406417 64.030063,36.459893 63.9589681,36.6684492 L67.7625432,36.6684492 L67.7625432,37.0427807 L63.8238879,37.0427807 C63.7243551,37.2941176 63.6177128,37.5294118 63.51818,37.7486631 L66.9022953,37.7486631 L66.9022953,38.0802139 C66.56104,38.4759358 66.0278286,38.8770053 65.2955515,39.2727273 C65.7221207,39.3903743 66.1344709,39.5240642 66.5254926,39.6631016 L66.2411131,40 C65.1746902,39.6042781 64.0727199,39.2941176 62.9423116,39.0641711 L63.2124721,38.7647059 C63.7456835,38.8716578 64.2575665,38.9946524 64.7481211,39.1229947 C65.4021938,38.802139 65.9211863,38.459893 66.297989,38.1069519 L62.7859029,38.1069519 C62.9565306,37.7647059 63.1200488,37.4117647 63.269348,37.0427807 L61.3782247,37.0427807 L61.3782247,36.6684492 Z M69.3621775,35.9358289 L68.5161487,35.9358289 L68.5161487,35.5614973 L70.7129799,35.5614973 L70.7129799,35.9358289 L69.8882795,35.9358289 L69.8882795,38.3529412 C70.1939874,38.2727273 70.4854763,38.1925134 70.7627463,38.1069519 L70.7627463,38.4919786 C70.1371115,38.6898396 69.4119439,38.8716578 68.5872436,39.0374332 L68.4379443,38.657754 C68.7578712,38.5989305 69.0635791,38.540107 69.3621775,38.4759358 L69.3621775,35.9358289 Z M70.9831404,35.2673797 L74.9217957,35.2673797 L74.9217957,35.6417112 L73.2226285,35.6417112 C73.1799716,35.8449198 73.1302052,36.0320856 73.0733293,36.2139037 L74.5805403,36.2139037 L74.5805403,38.7272727 L74.0828763,38.7272727 L74.0828763,36.5668449 L71.8007313,36.5668449 L71.8007313,38.7272727 L71.3101767,38.7272727 L71.3101767,36.2139037 L72.5614463,36.2139037 C72.6325411,36.0320856 72.6823075,35.8395722 72.717855,35.6417112 L70.9831404,35.6417112 L70.9831404,35.2673797 Z M73.5212269,38.7379679 C74.1042048,39.0588235 74.6018688,39.3796791 75,39.7005348 L74.6303067,39.9786096 C74.2748324,39.6684492 73.7913874,39.3368984 73.1799716,38.9839572 L73.5212269,38.7379679 Z M72.6538696,36.9090909 L73.1657526,36.9090909 L73.1657526,37.828877 C73.1373146,38.4064171 72.938249,38.8663102 72.5543368,39.2139037 C72.177534,39.5294118 71.5661182,39.7807487 70.7129799,39.9625668 L70.4357099,39.631016 C71.2604103,39.4652406 71.8433882,39.2406417 72.1704245,38.9625668 C72.469023,38.6737968 72.6325411,38.2941176 72.6538696,37.828877 L72.6538696,36.9090909 Z" id="慢阻肺专项" fill="#FFFFFF"></path>
                <path d="M36.1409962,49.3754011 L37.4452107,49.3754011 L37.4452107,46.115508 L38.5496807,46.115508 L38.5496807,49.3754011 L39.7481481,49.3754011 L39.7481481,50.5561497 L38.5496807,50.5561497 L38.5496807,54.4320856 C39.0314176,54.2395722 39.5014049,54.0213904 39.9713921,53.7903743 L39.9713921,54.9967914 C38.8199234,55.5743316 37.5979566,56.0620321 36.2819923,56.4470588 L36,55.2149733 C36.4934866,55.1122995 36.9752235,54.9839572 37.4452107,54.8299465 L37.4452107,50.5561497 L36.1409962,50.5561497 L36.1409962,49.3754011 Z M40.1241379,47.2320856 L42.697318,47.2320856 C42.5915709,46.8727273 42.4740741,46.5262032 42.3565773,46.2181818 L43.5315453,46.0128342 C43.6255428,46.3721925 43.7077905,46.7828877 43.801788,47.2320856 L46.4219668,47.2320856 L46.4219668,48.3871658 L40.1241379,48.3871658 L40.1241379,47.2320856 Z M39.8068966,50.7614973 L41.5458493,50.7614973 C41.3461047,50.1839572 41.1111111,49.6449198 40.8291188,49.1315508 L41.8395913,48.7208556 C42.1215837,49.2855615 42.3683269,49.9657754 42.5915709,50.7614973 L44.0837803,50.7614973 C44.3657727,50.0941176 44.6242656,49.3882353 44.8592593,48.631016 L45.8697318,49.0160428 C45.6582375,49.657754 45.4114943,50.2481283 45.1530013,50.7614973 L46.6687101,50.7614973 L46.6687101,51.9294118 L39.8068966,51.9294118 L39.8068966,50.7614973 Z M46.045977,52.8663102 L46.045977,57.8588235 L44.9767561,57.8588235 L44.9767561,57.2171123 L41.6633461,57.2171123 L41.6633461,57.8588235 L40.6058748,57.8588235 L40.6058748,52.8663102 L46.045977,52.8663102 Z M41.6633461,56.0748663 L44.9767561,56.0748663 L44.9767561,54.0085561 L41.6633461,54.0085561 L41.6633461,56.0748663 Z M54.7524904,46.9497326 L55.8217114,46.9497326 L55.8217114,57.0631016 L54.7524904,57.0631016 L54.7524904,46.9497326 Z M57.196424,46.3208556 L58.2891443,46.3208556 L58.2891443,57.9358289 L57.196424,57.9358289 L57.196424,46.3208556 Z M52.414304,46.3593583 L53.4835249,46.3593583 L53.4835249,52.0449198 C53.4600255,54.7657754 52.9312899,56.742246 51.9090677,58 L51.0748404,57.1914439 C51.9443167,56.113369 52.3908046,54.4064171 52.414304,52.0449198 L52.414304,46.3593583 Z M49.4181354,46.1668449 C50.1818646,46.7957219 50.8280971,47.4245989 51.3568327,48.0663102 L50.5931034,48.913369 C50.1231162,48.3101604 49.4768838,47.6684492 48.6426564,47.0010695 L49.4181354,46.1668449 Z M47.8671775,49.8887701 L50.5813538,49.8887701 L50.5813538,55.0994652 C50.8398467,54.8171123 51.1218391,54.4962567 51.4155811,54.1625668 L51.7093231,55.4203209 C51.051341,56.1647059 50.3581098,56.8192513 49.6296296,57.4096257 L49.2066411,56.3187166 C49.4063857,56.1390374 49.5121328,55.9208556 49.5121328,55.6385027 L49.5121328,51.0566845 L47.8671775,51.0566845 L47.8671775,49.8887701 Z M63.9759898,55.1636364 L63.9759898,56.3187166 C62.7775223,56.7807487 61.4263091,57.1657754 59.8988506,57.4609626 L59.7578544,56.2802139 C61.3675607,55.997861 62.7775223,55.6256684 63.9759898,55.1636364 Z M61.6260536,46 L62.6717752,46.4363636 C62.1077905,47.9893048 61.5438059,49.2470588 60.9563218,50.2224599 C61.4028097,50.171123 61.8610473,50.1069519 62.3310345,50.0299465 C62.5425287,49.5935829 62.754023,49.144385 62.9890166,48.6695187 L63.9642401,49.0545455 C62.9655172,51.0566845 62.1312899,52.5326203 61.4498084,53.4566845 C62.237037,53.2770053 63.0360153,53.0331551 63.8349936,52.7251337 L63.8349936,53.8160428 C62.5190294,54.3037433 61.2853129,54.6245989 60.1103448,54.7914439 L59.8166028,53.7005348 C60.0163474,53.6106952 60.1808429,53.4951872 60.3218391,53.3540107 C60.6978289,52.9176471 61.1795658,52.1860963 61.7553001,51.1336898 C61.1678161,51.2235294 60.545083,51.313369 59.9106003,51.4160428 L59.6403576,50.2994652 C59.8048531,50.2224599 59.957599,50.0684492 60.0985951,49.8502674 C60.6860792,48.6951872 61.2030651,47.4117647 61.6260536,46 Z M63.7997446,47.5529412 L66.5139208,47.5529412 L66.5139208,46.1026738 L67.6301405,46.1026738 L67.6301405,47.5529412 L70.332567,47.5529412 L70.332567,48.7336898 L67.6301405,48.7336898 L67.6301405,50.3508021 L69.9918263,50.3508021 L69.9918263,51.5315508 L64.187484,51.5315508 L64.187484,50.3508021 L66.5139208,50.3508021 L66.5139208,48.7336898 L63.7997446,48.7336898 L63.7997446,47.5529412 Z M69.745083,52.5326203 L69.745083,57.8716578 L68.6641124,57.8716578 L68.6641124,57.3582888 L65.5621967,57.3582888 L65.5621967,57.8716578 L64.4694764,57.8716578 L64.4694764,52.5326203 L69.745083,52.5326203 Z M65.5621967,56.2032086 L68.6641124,56.2032086 L68.6641124,53.6877005 L65.5621967,53.6877005 L65.5621967,56.2032086 Z M74.9266922,46.1668449 L76.0429119,46.1668449 L76.0429119,56.2545455 L77.4528736,56.2545455 L77.4528736,46.1668449 L78.5690932,46.1668449 L78.5690932,56.2545455 L82,56.2545455 L82,57.4481283 L71.5192848,57.4481283 L71.5192848,56.2545455 L74.9266922,56.2545455 L74.9266922,46.1668449 Z M80.7662835,48.5540107 L81.7532567,48.8620321 C81.3067688,51.0695187 80.7310345,52.9946524 80.0260536,54.6502674 L79.0273308,54.2652406 C79.6853129,52.7764706 80.2727969,50.8641711 80.7662835,48.5540107 Z M72.7060026,48.5283422 C73.3052363,50.2481283 73.8339719,52.2117647 74.3039591,54.4192513 L73.2817369,54.7016043 C72.8822478,52.686631 72.3652618,50.7358289 71.7542784,48.8620321 L72.7060026,48.5283422 Z" id="培训结业" fill="#FFFFFF"></path>
            </g>
        </g>
    </g>
</svg>