<svg xmlns="http://www.w3.org/2000/svg" xmlns:xlink="http://www.w3.org/1999/xlink" width="71" height="56" viewBox="0 0 71 56">
    <defs>
        <path id="a" d="M35.493 55.943H0V0h70.987v55.943z"/>
    </defs>
    <g fill="none" fill-rule="evenodd">
        <mask id="b" fill="#fff">
            <use xlink:href="#a"/>
        </mask>
        <path fill="#403F40" d="M67.417.598l-27.914 25c-3.077 3.1-4.982 3.1-8.061 0L3.542.613A6.075 6.075 0 0 1 6.173 0h58.643c.932 0 1.81.224 2.602.598zM28.947 33.12a9.214 9.214 0 0 0 13.094 0L70.896 7.17c.044.3.09.599.09.91v41.647c0 3.434-2.763 6.216-6.17 6.216H6.171C2.764 55.943 0 53.161 0 49.727V8.081c0-.312.047-.611.091-.91l28.855 25.948z" mask="url(#b)"/>
    </g>
</svg>
