<?xml version="1.0" encoding="UTF-8"?>
<svg width="10px" height="15px" viewBox="0 0 10 15" version="1.1" xmlns="http://www.w3.org/2000/svg" xmlns:xlink="http://www.w3.org/1999/xlink">
    <!-- Generator: Sketch 47.1 (45422) - http://www.bohemiancoding.com/sketch -->
    <title>鼠标</title>
    <desc>Created with Sketch.</desc>
    <defs></defs>
    <g id="研究方法原型图" stroke="none" stroke-width="1" fill="none" fill-rule="evenodd">
        <g id="问答-历史问答" transform="translate(-1067.000000, -361.000000)">
            <g id="鼠标" transform="translate(1067.000000, 361.000000)">
                <path d="M4.72866959,4.82106287 L4.72866959,4.31854418 C4.72866959,4.31854418 3.6737644,4.28560875 3.6737644,3.2476703 L3.6737644,2.10879516 C3.6737644,2.10879516 3.80549018,1.03738868 4.72866959,1.03738868 L4.72866959,0 L3.70671698,0 C1.66872936,0 1.69023697e-05,1.67814338 1.69023697e-05,3.74965638 L1.69023697e-05,5.35648262 L4.20124235,5.35648262 C4.72866959,5.35648264 4.72866959,4.82106287 4.72866959,4.82106287 Z" id="Shape" fill="#00BB83" fill-rule="nonzero"></path>
                <path d="M0,11.2497767 C0,13.3212553 1.66871247,15 3.70670007,15 L6.34290631,15 C8.38089394,15 9.9999831,13.3212553 9.9999831,11.2497767 L9.9999831,5.89245218 L0,5.89245218 L0,11.2497767 Z" id="Path" fill="#BCC1CC"></path>
                <path d="M6.34292323,0 L5.28798424,0 L5.28798424,1.07140648 C5.28798424,1.07140648 6.34292323,1.13832537 6.34292323,2.14281297 L6.34234839,3.21421945 C6.34234839,3.21421945 6.27651087,4.318527 5.28800114,4.318527 L5.29341152,4.85779524 C5.29341152,4.85779524 5.28800114,5.33998915 5.81546218,5.33998915 L10,5.33998915 L10,3.74962203 C9.9999831,1.6781434 8.38091085,0 6.34292323,0 Z" id="Path" fill="#BCC1CC"></path>
                <path d="M4.23414421,2.14283015 L4.23414421,3.21423663 C4.23414421,3.50991672 4.47007047,3.74965638 4.76106422,3.74965638 L5.28798424,3.74965638 C5.57951903,3.74965638 5.81544528,3.5099167 5.81544528,3.21423663 L5.81544528,2.14283015 C5.81544528,1.84715006 5.57951901,1.60684343 5.28798424,1.60684343 L4.76106422,1.60684343 C4.47007047,1.60682625 4.23414421,1.84713288 4.23414421,2.14283015 Z" id="Path" fill="#BCC1CC"></path>
            </g>
        </g>
    </g>
</svg>