<?xml version="1.0" encoding="UTF-8"?>
<svg width="16px" height="20px" viewBox="0 0 16 20" version="1.1" xmlns="http://www.w3.org/2000/svg" xmlns:xlink="http://www.w3.org/1999/xlink">
    <!-- Generator: Sketch 47.1 (45422) - http://www.bohemiancoding.com/sketch -->
    <title>订单</title>
    <desc>Created with Sketch.</desc>
    <defs></defs>
    <g id="视频模块" stroke="none" stroke-width="1" fill="none" fill-rule="evenodd">
        <g id="17、我的订单-待支付" transform="translate(-442.000000, -269.000000)" fill-rule="nonzero" fill="#45A0EA">
            <g id="订单" transform="translate(442.000000, 269.000000)">
                <path d="M14.2222252,20 L1.77777473,20 C0.796000163,20 0,19.2213049 0,18.2608742 L0,3.47825156 C0,2.5178476 0.796000163,1.73912578 1.77777473,1.73912578 L3.11111948,1.73912578 L3.11111948,2.17392062 C3.11111948,3.37445232 4.10633179,4.34781444 5.3333242,4.34781444 L10.6666758,4.34781444 C11.8936682,4.34781444 12.8888805,3.37445232 12.8888805,2.17392062 L12.8888805,1.73912578 L14.2222252,1.73912578 C15.2039998,1.73912578 16,2.5178476 16,3.47825156 L16,18.2608742 C16,19.2213049 15.2039998,20 14.2222252,20 L14.2222252,20 Z M12.4444505,7.82609276 L3.55554947,7.82609276 C3.0646485,7.82609276 2.6666621,8.21545368 2.6666621,8.69565565 C2.6666621,9.17585763 3.0646485,9.56521854 3.55554947,9.56521854 L12.4444505,9.56521854 C12.9353515,9.56521854 13.3333379,9.1758844 13.3333379,8.69565565 C13.3333379,8.21542691 12.9353515,7.82609276 12.4444505,7.82609276 Z M12.4444505,10.8695763 L3.55554947,10.8695763 C3.0646485,10.8695763 2.6666621,11.2589372 2.6666621,11.7391392 C2.6666621,12.2193411 3.0646485,12.608702 3.55554947,12.608702 L12.4444505,12.608702 C12.9353515,12.608702 13.3333379,12.2193679 13.3333379,11.7391392 C13.3333379,11.2589104 12.9353515,10.8695763 12.4444505,10.8695763 Z M12.4444505,13.913033 L3.55554947,13.913033 C3.0646485,13.913033 2.6666621,14.3023939 2.6666621,14.7825959 C2.6666621,15.2627979 3.0646485,15.6521588 3.55554947,15.6521588 L12.4444505,15.6521588 C12.9353515,15.6521588 13.3333379,15.2627979 13.3333379,14.7825959 C13.3333379,14.3023939 12.9353515,13.913033 12.4444505,13.913033 Z M9.7777884,3.47825156 L6.22223893,3.47825156 C5.24046436,3.47825156 4.4444642,2.6995565 4.4444642,1.73912578 C4.4444642,0.778721824 5.24046436,0 6.22223893,0 L9.7777884,0 C10.759563,0 11.5555631,0.778721824 11.5555631,1.73912578 C11.5555631,2.6995565 10.759563,3.47825156 9.7777884,3.47825156 L9.7777884,3.47825156 Z" id="Shape"></path>
            </g>
        </g>
    </g>
</svg>