<?xml version="1.0" encoding="UTF-8"?>
<svg width="23px" height="27px" viewBox="0 0 23 27" version="1.1" xmlns="http://www.w3.org/2000/svg" xmlns:xlink="http://www.w3.org/1999/xlink">
    <!-- Generator: Sketch 43 (38999) - http://www.bohemiancoding.com/sketch -->
    <title>Group 2</title>
    <desc>Created with Sketch.</desc>
    <defs></defs>
    <g id="5.-个人中心" stroke="none" stroke-width="1" fill="none" fill-rule="evenodd">
        <g id="UI:-1.-个人信息" transform="translate(-200.000000, -273.000000)" fill="#BCC1CC">
            <g id="Group-2" transform="translate(200.000000, 273.000000)">
                <path d="M19.958332,2.41666652 L14.9074984,2.41666652 C14.3999985,1.01499998 13.0708325,0 11.4999991,0 C9.92916565,0 8.59999976,1.01499998 8.0924997,2.41666652 L3.0416663,2.41666652 C1.71249983,2.41666652 0.624999782,3.50416657 0.624999782,4.83333304 L0.624999782,24.1666652 C0.624999782,25.4958322 1.71249983,26.5833317 3.0416663,26.5833317 L19.958332,26.5833317 C21.2874989,26.5833317 22.3749985,25.4958322 22.3749985,24.1666652 L22.3749985,4.83333304 C22.3749985,3.50416657 21.2874989,2.41666652 19.958332,2.41666652 Z M11.4999991,2.41666652 C12.1645825,2.41666652 12.7083324,2.96041654 12.7083324,3.62499978 C12.7083324,4.28958302 12.1645825,4.83333304 11.4999991,4.83333304 C10.8354156,4.83333304 10.2916659,4.28958302 10.2916659,3.62499978 C10.2916659,2.96041654 10.8354156,2.41666652 11.4999991,2.41666652 Z M19.958332,24.1666652 L3.0416663,24.1666652 L3.0416663,4.83333304 L5.45833283,4.83333304 L5.43332329,7.04551859 C5.42709086,7.59679961 5.86642114,8.04370117 6.43147334,8.04370117 L16.4959362,8.04370117 C17.0534317,8.04370117 17.5104177,7.59731324 17.5166559,7.04551859 L17.5416654,4.83333304 L19.958332,4.83333304 L19.958332,24.1666652 Z" id="Fill-2"></path>
            </g>
        </g>
    </g>
</svg>