<?xml version="1.0" encoding="UTF-8"?>
<svg width="80px" height="350px" viewBox="0 0 80 350" version="1.1" xmlns="http://www.w3.org/2000/svg" xmlns:xlink="http://www.w3.org/1999/xlink">
    <!-- Generator: Sketch 44.1 (41455) - http://www.bohemiancoding.com/sketch -->
    <title>问题详情页icon</title>
    <desc>Created with Sketch.</desc>
    <defs></defs>
    <g id="icon" stroke="none" stroke-width="1" fill="none" fill-rule="evenodd">
        <g id="问题详情页icon">
            <g id="对" transform="translate(4.000000, 10.000000)" fill-rule="nonzero" fill="#74B94E">
                <path d="M8,0 C3.58173437,0 0,3.58173437 0,8 C0,12.4182969 3.58173437,16 8,16 C12.4182969,16 16,12.4182969 16,8 C16,3.58173437 12.4182656,0 8,0 Z M12.5886094,5.92489063 L7.41457813,11.0989375 C7.41457813,11.0989375 7.41451563,11.099 7.4144375,11.0990937 C7.17590625,11.3376875 6.8121875,11.3749375 6.53451563,11.2109375 C6.48309375,11.1805469 6.43460938,11.1432187 6.39045313,11.0990937 C6.39042188,11.0990312 6.39035938,11.099 6.39035938,11.099 L3.41142187,8.1200625 C3.12867187,7.83729687 3.12867187,7.3788125 3.41142187,7.096 C3.69417187,6.81325 4.15267187,6.81325 4.43542188,7.096 L6.90248438,9.5630625 L11.564625,4.90092188 C11.8474219,4.61817188 12.3059063,4.61817188 12.5886719,4.90092188 C12.8713438,5.18367188 12.8713438,5.64214063 12.5886094,5.92489063 Z" id="Shape"></path>
            </g>
            <g id="收-藏" opacity="0.50169837" transform="translate(4.000000, 40.000000)" fill-rule="nonzero" fill="#BCC1CC">
                <path d="M11.5253667,13.9169511 C11.3633703,13.9169511 11.1743746,13.8647544 11.0123782,13.7864593 L7.50245686,12.0900658 L3.96553613,13.7864593 C3.61454399,13.9691478 3.15555428,13.9430495 2.83156154,13.7081642 C2.5075688,13.473279 2.31857304,13.0557052 2.39957122,12.6642298 L3.12855488,9.01045921 L0.347617209,6.50501654 C0.0506238654,6.21793456 -0.0573737142,5.77426242 0.0506238654,5.40888536 C0.18562084,5.01740995 0.509613579,4.73032797 0.941603897,4.67813125 L4.80251737,3.99957386 L6.53047864,0.606786899 C6.71947441,0.241409841 7.09746593,0.00652459031 7.50245686,0.00652459031 C7.90744778,0.00652459031 8.3124387,0.241409841 8.47443507,0.606786899 L10.2023963,3.99957386 L14.0633098,4.65203289 C14.4683007,4.70422961 14.8192929,4.99131158 14.9272905,5.382787 C15.0622874,5.77426242 14.9542898,6.1918362 14.6572965,6.47891817 L11.8763588,9.01045921 L12.5783431,12.6642298 C12.6593413,13.0818036 12.4703455,13.473279 12.1463528,13.7081642 C11.9843564,13.838656 11.7683613,13.9169511 11.5253667,13.9169511 L11.5253667,13.9169511 Z" id="Shape"></path>
            </g>
            <g id="回复" opacity="0.497169384" transform="translate(4.000000, 70.000000)" fill-rule="nonzero" fill="#BCC1CC">
                <path d="M5.26250847,0.0289679075 C5.11578206,-0.0296333777 4.94528431,0.00240199187 4.83216563,0.109447009 L0.11560818,3.64271364 C-0.038495536,3.78882618 -0.038495536,4.02791941 0.11560818,4.17403193 L4.83298533,7.69010886 C4.90757809,7.76199311 5.00840127,7.80106064 5.11168355,7.80106064 C5.16332468,7.80106064 5.21332642,7.79012173 5.26332816,7.77215067 C5.41005458,7.71433073 5.49776255,7.57681306 5.49776255,7.42444973 L5.49776255,5.31871032 C10.54302,5.31871032 12.7496541,6.67435331 12.4143965,10.9952212 C14.5497167,4.08339529 10.4495741,2.52147578 5.49776255,2.52147578 L5.49776255,0.374324799 C5.49776255,0.222742821 5.40923488,0.0860064969 5.26250847,0.0289679075 L5.26250847,0.0289679075 Z" id="Shape"></path>
            </g>
            <g id="赞-copy-3" opacity="0.50169837" transform="translate(4.000000, 100.000000)" fill-rule="nonzero" fill="#F6A623">
                <path d="M11.9914822,7.20080357 C11.9914822,7.37256548 11.958128,7.53628571 11.8914196,7.69196429 C11.8247112,7.84764286 11.7374794,7.98451786 11.629724,8.10258929 C11.5219687,8.22066071 11.3911294,8.31458929 11.2372063,8.384375 C11.0832831,8.45416071 10.9242162,8.48905357 10.7600057,8.48905357 L10.3135989,8.48905357 C10.6522504,8.48905357 10.9421565,8.60714881 11.1833172,8.84333929 C11.424478,9.07952976 11.5450583,9.36939286 11.5450583,9.71292857 C11.5450583,10.0564643 11.424478,10.3516964 11.1833172,10.598625 C10.9421565,10.8455536 10.6522504,10.9690179 10.3135989,10.9690179 L9.85181223,10.9690179 C10.2007283,10.9690179 10.495761,11.0924821 10.7369104,11.3394107 C10.9780597,11.5863393 11.0986401,11.8815714 11.0986515,12.2251071 C11.0986515,12.396869 11.0524723,12.5605893 10.9601138,12.7162679 C10.8677553,12.8719464 10.7420427,13.0061429 10.5829758,13.1188571 C10.423909,13.2315714 10.2417582,13.3201429 10.0365235,13.3845714 C9.83128876,13.449 9.62091038,13.4812083 9.40538834,13.4811964 C9.74403983,13.4811964 10.0185491,13.6073393 10.2289161,13.859625 C10.4392831,14.1119107 10.5444723,14.4098214 10.5444836,14.7533571 C10.5444836,14.9680714 10.4854794,15.1532619 10.3674708,15.3089286 C10.2494623,15.4645952 10.10066,15.5934167 9.92106401,15.6953929 C9.74146799,15.797369 9.54905263,15.8725179 9.34381792,15.9208393 C9.13858321,15.9691607 8.95386629,15.9933155 8.78966714,15.9933036 L2.33991465,15.9933036 C2.01152774,15.9933036 1.70622475,15.9369405 1.42400569,15.8242143 C1.14178663,15.7114881 0.895493599,15.5504583 0.6851266,15.341125 C0.474759602,15.1317917 0.310566145,14.8821905 0.19254623,14.5923214 C0.0745263158,14.3024524 0.0155220484,13.9750179 0.0155334282,13.6100179 L0.0155334282,8.682375 C0.0155334282,8.46766071 0.0232318634,8.25294643 0.038628734,8.03823214 C0.0540256046,7.82351786 0.092512091,7.62222619 0.154088193,7.43435714 C0.215664296,7.2464881 0.310588905,7.07472024 0.43886202,6.91905357 C0.567135135,6.7633869 0.739027027,6.63724405 0.954537696,6.540625 C1.15978378,6.45474405 1.39324609,6.32592262 1.65492461,6.15416071 C1.91660313,5.98239881 2.18855192,5.77842857 2.47077098,5.54225 C2.75299004,5.30607143 3.02749929,5.040375 3.29429872,4.74516071 C3.56109815,4.44994643 3.80226458,4.1386131 4.01779801,3.81116071 C4.23333144,3.48370833 4.40522333,3.14285714 4.53347368,2.78860714 C4.66172404,2.43435714 4.72586629,2.07471429 4.72590043,1.70967857 C4.73616501,1.38761905 4.77721195,1.11923214 4.84904125,0.904517857 C4.92087055,0.689803571 5.01579516,0.515345238 5.13381508,0.381142857 C5.25183499,0.246940476 5.3801138,0.150315476 5.51865149,0.0912678571 C5.65718919,0.0322202381 5.79829303,0.00270238095 5.94196302,0.00271428571 C6.31139687,0.00271428571 6.62183215,0.120809524 6.87326885,0.357 C7.12470555,0.593190476 7.30172973,0.979672619 7.40434139,1.51644643 C7.42487055,1.97808929 7.3992091,2.46655952 7.32735704,2.98185714 C7.26578094,3.42202381 7.1580256,3.905125 7.00409104,4.43116071 C6.85015647,4.95719643 6.61412802,5.477875 6.29600569,5.99319643 L10.7600569,5.99319643 C11.0987084,5.99319643 11.3886145,6.10860119 11.6297752,6.33941071 C11.870936,6.57022024 11.9915164,6.85739881 11.9915164,7.20094643 L11.9914822,7.20080357 Z" id="Shape"></path>
            </g>
            <g id="赞" opacity="0.50169837" transform="translate(4.000000, 130.000000)" fill-rule="nonzero" fill="#BCC1CC">
                <path d="M11.9914822,7.20080357 C11.9914822,7.37256548 11.958128,7.53628571 11.8914196,7.69196429 C11.8247112,7.84764286 11.7374794,7.98451786 11.629724,8.10258929 C11.5219687,8.22066071 11.3911294,8.31458929 11.2372063,8.384375 C11.0832831,8.45416071 10.9242162,8.48905357 10.7600057,8.48905357 L10.3135989,8.48905357 C10.6522504,8.48905357 10.9421565,8.60714881 11.1833172,8.84333929 C11.424478,9.07952976 11.5450583,9.36939286 11.5450583,9.71292857 C11.5450583,10.0564643 11.424478,10.3516964 11.1833172,10.598625 C10.9421565,10.8455536 10.6522504,10.9690179 10.3135989,10.9690179 L9.85181223,10.9690179 C10.2007283,10.9690179 10.495761,11.0924821 10.7369104,11.3394107 C10.9780597,11.5863393 11.0986401,11.8815714 11.0986515,12.2251071 C11.0986515,12.396869 11.0524723,12.5605893 10.9601138,12.7162679 C10.8677553,12.8719464 10.7420427,13.0061429 10.5829758,13.1188571 C10.423909,13.2315714 10.2417582,13.3201429 10.0365235,13.3845714 C9.83128876,13.449 9.62091038,13.4812083 9.40538834,13.4811964 C9.74403983,13.4811964 10.0185491,13.6073393 10.2289161,13.859625 C10.4392831,14.1119107 10.5444723,14.4098214 10.5444836,14.7533571 C10.5444836,14.9680714 10.4854794,15.1532619 10.3674708,15.3089286 C10.2494623,15.4645952 10.10066,15.5934167 9.92106401,15.6953929 C9.74146799,15.797369 9.54905263,15.8725179 9.34381792,15.9208393 C9.13858321,15.9691607 8.95386629,15.9933155 8.78966714,15.9933036 L2.33991465,15.9933036 C2.01152774,15.9933036 1.70622475,15.9369405 1.42400569,15.8242143 C1.14178663,15.7114881 0.895493599,15.5504583 0.6851266,15.341125 C0.474759602,15.1317917 0.310566145,14.8821905 0.19254623,14.5923214 C0.0745263158,14.3024524 0.0155220484,13.9750179 0.0155334282,13.6100179 L0.0155334282,8.682375 C0.0155334282,8.46766071 0.0232318634,8.25294643 0.038628734,8.03823214 C0.0540256046,7.82351786 0.092512091,7.62222619 0.154088193,7.43435714 C0.215664296,7.2464881 0.310588905,7.07472024 0.43886202,6.91905357 C0.567135135,6.7633869 0.739027027,6.63724405 0.954537696,6.540625 C1.15978378,6.45474405 1.39324609,6.32592262 1.65492461,6.15416071 C1.91660313,5.98239881 2.18855192,5.77842857 2.47077098,5.54225 C2.75299004,5.30607143 3.02749929,5.040375 3.29429872,4.74516071 C3.56109815,4.44994643 3.80226458,4.1386131 4.01779801,3.81116071 C4.23333144,3.48370833 4.40522333,3.14285714 4.53347368,2.78860714 C4.66172404,2.43435714 4.72586629,2.07471429 4.72590043,1.70967857 C4.73616501,1.38761905 4.77721195,1.11923214 4.84904125,0.904517857 C4.92087055,0.689803571 5.01579516,0.515345238 5.13381508,0.381142857 C5.25183499,0.246940476 5.3801138,0.150315476 5.51865149,0.0912678571 C5.65718919,0.0322202381 5.79829303,0.00270238095 5.94196302,0.00271428571 C6.31139687,0.00271428571 6.62183215,0.120809524 6.87326885,0.357 C7.12470555,0.593190476 7.30172973,0.979672619 7.40434139,1.51644643 C7.42487055,1.97808929 7.3992091,2.46655952 7.32735704,2.98185714 C7.26578094,3.42202381 7.1580256,3.905125 7.00409104,4.43116071 C6.85015647,4.95719643 6.61412802,5.477875 6.29600569,5.99319643 L10.7600569,5.99319643 C11.0987084,5.99319643 11.3886145,6.10860119 11.6297752,6.33941071 C11.870936,6.57022024 11.9915164,6.85739881 11.9915164,7.20094643 L11.9914822,7.20080357 Z" id="Shape"></path>
            </g>
            <g id="收起" transform="translate(4.000000, 160.000000)" fill-rule="nonzero" fill="#727A89">
                <path d="M5.99426341,0.00290909091 L11.7708176,5.738375 C12.0608078,6.02632955 12.0608078,6.49328409 11.7708176,6.781125 C11.4808273,7.06907955 11.0105444,7.06907955 10.7205541,6.781125 L5.99426341,2.08852273 L1.26785561,6.781125 C0.977865366,7.06907955 0.507699512,7.06907955 0.217592195,6.781125 C-0.072515122,6.49329545 -0.072515122,6.02632955 0.217592195,5.738375 L5.99426341,0.00290909091 Z" id="Shape"></path>
            </g>
            <g id="Group-2-Copy-2" transform="translate(4.000000, 190.000000)" fill="#BCC1CC" opacity="0.5">
                <path d="M10.6666669,0 L1.33333409,0 C0.593334044,0 8.39999605e-07,0.630000025 8.39999605e-07,1.39999992 L0,9.1174308 C0,9.88743096 0.593333204,10.5174307 1.33333325,10.5174307 L3.99999976,10.5174307 L5.99999964,12.6174306 L7.99999952,10.5174307 L10.666666,10.5174307 C11.3999995,10.5174307 11.9999993,9.88743096 11.9999993,9.1174308 L12.0000001,1.39999992 C12.0000001,0.630000025 11.4000004,0 10.6666669,0 Z" id="Fill-2"></path>
            </g>
            <g id="修改-copy" transform="translate(4.000000, 210.000000)" fill-rule="nonzero" fill="#BCC1CC" opacity="0.5">
                <polygon id="Shape" points="12.0780273 3.10171314 10.0711133 1.17335389 2.09830078 8.83407507 2.00412109 10.8529276 4.10523438 10.7624531"></polygon>
                <path d="M14.0625,12.1810134 L0.9375,12.1810134 C0.421875,12.1810134 0,12.5863753 0,13.0818177 L0,13.0818177 C0,13.5772601 0.421875,13.982622 0.9375,13.982622 L14.0625,13.982622 C14.578125,13.982622 15,13.5772601 15,13.0818177 L15,13.0818177 C15,12.5863566 14.578125,12.1810134 14.0625,12.1810134 Z" id="Shape"></path>
                <path d="M12.4786719,2.71699464 L10.4714844,0.788372654 L11.0342773,0.247608579 C11.3602734,-0.0656273458 11.8937109,-0.0656273458 12.2196875,0.247608579 L13.0414258,1.03718231 C13.3674414,1.350437 13.3674414,1.86303217 13.0414258,2.17628686 L12.4786719,2.71699464 Z" id="Shape"></path>
            </g>
            <g id="修改" transform="translate(4.000000, 230.000000)" fill-rule="nonzero" fill="#BCC1CC">
                <polygon id="Shape" points="17.7144401 4.65256971 14.7709661 1.76003083 3.07750781 13.2511126 2.9393776 16.2793914 6.02101042 16.1436796"></polygon>
                <path d="M20.625,18.2715201 L1.375,18.2715201 C0.61875,18.2715201 0,18.879563 0,19.6227265 L0,19.6227265 C0,20.3658901 0.61875,20.973933 1.375,20.973933 L20.625,20.973933 C21.38125,20.973933 22,20.3658901 22,19.6227265 L22,19.6227265 C22,18.8795349 21.38125,18.2715201 20.625,18.2715201 Z" id="Shape"></path>
                <path d="M18.3020521,4.07549196 L15.3581771,1.18255898 L16.1836068,0.371412869 C16.6617344,-0.0984410188 17.4441094,-0.0984410188 17.9222083,0.371412869 L19.1274245,1.55577346 C19.6055807,2.0256555 19.6055807,2.79454826 19.1274245,3.26443029 L18.3020521,4.07549196 Z" id="Shape"></path>
            </g>
            <g id="收" transform="translate(4.000000, 250.000000)" fill-rule="nonzero" fill="#fff">
                <path d="M5.99426341,0.00290909091 L11.7708176,5.738375 C12.0608078,6.02632955 12.0608078,6.49328409 11.7708176,6.781125 C11.4808273,7.06907955 11.0105444,7.06907955 10.7205541,6.781125 L5.99426341,2.08852273 L1.26785561,6.781125 C0.977865366,7.06907955 0.507699512,7.06907955 0.217592195,6.781125 C-0.072515122,6.49329545 -0.072515122,6.02632955 0.217592195,5.738375 L5.99426341,0.00290909091 Z" id="Shap"></path>
            </g>
            <g id="Group-3" transform="translate(2.000000, 280.000000)" fill="#BCC1CC">
                <path d="M29.3940168,36.9696953 L10.2000018,36.9696953 C7.89000127,36.9696953 6.00000198,35.0606051 6.00000198,32.7272713 L6.00000198,10.0579598 L0.376117115,3.58842034 L3.77231023,0.636154707 L43.775661,46.6547456 L40.3794678,49.6070112 L29.3940168,36.9696953 Z M28.2674975,21.9397195 C28.8710815,21.3854055 29.25,20.5858852 29.25,19.6969697 C29.25,18.0233795 27.9068542,16.6666667 26.25,16.6666667 C25.5098643,16.6666667 24.8323294,16.9374002 24.3091613,17.3861745 L11.8297924,3.03030285 L43.8000004,3.03030285 C46.1100001,3.03030285 47.9790002,4.93939387 47.9790002,7.27272691 L47.9995515,44.6388511 L28.2674975,21.9397195 Z M37.5,22.7272727 C39.1568542,22.7272727 40.5,21.3705598 40.5,19.6969697 C40.5,18.0233795 39.1568542,16.6666667 37.5,16.6666667 C35.8431458,16.6666667 34.5,18.0233795 34.5,19.6969697 C34.5,21.3705598 35.8431458,22.7272727 37.5,22.7272727 Z M15,22.7272727 C16.6568542,22.7272727 18,21.3705598 18,19.6969697 C18,18.0233795 16.6568542,16.6666667 15,16.6666667 C13.3431458,16.6666667 12,18.0233795 12,19.6969697 C12,21.3705598 13.3431458,22.7272727 15,22.7272727 Z" id="Combined-Shape"></path>
            </g>
        </g>
    </g>
</svg>