<?xml version="1.0" encoding="UTF-8"?>
<svg width="15px" height="15px" viewBox="0 0 15 15" version="1.1" xmlns="http://www.w3.org/2000/svg" xmlns:xlink="http://www.w3.org/1999/xlink">
    <!-- Generator: Sketch 43 (38999) - http://www.bohemiancoding.com/sketch -->
    <title>question_hidden</title>
    <desc>Created with Sketch.</desc>
    <defs></defs>
    <g id="6.-登录" stroke="none" stroke-width="1" fill="none" fill-rule="evenodd">
        <g id="UX:-修改密码成功" transform="translate(-533.000000, -151.000000)">
            <g id="Group-3" transform="translate(518.000000, 146.000000)">
                <g id="question_hidden" transform="translate(14.000000, 4.000000)">
                    <g id="Page-1">
                        <polygon id="Stroke-1" stroke-opacity="0.00784313771" stroke="#000000" stroke-width="1.33333335e-11" points="0 0 16.9999989 0 16.9999989 16.9999989 0 16.9999989"></polygon>
                        <path d="M2.98215179,11.2273542 C2.19858872,12.0104937 1.56338535,13.5361745 1.56338535,14.6388921 L1.56338535,15.5616156 L2.48610883,15.5616156 C3.58710968,15.5616156 5.11565433,14.9259523 5.89841365,14.1436161 L12.415472,7.63008073 L9.49921014,4.71381886 L2.98215179,11.2273542 Z M15.3359173,4.70534473 C15.639208,4.4020536 15.639208,3.91212152 15.3359173,3.60883038 L13.5161698,1.78908305 C13.212879,1.48579173 12.7229462,1.48579173 12.4196554,1.78908305 L10.9965197,3.21221897 L13.9127816,6.1284812 L15.3359173,4.70534547 L15.3359173,4.70534473 Z" id="Fill-2" fill="#F07F32"></path>
                    </g>
                </g>
            </g>
        </g>
    </g>
</svg>