<svg xmlns="http://www.w3.org/2000/svg" xmlns:xlink="http://www.w3.org/1999/xlink" width="10" height="13" viewBox="0 0 10 13">
    <defs>
        <path id="a" d="M9.984 12.81V.004H0V12.81z"/>
    </defs>
    <g fill="none" fill-rule="evenodd">
        <path fill="#D8D8D8" d="M3.676 6.412c0 .83.59 1.503 1.32 1.503.73 0 1.32-.673 1.32-1.503 0-.831-.59-1.504-1.32-1.504-.73 0-1.32.673-1.32 1.504z"/>
        <g transform="translate(0 .015)">
            <mask id="b" fill="#fff">
                <use xlink:href="#a"/>
            </mask>
            <path fill="#D8D8D8" d="M7.07 7.395c-.114.305-.276.58-.482.814a2.25 2.25 0 0 1-.715.55 2.005 2.005 0 0 1-1.753 0 2.25 2.25 0 0 1-.715-.55 2.599 2.599 0 0 1-.482-.814 2.857 2.857 0 0 1-.178-.998c0-.346.06-.682.178-.998.113-.306.275-.58.482-.815a2.25 2.25 0 0 1 .715-.549 2.005 2.005 0 0 1 1.753 0c.268.13.508.314.715.55a2.6 2.6 0 0 1 .482.814c.117.316.177.652.177.998 0 .345-.06.681-.177.998m2.672-5.732c-2.882.475-3.454-.355-4.75-1.659C3.696 1.308 3.124 2.14.242 1.664c-1.536 8.713 4.75 11.146 4.75 11.146s6.286-2.433 4.75-11.147" mask="url(#b)"/>
        </g>
    </g>
</svg>
