<?xml version="1.0" encoding="UTF-8"?>
<svg width="13px" height="10px" viewBox="0 0 13 10" version="1.1" xmlns="http://www.w3.org/2000/svg" xmlns:xlink="http://www.w3.org/1999/xlink">
    <!-- Generator: Sketch 43 (38999) - http://www.bohemiancoding.com/sketch -->
    <title>Group 6</title>
    <desc>Created with Sketch.</desc>
    <defs></defs>
    <g id="4.-搜索页" stroke="none" stroke-width="1" fill="none" fill-rule="evenodd">
        <g id="UI：搜索页" transform="translate(-184.000000, -306.000000)">
            <g id="Group-6" transform="translate(180.000000, 300.000000)">
                <rect id="Rectangle--Copy-6" fill="#FBFBFB" opacity="0" x="0" y="0" width="20" height="20" rx="2"></rect>
                <path d="M4.05649662,11.1048006 C3.97794677,11.0235054 3.98194506,10.8916854 4.06449801,10.8112773 L4.62649763,10.2638791 C4.70946653,10.1830658 4.84800131,10.1714784 4.94131874,10.2420797 L8.02464737,12.5748361 C8.11554938,12.6436099 8.25949133,12.6414457 8.34431504,12.5715156 L16.1603474,6.12784648 C16.2459929,6.05723882 16.381651,6.06546253 16.4537928,6.13676993 L16.8947034,6.57258066 C16.9711232,6.6481166 16.9669703,6.77417043 16.8941541,6.84557265 L8.47321671,15.1029877 C8.31623405,15.2569219 8.06565092,15.2540766 7.90849913,15.0914323 L4.05649662,11.1048006 Z" id="Fill--Copy-2" fill="#449FEA"></path>
            </g>
        </g>
    </g>
</svg>