<?xml version="1.0" encoding="UTF-8"?>
<svg width="16px" height="16px" viewBox="0 0 16 16" version="1.1" xmlns="http://www.w3.org/2000/svg" xmlns:xlink="http://www.w3.org/1999/xlink">
    <!-- Generator: Sketch 43 (38999) - http://www.bohemiancoding.com/sketch -->
    <title>Group 3</title>
    <desc>Created with Sketch.</desc>
    <defs></defs>
    <g id="1.-研究方法" stroke="none" stroke-width="1" fill="none" fill-rule="evenodd">
        <g id="UI：研究方法" transform="translate(-573.000000, -22.000000)" fill="#B0B5BF">
            <g id="Group-3" transform="translate(573.000000, 22.000000)">
                <path d="M10.9166659,9.66666597 L10.3464355,9.05578613 L10.0249995,9.44166556 C10.8416657,8.49166612 11.3333325,7.25833244 11.3333325,5.91666619 C11.3333325,2.92499957 8.90833276,0.49999985 5.91666619,0.49999985 C2.92499957,0.49999985 0.49999985,2.92499957 0.49999985,5.91666619 C0.49999985,8.90833276 2.92499957,11.3333325 5.91666619,11.3333325 C7.25833244,11.3333325 8.49166612,10.8416657 9.44166556,10.0249995 L9.0802002,10.3167114 L9.66666597,10.9166659 L13.8333324,15.0749987 L15.0749987,13.8333324 L10.9166659,9.66666597 Z M5.91666619,9.66666597 C3.8416665,9.66666597 2.16666642,7.99166582 2.16666642,5.91666619 C2.16666642,3.8416665 3.8416665,2.16666642 5.91666619,2.16666642 C7.99166582,2.16666642 9.66666597,3.8416665 9.66666597,5.91666619 C9.66666597,7.99166582 7.99166582,9.66666597 5.91666619,9.66666597 Z" id="Fill-2"></path>
            </g>
        </g>
    </g>
</svg>