<?xml version="1.0" encoding="UTF-8"?>
<svg width="77px" height="77px" viewBox="0 0 77 77" version="1.1" xmlns="http://www.w3.org/2000/svg" xmlns:xlink="http://www.w3.org/1999/xlink">
    <!-- Generator: Sketch 52.2 (67145) - http://www.bohemiancoding.com/sketch -->
    <title>抱歉，您没有权限查看</title>
    <desc>Created with Sketch.</desc>
    <g id="慢阻肺专项" stroke="none" stroke-width="1" fill="none" fill-rule="evenodd">
        <g id="慢阻肺项目-无法参与培训提示" transform="translate(-468.000000, -692.000000)" fill="#F5A623" fill-rule="nonzero">
            <g id="分组-2" transform="translate(468.000000, 692.000000)">
                <g id="抱歉，您没有权限查看">
                    <path d="M38.5081743,77 C28.222512,77 18.553429,72.9958496 11.285268,65.7301025 C4.00776489,58.4549561 0,48.782959 0,38.5 C0,28.217041 4.00776489,18.5450439 11.2759258,11.2698975 C18.553429,3.99475097 28.2225121,0 38.5081743,0 C48.7938366,0 58.4722618,4.00415041 65.7404228,11.2698975 C80.7531924,26.2901611 80.7531924,50.7098389 65.7404228,65.7207031 C58.4722618,72.9864502 48.7938367,77 38.5081743,77 Z M38.5081743,5.0098877 C29.5584337,5.0098877 21.1505353,8.48767086 14.8259274,14.8134766 C8.50131942,21.1392823 5.01671262,29.5423584 5.01671262,38.4906006 C5.01671262,47.4388427 8.50131934,55.8419189 14.8259274,62.1677246 C21.1505353,68.4841308 29.5677757,71.9713134 38.5081743,71.9713134 C47.457915,71.9713134 55.8751554,68.4841308 62.1997634,62.1583251 C75.2600321,49.102539 75.2600321,27.8598632 62.1997634,14.804077 C55.8751554,8.49707031 47.457915,5.0098877 38.5081743,5.0098877 Z M24.8313264,61.0303955 C21.5896145,61.0303955 21.711062,57.4304199 21.711062,57.4304199 C21.711062,57.4304199 25.8402742,49.0179443 38.5081744,49.0179443 C51.1760746,49.0179443 57.0802876,57.43042 57.0802876,57.43042 C57.0802876,61.0491944 53.6704177,61.0303956 53.6704177,61.0303956 C53.6704177,61.0303956 47.6634415,53.821045 38.4894901,53.821045 C29.324881,53.8116455 24.8313264,61.0303955 24.8313264,61.0303955 Z M27.3163275,26.1209717 C24.7192211,26.1209717 22.5985623,28.2358399 22.5985623,30.8394776 C22.5985623,33.4431153 24.709879,35.5579834 27.3163275,35.5579834 C29.922776,35.5579834 32.0340927,33.4431153 32.0340927,30.8394776 C32.0340927,28.2264405 29.9227759,26.1209717 27.3163275,26.1209717 Z M51.475022,26.1209717 C48.8779156,26.1209717 46.7572568,28.2358399 46.7572568,30.8394776 C46.7572568,33.4431153 48.8685734,35.5579834 51.475022,35.5579834 C54.0814705,35.5579834 56.1927871,33.4431153 56.1927871,30.8394776 C56.1927871,28.2264405 54.0908126,26.1209717 51.475022,26.1209717 Z" id="形状"></path>
                </g>
            </g>
        </g>
    </g>
</svg>