<?xml version="1.0" encoding="UTF-8"?>
<svg width="20px" height="20px" viewBox="0 0 20 20" version="1.1" xmlns="http://www.w3.org/2000/svg" xmlns:xlink="http://www.w3.org/1999/xlink">
    <!-- Generator: Sketch 52.1 (67048) - http://www.bohemiancoding.com/sketch -->
    <title>成功</title>
    <desc>Created with Sketch.</desc>
    <g id="慢阻肺专项" stroke="none" stroke-width="1" fill="none" fill-rule="evenodd">
        <g id="慢阻肺项目-提示信息" transform="translate(-544.000000, -937.000000)">
            <g id="分组" transform="translate(544.000000, 936.000000)">
                <g id="成功" transform="translate(0.000000, 1.000000)">
                    <path d="M0,10 C0,15.53125 4.46875,20 10,20 C15.53125,20 20,15.53125 20,10 C20,4.46875 15.53125,0 10,0 C4.46875,0 0,4.46875 0,10 Z" id="路径" fill="#46B229"></path>
                    <path d="M15.740577,6.13286634 C15.4561677,5.93040334 15.0137532,5.95932663 14.7925459,6.2196362 L9.35716744,12.380296 L6.1338616,9.37227432 C5.8810533,9.14088804 5.47023981,9.14088804 5.2174315,9.37227432 C4.93302217,9.6036606 4.93302217,9.97966331 5.18583047,10.2399729 L8.63034357,13.4793809 C8.63034357,13.4793809 8.94635395,13.797537 9.00955602,13.8553836 C9.13596017,13.9421534 9.26236432,14 9.42036951,14 L9.48357159,14 C9.64157677,14 9.79958196,13.9421534 9.89438507,13.8264603 C9.95758715,13.7686137 10.2735975,13.3636877 10.2735975,13.3636877 L15.8669812,7.02948819 C16.0881885,6.71133205 16.0249864,6.33532934 15.740577,6.13286634 Z" id="路径" fill="#FFFFFF"></path>
                </g>
            </g>
        </g>
    </g>
</svg>