<?xml version="1.0" encoding="UTF-8"?>
<svg width="17px" height="18px" viewBox="0 0 17 18" version="1.1" xmlns="http://www.w3.org/2000/svg" xmlns:xlink="http://www.w3.org/1999/xlink">
    <!-- Generator: Sketch 43 (38999) - http://www.bohemiancoding.com/sketch -->
    <title>退出</title>
    <desc>Created with Sketch.</desc>
    <defs></defs>
    <g id="6.-登录" stroke="none" stroke-width="1" fill="none" fill-rule="evenodd">
        <g id="UX：hover-用户信息窗口-" transform="translate(-1221.000000, -20.000000)" fill="#F86756">
            <g id="退出" transform="translate(1221.000000, 20.000000)">
                <path d="M8.46302556,0 C9.1810166,0 9.76934456,0.574058402 9.76934456,1.27459871 L9.76934456,8.28223116 C9.76934456,8.98274174 9.1810166,9.55680014 8.46302556,9.55680014 C7.74506499,9.55680014 7.15789474,8.98274174 7.15789474,8.28223116 L7.15789474,1.27459871 C7.15789474,0.574058402 7.74506499,0 8.46302556,0 Z" id="Fill-1"></path>
                <path d="M8.49987814,17.9735741 C3.81253943,17.9735741 0.0113637993,14.2646669 0.0113637993,9.69134289 C0.0113637993,6.24604127 2.16896237,3.29397447 5.23660932,2.04523693 L5.23660932,4.92346564 C3.66014875,5.95199685 2.62394086,7.70223291 2.62394086,9.69134289 C2.62394086,12.8577601 5.25455376,15.4255657 8.50109677,15.4255657 C11.748828,15.4255657 14.3794409,12.8589788 14.3794409,9.69134289 C14.3794409,7.70342193 13.3408566,5.95324532 11.7643961,4.92346564 L11.7643961,2.04407764 C14.8344194,3.2928449 16.9896416,6.24488197 16.9896416,9.69021332 C16.9896111,14.2646669 13.1884355,17.9735741 8.49987814,17.9735741" id="Fill-2"></path>
            </g>
        </g>
    </g>
</svg>