<?xml version="1.0" encoding="UTF-8"?>
<svg width="12px" height="12px" viewBox="0 0 12 12" version="1.1" xmlns="http://www.w3.org/2000/svg" xmlns:xlink="http://www.w3.org/1999/xlink">
    <!-- Generator: Sketch 43 (38999) - http://www.bohemiancoding.com/sketch -->
    <title>Fill 2 Copy</title>
    <desc>Created with Sketch.</desc>
    <defs></defs>
    <g id="3.-详情页" stroke="none" stroke-width="1" fill="none" fill-rule="evenodd" opacity="0.5">
        <g id="UI：详情页" transform="translate(-611.000000, -935.000000)" fill="#BCC1CC">
            <path d="M622.646,940.748 L617.246,935.348 C617.03,935.132 616.73,935 616.4,935 L612.2,935 C611.54,935 611,935.54 611,936.2 L611,940.4 C611,940.73 611.132,941.03 611.354,941.252 L616.754,946.652 C616.97,946.868 617.27,947 617.6,947 C617.93,947 618.23,946.868 618.446,946.646 L622.646,942.446 C622.868,942.23 623,941.93 623,941.6 C623,941.27 622.862,940.964 622.646,940.748 Z M613,938 C612.446667,938 612,937.553333 612,937 C612,936.446667 612.446667,936 613,936 C613.553333,936 614,936.446667 614,937 C614,937.553333 613.553333,938 613,938 Z" id="Fill-2-Copy"></path>
        </g>
    </g>
</svg>