<?xml version="1.0" standalone="no"?><!DOCTYPE svg PUBLIC "-//W3C//DTD SVG 1.1//EN" "http://www.w3.org/Graphics/SVG/1.1/DTD/svg11.dtd"><svg t="1505736866924" class="icon" style="" viewBox="0 0 1024 1024" version="1.1" xmlns="http://www.w3.org/2000/svg" p-id="1434" xmlns:xlink="http://www.w3.org/1999/xlink" width="28" height="22"><defs><style type="text/css"></style></defs><path d="M232.872274 3.190031C226.492212 0 220.11215 0 213.732087 0 28.71028 31.900312 3.190031 137.17134 0 143.551402v19.140187c220.11215 682.666667 676.286604 807.077882 826.218069 848.548286 12.760125 3.190031 22.330218 6.380062 28.71028 9.570094 3.190031 0 6.380062 3.190031 9.570093 3.190031 6.380062 0 9.570093 0 15.950156-3.190031 3.190031-3.190031 111.65109-54.23053 140.361371-220.11215 0-6.380062 0-15.950156-3.190031-22.330218-3.190031-3.190031-60.610592-111.65109-216.922119-149.931464-9.570093-3.190031-22.330218 0-31.900311 6.380062-51.040498 41.470405-118.031153 86.130841-146.741433 92.510904-197.781931-95.700935-309.433022-283.912773-312.623053-319.003115-3.190031-19.140187 41.470405-89.320872 95.700934-146.741433 6.380062-6.380062 9.570093-19.140187 9.570094-28.710281C398.753894 79.750779 239.252336 6.380062 232.872274 3.190031z" p-id="1435" fill="#ffffff"></path></svg>