<?xml version="1.0" encoding="UTF-8"?>
<svg width="228px" height="228px" viewBox="0 0 228 228" version="1.1" xmlns="http://www.w3.org/2000/svg" xmlns:xlink="http://www.w3.org/1999/xlink">
    <!-- Generator: Sketch 52.1 (67048) - http://www.bohemiancoding.com/sketch -->
    <title>分组 3</title>
    <desc>Created with Sketch.</desc>
    <g id="慢阻肺专项" stroke="none" stroke-width="1" fill="none" fill-rule="evenodd">
        <g id="慢阻肺项目-科研培训" transform="translate(-577.000000, -600.000000)">
            <g id="分组-3" transform="translate(577.000000, 600.000000)">
                <circle id="椭圆形" fill="#F8F8F8" cx="114" cy="114" r="114"></circle>
                <path d="M1.21626607,130.711946 C4.58300431,127.603642 8.81469573,126.04949 13.9113404,126.04949 C21.7889275,126.04949 15.3223373,131 27,131 C38.6776627,131 38.6776627,126.04949 47,126.04949 C55.3223373,126.04949 52.1342557,130.099737 63.6767281,128.528158 C75.2192006,126.956579 79.1071169,121.692491 85.9113404,121.692491 C92.7155638,121.692491 89.3114543,128.524745 97.9113404,128.524745 C106.511226,128.524745 104.629678,121.692491 116.19763,121.692491 C127.765581,121.692491 135.652007,128.524745 139.91134,128.524745 C144.170674,128.524745 136.60692,122.479626 143.92095,121.692491 C148.79697,121.167735 155.1271,122.620068 162.91134,126.04949 C163.581895,122.738883 167.278115,120.389053 174,119 C184.082827,116.91642 184.082827,121.692491 199,121.692491 C208.898952,121.692491 218.564006,119.482175 227.99516,115.061542 C227.425307,177.533161 176.606235,228 114,228 C56.7166711,228 9.30137465,185.74993 1.21626607,130.711946 Z" id="合并形状" fill="#C9E5FF"></path>
                <g id="分组-2" transform="translate(50.000000, 51.000000)">
                    <path d="" id="路径" stroke="#979797" transform="translate(4.879685, 21.015509) rotate(-29.000000) translate(-4.879685, -21.015509) "></path>
                    <path d="M22.6666392,39.3898626 C21.0022076,57.5952202 23.6688742,69.3027342 30.6666392,74.5124045 C41.1632867,82.32691 80.6594248,97.6382128 92.28457,97.6382128 C100.034667,97.6382128 106.495357,95.0040911 111.666639,89.7358477 L22.6666392,39.3898626 Z" id="路径-2" fill="#F7903E" transform="translate(66.926775, 68.514038) rotate(-29.000000) translate(-66.926775, -68.514038) "></path>
                    <path d="M106.194235,91.3831365 C60.42345,65.495889 32.6814089,49.664962 22.9681118,43.8903554 C16.2155079,39.8758967 8.24168014,33.5515194 8.24168014,32.6543819 C8.24168014,29.8215105 43.477438,49.397762 113.948954,91.3831365 L106.194235,91.3831365 Z" id="路径-3" fill="#F67517" transform="translate(61.095317, 61.884464) rotate(-29.000000) translate(-61.095317, -61.884464) "></path>
                    <path d="M15.4953912,31.6609695 C40.1330311,50.8888807 52.451851,61.9571994 52.451851,64.8659255 C52.451851,66.9918877 53.7831456,54.1959218 63.4953912,36.6051719 C65.8793767,32.2873144 71.4714292,25.8091202 80.2715486,17.1705895 C64.420777,12.5039229 51.1475445,11.6825828 40.451851,14.7065693 C30.8958254,17.4083382 22.5770054,23.0598049 15.4953912,31.6609695 Z" id="路径-4-copy" fill="#FEFBA2" transform="translate(47.883470, 39.009952) rotate(-29.000000) translate(-47.883470, -39.009952) "></path>
                    <path d="M27.9430989,38.3360243 C44.5807387,50.8583188 52.8995587,58.5738291 52.8995587,61.4825552 C52.8995587,63.6085174 52.2308532,55.9267742 61.9430989,38.3360243 C64.3270844,34.0181668 70.4029967,26.1880401 80.1708358,14.8456444 C67.920006,16.5358285 58.8295803,18.7144884 52.8995587,21.3816241 C46.9695371,24.0487598 38.6507171,29.7002265 27.9430989,38.3360243 Z" id="路径-4" fill="#F7903E" transform="translate(54.056967, 38.336848) rotate(-29.000000) translate(-54.056967, -38.336848) "></path>
                    <path d="M63.7971298,12.5436125 C68.0109506,15.7373022 70.117861,17.7050682 70.117861,18.4469105 C70.117861,18.9891166 69.9484977,17.0299625 72.4083215,12.5436125 C73.0121143,11.4423848 74.5509627,9.44538704 77.0248667,6.55261909 C73.9220948,6.98368415 71.6197596,7.53933021 70.117861,8.21955728 C68.6159623,8.89978435 66.5090519,10.3411361 63.7971298,12.5436125 Z" id="路径-4-copy-2" fill="#1D5894" transform="translate(70.410998, 12.543823) scale(-1, 1) rotate(-12.000000) translate(-70.410998, -12.543823) "></path>
                    <path d="M70.7242614,23.5143314 C79.8847187,31.6849613 84.4649474,36.5436188 84.4649474,38.0903036 C84.4649474,39.220762 82.9842742,39.7240716 88.0475315,30.3703731 C89.2903679,28.0743972 86.8941044,24.384475 80.858741,19.3006065 L70.7242614,23.5143314 Z" id="路径-4-copy-3" fill="#1D5894" transform="translate(79.545068, 28.995546) scale(-1, 1) rotate(-28.000000) translate(-79.545068, -28.995546) "></path>
                    <path d="M68.1474886,35.5478124 C83.9030932,47.4443157 91.7808955,54.1659097 91.7808955,55.7125946 C91.7808955,56.4662335 92.9750902,53.8929233 95.3634797,47.992664 L75.5597558,30.7342298 L68.1474886,35.5478124 Z" id="路径-4-copy-4" fill="#1D5894" transform="translate(81.755484, 43.287432) scale(-1, 1) rotate(-28.000000) translate(-81.755484, -43.287432) "></path>
                    <circle id="椭圆形" stroke="#F78830" fill="#FEFBA2" transform="translate(34.353167, 77.281075) rotate(-29.000000) translate(-34.353167, -77.281075) " cx="34.3531666" cy="77.2810751" r="3"></circle>
                    <circle id="椭圆形-copy" stroke="#F78830" fill="#FEFBA2" transform="translate(43.774172, 77.775697) rotate(-29.000000) translate(-43.774172, -77.775697) " cx="43.7741724" cy="77.7756967" r="3"></circle>
                    <circle id="椭圆形-copy-2" stroke="#F78830" fill="#FEFBA2" transform="translate(53.225559, 77.521079) rotate(-29.000000) translate(-53.225559, -77.521079) " cx="53.2255589" cy="77.5210788" r="3"></circle>
                </g>
                <path d="M4.45431337,146.351892 C11.282031,148.194802 18.9514766,148.152882 27.4626501,146.226132 C40.5133537,143.271728 42.4686791,136.514792 49.8917221,135.837216 C57.314765,135.15964 55.1861015,142.833114 64.634149,142.833114 C74.0821964,142.833114 76.8910836,136.559886 84.5998728,135.837216 C92.308662,135.114546 90.119563,140.973593 101.072435,139.417162 C112.025306,137.860731 111.957288,132.580995 121.154156,130.642758 C130.351024,128.704521 127.067786,139.621918 138.020272,135.837216 C148.972757,132.052514 145.41736,128.243678 154.108,127.6382 C161.820086,127.100897 165.513245,133.231041 174.125034,132.580995 C182.736823,131.93095 190.959035,124.446939 202.05854,124.018739 C213.158045,123.59054 218.493083,130.642758 224.366753,130.642758 C225.634288,130.642758 226.851813,130.537818 228.019328,130.327937 C214.538826,181.384895 168.375393,219 113.5,219 C64.5443949,219 22.5224958,189.062755 4.45432165,146.351912 Z" id="合并形状-copy" fill="#97C1F8"></path>
                <path d="M9.08742287,156.757165 C15.7814153,158.658015 23.3190496,158.649699 31.7003257,156.732218 C44.3269993,153.843468 46.2187942,147.236685 53.4006553,146.574167 C60.5825163,145.911648 58.5230151,153.414601 67.6640863,153.414601 C76.8051576,153.414601 79.5227812,147.280777 86.9811044,146.574167 C94.4394275,145.867556 92.3214545,151.596402 102.918457,150.074558 C113.515459,148.552714 113.449651,143.390307 122.347704,141.495141 C131.245756,139.599976 128.069194,150.274765 138.665822,146.574167 C149.262451,142.873569 145.822572,139.149374 154.230845,138.557351 C161.692357,138.031989 165.265522,144.025907 173.597506,143.390307 C181.92949,142.754707 189.884554,135.437007 200.623425,135.018323 C211.362297,134.599639 216.523993,141.495141 222.206823,141.495141 C223.212505,141.495141 224.185647,141.426137 225.126251,141.288129 C212.065686,191.223442 167.485886,228 114.5,228 C67.1537185,228 26.5193326,198.635512 9.08742967,156.757181 Z" id="合并形状" fill="#89B5F7"></path>
                <path d="M100.135983,106.365799 L130.429137,48.8395544" id="直线" stroke="#663A18" stroke-width="2" stroke-linecap="square" transform="translate(115.094198, 77.512098) rotate(-29.000000) translate(-115.094198, -77.512098) "></path>
            </g>
        </g>
    </g>
</svg>