<svg xmlns="http://www.w3.org/2000/svg" xmlns:xlink="http://www.w3.org/1999/xlink" width="11" height="13" viewBox="0 0 11 13">
    <defs>
        <path id="a" d="M10.982 12.81V.004H0V12.81z"/>
    </defs>
    <g fill="none" fill-rule="evenodd">
        <path fill="#33A466" d="M5.496 7.915c.802 0 1.452-.673 1.452-1.503 0-.831-.65-1.504-1.452-1.504-.802 0-1.453.673-1.453 1.504 0 .83.65 1.503 1.453 1.503z"/>
        <g transform="translate(0 .015)">
            <mask id="b" fill="#fff">
                <use xlink:href="#a"/>
            </mask>
            <path fill="#33A466" d="M7.777 7.395a2.56 2.56 0 0 1-.53.814c-.228.235-.492.42-.787.55a2.389 2.389 0 0 1-1.928 0 2.463 2.463 0 0 1-.787-.55 2.56 2.56 0 0 1-.53-.814 2.626 2.626 0 0 1-.195-.998c0-.346.066-.682.195-.998a2.56 2.56 0 0 1 .53-.815c.227-.235.492-.42.787-.549a2.39 2.39 0 0 1 1.928 0c.295.13.56.314.787.55.227.234.405.508.53.814.129.316.195.652.195.998 0 .345-.066.681-.195.998m2.94-5.732c-3.171.475-3.8-.355-5.226-1.659C4.065 1.308 3.436 2.14.266 1.664-1.424 10.376 5.49 12.81 5.49 12.81s6.915-2.433 5.225-11.147" mask="url(#b)"/>
        </g>
    </g>
</svg>
