<svg xmlns="http://www.w3.org/2000/svg" xmlns:xlink="http://www.w3.org/1999/xlink" width="11" height="9" viewBox="0 0 11 9">
    <defs>
        <path id="a" d="M10.948 3.121V.054H0v3.067h10.948z"/>
        <path id="c" d="M10.948 6.316H0V.013h10.948z"/>
    </defs>
    <g fill="none" fill-rule="evenodd">
        <g transform="translate(0 .002)">
            <mask id="b" fill="#fff">
                <use xlink:href="#a"/>
            </mask>
            <path fill="#33A466" d="M6.605 2.85L10.948.64a.577.577 0 0 0-.568-.586H.568A.577.577 0 0 0 0 .64l4.343 2.21a2.486 2.486 0 0 0 2.262 0" mask="url(#b)"/>
        </g>
        <g transform="translate(0 2.201)">
            <mask id="d" fill="#fff">
                <use xlink:href="#c"/>
            </mask>
            <path fill="#33A466" d="M3.967 2.033L0 .02v5.71c0 .324.254.586.568.586h9.812a.577.577 0 0 0 .568-.585V.013L6.98 2.03a3.317 3.317 0 0 1-3.014.002" mask="url(#d)"/>
        </g>
    </g>
</svg>
