<?xml version="1.0" encoding="UTF-8"?>
<svg width="17px" height="17px" viewBox="0 0 17 17" version="1.1" xmlns="http://www.w3.org/2000/svg" xmlns:xlink="http://www.w3.org/1999/xlink">
    <!-- Generator: Sketch 52.2 (67145) - http://www.bohemiancoding.com/sketch -->
    <title>内容 (1)</title>
    <desc>Created with Sketch.</desc>
    <g id="4.-搜索页" stroke="none" stroke-width="1" fill="none" fill-rule="evenodd">
        <g id="UI：搜索页" transform="translate(-204.000000, -255.000000)" fill="#BCC1CC" fill-rule="nonzero">
            <g id="内容-(1)" transform="translate(204.000000, 255.500000)">
                <path d="M5.40909091,6.49411765 L11.5909091,6.58823529 L11.5909091,4.70588235 L5.40909091,4.70588235 L5.40909091,6.49411765 Z M5.40909091,11.2941176 L11.5909091,11.2941176 L11.5909091,9.41176471 L5.40909091,9.41176471 L5.40909091,11.2941176 Z M15.4545455,0 L1.54545454,0 C0.463636368,0 0,0.564705887 0,1.88235294 L0,14.1176471 C0,15.4352941 0.463636368,16 1.54545454,16 L15.4545455,16 C16.5363636,16 17,15.4352941 17,14.1176471 L17,1.88235294 C17,0.564705887 16.5363636,2.87351841e-16 15.4545455,0 Z M15.4545455,13.1764706 C15.4545455,13.4588235 15.3772727,14.2117647 14.6818182,14.1176471 L2.31818182,14.1176471 C1.46818182,14.2117647 1.54545454,13.4588235 1.54545454,13.1764706 L1.54545454,2.82352942 C1.54545454,2.25882353 1.85454546,1.88235294 2.31818182,1.88235294 L14.6818182,1.88235294 C14.9136364,1.88235294 15.4545455,2.25882353 15.4545455,2.82352942 L15.4545455,13.1764706 Z" id="形状"></path>
            </g>
        </g>
    </g>
</svg>