<?xml version="1.0" encoding="UTF-8"?>
<svg width="11px" height="11px" viewBox="0 0 11 11" version="1.1" xmlns="http://www.w3.org/2000/svg" xmlns:xlink="http://www.w3.org/1999/xlink">
    <!-- Generator: Sketch 43 (38999) - http://www.bohemiancoding.com/sketch -->
    <title>account</title>
    <desc>Created with Sketch.</desc>
    <defs>
        <polygon id="path-1" points="5.49846276 10.9876965 0 10.9876965 0 0 5.49846276 0 10.9969255 0 10.9969255 10.9876965"></polygon>
    </defs>
    <g id="7.-注册" stroke="none" stroke-width="1" fill="none" fill-rule="evenodd">
        <g id="UX：注册信息错误状态-" transform="translate(-669.000000, -274.000000)">
            <g id="account" transform="translate(669.000000, 274.000000)">
                <g id="Page-1" transform="translate(5.500000, 5.500000) scale(-1, 1) translate(-5.500000, -5.500000) ">
                    <mask id="mask-2" fill="white">
                        <use xlink:href="#path-1"></use>
                    </mask>
                    <g id="Clip-2"></g>
                    <path d="M6.58127699,6.89798555 C6.58127699,6.89798555 7.37855453,6.08004335 7.55252943,4.98009104 C8.01989902,4.98009104 8.30896736,3.81095954 7.84119888,3.39955636 C7.86083626,2.96656647 8.44210265,0 5.49885858,0 C2.5556145,0 3.13688089,2.96656647 3.15611939,3.39955636 C2.68874979,3.81095954 2.97741925,4.98009104 3.44478884,4.98009104 C3.6183802,6.08004335 4.41605662,6.89798555 4.41605662,6.89798555 C4.41605662,6.89798555 4.40976653,7.67116474 4.13838717,7.71592775 C3.26412497,7.85997688 -6.13668089e-06,9.35181214 -6.13668089e-06,10.9876965 L10.9969255,10.9876965 C10.9969255,9.35181214 7.73280976,7.86039017 6.85854756,7.71592775 C6.58755174,7.67116474 6.58127699,6.89798555 6.58127699,6.89798555 Z" id="Fill-1" fill="#F86756" mask="url(#mask-2)"></path>
                </g>
            </g>
        </g>
    </g>
</svg>