<?xml version="1.0" encoding="UTF-8"?>
<svg width="27px" height="27px" viewBox="0 0 27 27" version="1.1" xmlns="http://www.w3.org/2000/svg" xmlns:xlink="http://www.w3.org/1999/xlink">
    <!-- Generator: Sketch 52.2 (67145) - http://www.bohemiancoding.com/sketch -->
    <title>第三方登录微信</title>
    <desc>Created with Sketch.</desc>
    <g id="慢阻肺专项" stroke="none" stroke-width="1" fill="none" fill-rule="evenodd">
        <g id="慢阻肺项目-通知公告--详情页" transform="translate(-196.000000, -865.000000)" fill="#1BAC69" fill-rule="nonzero">
            <g id="第三方登录微信" transform="translate(196.000000, 864.500000)">
                <path d="M13.4996542,27.5 C6.0436509,27.5 0,21.4556575 0,14.0010375 C0,6.54434255 6.04434255,0.5 13.4989625,0.5 C20.9556575,0.5 27,6.54434255 27,14.0003458 C27,21.4563491 20.9556575,27.5 13.4996542,27.5 Z M22.3901427,16.0559341 C22.3901427,13.704319 20.017778,11.7891359 17.3493865,11.7891359 C14.5219151,11.7891359 12.3024054,13.704319 12.3024054,16.0559341 C12.3024054,18.4137741 14.5226068,20.3220406 17.3493865,20.3220406 C17.9407485,20.3220406 18.5390271,20.1719523 19.1303891,20.029472 L20.7599201,20.914786 L20.3138049,19.4429516 C21.5027538,18.5576376 22.3901427,17.3783718 22.3901427,16.0559341 Z M15.7122474,15.3200169 C15.4169122,15.3200169 15.121577,15.0267567 15.121577,14.7334964 C15.121577,14.4409278 15.4169122,14.1476676 15.7122474,14.1476676 C16.1597459,14.1476676 16.4557727,14.4409278 16.4557727,14.7334964 C16.4557727,15.0267567 16.1597459,15.3200169 15.7122474,15.3200169 Z M18.9796091,15.3200169 C18.6842739,15.3200169 18.3889387,15.0267567 18.3889387,14.7334964 C18.3889387,14.4409278 18.6842739,14.1476676 18.9796091,14.1476676 C19.4257243,14.1476676 19.7217512,14.4409278 19.7217512,14.7334964 C19.7217512,15.0267567 19.4188078,15.3200169 18.9796091,15.3200169 Z M16.8596972,11.2697057 C17.0540513,11.2697057 17.249097,11.2835387 17.4434511,11.3029049 C16.9205625,8.88074135 14.3102697,7.08521403 11.3292517,7.08521403 C7.99964137,7.08521403 5.26830955,9.33377309 5.26830955,12.1944437 C5.26830955,13.8440326 6.17437303,15.2010528 7.69116479,16.2523631 L7.08735302,18.0617235 L9.20795655,17.0041883 C9.96669826,17.1501268 10.5774265,17.3036734 11.3292517,17.3036734 C11.5159976,17.3036734 11.7055102,17.2967569 11.8936394,17.2780823 C11.7696437,16.8701897 11.706257,16.4462906 11.7055102,16.0199682 C11.7055102,13.398609 13.9810436,11.2697057 16.8596972,11.2697057 Z M13.597177,9.63948305 C14.053667,9.63948305 14.3552271,9.93896816 14.3552271,10.3919999 C14.3552271,10.8436483 14.0529754,11.1431334 13.597177,11.1431334 C13.140687,11.1431334 12.684197,10.8436483 12.684197,10.3919999 C12.6911136,9.93896816 13.1476036,9.63948305 13.597177,9.63948305 Z M9.35596998,11.1424418 C8.89947998,11.1424418 8.44298998,10.8429567 8.44298998,10.3913082 C8.44298998,9.93827651 8.89947998,9.63948305 9.35596998,9.63948305 C9.81245997,9.63948305 10.1147117,9.93896816 10.1147117,10.3913082 C10.1147117,10.8367318 9.81245997,11.1424418 9.35596998,11.1424418 Z" id="形状"></path>
            </g>
        </g>
    </g>
</svg>