<?xml version="1.0" encoding="UTF-8"?>
<svg width="356px" height="28px" viewBox="0 0 356 28" version="1.1" xmlns="http://www.w3.org/2000/svg" xmlns:xlink="http://www.w3.org/1999/xlink">
    <!-- Generator: Sketch 52.2 (67145) - http://www.bohemiancoding.com/sketch -->
    <title>分组 8</title>
    <desc>Created with Sketch.</desc>
    <defs>
        <linearGradient x1="50%" y1="0%" x2="50%" y2="100%" id="linearGradient-1">
            <stop stop-color="#FAD961" offset="0%"></stop>
            <stop stop-color="#FF9E67" offset="100%"></stop>
        </linearGradient>
    </defs>
    <g id="慢阻肺专项" stroke="none" stroke-width="1" fill="none" fill-rule="evenodd">
        <g id="慢阻肺项目-科研培训主页" transform="translate(-517.000000, -1026.000000)">
            <g id="分组-8" transform="translate(517.000000, 1020.000000)">
                <text id="项-/-目-/-培-/-训" font-family="PingFangSC-Medium, PingFang SC" font-size="28" font-weight="400" fill="#3260B6">
                    <tspan x="78" y="30">项 / 目 / 培 / 训</tspan>
                </text>
                <g id="时间" transform="translate(40.000000, 11.000000)" fill="url(#linearGradient-1)" fill-rule="nonzero">
                    <path d="M12.782951,9.43922742 C13.2203422,9.45189996 13.5683425,9.81012661 13.5683425,10.2476985 C13.5683425,10.6852704 13.2203422,11.0434971 12.782951,11.0561696 L9.03064362,11.0561696 C8.58421193,11.0561698 8.22220252,10.6944664 8.221828,10.2480378 L8.221828,4.61961331 C8.23450062,4.18222494 8.59272959,3.83422694 9.03030435,3.83422694 C9.46787911,3.83422694 9.82610809,4.18222494 9.83878071,4.61961331 L9.83878071,9.44058449 L12.782951,9.44058449 L12.782951,9.43922742 Z M0.0346053713,9.50029532 C0.0559809648,9.07911178 0.40371144,8.74858358 0.82543978,8.74858358 C1.24716812,8.74858358 1.59489859,9.07911178 1.61627419,9.50029532 C1.61753964,13.2601168 4.27451077,16.4954846 7.96234112,17.2278392 C11.6501715,17.9601937 15.3417913,15.9855725 16.7796242,12.511537 C18.2174571,9.0375016 17.0010632,5.03157926 13.8743169,2.9435553 C10.7475707,0.855531331 6.58127862,1.26692548 3.92329863,3.92615342 L2.78200006,2.78282669 C5.98641219,-0.421891571 11.00839,-0.91678208 14.776714,1.6008083 C18.5450381,4.11839868 20.0101873,8.94729241 18.2761413,13.1343518 C16.5420954,17.3214112 12.0918056,19.7004926 7.64687246,18.8166551 C3.20193926,17.9328177 0.000326982805,14.0322201 -2.27373675e-13,9.50029532 L0.0352839011,9.50029532 L0.0346053713,9.50029532 Z M1.48124541,1.49361553 C1.4807524,1.2224616 1.64285062,0.977432204 1.8925929,0.871818275 C2.14233518,0.766204345 2.43105391,0.820587007 2.62525812,1.00982208 L5.76756111,4.07203783 C5.96182437,4.26362414 6.02136895,4.55345438 5.91837372,4.80611059 C5.81537849,5.05876679 5.570177,5.224369 5.29733524,5.22554255 L2.15231809,5.22554255 C1.7801959,5.22554255 1.47853125,4.92387987 1.47853125,4.55176009 L1.47853125,1.49361553 L1.48124541,1.49361553 Z" id="形状"></path>
                </g>
                <g id="时间-copy" transform="translate(298.000000, 11.000000)" fill="url(#linearGradient-1)" fill-rule="nonzero">
                    <path d="M6.00721948,9.43922742 C5.56982826,9.45189996 5.221828,9.81012661 5.221828,10.2476985 C5.221828,10.6852704 5.56982826,11.0434971 6.00721948,11.0561696 L9.75952688,11.0561696 C10.2059586,11.0561698 10.567968,10.6944664 10.5683425,10.2480378 L10.5683425,4.61961331 C10.5556699,4.18222494 10.1974409,3.83422694 9.75986614,3.83422694 C9.32229138,3.83422694 8.9640624,4.18222494 8.95138978,4.61961331 L8.95138978,9.44058449 L6.00721948,9.44058449 L6.00721948,9.43922742 Z M0.0346053713,9.50029532 C0.0559809648,9.07911178 0.40371144,8.74858358 0.82543978,8.74858358 C1.24716812,8.74858358 1.59489859,9.07911178 1.61627419,9.50029532 C1.61753964,13.2601168 4.27451077,16.4954846 7.96234112,17.2278392 C11.6501715,17.9601937 15.3417913,15.9855725 16.7796242,12.511537 C18.2174571,9.0375016 17.0010632,5.03157926 13.8743169,2.9435553 C10.7475707,0.855531331 6.58127862,1.26692548 3.92329863,3.92615342 L2.78200006,2.78282669 C5.98641219,-0.421891571 11.00839,-0.91678208 14.776714,1.6008083 C18.5450381,4.11839868 20.0101873,8.94729241 18.2761413,13.1343518 C16.5420954,17.3214112 12.0918056,19.7004926 7.64687246,18.8166551 C3.20193926,17.9328177 0.000326982805,14.0322201 0,9.50029532 L0.0352839011,9.50029532 L0.0346053713,9.50029532 Z M1.48124541,1.49361553 C1.4807524,1.2224616 1.64285062,0.977432204 1.8925929,0.871818275 C2.14233518,0.766204345 2.43105391,0.820587007 2.62525812,1.00982208 L5.76756111,4.07203783 C5.96182437,4.26362414 6.02136895,4.55345438 5.91837372,4.80611059 C5.81537849,5.05876679 5.570177,5.224369 5.29733524,5.22554255 L2.15231809,5.22554255 C1.7801959,5.22554255 1.47853125,4.92387987 1.47853125,4.55176009 L1.47853125,1.49361553 L1.48124541,1.49361553 Z" id="形状"></path>
                </g>
                <g id="分组-5" transform="translate(17.000000, 12.000000)" fill="url(#linearGradient-1)" fill-rule="nonzero">
                    <path d="M13.1828532,5.60500048 C13.6202444,5.61767302 13.9682447,5.97589967 13.9682447,6.41347158 C13.9682447,6.85104349 13.6202444,7.20927014 13.1828532,7.22194268 L9.43054582,7.22194268 C8.98411414,7.22194283 8.62210472,6.86023947 8.6217302,6.41381084 L8.6217302,0.785386373 C8.63440282,0.347998003 8.9926318,1.94511074e-13 9.43020656,1.94511074e-13 C9.86778132,1.94511074e-13 10.2260103,0.347998003 10.2386829,0.785386373 L10.2386829,5.60635755 L13.1828532,5.60635755 L13.1828532,5.60500048 Z" id="路径-copy"></path>
                    <path d="M13.9682447,15.4134716 C13.9682447,15.8510435 13.6202444,16.2092701 13.1828532,16.2219427 L9.43054582,16.2219427 C8.98411414,16.2219428 8.62210472,15.8602395 8.6217302,15.4138108 L8.6217302,9.78538637 C8.63440282,9.347998 8.9926318,9 9.43020656,9 C9.86778132,9 10.2260103,9.347998 10.2386829,9.78538637 L10.2386829,14.6063576 L13.1828532,14.6063576 C13.6202444,14.617673 13.9682447,14.9758997 13.9682447,15.4134716 Z" id="路径-copy-4" transform="translate(11.294987, 12.610971) scale(1, -1) translate(-11.294987, -12.610971) "></path>
                    <path d="M5.18285322,5.60500048 C5.62024444,5.61767302 5.96824471,5.97589967 5.96824471,6.41347158 C5.96824471,6.85104349 5.62024444,7.20927014 5.18285322,7.22194268 L1.43054582,7.22194268 C0.984114137,7.22194283 0.622104719,6.86023947 0.6217302,6.41381084 L0.6217302,0.785386373 C0.634402819,0.347998003 0.992631799,1.94511074e-13 1.43020656,1.94511074e-13 C1.86778132,1.94511074e-13 2.2260103,0.347998003 2.23868292,0.785386373 L2.23868292,5.60635755 L5.18285322,5.60635755 L5.18285322,5.60500048 Z" id="路径-copy-3" transform="translate(3.294987, 3.610971) scale(-1, 1) translate(-3.294987, -3.610971) "></path>
                    <path d="M5.18285322,14.6050005 C5.62024444,14.617673 5.96824471,14.9758997 5.96824471,15.4134716 C5.96824471,15.8510435 5.62024444,16.2092701 5.18285322,16.2219427 L1.43054582,16.2219427 C0.984114137,16.2219428 0.622104719,15.8602395 0.6217302,15.4138108 L0.6217302,9.78538637 C0.634402819,9.347998 0.992631799,9 1.43020656,9 C1.86778132,9 2.2260103,9.347998 2.23868292,9.78538637 L2.23868292,14.6063576 L5.18285322,14.6063576 L5.18285322,14.6050005 Z" id="路径-copy-5" transform="translate(3.294987, 12.610971) scale(-1, -1) translate(-3.294987, -12.610971) "></path>
                </g>
                <g id="分组-5-copy-2" opacity="0.632021949" transform="translate(0.000000, 16.000000)" fill="url(#linearGradient-1)" fill-rule="nonzero">
                    <path d="M7.55930645,3.10442812 C7.80473245,3.11144703 8,3.30985716 8,3.55221406 C8,3.79457096 7.80473245,3.99298109 7.55930645,4 L5.45383714,4 C5.20333842,4.00000009 5.00021015,3.79966431 5,3.55240197 L5,0.435000059 C5.00711077,0.192744816 5.20811779,0 5.45364678,0 C5.69917576,0 5.90018278,0.192744816 5.90729355,0.435000059 L5.90729355,3.10517976 L7.55930645,3.10517976 L7.55930645,3.10442812 Z" id="路径-copy"></path>
                    <path d="M8,8.55221406 C8,8.79457096 7.80473245,8.99298109 7.55930645,9 L5.45383714,9 C5.20333842,9.00000009 5.00021015,8.79966431 5,8.55240197 L5,5.43500006 C5.00711077,5.19274482 5.20811779,5 5.45364678,5 C5.69917576,5 5.90018278,5.19274482 5.90729355,5.43500006 L5.90729355,8.10517976 L7.55930645,8.10517976 C7.80473245,8.11144703 8,8.30985716 8,8.55221406 Z" id="路径-copy-4" transform="translate(6.500000, 7.000000) scale(1, -1) translate(-6.500000, -7.000000) "></path>
                    <path d="M2.55930645,3.10442812 C2.80473245,3.11144703 3,3.30985716 3,3.55221406 C3,3.79457096 2.80473245,3.99298109 2.55930645,4 L0.453837143,4 C0.20333842,4.00000009 0.000210147822,3.79966431 0,3.55240197 L0,0.435000059 C0.00711077455,0.192744816 0.208117793,0 0.453646777,0 C0.699175762,0 0.90018278,0.192744816 0.907293555,0.435000059 L0.907293555,3.10517976 L2.55930645,3.10517976 L2.55930645,3.10442812 Z" id="路径-copy-3" transform="translate(1.500000, 2.000000) scale(-1, 1) translate(-1.500000, -2.000000) "></path>
                    <path d="M2.55930645,8.10442812 C2.80473245,8.11144703 3,8.30985716 3,8.55221406 C3,8.79457096 2.80473245,8.99298109 2.55930645,9 L0.453837143,9 C0.20333842,9.00000009 0.000210147822,8.79966431 0,8.55240197 L0,5.43500006 C0.00711077455,5.19274482 0.208117793,5 0.453646777,5 C0.699175762,5 0.90018278,5.19274482 0.907293555,5.43500006 L0.907293555,8.10517976 L2.55930645,8.10517976 L2.55930645,8.10442812 Z" id="路径-copy-5" transform="translate(1.500000, 7.000000) scale(-1, -1) translate(-1.500000, -7.000000) "></path>
                </g>
                <g id="分组-5-copy" transform="translate(324.000000, 12.000000)" fill="url(#linearGradient-1)" fill-rule="nonzero">
                    <path d="M13.1828532,5.60500048 C13.6202444,5.61767302 13.9682447,5.97589967 13.9682447,6.41347158 C13.9682447,6.85104349 13.6202444,7.20927014 13.1828532,7.22194268 L9.43054582,7.22194268 C8.98411414,7.22194283 8.62210472,6.86023947 8.6217302,6.41381084 L8.6217302,0.785386373 C8.63440282,0.347998003 8.9926318,1.94511074e-13 9.43020656,1.94511074e-13 C9.86778132,1.94511074e-13 10.2260103,0.347998003 10.2386829,0.785386373 L10.2386829,5.60635755 L13.1828532,5.60635755 L13.1828532,5.60500048 Z" id="路径-copy"></path>
                    <path d="M13.9682447,15.4134716 C13.9682447,15.8510435 13.6202444,16.2092701 13.1828532,16.2219427 L9.43054582,16.2219427 C8.98411414,16.2219428 8.62210472,15.8602395 8.6217302,15.4138108 L8.6217302,9.78538637 C8.63440282,9.347998 8.9926318,9 9.43020656,9 C9.86778132,9 10.2260103,9.347998 10.2386829,9.78538637 L10.2386829,14.6063576 L13.1828532,14.6063576 C13.6202444,14.617673 13.9682447,14.9758997 13.9682447,15.4134716 Z" id="路径-copy-4" transform="translate(11.294987, 12.610971) scale(1, -1) translate(-11.294987, -12.610971) "></path>
                    <path d="M5.18285322,5.60500048 C5.62024444,5.61767302 5.96824471,5.97589967 5.96824471,6.41347158 C5.96824471,6.85104349 5.62024444,7.20927014 5.18285322,7.22194268 L1.43054582,7.22194268 C0.984114137,7.22194283 0.622104719,6.86023947 0.6217302,6.41381084 L0.6217302,0.785386373 C0.634402819,0.347998003 0.992631799,1.94511074e-13 1.43020656,1.94511074e-13 C1.86778132,1.94511074e-13 2.2260103,0.347998003 2.23868292,0.785386373 L2.23868292,5.60635755 L5.18285322,5.60635755 L5.18285322,5.60500048 Z" id="路径-copy-3" transform="translate(3.294987, 3.610971) scale(-1, 1) translate(-3.294987, -3.610971) "></path>
                    <path d="M5.18285322,14.6050005 C5.62024444,14.617673 5.96824471,14.9758997 5.96824471,15.4134716 C5.96824471,15.8510435 5.62024444,16.2092701 5.18285322,16.2219427 L1.43054582,16.2219427 C0.984114137,16.2219428 0.622104719,15.8602395 0.6217302,15.4138108 L0.6217302,9.78538637 C0.634402819,9.347998 0.992631799,9 1.43020656,9 C1.86778132,9 2.2260103,9.347998 2.23868292,9.78538637 L2.23868292,14.6063576 L5.18285322,14.6063576 L5.18285322,14.6050005 Z" id="路径-copy-5" transform="translate(3.294987, 12.610971) scale(-1, -1) translate(-3.294987, -12.610971) "></path>
                </g>
                <g id="分组-5-copy-3" opacity="0.632021949" transform="translate(348.000000, 16.000000)" fill="url(#linearGradient-1)" fill-rule="nonzero">
                    <path d="M7.55930645,3.10442812 C7.80473245,3.11144703 8,3.30985716 8,3.55221406 C8,3.79457096 7.80473245,3.99298109 7.55930645,4 L5.45383714,4 C5.20333842,4.00000009 5.00021015,3.79966431 5,3.55240197 L5,0.435000059 C5.00711077,0.192744816 5.20811779,0 5.45364678,0 C5.69917576,0 5.90018278,0.192744816 5.90729355,0.435000059 L5.90729355,3.10517976 L7.55930645,3.10517976 L7.55930645,3.10442812 Z" id="路径-copy"></path>
                    <path d="M8,8.55221406 C8,8.79457096 7.80473245,8.99298109 7.55930645,9 L5.45383714,9 C5.20333842,9.00000009 5.00021015,8.79966431 5,8.55240197 L5,5.43500006 C5.00711077,5.19274482 5.20811779,5 5.45364678,5 C5.69917576,5 5.90018278,5.19274482 5.90729355,5.43500006 L5.90729355,8.10517976 L7.55930645,8.10517976 C7.80473245,8.11144703 8,8.30985716 8,8.55221406 Z" id="路径-copy-4" transform="translate(6.500000, 7.000000) scale(1, -1) translate(-6.500000, -7.000000) "></path>
                    <path d="M2.55930645,3.10442812 C2.80473245,3.11144703 3,3.30985716 3,3.55221406 C3,3.79457096 2.80473245,3.99298109 2.55930645,4 L0.453837143,4 C0.20333842,4.00000009 0.000210147822,3.79966431 0,3.55240197 L0,0.435000059 C0.00711077455,0.192744816 0.208117793,0 0.453646777,0 C0.699175762,0 0.90018278,0.192744816 0.907293555,0.435000059 L0.907293555,3.10517976 L2.55930645,3.10517976 L2.55930645,3.10442812 Z" id="路径-copy-3" transform="translate(1.500000, 2.000000) scale(-1, 1) translate(-1.500000, -2.000000) "></path>
                    <path d="M2.55930645,8.10442812 C2.80473245,8.11144703 3,8.30985716 3,8.55221406 C3,8.79457096 2.80473245,8.99298109 2.55930645,9 L0.453837143,9 C0.20333842,9.00000009 0.000210147822,8.79966431 0,8.55240197 L0,5.43500006 C0.00711077455,5.19274482 0.208117793,5 0.453646777,5 C0.699175762,5 0.90018278,5.19274482 0.907293555,5.43500006 L0.907293555,8.10517976 L2.55930645,8.10517976 L2.55930645,8.10442812 Z" id="路径-copy-5" transform="translate(1.500000, 7.000000) scale(-1, -1) translate(-1.500000, -7.000000) "></path>
                </g>
            </g>
        </g>
    </g>
</svg>