<?xml version="1.0" encoding="UTF-8"?>
<svg width="99px" height="60px" viewBox="0 0 99 60" version="1.1" xmlns="http://www.w3.org/2000/svg" xmlns:xlink="http://www.w3.org/1999/xlink">
    <!-- Generator: Sketch 52.2 (67145) - http://www.bohemiancoding.com/sketch -->
    <title>分组</title>
    <desc>Created with Sketch.</desc>
    <g id="8.-其它" stroke="none" stroke-width="1" fill="none" fill-rule="evenodd">
        <g id="UI：关于我们改版" transform="translate(-264.000000, -1097.000000)">
            <g id="分组-13" transform="translate(239.000000, 1045.000000)">
                <g id="分组-8">
                    <g id="分组" transform="translate(25.000000, 52.000000)">
                        <path d="M50.9290305,17.5613571 C54.7629651,9.585344 63.6280102,4 73.9518072,4 C87.7855421,4 99,14.0288216 99,26.4 C99,38.7711784 87.7855421,48.8 73.9518072,48.8 C71.365375,48.8 68.8705026,48.4494312 66.5233646,47.7985293 C60.6945052,55.0423114 48.8500859,60 35.186747,60 C15.7536432,60 0,49.9711784 0,37.6 C0,25.2288216 15.7536432,15.2 35.186747,15.2 C40.8455468,15.2 46.192351,16.0503823 50.9290305,17.5613571 Z" id="合并形状" fill="#FFE8EF" opacity="0.664597284"></path>
                        <g id="视频教程" transform="translate(27.000000, 0.000000)">
                            <path d="M41.1532385,53 L8.84676145,53 C3.94944708,53 0,48.8850932 0,43.7826087 L0,26.5 L50,26.5 L50,43.7826087 C50,48.8850932 46.0505529,53 41.1532385,53 Z" id="路径" fill="#FFE8EF"></path>
                            <path d="M44.6540881,53 L19.4968553,53 C18.8679245,53 18.3176101,52.4203125 18.3176101,51.7578125 C18.3176101,51.0953125 18.8679245,50.515625 19.4968553,50.515625 L44.6540881,50.515625 C46.3050314,50.515625 47.6415094,49.1078125 47.6415094,47.36875 L47.6415094,5.63125 C47.6415094,3.8921875 46.3050314,2.484375 44.6540881,2.484375 L5.34591195,2.484375 C3.69496855,2.484375 2.35849057,3.8921875 2.35849057,5.63125 L2.35849057,47.4515625 C2.35849057,49.1078125 3.69496855,50.515625 5.34591195,50.515625 L7.78301887,50.515625 C8.41194969,50.515625 8.96226415,51.0953125 8.96226415,51.7578125 C8.96226415,52.4203125 8.41194969,53 7.78301887,53 L5.34591195,53 C2.43710692,53 0,50.515625 0,47.36875 L0,5.63125 C-1.30922526e-16,2.484375 2.35849057,0 5.34591195,0 L44.6540881,0 C47.5628931,0 50,2.484375 50,5.63125 L50,47.4515625 C50,50.515625 47.6415094,53 44.6540881,53 Z" id="路径" fill="#FF7761"></path>
                            <path d="M33.0936665,29.8059451 L20.4424014,22.2064936 C19.4208707,21.6344919 18.1636021,22.3699227 18.1636021,23.5956407 L18.1636021,38.7945435 C18.1636021,40.0202615 19.4208707,40.7556923 20.4424014,40.1836906 L33.0936665,32.5842391 C34.1151972,31.9305229 34.1151972,30.3779468 33.0936665,29.8059451 Z M1.19047619,16.4047619 L48.8095238,16.4047619 L48.8095238,18.8561978 L1.19047619,18.8561978 L1.19047619,16.4047619 Z" id="形状" fill="#FF7761" fill-rule="nonzero"></path>
                            <path d="M8.33333333,17.7638892 L16.7782821,1.26190476 L18.8833698,2.40776222 L10.4384211,18.9097466 L8.33333333,17.7638892 Z M29.9253605,17.782714 L38.3711027,1.28072956 L40.4761905,2.42658703 L32.0312417,18.9285714 L29.9253605,17.782714 Z" id="形状" fill="#FF7761" fill-rule="nonzero"></path>
                        </g>
                    </g>
                </g>
            </g>
        </g>
    </g>
</svg>