<?xml version="1.0" encoding="UTF-8"?>
<svg width="48px" height="50px" viewBox="0 0 48 50" version="1.1" xmlns="http://www.w3.org/2000/svg" xmlns:xlink="http://www.w3.org/1999/xlink">
    <!-- Generator: Sketch 43 (38999) - http://www.bohemiancoding.com/sketch -->
    <title>Group 3</title>
    <desc>Created with Sketch.</desc>
    <defs></defs>
    <g id="3.-详情页" stroke="none" stroke-width="1" fill="none" fill-rule="evenodd">
        <g id="UX：评论框（无评论）" transform="translate(-412.000000, -203.000000)" fill="#BCC1CC">
            <g id="Group-3" transform="translate(412.000000, 203.000000)">
                <path d="M29.3940168,36.9696953 L10.2000018,36.9696953 C7.89000127,36.9696953 6.00000198,35.0606051 6.00000198,32.7272713 L6.00000198,10.0579598 L0.376117115,3.58842034 L3.77231023,0.636154707 L43.775661,46.6547456 L40.3794678,49.6070112 L29.3940168,36.9696953 Z M28.2674975,21.9397195 C28.8710815,21.3854055 29.25,20.5858852 29.25,19.6969697 C29.25,18.0233795 27.9068542,16.6666667 26.25,16.6666667 C25.5098643,16.6666667 24.8323294,16.9374002 24.3091613,17.3861745 L11.8297924,3.03030285 L43.8000004,3.03030285 C46.1100001,3.03030285 47.9790002,4.93939387 47.9790002,7.27272691 L47.9995515,44.6388511 L28.2674975,21.9397195 Z M37.5,22.7272727 C39.1568542,22.7272727 40.5,21.3705598 40.5,19.6969697 C40.5,18.0233795 39.1568542,16.6666667 37.5,16.6666667 C35.8431458,16.6666667 34.5,18.0233795 34.5,19.6969697 C34.5,21.3705598 35.8431458,22.7272727 37.5,22.7272727 Z M15,22.7272727 C16.6568542,22.7272727 18,21.3705598 18,19.6969697 C18,18.0233795 16.6568542,16.6666667 15,16.6666667 C13.3431458,16.6666667 12,18.0233795 12,19.6969697 C12,21.3705598 13.3431458,22.7272727 15,22.7272727 Z" id="Combined-Shape"></path>
            </g>
        </g>
    </g>
</svg>