<?xml version="1.0" encoding="UTF-8"?>
<svg width="11px" height="11px" viewBox="0 0 11 11" version="1.1" xmlns="http://www.w3.org/2000/svg" xmlns:xlink="http://www.w3.org/1999/xlink">
    <!-- Generator: Sketch 43 (38999) - http://www.bohemiancoding.com/sketch -->
    <title>Page 1 Copy 3</title>
    <desc>Created with Sketch.</desc>
    <defs>
        <polygon id="path-1" points="0 10.9817513 10.9955079 10.9817513 10.9955079 0 0 0"></polygon>
    </defs>
    <g id="医咖会web-1.1版" stroke="none" stroke-width="1" fill="none" fill-rule="evenodd">
        <g id="后台---研究方法、进展管理" transform="translate(-632.000000, -110.000000)">
            <g id="Page-1-Copy-3" transform="translate(632.000000, 110.000000)">
                <mask id="mask-2" fill="white">
                    <use xlink:href="#path-1"></use>
                </mask>
                <g id="Clip-2"></g>
                <path d="M4.55871963,7.32306667 C2.94730602,7.32306667 1.64101283,6.04356923 1.64101283,4.46521026 C1.64101283,2.88687949 2.94730602,1.60738205 4.55871963,1.60738205 C6.17013325,1.60738205 7.47642644,2.88687949 7.47642644,4.46521026 C7.47642644,6.04356923 6.17013325,7.32306667 4.55871963,7.32306667 M10.7585442,9.67472564 L8.15295524,7.21013333 C8.75671702,6.45276923 9.11744215,5.5005359 9.11744215,4.46521026 C9.11744215,1.99915128 7.07642382,0 4.55871963,0 C2.04101545,0 -2.87958119e-06,1.99915128 -2.87958119e-06,4.46521026 C-2.87958119e-06,6.93126923 2.04101545,8.93042051 4.55871963,8.93042051 C5.45769607,8.93042051 6.29519346,8.67451538 7.00141073,8.23448718 L9.68028508,10.7683795 C9.98860183,11.0600487 10.479916,11.0516436 10.7776935,10.7496231 C11.0754421,10.4476026 11.066861,9.96636667 10.7585442,9.67472564" id="Fill-1" fill="#000000" opacity="0.307518116" mask="url(#mask-2)"></path>
            </g>
        </g>
    </g>
</svg>