<?xml version="1.0" encoding="UTF-8"?>
<svg width="16px" height="16px" viewBox="0 0 16 16" version="1.1" xmlns="http://www.w3.org/2000/svg" xmlns:xlink="http://www.w3.org/1999/xlink">
    <!-- Generator: Sketch 43 (38999) - http://www.bohemiancoding.com/sketch -->
    <title>Page 1 Copy 4</title>
    <desc>Created with Sketch.</desc>
    <defs>
        <polygon id="path-1" points="15.9859499 1.2212703e-05 15.9859499 15.9856828 0 15.9856828 0 1.2212703e-05"></polygon>
    </defs>
    <g id="医咖会web-1.1版" stroke="none" stroke-width="1" fill="none" fill-rule="evenodd" opacity="0.4">
        <g id="后台---标签管理" transform="translate(-264.000000, -141.000000)">
            <g id="Page-1-Copy-4" transform="translate(264.000000, 141.000000)">
                <mask id="mask-2" fill="white">
                    <use xlink:href="#path-1"></use>
                </mask>
                <g id="Clip-2"></g>
                <path d="M10.8869048,5.09863372 C10.2377696,4.4494985 10.2377696,3.39702437 10.8869048,2.74786244 C11.5360401,2.09872721 12.5885142,2.09872721 13.2376494,2.74788915 C13.8868114,3.39702437 13.8868114,4.4494985 13.2376494,5.09863372 C12.5885142,5.74776895 11.5360401,5.74776895 10.8869048,5.09863372 M14.7638197,8.53655025 C14.7816895,8.51787913 14.7992387,8.49907446 14.8165209,8.48016294 C15.6261369,7.59230985 15.7952988,6.40176561 15.9046277,5.2449576 C16.0295826,3.92304775 16.0104841,2.58783573 15.8477863,1.27006611 C15.774571,0.67715793 15.305576,0.210887479 14.7126411,0.137778965 C13.2439265,-0.0433228715 11.7537362,-0.0458871452 10.2844073,0.130166277 C8.8273389,0.304750584 7.85609349,0.773238063 6.83246745,1.83821302 C4.72773289,4.02791586 2.53629382,6.13438664 0.388554257,8.28212621 C-0.131325543,8.80200601 -0.128627713,9.64177896 0.391278798,10.1616588 L5.8238798,15.5942598 C6.34357262,16.1139793 7.18313189,16.1172381 7.70282471,15.5975452 C10.0557596,13.2445836 12.4632922,10.9402898 14.7638197,8.53655025" id="Fill-1" fill="#929292" mask="url(#mask-2)"></path>
            </g>
        </g>
    </g>
</svg>