<svg xmlns="http://www.w3.org/2000/svg" viewBox="0 0 18.58 18.58"><defs><style>.cls-1{fill:#bcc1cc;}.cls-2{fill:#fff;fill-rule:evenodd;}</style></defs><title>资源 3</title><g id="图层_2" data-name="图层 2"><g id="图层_1-2" data-name="图层 1"><circle class="cls-1" cx="9.29" cy="9.29" r="9.29"/><path class="cls-2" d="M7.81,13.1c-.91.15-4.16,1.63-4.48,3.31a9.28,9.28,0,0,0,11.93,0c-.32-1.68-3.58-3.16-4.48-3.31-.3,0-.3-.89-.3-.89a4.34,4.34,0,0,0,1.06-2.09c.51,0,.82-1.28.31-1.73,0-.47.66-3.71-2.56-3.71S6.71,7.91,6.74,8.39c-.51.45-.19,1.73.31,1.73a4.34,4.34,0,0,0,1.06,2.09S8.1,13.05,7.81,13.1Z"/></g></g></svg>